M48
; DRILL file KiCad 10.0.6 date 2026-09-27T08:28:17
; FORMAT={-:-/ absolute / metric / decimal}
; #@! TF.CreationDate,2026-09-27T08:28:17-07:00
; #@! TF.GenerationSoftware,Kicad,Pcbnew,10.0.6
; #@! TF.FileFunction,Plated,1,2,PTH
FMAT,2
METRIC
; #@! TA.AperFunction,Plated,PTH,ViaDrill
T1C0.300
; #@! TA.AperFunction,Plated,PTH,ComponentDrill
T2C0.800
; #@! TA.AperFunction,Plated,PTH,ComponentDrill
T3C0.950
; #@! TA.AperFunction,Plated,PTH,ComponentDrill
T4C1.000
; #@! TA.AperFunction,Plated,PTH,ComponentDrill
T5C1.050
; #@! TA.AperFunction,Plated,PTH,ComponentDrill
T6C1.100
; #@! TA.AperFunction,Plated,PTH,ComponentDrill
T7C1.200
%
G90
G05
T1
X98.527Y-89.382
X119.157Y-54.581
X127.998Y-60.296
T2
X60.5Y-92.38
X60.5Y-100.0
X60.5Y-103.3
X60.5Y-116.0
X63.04Y-92.38
X63.04Y-100.0
X65.58Y-92.38
X65.58Y-100.0
X68.85Y-90.5
X68.85Y-100.66
X72.1Y-92.38
X72.1Y-100.0
X72.1Y-103.3
X72.1Y-116.0
X74.64Y-92.38
X74.64Y-100.0
X77.18Y-92.38
X77.18Y-100.0
X80.45Y-90.5
X80.45Y-100.66
X83.7Y-92.38
X83.7Y-100.0
X83.7Y-103.3
X83.7Y-116.0
X86.24Y-92.38
X86.24Y-100.0
X88.78Y-92.38
X88.78Y-100.0
X92.05Y-90.5
X92.05Y-100.66
X95.3Y-92.38
X95.3Y-100.0
X95.3Y-103.3
X95.3Y-116.0
X97.84Y-92.38
X97.84Y-100.0
X98.5Y-114.5
X100.38Y-92.38
X100.38Y-100.0
X103.7Y-90.5
X103.7Y-100.66
X108.66Y-114.5
X110.0Y-82.2
X112.5Y-82.2
T3
X86.58Y-125.5
X89.08Y-125.5
X91.58Y-125.5
X104.58Y-125.5
X107.08Y-125.5
X109.58Y-125.5
T4
X52.5Y-54.45
X52.5Y-79.85
X55.04Y-54.45
X55.04Y-79.85
X57.58Y-54.45
X57.58Y-79.85
X60.12Y-54.45
X60.12Y-79.85
X62.66Y-54.45
X62.66Y-79.85
X65.2Y-54.45
X65.2Y-79.85
X67.74Y-54.45
X67.74Y-79.85
X70.28Y-54.45
X70.28Y-79.85
X72.82Y-54.45
X72.82Y-79.85
X75.36Y-54.45
X75.36Y-79.85
X77.9Y-54.45
X77.9Y-79.85
X80.44Y-54.45
X80.44Y-79.85
X82.98Y-54.45
X82.98Y-79.85
X85.52Y-54.45
X85.52Y-79.85
X88.06Y-54.45
X88.06Y-79.85
X107.75Y-86.125
X107.75Y-103.875
X126.0Y-78.0
X131.0Y-78.0
X147.25Y-86.125
X147.25Y-103.875
T5
X110.0Y-65.5
X115.0Y-65.5
X125.0Y-65.5
X130.0Y-65.5
T6
X110.34Y-72.5
X120.5Y-72.5
T7
X60.5Y-121.46
X65.58Y-121.46
X70.66Y-121.46
X75.74Y-121.46
X121.0Y-121.46
X126.08Y-121.46
X131.16Y-121.46
X134.92Y-58.54
X136.24Y-121.46
X140.0Y-58.54
M30
