%TF.GenerationSoftware,KiCad,Pcbnew,10.0.6*%
%TF.CreationDate,2026-09-27T08:28:17-07:00*%
%TF.ProjectId,indoor-carrier,696e646f-6f72-42d6-9361-72726965722e,A*%
%TF.SameCoordinates,Original*%
%TF.FileFunction,Drillmap*%
%TF.FilePolarity,Positive*%
%FSLAX45Y45*%
G04 Gerber Fmt 4.5, Leading zero omitted, Abs format (unit mm)*
G04 Created by KiCad (PCBNEW 10.0.6) date 2026-09-27 08:28:17*
%MOMM*%
%LPD*%
G01*
G04 APERTURE LIST*
%ADD10C,0.100000*%
%ADD11C,0.200000*%
%ADD12C,0.320000*%
G04 APERTURE END LIST*
D10*
X5000000Y-5200000D02*
G75*
G02*
X5200000Y-5000000I200000J0D01*
G01*
X5000000Y-12800000D02*
X5000000Y-5200000D01*
X5200000Y-5000000D02*
X14800000Y-5000000D01*
X5200000Y-13000000D02*
G75*
G02*
X5000000Y-12800000I0J200000D01*
G01*
X14800000Y-5000000D02*
G75*
G02*
X15000000Y-5200000I0J-200000D01*
G01*
X14800000Y-13000000D02*
X5200000Y-13000000D01*
X15000000Y-5200000D02*
X15000000Y-12800000D01*
X15000000Y-12800000D02*
G75*
G02*
X14800000Y-13000000I-200000J0D01*
G01*
D11*
D12*
X5190000Y-8540000D02*
X5510000Y-8860000D01*
X5510000Y-8540000D02*
X5190000Y-8860000D01*
X5190000Y-12490000D02*
X5510000Y-12810000D01*
X5510000Y-12490000D02*
X5190000Y-12810000D01*
X14490000Y-5190000D02*
X14810000Y-5510000D01*
X14810000Y-5190000D02*
X14490000Y-5510000D01*
X14490000Y-12490000D02*
X14810000Y-12810000D01*
X14810000Y-12490000D02*
X14490000Y-12810000D01*
D11*
X5255777Y-13316484D02*
X5255777Y-13116484D01*
X5255777Y-13116484D02*
X5303396Y-13116484D01*
X5303396Y-13116484D02*
X5331967Y-13126008D01*
X5331967Y-13126008D02*
X5351015Y-13145055D01*
X5351015Y-13145055D02*
X5360539Y-13164103D01*
X5360539Y-13164103D02*
X5370063Y-13202198D01*
X5370063Y-13202198D02*
X5370063Y-13230769D01*
X5370063Y-13230769D02*
X5360539Y-13268865D01*
X5360539Y-13268865D02*
X5351015Y-13287912D01*
X5351015Y-13287912D02*
X5331967Y-13306960D01*
X5331967Y-13306960D02*
X5303396Y-13316484D01*
X5303396Y-13316484D02*
X5255777Y-13316484D01*
X5455777Y-13316484D02*
X5455777Y-13183150D01*
X5455777Y-13221246D02*
X5465301Y-13202198D01*
X5465301Y-13202198D02*
X5474824Y-13192674D01*
X5474824Y-13192674D02*
X5493872Y-13183150D01*
X5493872Y-13183150D02*
X5512920Y-13183150D01*
X5579586Y-13316484D02*
X5579586Y-13183150D01*
X5579586Y-13116484D02*
X5570063Y-13126008D01*
X5570063Y-13126008D02*
X5579586Y-13135531D01*
X5579586Y-13135531D02*
X5589110Y-13126008D01*
X5589110Y-13126008D02*
X5579586Y-13116484D01*
X5579586Y-13116484D02*
X5579586Y-13135531D01*
X5703396Y-13316484D02*
X5684348Y-13306960D01*
X5684348Y-13306960D02*
X5674824Y-13287912D01*
X5674824Y-13287912D02*
X5674824Y-13116484D01*
X5808158Y-13316484D02*
X5789110Y-13306960D01*
X5789110Y-13306960D02*
X5779586Y-13287912D01*
X5779586Y-13287912D02*
X5779586Y-13116484D01*
X6036729Y-13316484D02*
X6036729Y-13116484D01*
X6036729Y-13116484D02*
X6103396Y-13259341D01*
X6103396Y-13259341D02*
X6170062Y-13116484D01*
X6170062Y-13116484D02*
X6170062Y-13316484D01*
X6351015Y-13316484D02*
X6351015Y-13211722D01*
X6351015Y-13211722D02*
X6341491Y-13192674D01*
X6341491Y-13192674D02*
X6322443Y-13183150D01*
X6322443Y-13183150D02*
X6284348Y-13183150D01*
X6284348Y-13183150D02*
X6265301Y-13192674D01*
X6351015Y-13306960D02*
X6331967Y-13316484D01*
X6331967Y-13316484D02*
X6284348Y-13316484D01*
X6284348Y-13316484D02*
X6265301Y-13306960D01*
X6265301Y-13306960D02*
X6255777Y-13287912D01*
X6255777Y-13287912D02*
X6255777Y-13268865D01*
X6255777Y-13268865D02*
X6265301Y-13249817D01*
X6265301Y-13249817D02*
X6284348Y-13240293D01*
X6284348Y-13240293D02*
X6331967Y-13240293D01*
X6331967Y-13240293D02*
X6351015Y-13230769D01*
X6446253Y-13183150D02*
X6446253Y-13383150D01*
X6446253Y-13192674D02*
X6465301Y-13183150D01*
X6465301Y-13183150D02*
X6503396Y-13183150D01*
X6503396Y-13183150D02*
X6522443Y-13192674D01*
X6522443Y-13192674D02*
X6531967Y-13202198D01*
X6531967Y-13202198D02*
X6541491Y-13221246D01*
X6541491Y-13221246D02*
X6541491Y-13278388D01*
X6541491Y-13278388D02*
X6531967Y-13297436D01*
X6531967Y-13297436D02*
X6522443Y-13306960D01*
X6522443Y-13306960D02*
X6503396Y-13316484D01*
X6503396Y-13316484D02*
X6465301Y-13316484D01*
X6465301Y-13316484D02*
X6446253Y-13306960D01*
X6627205Y-13297436D02*
X6636729Y-13306960D01*
X6636729Y-13306960D02*
X6627205Y-13316484D01*
X6627205Y-13316484D02*
X6617682Y-13306960D01*
X6617682Y-13306960D02*
X6627205Y-13297436D01*
X6627205Y-13297436D02*
X6627205Y-13316484D01*
X6627205Y-13192674D02*
X6636729Y-13202198D01*
X6636729Y-13202198D02*
X6627205Y-13211722D01*
X6627205Y-13211722D02*
X6617682Y-13202198D01*
X6617682Y-13202198D02*
X6627205Y-13192674D01*
X6627205Y-13192674D02*
X6627205Y-13211722D01*
X4795000Y-13545000D02*
X4995000Y-13745000D01*
X4995000Y-13545000D02*
X4795000Y-13745000D01*
X5236729Y-13536484D02*
X5360539Y-13536484D01*
X5360539Y-13536484D02*
X5293872Y-13612674D01*
X5293872Y-13612674D02*
X5322444Y-13612674D01*
X5322444Y-13612674D02*
X5341491Y-13622198D01*
X5341491Y-13622198D02*
X5351015Y-13631722D01*
X5351015Y-13631722D02*
X5360539Y-13650769D01*
X5360539Y-13650769D02*
X5360539Y-13698388D01*
X5360539Y-13698388D02*
X5351015Y-13717436D01*
X5351015Y-13717436D02*
X5341491Y-13726960D01*
X5341491Y-13726960D02*
X5322444Y-13736484D01*
X5322444Y-13736484D02*
X5265301Y-13736484D01*
X5265301Y-13736484D02*
X5246253Y-13726960D01*
X5246253Y-13726960D02*
X5236729Y-13717436D01*
X5446253Y-13717436D02*
X5455777Y-13726960D01*
X5455777Y-13726960D02*
X5446253Y-13736484D01*
X5446253Y-13736484D02*
X5436729Y-13726960D01*
X5436729Y-13726960D02*
X5446253Y-13717436D01*
X5446253Y-13717436D02*
X5446253Y-13736484D01*
X5531967Y-13555531D02*
X5541491Y-13546008D01*
X5541491Y-13546008D02*
X5560539Y-13536484D01*
X5560539Y-13536484D02*
X5608158Y-13536484D01*
X5608158Y-13536484D02*
X5627205Y-13546008D01*
X5627205Y-13546008D02*
X5636729Y-13555531D01*
X5636729Y-13555531D02*
X5646253Y-13574579D01*
X5646253Y-13574579D02*
X5646253Y-13593627D01*
X5646253Y-13593627D02*
X5636729Y-13622198D01*
X5636729Y-13622198D02*
X5522444Y-13736484D01*
X5522444Y-13736484D02*
X5646253Y-13736484D01*
X5770062Y-13536484D02*
X5789110Y-13536484D01*
X5789110Y-13536484D02*
X5808158Y-13546008D01*
X5808158Y-13546008D02*
X5817682Y-13555531D01*
X5817682Y-13555531D02*
X5827205Y-13574579D01*
X5827205Y-13574579D02*
X5836729Y-13612674D01*
X5836729Y-13612674D02*
X5836729Y-13660293D01*
X5836729Y-13660293D02*
X5827205Y-13698388D01*
X5827205Y-13698388D02*
X5817682Y-13717436D01*
X5817682Y-13717436D02*
X5808158Y-13726960D01*
X5808158Y-13726960D02*
X5789110Y-13736484D01*
X5789110Y-13736484D02*
X5770062Y-13736484D01*
X5770062Y-13736484D02*
X5751015Y-13726960D01*
X5751015Y-13726960D02*
X5741491Y-13717436D01*
X5741491Y-13717436D02*
X5731967Y-13698388D01*
X5731967Y-13698388D02*
X5722443Y-13660293D01*
X5722443Y-13660293D02*
X5722443Y-13612674D01*
X5722443Y-13612674D02*
X5731967Y-13574579D01*
X5731967Y-13574579D02*
X5741491Y-13555531D01*
X5741491Y-13555531D02*
X5751015Y-13546008D01*
X5751015Y-13546008D02*
X5770062Y-13536484D01*
X5960539Y-13536484D02*
X5979586Y-13536484D01*
X5979586Y-13536484D02*
X5998634Y-13546008D01*
X5998634Y-13546008D02*
X6008158Y-13555531D01*
X6008158Y-13555531D02*
X6017682Y-13574579D01*
X6017682Y-13574579D02*
X6027205Y-13612674D01*
X6027205Y-13612674D02*
X6027205Y-13660293D01*
X6027205Y-13660293D02*
X6017682Y-13698388D01*
X6017682Y-13698388D02*
X6008158Y-13717436D01*
X6008158Y-13717436D02*
X5998634Y-13726960D01*
X5998634Y-13726960D02*
X5979586Y-13736484D01*
X5979586Y-13736484D02*
X5960539Y-13736484D01*
X5960539Y-13736484D02*
X5941491Y-13726960D01*
X5941491Y-13726960D02*
X5931967Y-13717436D01*
X5931967Y-13717436D02*
X5922443Y-13698388D01*
X5922443Y-13698388D02*
X5912920Y-13660293D01*
X5912920Y-13660293D02*
X5912920Y-13612674D01*
X5912920Y-13612674D02*
X5922443Y-13574579D01*
X5922443Y-13574579D02*
X5931967Y-13555531D01*
X5931967Y-13555531D02*
X5941491Y-13546008D01*
X5941491Y-13546008D02*
X5960539Y-13536484D01*
X6112920Y-13736484D02*
X6112920Y-13603150D01*
X6112920Y-13622198D02*
X6122443Y-13612674D01*
X6122443Y-13612674D02*
X6141491Y-13603150D01*
X6141491Y-13603150D02*
X6170063Y-13603150D01*
X6170063Y-13603150D02*
X6189110Y-13612674D01*
X6189110Y-13612674D02*
X6198634Y-13631722D01*
X6198634Y-13631722D02*
X6198634Y-13736484D01*
X6198634Y-13631722D02*
X6208158Y-13612674D01*
X6208158Y-13612674D02*
X6227205Y-13603150D01*
X6227205Y-13603150D02*
X6255777Y-13603150D01*
X6255777Y-13603150D02*
X6274824Y-13612674D01*
X6274824Y-13612674D02*
X6284348Y-13631722D01*
X6284348Y-13631722D02*
X6284348Y-13736484D01*
X6379586Y-13736484D02*
X6379586Y-13603150D01*
X6379586Y-13622198D02*
X6389110Y-13612674D01*
X6389110Y-13612674D02*
X6408158Y-13603150D01*
X6408158Y-13603150D02*
X6436729Y-13603150D01*
X6436729Y-13603150D02*
X6455777Y-13612674D01*
X6455777Y-13612674D02*
X6465301Y-13631722D01*
X6465301Y-13631722D02*
X6465301Y-13736484D01*
X6465301Y-13631722D02*
X6474824Y-13612674D01*
X6474824Y-13612674D02*
X6493872Y-13603150D01*
X6493872Y-13603150D02*
X6522443Y-13603150D01*
X6522443Y-13603150D02*
X6541491Y-13612674D01*
X6541491Y-13612674D02*
X6551015Y-13631722D01*
X6551015Y-13631722D02*
X6551015Y-13736484D01*
X6941491Y-13526960D02*
X6770063Y-13784103D01*
X7198634Y-13536484D02*
X7217682Y-13536484D01*
X7217682Y-13536484D02*
X7236729Y-13546008D01*
X7236729Y-13546008D02*
X7246253Y-13555531D01*
X7246253Y-13555531D02*
X7255777Y-13574579D01*
X7255777Y-13574579D02*
X7265301Y-13612674D01*
X7265301Y-13612674D02*
X7265301Y-13660293D01*
X7265301Y-13660293D02*
X7255777Y-13698388D01*
X7255777Y-13698388D02*
X7246253Y-13717436D01*
X7246253Y-13717436D02*
X7236729Y-13726960D01*
X7236729Y-13726960D02*
X7217682Y-13736484D01*
X7217682Y-13736484D02*
X7198634Y-13736484D01*
X7198634Y-13736484D02*
X7179586Y-13726960D01*
X7179586Y-13726960D02*
X7170063Y-13717436D01*
X7170063Y-13717436D02*
X7160539Y-13698388D01*
X7160539Y-13698388D02*
X7151015Y-13660293D01*
X7151015Y-13660293D02*
X7151015Y-13612674D01*
X7151015Y-13612674D02*
X7160539Y-13574579D01*
X7160539Y-13574579D02*
X7170063Y-13555531D01*
X7170063Y-13555531D02*
X7179586Y-13546008D01*
X7179586Y-13546008D02*
X7198634Y-13536484D01*
X7351015Y-13717436D02*
X7360539Y-13726960D01*
X7360539Y-13726960D02*
X7351015Y-13736484D01*
X7351015Y-13736484D02*
X7341491Y-13726960D01*
X7341491Y-13726960D02*
X7351015Y-13717436D01*
X7351015Y-13717436D02*
X7351015Y-13736484D01*
X7551015Y-13736484D02*
X7436729Y-13736484D01*
X7493872Y-13736484D02*
X7493872Y-13536484D01*
X7493872Y-13536484D02*
X7474825Y-13565055D01*
X7474825Y-13565055D02*
X7455777Y-13584103D01*
X7455777Y-13584103D02*
X7436729Y-13593627D01*
X7627206Y-13555531D02*
X7636729Y-13546008D01*
X7636729Y-13546008D02*
X7655777Y-13536484D01*
X7655777Y-13536484D02*
X7703396Y-13536484D01*
X7703396Y-13536484D02*
X7722444Y-13546008D01*
X7722444Y-13546008D02*
X7731967Y-13555531D01*
X7731967Y-13555531D02*
X7741491Y-13574579D01*
X7741491Y-13574579D02*
X7741491Y-13593627D01*
X7741491Y-13593627D02*
X7731967Y-13622198D01*
X7731967Y-13622198D02*
X7617682Y-13736484D01*
X7617682Y-13736484D02*
X7741491Y-13736484D01*
X7912920Y-13536484D02*
X7874825Y-13536484D01*
X7874825Y-13536484D02*
X7855777Y-13546008D01*
X7855777Y-13546008D02*
X7846253Y-13555531D01*
X7846253Y-13555531D02*
X7827206Y-13584103D01*
X7827206Y-13584103D02*
X7817682Y-13622198D01*
X7817682Y-13622198D02*
X7817682Y-13698388D01*
X7817682Y-13698388D02*
X7827206Y-13717436D01*
X7827206Y-13717436D02*
X7836729Y-13726960D01*
X7836729Y-13726960D02*
X7855777Y-13736484D01*
X7855777Y-13736484D02*
X7893872Y-13736484D01*
X7893872Y-13736484D02*
X7912920Y-13726960D01*
X7912920Y-13726960D02*
X7922444Y-13717436D01*
X7922444Y-13717436D02*
X7931967Y-13698388D01*
X7931967Y-13698388D02*
X7931967Y-13650769D01*
X7931967Y-13650769D02*
X7922444Y-13631722D01*
X7922444Y-13631722D02*
X7912920Y-13622198D01*
X7912920Y-13622198D02*
X7893872Y-13612674D01*
X7893872Y-13612674D02*
X7855777Y-13612674D01*
X7855777Y-13612674D02*
X7836729Y-13622198D01*
X7836729Y-13622198D02*
X7827206Y-13631722D01*
X7827206Y-13631722D02*
X7817682Y-13650769D01*
X8055777Y-13536484D02*
X8074825Y-13536484D01*
X8074825Y-13536484D02*
X8093872Y-13546008D01*
X8093872Y-13546008D02*
X8103396Y-13555531D01*
X8103396Y-13555531D02*
X8112920Y-13574579D01*
X8112920Y-13574579D02*
X8122444Y-13612674D01*
X8122444Y-13612674D02*
X8122444Y-13660293D01*
X8122444Y-13660293D02*
X8112920Y-13698388D01*
X8112920Y-13698388D02*
X8103396Y-13717436D01*
X8103396Y-13717436D02*
X8093872Y-13726960D01*
X8093872Y-13726960D02*
X8074825Y-13736484D01*
X8074825Y-13736484D02*
X8055777Y-13736484D01*
X8055777Y-13736484D02*
X8036729Y-13726960D01*
X8036729Y-13726960D02*
X8027206Y-13717436D01*
X8027206Y-13717436D02*
X8017682Y-13698388D01*
X8017682Y-13698388D02*
X8008158Y-13660293D01*
X8008158Y-13660293D02*
X8008158Y-13612674D01*
X8008158Y-13612674D02*
X8017682Y-13574579D01*
X8017682Y-13574579D02*
X8027206Y-13555531D01*
X8027206Y-13555531D02*
X8036729Y-13546008D01*
X8036729Y-13546008D02*
X8055777Y-13536484D01*
X8198634Y-13536484D02*
X8198634Y-13574579D01*
X8274825Y-13536484D02*
X8274825Y-13574579D01*
X8570063Y-13812674D02*
X8560539Y-13803150D01*
X8560539Y-13803150D02*
X8541491Y-13774579D01*
X8541491Y-13774579D02*
X8531968Y-13755531D01*
X8531968Y-13755531D02*
X8522444Y-13726960D01*
X8522444Y-13726960D02*
X8512920Y-13679341D01*
X8512920Y-13679341D02*
X8512920Y-13641246D01*
X8512920Y-13641246D02*
X8522444Y-13593627D01*
X8522444Y-13593627D02*
X8531968Y-13565055D01*
X8531968Y-13565055D02*
X8541491Y-13546008D01*
X8541491Y-13546008D02*
X8560539Y-13517436D01*
X8560539Y-13517436D02*
X8570063Y-13507912D01*
X8731968Y-13603150D02*
X8731968Y-13736484D01*
X8684349Y-13526960D02*
X8636730Y-13669817D01*
X8636730Y-13669817D02*
X8760539Y-13669817D01*
X8989111Y-13736484D02*
X8989111Y-13536484D01*
X9074825Y-13736484D02*
X9074825Y-13631722D01*
X9074825Y-13631722D02*
X9065301Y-13612674D01*
X9065301Y-13612674D02*
X9046253Y-13603150D01*
X9046253Y-13603150D02*
X9017682Y-13603150D01*
X9017682Y-13603150D02*
X8998634Y-13612674D01*
X8998634Y-13612674D02*
X8989111Y-13622198D01*
X9198634Y-13736484D02*
X9179587Y-13726960D01*
X9179587Y-13726960D02*
X9170063Y-13717436D01*
X9170063Y-13717436D02*
X9160539Y-13698388D01*
X9160539Y-13698388D02*
X9160539Y-13641246D01*
X9160539Y-13641246D02*
X9170063Y-13622198D01*
X9170063Y-13622198D02*
X9179587Y-13612674D01*
X9179587Y-13612674D02*
X9198634Y-13603150D01*
X9198634Y-13603150D02*
X9227206Y-13603150D01*
X9227206Y-13603150D02*
X9246253Y-13612674D01*
X9246253Y-13612674D02*
X9255777Y-13622198D01*
X9255777Y-13622198D02*
X9265301Y-13641246D01*
X9265301Y-13641246D02*
X9265301Y-13698388D01*
X9265301Y-13698388D02*
X9255777Y-13717436D01*
X9255777Y-13717436D02*
X9246253Y-13726960D01*
X9246253Y-13726960D02*
X9227206Y-13736484D01*
X9227206Y-13736484D02*
X9198634Y-13736484D01*
X9379587Y-13736484D02*
X9360539Y-13726960D01*
X9360539Y-13726960D02*
X9351015Y-13707912D01*
X9351015Y-13707912D02*
X9351015Y-13536484D01*
X9531968Y-13726960D02*
X9512920Y-13736484D01*
X9512920Y-13736484D02*
X9474825Y-13736484D01*
X9474825Y-13736484D02*
X9455777Y-13726960D01*
X9455777Y-13726960D02*
X9446253Y-13707912D01*
X9446253Y-13707912D02*
X9446253Y-13631722D01*
X9446253Y-13631722D02*
X9455777Y-13612674D01*
X9455777Y-13612674D02*
X9474825Y-13603150D01*
X9474825Y-13603150D02*
X9512920Y-13603150D01*
X9512920Y-13603150D02*
X9531968Y-13612674D01*
X9531968Y-13612674D02*
X9541492Y-13631722D01*
X9541492Y-13631722D02*
X9541492Y-13650769D01*
X9541492Y-13650769D02*
X9446253Y-13669817D01*
X9617682Y-13726960D02*
X9636730Y-13736484D01*
X9636730Y-13736484D02*
X9674825Y-13736484D01*
X9674825Y-13736484D02*
X9693873Y-13726960D01*
X9693873Y-13726960D02*
X9703396Y-13707912D01*
X9703396Y-13707912D02*
X9703396Y-13698388D01*
X9703396Y-13698388D02*
X9693873Y-13679341D01*
X9693873Y-13679341D02*
X9674825Y-13669817D01*
X9674825Y-13669817D02*
X9646253Y-13669817D01*
X9646253Y-13669817D02*
X9627206Y-13660293D01*
X9627206Y-13660293D02*
X9617682Y-13641246D01*
X9617682Y-13641246D02*
X9617682Y-13631722D01*
X9617682Y-13631722D02*
X9627206Y-13612674D01*
X9627206Y-13612674D02*
X9646253Y-13603150D01*
X9646253Y-13603150D02*
X9674825Y-13603150D01*
X9674825Y-13603150D02*
X9693873Y-13612674D01*
X9770063Y-13812674D02*
X9779587Y-13803150D01*
X9779587Y-13803150D02*
X9798634Y-13774579D01*
X9798634Y-13774579D02*
X9808158Y-13755531D01*
X9808158Y-13755531D02*
X9817682Y-13726960D01*
X9817682Y-13726960D02*
X9827206Y-13679341D01*
X9827206Y-13679341D02*
X9827206Y-13641246D01*
X9827206Y-13641246D02*
X9817682Y-13593627D01*
X9817682Y-13593627D02*
X9808158Y-13565055D01*
X9808158Y-13565055D02*
X9798634Y-13546008D01*
X9798634Y-13546008D02*
X9779587Y-13517436D01*
X9779587Y-13517436D02*
X9770063Y-13507912D01*
X10131968Y-13812674D02*
X10122444Y-13803150D01*
X10122444Y-13803150D02*
X10103396Y-13774579D01*
X10103396Y-13774579D02*
X10093873Y-13755531D01*
X10093873Y-13755531D02*
X10084349Y-13726960D01*
X10084349Y-13726960D02*
X10074825Y-13679341D01*
X10074825Y-13679341D02*
X10074825Y-13641246D01*
X10074825Y-13641246D02*
X10084349Y-13593627D01*
X10084349Y-13593627D02*
X10093873Y-13565055D01*
X10093873Y-13565055D02*
X10103396Y-13546008D01*
X10103396Y-13546008D02*
X10122444Y-13517436D01*
X10122444Y-13517436D02*
X10131968Y-13507912D01*
X10208158Y-13603150D02*
X10208158Y-13736484D01*
X10208158Y-13622198D02*
X10217682Y-13612674D01*
X10217682Y-13612674D02*
X10236730Y-13603150D01*
X10236730Y-13603150D02*
X10265301Y-13603150D01*
X10265301Y-13603150D02*
X10284349Y-13612674D01*
X10284349Y-13612674D02*
X10293873Y-13631722D01*
X10293873Y-13631722D02*
X10293873Y-13736484D01*
X10417682Y-13736484D02*
X10398634Y-13726960D01*
X10398634Y-13726960D02*
X10389111Y-13717436D01*
X10389111Y-13717436D02*
X10379587Y-13698388D01*
X10379587Y-13698388D02*
X10379587Y-13641246D01*
X10379587Y-13641246D02*
X10389111Y-13622198D01*
X10389111Y-13622198D02*
X10398634Y-13612674D01*
X10398634Y-13612674D02*
X10417682Y-13603150D01*
X10417682Y-13603150D02*
X10446254Y-13603150D01*
X10446254Y-13603150D02*
X10465301Y-13612674D01*
X10465301Y-13612674D02*
X10474825Y-13622198D01*
X10474825Y-13622198D02*
X10484349Y-13641246D01*
X10484349Y-13641246D02*
X10484349Y-13698388D01*
X10484349Y-13698388D02*
X10474825Y-13717436D01*
X10474825Y-13717436D02*
X10465301Y-13726960D01*
X10465301Y-13726960D02*
X10446254Y-13736484D01*
X10446254Y-13736484D02*
X10417682Y-13736484D01*
X10541492Y-13603150D02*
X10617682Y-13603150D01*
X10570063Y-13536484D02*
X10570063Y-13707912D01*
X10570063Y-13707912D02*
X10579587Y-13726960D01*
X10579587Y-13726960D02*
X10598634Y-13736484D01*
X10598634Y-13736484D02*
X10617682Y-13736484D01*
X10836730Y-13603150D02*
X10836730Y-13803150D01*
X10836730Y-13612674D02*
X10855777Y-13603150D01*
X10855777Y-13603150D02*
X10893873Y-13603150D01*
X10893873Y-13603150D02*
X10912920Y-13612674D01*
X10912920Y-13612674D02*
X10922444Y-13622198D01*
X10922444Y-13622198D02*
X10931968Y-13641246D01*
X10931968Y-13641246D02*
X10931968Y-13698388D01*
X10931968Y-13698388D02*
X10922444Y-13717436D01*
X10922444Y-13717436D02*
X10912920Y-13726960D01*
X10912920Y-13726960D02*
X10893873Y-13736484D01*
X10893873Y-13736484D02*
X10855777Y-13736484D01*
X10855777Y-13736484D02*
X10836730Y-13726960D01*
X11046254Y-13736484D02*
X11027206Y-13726960D01*
X11027206Y-13726960D02*
X11017682Y-13707912D01*
X11017682Y-13707912D02*
X11017682Y-13536484D01*
X11208158Y-13736484D02*
X11208158Y-13631722D01*
X11208158Y-13631722D02*
X11198634Y-13612674D01*
X11198634Y-13612674D02*
X11179587Y-13603150D01*
X11179587Y-13603150D02*
X11141492Y-13603150D01*
X11141492Y-13603150D02*
X11122444Y-13612674D01*
X11208158Y-13726960D02*
X11189111Y-13736484D01*
X11189111Y-13736484D02*
X11141492Y-13736484D01*
X11141492Y-13736484D02*
X11122444Y-13726960D01*
X11122444Y-13726960D02*
X11112920Y-13707912D01*
X11112920Y-13707912D02*
X11112920Y-13688865D01*
X11112920Y-13688865D02*
X11122444Y-13669817D01*
X11122444Y-13669817D02*
X11141492Y-13660293D01*
X11141492Y-13660293D02*
X11189111Y-13660293D01*
X11189111Y-13660293D02*
X11208158Y-13650769D01*
X11274825Y-13603150D02*
X11351015Y-13603150D01*
X11303396Y-13536484D02*
X11303396Y-13707912D01*
X11303396Y-13707912D02*
X11312920Y-13726960D01*
X11312920Y-13726960D02*
X11331968Y-13736484D01*
X11331968Y-13736484D02*
X11351015Y-13736484D01*
X11493873Y-13726960D02*
X11474825Y-13736484D01*
X11474825Y-13736484D02*
X11436730Y-13736484D01*
X11436730Y-13736484D02*
X11417682Y-13726960D01*
X11417682Y-13726960D02*
X11408158Y-13707912D01*
X11408158Y-13707912D02*
X11408158Y-13631722D01*
X11408158Y-13631722D02*
X11417682Y-13612674D01*
X11417682Y-13612674D02*
X11436730Y-13603150D01*
X11436730Y-13603150D02*
X11474825Y-13603150D01*
X11474825Y-13603150D02*
X11493873Y-13612674D01*
X11493873Y-13612674D02*
X11503396Y-13631722D01*
X11503396Y-13631722D02*
X11503396Y-13650769D01*
X11503396Y-13650769D02*
X11408158Y-13669817D01*
X11674825Y-13736484D02*
X11674825Y-13536484D01*
X11674825Y-13726960D02*
X11655777Y-13736484D01*
X11655777Y-13736484D02*
X11617682Y-13736484D01*
X11617682Y-13736484D02*
X11598634Y-13726960D01*
X11598634Y-13726960D02*
X11589111Y-13717436D01*
X11589111Y-13717436D02*
X11579587Y-13698388D01*
X11579587Y-13698388D02*
X11579587Y-13641246D01*
X11579587Y-13641246D02*
X11589111Y-13622198D01*
X11589111Y-13622198D02*
X11598634Y-13612674D01*
X11598634Y-13612674D02*
X11617682Y-13603150D01*
X11617682Y-13603150D02*
X11655777Y-13603150D01*
X11655777Y-13603150D02*
X11674825Y-13612674D01*
X11751015Y-13812674D02*
X11760539Y-13803150D01*
X11760539Y-13803150D02*
X11779587Y-13774579D01*
X11779587Y-13774579D02*
X11789111Y-13755531D01*
X11789111Y-13755531D02*
X11798634Y-13726960D01*
X11798634Y-13726960D02*
X11808158Y-13679341D01*
X11808158Y-13679341D02*
X11808158Y-13641246D01*
X11808158Y-13641246D02*
X11798634Y-13593627D01*
X11798634Y-13593627D02*
X11789111Y-13565055D01*
X11789111Y-13565055D02*
X11779587Y-13546008D01*
X11779587Y-13546008D02*
X11760539Y-13517436D01*
X11760539Y-13517436D02*
X11751015Y-13507912D01*
M02*
