G04 #@! TF.GenerationSoftware,KiCad,Pcbnew,10.0.6*
G04 #@! TF.CreationDate,2026-09-27T08:28:16-07:00*
G04 #@! TF.ProjectId,indoor-carrier,696e646f-6f72-42d6-9361-72726965722e,A*
G04 #@! TF.SameCoordinates,Original*
G04 #@! TF.FileFunction,Soldermask,Top*
G04 #@! TF.FilePolarity,Negative*
%FSLAX46Y46*%
G04 Gerber Fmt 4.6, Leading zero omitted, Abs format (unit mm)*
G04 Created by KiCad (PCBNEW 10.0.6) date 2026-09-27 08:28:16*
%MOMM*%
%LPD*%
G01*
G04 APERTURE LIST*
G04 Aperture macros list*
%AMRoundRect*
0 Rectangle with rounded corners*
0 $1 Rounding radius*
0 $2 $3 $4 $5 $6 $7 $8 $9 X,Y pos of 4 corners*
0 Add a 4 corners polygon primitive as box body*
4,1,4,$2,$3,$4,$5,$6,$7,$8,$9,$2,$3,0*
0 Add four circle primitives for the rounded corners*
1,1,$1+$1,$2,$3*
1,1,$1+$1,$4,$5*
1,1,$1+$1,$6,$7*
1,1,$1+$1,$8,$9*
0 Add four rect primitives between the rounded corners*
20,1,$1+$1,$2,$3,$4,$5,0*
20,1,$1+$1,$4,$5,$6,$7,0*
20,1,$1+$1,$6,$7,$8,$9,0*
20,1,$1+$1,$8,$9,$2,$3,0*%
G04 Aperture macros list end*
%ADD10RoundRect,0.250000X0.550000X-0.550000X0.550000X0.550000X-0.550000X0.550000X-0.550000X-0.550000X0*%
%ADD11C,1.600000*%
%ADD12C,3.200000*%
%ADD13RoundRect,0.500000X0.500000X0.500000X-0.500000X0.500000X-0.500000X-0.500000X0.500000X-0.500000X0*%
%ADD14C,2.000000*%
%ADD15RoundRect,0.250000X0.650000X1.550000X-0.650000X1.550000X-0.650000X-1.550000X0.650000X-1.550000X0*%
%ADD16O,1.800000X3.600000*%
%ADD17RoundRect,0.250000X-0.650000X-1.550000X0.650000X-1.550000X0.650000X1.550000X-0.650000X1.550000X0*%
%ADD18R,1.700000X1.700000*%
%ADD19O,1.700000X1.700000*%
%ADD20RoundRect,0.250000X-0.750000X-0.750000X0.750000X-0.750000X0.750000X0.750000X-0.750000X0.750000X0*%
%ADD21RoundRect,0.250000X-0.600000X-0.725000X0.600000X-0.725000X0.600000X0.725000X-0.600000X0.725000X0*%
%ADD22O,1.700000X1.950000*%
%ADD23RoundRect,0.250000X-1.500000X-0.900000X1.500000X-0.900000X1.500000X0.900000X-1.500000X0.900000X0*%
%ADD24RoundRect,0.249999X0.850001X0.850001X-0.850001X0.850001X-0.850001X-0.850001X0.850001X-0.850001X0*%
%ADD25C,2.200000*%
G04 APERTURE END LIST*
D10*
X95300000Y-100000000D03*
D11*
X97840000Y-100000000D03*
X100380000Y-100000000D03*
X100380000Y-92380000D03*
X97840000Y-92380000D03*
X95300000Y-92380000D03*
D10*
X72100000Y-100000000D03*
D11*
X74640000Y-100000000D03*
X77180000Y-100000000D03*
X77180000Y-92380000D03*
X74640000Y-92380000D03*
X72100000Y-92380000D03*
D12*
X53500000Y-87000000D03*
D13*
X130000000Y-65500000D03*
X125000000Y-65500000D03*
D14*
X115000000Y-65500000D03*
X110000000Y-65500000D03*
D11*
X60500000Y-116000000D03*
X60500000Y-103300000D03*
D12*
X146500000Y-126500000D03*
X53500000Y-126500000D03*
D11*
X92050000Y-90500000D03*
X92050000Y-100660000D03*
D10*
X83700000Y-100000000D03*
D11*
X86240000Y-100000000D03*
X88780000Y-100000000D03*
X88780000Y-92380000D03*
X86240000Y-92380000D03*
X83700000Y-92380000D03*
X80450000Y-90500000D03*
X80450000Y-100660000D03*
D15*
X140000000Y-58540000D03*
D16*
X134920000Y-58540000D03*
D11*
X98500000Y-114500000D03*
X108660000Y-114500000D03*
D17*
X60500000Y-121460000D03*
D16*
X65580000Y-121460000D03*
X70660000Y-121460000D03*
X75740000Y-121460000D03*
D11*
X110000000Y-82200000D03*
X112500000Y-82200000D03*
D18*
X52500000Y-79850000D03*
D19*
X55040000Y-79850000D03*
X57580000Y-79850000D03*
X60120000Y-79850000D03*
X62660000Y-79850000D03*
X65200000Y-79850000D03*
X67740000Y-79850000D03*
X70280000Y-79850000D03*
X72820000Y-79850000D03*
X75360000Y-79850000D03*
X77900000Y-79850000D03*
X80440000Y-79850000D03*
X82980000Y-79850000D03*
X85520000Y-79850000D03*
X88060000Y-79850000D03*
D18*
X52500000Y-54450000D03*
D19*
X55040000Y-54450000D03*
X57580000Y-54450000D03*
X60120000Y-54450000D03*
X62660000Y-54450000D03*
X65200000Y-54450000D03*
X67740000Y-54450000D03*
X70280000Y-54450000D03*
X72820000Y-54450000D03*
X75360000Y-54450000D03*
X77900000Y-54450000D03*
X80440000Y-54450000D03*
X82980000Y-54450000D03*
X85520000Y-54450000D03*
X88060000Y-54450000D03*
D11*
X68850000Y-90500000D03*
X68850000Y-100660000D03*
X72100000Y-116000000D03*
X72100000Y-103300000D03*
D10*
X60500000Y-100000000D03*
D11*
X63040000Y-100000000D03*
X65580000Y-100000000D03*
X65580000Y-92380000D03*
X63040000Y-92380000D03*
X60500000Y-92380000D03*
D20*
X126000000Y-78000000D03*
D14*
X131000000Y-78000000D03*
D11*
X83700000Y-116000000D03*
X83700000Y-103300000D03*
D18*
X107750000Y-86125000D03*
D19*
X107750000Y-103875000D03*
X147250000Y-86125000D03*
X147250000Y-103875000D03*
D11*
X103700000Y-90500000D03*
X103700000Y-100660000D03*
D21*
X104580000Y-125500000D03*
D22*
X107080000Y-125500000D03*
X109580000Y-125500000D03*
D11*
X95300000Y-116000000D03*
X95300000Y-103300000D03*
D21*
X86580000Y-125500000D03*
D22*
X89080000Y-125500000D03*
X91580000Y-125500000D03*
D23*
X111800000Y-78000000D03*
X117200000Y-78000000D03*
D17*
X121000000Y-121460000D03*
D16*
X126080000Y-121460000D03*
X131160000Y-121460000D03*
X136240000Y-121460000D03*
D12*
X146500000Y-53500000D03*
D24*
X120500000Y-72500000D03*
D25*
X110340000Y-72500000D03*
M02*
