%TF.GenerationSoftware,KiCad,Pcbnew,10.0.6*%
%TF.CreationDate,2026-09-27T08:28:17-07:00*%
%TF.ProjectId,indoor-carrier,696e646f-6f72-42d6-9361-72726965722e,A*%
%TF.SameCoordinates,Original*%
%TF.FileFunction,Drillmap*%
%TF.FilePolarity,Positive*%
%FSLAX45Y45*%
G04 Gerber Fmt 4.5, Leading zero omitted, Abs format (unit mm)*
G04 Created by KiCad (PCBNEW 10.0.6) date 2026-09-27 08:28:17*
%MOMM*%
%LPD*%
G01*
G04 APERTURE LIST*
%ADD10C,0.100000*%
%ADD11C,0.200000*%
%ADD12C,0.105000*%
%ADD13C,0.110000*%
%ADD14C,0.120000*%
G04 APERTURE END LIST*
D10*
X5000000Y-5200000D02*
G75*
G02*
X5200000Y-5000000I200000J0D01*
G01*
X5000000Y-12800000D02*
X5000000Y-5200000D01*
X5200000Y-5000000D02*
X14800000Y-5000000D01*
X5200000Y-13000000D02*
G75*
G02*
X5000000Y-12800000I0J200000D01*
G01*
X14800000Y-5000000D02*
G75*
G02*
X15000000Y-5200000I0J-200000D01*
G01*
X14800000Y-13000000D02*
X5200000Y-13000000D01*
X15000000Y-5200000D02*
X15000000Y-12800000D01*
X15000000Y-12800000D02*
G75*
G02*
X14800000Y-13000000I-200000J0D01*
G01*
D11*
D10*
X9837720Y-8923220D02*
X9867720Y-8953220D01*
X9867720Y-8923220D02*
X9837720Y-8953220D01*
X11900690Y-5443090D02*
X11930690Y-5473090D01*
X11930690Y-5443090D02*
X11900690Y-5473090D01*
X12784820Y-6014560D02*
X12814820Y-6044560D01*
X12814820Y-6014560D02*
X12784820Y-6044560D01*
X6090000Y-9238000D02*
G75*
G02*
X6010000Y-9238000I-40000J0D01*
G01*
X6010000Y-9238000D02*
G75*
G02*
X6090000Y-9238000I40000J0D01*
G01*
X6090000Y-10000000D02*
G75*
G02*
X6010000Y-10000000I-40000J0D01*
G01*
X6010000Y-10000000D02*
G75*
G02*
X6090000Y-10000000I40000J0D01*
G01*
X6090000Y-10330000D02*
G75*
G02*
X6010000Y-10330000I-40000J0D01*
G01*
X6010000Y-10330000D02*
G75*
G02*
X6090000Y-10330000I40000J0D01*
G01*
X6090000Y-11600000D02*
G75*
G02*
X6010000Y-11600000I-40000J0D01*
G01*
X6010000Y-11600000D02*
G75*
G02*
X6090000Y-11600000I40000J0D01*
G01*
X6344000Y-9238000D02*
G75*
G02*
X6264000Y-9238000I-40000J0D01*
G01*
X6264000Y-9238000D02*
G75*
G02*
X6344000Y-9238000I40000J0D01*
G01*
X6344000Y-10000000D02*
G75*
G02*
X6264000Y-10000000I-40000J0D01*
G01*
X6264000Y-10000000D02*
G75*
G02*
X6344000Y-10000000I40000J0D01*
G01*
X6598000Y-9238000D02*
G75*
G02*
X6518000Y-9238000I-40000J0D01*
G01*
X6518000Y-9238000D02*
G75*
G02*
X6598000Y-9238000I40000J0D01*
G01*
X6598000Y-10000000D02*
G75*
G02*
X6518000Y-10000000I-40000J0D01*
G01*
X6518000Y-10000000D02*
G75*
G02*
X6598000Y-10000000I40000J0D01*
G01*
X6925000Y-9050000D02*
G75*
G02*
X6845000Y-9050000I-40000J0D01*
G01*
X6845000Y-9050000D02*
G75*
G02*
X6925000Y-9050000I40000J0D01*
G01*
X6925000Y-10066000D02*
G75*
G02*
X6845000Y-10066000I-40000J0D01*
G01*
X6845000Y-10066000D02*
G75*
G02*
X6925000Y-10066000I40000J0D01*
G01*
X7250000Y-9238000D02*
G75*
G02*
X7170000Y-9238000I-40000J0D01*
G01*
X7170000Y-9238000D02*
G75*
G02*
X7250000Y-9238000I40000J0D01*
G01*
X7250000Y-10000000D02*
G75*
G02*
X7170000Y-10000000I-40000J0D01*
G01*
X7170000Y-10000000D02*
G75*
G02*
X7250000Y-10000000I40000J0D01*
G01*
X7250000Y-10330000D02*
G75*
G02*
X7170000Y-10330000I-40000J0D01*
G01*
X7170000Y-10330000D02*
G75*
G02*
X7250000Y-10330000I40000J0D01*
G01*
X7250000Y-11600000D02*
G75*
G02*
X7170000Y-11600000I-40000J0D01*
G01*
X7170000Y-11600000D02*
G75*
G02*
X7250000Y-11600000I40000J0D01*
G01*
X7504000Y-9238000D02*
G75*
G02*
X7424000Y-9238000I-40000J0D01*
G01*
X7424000Y-9238000D02*
G75*
G02*
X7504000Y-9238000I40000J0D01*
G01*
X7504000Y-10000000D02*
G75*
G02*
X7424000Y-10000000I-40000J0D01*
G01*
X7424000Y-10000000D02*
G75*
G02*
X7504000Y-10000000I40000J0D01*
G01*
X7758000Y-9238000D02*
G75*
G02*
X7678000Y-9238000I-40000J0D01*
G01*
X7678000Y-9238000D02*
G75*
G02*
X7758000Y-9238000I40000J0D01*
G01*
X7758000Y-10000000D02*
G75*
G02*
X7678000Y-10000000I-40000J0D01*
G01*
X7678000Y-10000000D02*
G75*
G02*
X7758000Y-10000000I40000J0D01*
G01*
X8085000Y-9050000D02*
G75*
G02*
X8005000Y-9050000I-40000J0D01*
G01*
X8005000Y-9050000D02*
G75*
G02*
X8085000Y-9050000I40000J0D01*
G01*
X8085000Y-10066000D02*
G75*
G02*
X8005000Y-10066000I-40000J0D01*
G01*
X8005000Y-10066000D02*
G75*
G02*
X8085000Y-10066000I40000J0D01*
G01*
X8410000Y-9238000D02*
G75*
G02*
X8330000Y-9238000I-40000J0D01*
G01*
X8330000Y-9238000D02*
G75*
G02*
X8410000Y-9238000I40000J0D01*
G01*
X8410000Y-10000000D02*
G75*
G02*
X8330000Y-10000000I-40000J0D01*
G01*
X8330000Y-10000000D02*
G75*
G02*
X8410000Y-10000000I40000J0D01*
G01*
X8410000Y-10330000D02*
G75*
G02*
X8330000Y-10330000I-40000J0D01*
G01*
X8330000Y-10330000D02*
G75*
G02*
X8410000Y-10330000I40000J0D01*
G01*
X8410000Y-11600000D02*
G75*
G02*
X8330000Y-11600000I-40000J0D01*
G01*
X8330000Y-11600000D02*
G75*
G02*
X8410000Y-11600000I40000J0D01*
G01*
X8664000Y-9238000D02*
G75*
G02*
X8584000Y-9238000I-40000J0D01*
G01*
X8584000Y-9238000D02*
G75*
G02*
X8664000Y-9238000I40000J0D01*
G01*
X8664000Y-10000000D02*
G75*
G02*
X8584000Y-10000000I-40000J0D01*
G01*
X8584000Y-10000000D02*
G75*
G02*
X8664000Y-10000000I40000J0D01*
G01*
X8918000Y-9238000D02*
G75*
G02*
X8838000Y-9238000I-40000J0D01*
G01*
X8838000Y-9238000D02*
G75*
G02*
X8918000Y-9238000I40000J0D01*
G01*
X8918000Y-10000000D02*
G75*
G02*
X8838000Y-10000000I-40000J0D01*
G01*
X8838000Y-10000000D02*
G75*
G02*
X8918000Y-10000000I40000J0D01*
G01*
X9245000Y-9050000D02*
G75*
G02*
X9165000Y-9050000I-40000J0D01*
G01*
X9165000Y-9050000D02*
G75*
G02*
X9245000Y-9050000I40000J0D01*
G01*
X9245000Y-10066000D02*
G75*
G02*
X9165000Y-10066000I-40000J0D01*
G01*
X9165000Y-10066000D02*
G75*
G02*
X9245000Y-10066000I40000J0D01*
G01*
X9570000Y-9238000D02*
G75*
G02*
X9490000Y-9238000I-40000J0D01*
G01*
X9490000Y-9238000D02*
G75*
G02*
X9570000Y-9238000I40000J0D01*
G01*
X9570000Y-10000000D02*
G75*
G02*
X9490000Y-10000000I-40000J0D01*
G01*
X9490000Y-10000000D02*
G75*
G02*
X9570000Y-10000000I40000J0D01*
G01*
X9570000Y-10330000D02*
G75*
G02*
X9490000Y-10330000I-40000J0D01*
G01*
X9490000Y-10330000D02*
G75*
G02*
X9570000Y-10330000I40000J0D01*
G01*
X9570000Y-11600000D02*
G75*
G02*
X9490000Y-11600000I-40000J0D01*
G01*
X9490000Y-11600000D02*
G75*
G02*
X9570000Y-11600000I40000J0D01*
G01*
X9824000Y-9238000D02*
G75*
G02*
X9744000Y-9238000I-40000J0D01*
G01*
X9744000Y-9238000D02*
G75*
G02*
X9824000Y-9238000I40000J0D01*
G01*
X9824000Y-10000000D02*
G75*
G02*
X9744000Y-10000000I-40000J0D01*
G01*
X9744000Y-10000000D02*
G75*
G02*
X9824000Y-10000000I40000J0D01*
G01*
X9890000Y-11450000D02*
G75*
G02*
X9810000Y-11450000I-40000J0D01*
G01*
X9810000Y-11450000D02*
G75*
G02*
X9890000Y-11450000I40000J0D01*
G01*
X10078000Y-9238000D02*
G75*
G02*
X9998000Y-9238000I-40000J0D01*
G01*
X9998000Y-9238000D02*
G75*
G02*
X10078000Y-9238000I40000J0D01*
G01*
X10078000Y-10000000D02*
G75*
G02*
X9998000Y-10000000I-40000J0D01*
G01*
X9998000Y-10000000D02*
G75*
G02*
X10078000Y-10000000I40000J0D01*
G01*
X10410000Y-9050000D02*
G75*
G02*
X10330000Y-9050000I-40000J0D01*
G01*
X10330000Y-9050000D02*
G75*
G02*
X10410000Y-9050000I40000J0D01*
G01*
X10410000Y-10066000D02*
G75*
G02*
X10330000Y-10066000I-40000J0D01*
G01*
X10330000Y-10066000D02*
G75*
G02*
X10410000Y-10066000I40000J0D01*
G01*
X10906000Y-11450000D02*
G75*
G02*
X10826000Y-11450000I-40000J0D01*
G01*
X10826000Y-11450000D02*
G75*
G02*
X10906000Y-11450000I40000J0D01*
G01*
X11040000Y-8220000D02*
G75*
G02*
X10960000Y-8220000I-40000J0D01*
G01*
X10960000Y-8220000D02*
G75*
G02*
X11040000Y-8220000I40000J0D01*
G01*
X11290000Y-8220000D02*
G75*
G02*
X11210000Y-8220000I-40000J0D01*
G01*
X11210000Y-8220000D02*
G75*
G02*
X11290000Y-8220000I40000J0D01*
G01*
X8658000Y-12502500D02*
X8658000Y-12597500D01*
X8610500Y-12550000D02*
X8705500Y-12550000D01*
X8908000Y-12502500D02*
X8908000Y-12597500D01*
X8860500Y-12550000D02*
X8955500Y-12550000D01*
X9158000Y-12502500D02*
X9158000Y-12597500D01*
X9110500Y-12550000D02*
X9205500Y-12550000D01*
X10458000Y-12502500D02*
X10458000Y-12597500D01*
X10410500Y-12550000D02*
X10505500Y-12550000D01*
X10708000Y-12502500D02*
X10708000Y-12597500D01*
X10660500Y-12550000D02*
X10755500Y-12550000D01*
X10958000Y-12502500D02*
X10958000Y-12597500D01*
X10910500Y-12550000D02*
X11005500Y-12550000D01*
X5285356Y-5480356D02*
X5285356Y-5409644D01*
X5214644Y-5409644D01*
X5214644Y-5480356D01*
X5285356Y-5480356D01*
X5285356Y-8020356D02*
X5285356Y-7949644D01*
X5214644Y-7949644D01*
X5214644Y-8020356D01*
X5285356Y-8020356D01*
X5539356Y-5480356D02*
X5539356Y-5409644D01*
X5468644Y-5409644D01*
X5468644Y-5480356D01*
X5539356Y-5480356D01*
X5539356Y-8020356D02*
X5539356Y-7949644D01*
X5468644Y-7949644D01*
X5468644Y-8020356D01*
X5539356Y-8020356D01*
X5793356Y-5480356D02*
X5793356Y-5409644D01*
X5722644Y-5409644D01*
X5722644Y-5480356D01*
X5793356Y-5480356D01*
X5793356Y-8020356D02*
X5793356Y-7949644D01*
X5722644Y-7949644D01*
X5722644Y-8020356D01*
X5793356Y-8020356D01*
X6047356Y-5480356D02*
X6047356Y-5409644D01*
X5976644Y-5409644D01*
X5976644Y-5480356D01*
X6047356Y-5480356D01*
X6047356Y-8020356D02*
X6047356Y-7949644D01*
X5976644Y-7949644D01*
X5976644Y-8020356D01*
X6047356Y-8020356D01*
X6301356Y-5480356D02*
X6301356Y-5409644D01*
X6230644Y-5409644D01*
X6230644Y-5480356D01*
X6301356Y-5480356D01*
X6301356Y-8020356D02*
X6301356Y-7949644D01*
X6230644Y-7949644D01*
X6230644Y-8020356D01*
X6301356Y-8020356D01*
X6555356Y-5480356D02*
X6555356Y-5409644D01*
X6484644Y-5409644D01*
X6484644Y-5480356D01*
X6555356Y-5480356D01*
X6555356Y-8020356D02*
X6555356Y-7949644D01*
X6484644Y-7949644D01*
X6484644Y-8020356D01*
X6555356Y-8020356D01*
X6809356Y-5480356D02*
X6809356Y-5409644D01*
X6738644Y-5409644D01*
X6738644Y-5480356D01*
X6809356Y-5480356D01*
X6809356Y-8020356D02*
X6809356Y-7949644D01*
X6738644Y-7949644D01*
X6738644Y-8020356D01*
X6809356Y-8020356D01*
X7063356Y-5480356D02*
X7063356Y-5409644D01*
X6992644Y-5409644D01*
X6992644Y-5480356D01*
X7063356Y-5480356D01*
X7063356Y-8020356D02*
X7063356Y-7949644D01*
X6992644Y-7949644D01*
X6992644Y-8020356D01*
X7063356Y-8020356D01*
X7317356Y-5480356D02*
X7317356Y-5409644D01*
X7246644Y-5409644D01*
X7246644Y-5480356D01*
X7317356Y-5480356D01*
X7317356Y-8020356D02*
X7317356Y-7949644D01*
X7246644Y-7949644D01*
X7246644Y-8020356D01*
X7317356Y-8020356D01*
X7571356Y-5480356D02*
X7571356Y-5409644D01*
X7500644Y-5409644D01*
X7500644Y-5480356D01*
X7571356Y-5480356D01*
X7571356Y-8020356D02*
X7571356Y-7949644D01*
X7500644Y-7949644D01*
X7500644Y-8020356D01*
X7571356Y-8020356D01*
X7825356Y-5480356D02*
X7825356Y-5409644D01*
X7754644Y-5409644D01*
X7754644Y-5480356D01*
X7825356Y-5480356D01*
X7825356Y-8020356D02*
X7825356Y-7949644D01*
X7754644Y-7949644D01*
X7754644Y-8020356D01*
X7825356Y-8020356D01*
X8079356Y-5480356D02*
X8079356Y-5409644D01*
X8008644Y-5409644D01*
X8008644Y-5480356D01*
X8079356Y-5480356D01*
X8079356Y-8020356D02*
X8079356Y-7949644D01*
X8008644Y-7949644D01*
X8008644Y-8020356D01*
X8079356Y-8020356D01*
X8333356Y-5480356D02*
X8333356Y-5409644D01*
X8262644Y-5409644D01*
X8262644Y-5480356D01*
X8333356Y-5480356D01*
X8333356Y-8020356D02*
X8333356Y-7949644D01*
X8262644Y-7949644D01*
X8262644Y-8020356D01*
X8333356Y-8020356D01*
X8587356Y-5480356D02*
X8587356Y-5409644D01*
X8516644Y-5409644D01*
X8516644Y-5480356D01*
X8587356Y-5480356D01*
X8587356Y-8020356D02*
X8587356Y-7949644D01*
X8516644Y-7949644D01*
X8516644Y-8020356D01*
X8587356Y-8020356D01*
X8841356Y-5480356D02*
X8841356Y-5409644D01*
X8770644Y-5409644D01*
X8770644Y-5480356D01*
X8841356Y-5480356D01*
X8841356Y-8020356D02*
X8841356Y-7949644D01*
X8770644Y-7949644D01*
X8770644Y-8020356D01*
X8841356Y-8020356D01*
X10810356Y-8647856D02*
X10810356Y-8577144D01*
X10739644Y-8577144D01*
X10739644Y-8647856D01*
X10810356Y-8647856D01*
X10810356Y-10422856D02*
X10810356Y-10352144D01*
X10739644Y-10352144D01*
X10739644Y-10422856D01*
X10810356Y-10422856D01*
X12635356Y-7835356D02*
X12635356Y-7764644D01*
X12564644Y-7764644D01*
X12564644Y-7835356D01*
X12635356Y-7835356D01*
X13135356Y-7835356D02*
X13135356Y-7764644D01*
X13064644Y-7764644D01*
X13064644Y-7835356D01*
X13135356Y-7835356D01*
X14760356Y-8647856D02*
X14760356Y-8577144D01*
X14689644Y-8577144D01*
X14689644Y-8647856D01*
X14760356Y-8647856D01*
X14760356Y-10422856D02*
X14760356Y-10352144D01*
X14689644Y-10352144D01*
X14689644Y-10422856D01*
X14760356Y-10422856D01*
D12*
X11000000Y-6602500D02*
X11052500Y-6550000D01*
X11000000Y-6497500D01*
X10947500Y-6550000D01*
X11000000Y-6602500D01*
X11500000Y-6602500D02*
X11552500Y-6550000D01*
X11500000Y-6497500D01*
X11447500Y-6550000D01*
X11500000Y-6602500D01*
X12500000Y-6602500D02*
X12552500Y-6550000D01*
X12500000Y-6497500D01*
X12447500Y-6550000D01*
X12500000Y-6602500D01*
X13000000Y-6602500D02*
X13052500Y-6550000D01*
X13000000Y-6497500D01*
X12947500Y-6550000D01*
X13000000Y-6602500D01*
D13*
X10979000Y-7195000D02*
X11089000Y-7305000D01*
X11089000Y-7195000D02*
X10979000Y-7305000D01*
X11089000Y-7250000D02*
G75*
G02*
X10979000Y-7250000I-55000J0D01*
G01*
X10979000Y-7250000D02*
G75*
G02*
X11089000Y-7250000I55000J0D01*
G01*
X11995000Y-7195000D02*
X12105000Y-7305000D01*
X12105000Y-7195000D02*
X11995000Y-7305000D01*
X12105000Y-7250000D02*
G75*
G02*
X11995000Y-7250000I-55000J0D01*
G01*
X11995000Y-7250000D02*
G75*
G02*
X12105000Y-7250000I55000J0D01*
G01*
D14*
X5990000Y-12086000D02*
X6110000Y-12206000D01*
X6110000Y-12086000D02*
X5990000Y-12206000D01*
X6050000Y-12086000D02*
X6050000Y-12206000D01*
X5990000Y-12146000D02*
X6110000Y-12146000D01*
X6498000Y-12086000D02*
X6618000Y-12206000D01*
X6618000Y-12086000D02*
X6498000Y-12206000D01*
X6558000Y-12086000D02*
X6558000Y-12206000D01*
X6498000Y-12146000D02*
X6618000Y-12146000D01*
X7006000Y-12086000D02*
X7126000Y-12206000D01*
X7126000Y-12086000D02*
X7006000Y-12206000D01*
X7066000Y-12086000D02*
X7066000Y-12206000D01*
X7006000Y-12146000D02*
X7126000Y-12146000D01*
X7514000Y-12086000D02*
X7634000Y-12206000D01*
X7634000Y-12086000D02*
X7514000Y-12206000D01*
X7574000Y-12086000D02*
X7574000Y-12206000D01*
X7514000Y-12146000D02*
X7634000Y-12146000D01*
X12040000Y-12086000D02*
X12160000Y-12206000D01*
X12160000Y-12086000D02*
X12040000Y-12206000D01*
X12100000Y-12086000D02*
X12100000Y-12206000D01*
X12040000Y-12146000D02*
X12160000Y-12146000D01*
X12548000Y-12086000D02*
X12668000Y-12206000D01*
X12668000Y-12086000D02*
X12548000Y-12206000D01*
X12608000Y-12086000D02*
X12608000Y-12206000D01*
X12548000Y-12146000D02*
X12668000Y-12146000D01*
X13056000Y-12086000D02*
X13176000Y-12206000D01*
X13176000Y-12086000D02*
X13056000Y-12206000D01*
X13116000Y-12086000D02*
X13116000Y-12206000D01*
X13056000Y-12146000D02*
X13176000Y-12146000D01*
X13432000Y-5794000D02*
X13552000Y-5914000D01*
X13552000Y-5794000D02*
X13432000Y-5914000D01*
X13492000Y-5794000D02*
X13492000Y-5914000D01*
X13432000Y-5854000D02*
X13552000Y-5854000D01*
X13564000Y-12086000D02*
X13684000Y-12206000D01*
X13684000Y-12086000D02*
X13564000Y-12206000D01*
X13624000Y-12086000D02*
X13624000Y-12206000D01*
X13564000Y-12146000D02*
X13684000Y-12146000D01*
X13940000Y-5794000D02*
X14060000Y-5914000D01*
X14060000Y-5794000D02*
X13940000Y-5914000D01*
X14000000Y-5794000D02*
X14000000Y-5914000D01*
X13940000Y-5854000D02*
X14060000Y-5854000D01*
D11*
X5255777Y-13316484D02*
X5255777Y-13116484D01*
X5255777Y-13116484D02*
X5303396Y-13116484D01*
X5303396Y-13116484D02*
X5331967Y-13126008D01*
X5331967Y-13126008D02*
X5351015Y-13145055D01*
X5351015Y-13145055D02*
X5360539Y-13164103D01*
X5360539Y-13164103D02*
X5370063Y-13202198D01*
X5370063Y-13202198D02*
X5370063Y-13230769D01*
X5370063Y-13230769D02*
X5360539Y-13268865D01*
X5360539Y-13268865D02*
X5351015Y-13287912D01*
X5351015Y-13287912D02*
X5331967Y-13306960D01*
X5331967Y-13306960D02*
X5303396Y-13316484D01*
X5303396Y-13316484D02*
X5255777Y-13316484D01*
X5455777Y-13316484D02*
X5455777Y-13183150D01*
X5455777Y-13221246D02*
X5465301Y-13202198D01*
X5465301Y-13202198D02*
X5474824Y-13192674D01*
X5474824Y-13192674D02*
X5493872Y-13183150D01*
X5493872Y-13183150D02*
X5512920Y-13183150D01*
X5579586Y-13316484D02*
X5579586Y-13183150D01*
X5579586Y-13116484D02*
X5570063Y-13126008D01*
X5570063Y-13126008D02*
X5579586Y-13135531D01*
X5579586Y-13135531D02*
X5589110Y-13126008D01*
X5589110Y-13126008D02*
X5579586Y-13116484D01*
X5579586Y-13116484D02*
X5579586Y-13135531D01*
X5703396Y-13316484D02*
X5684348Y-13306960D01*
X5684348Y-13306960D02*
X5674824Y-13287912D01*
X5674824Y-13287912D02*
X5674824Y-13116484D01*
X5808158Y-13316484D02*
X5789110Y-13306960D01*
X5789110Y-13306960D02*
X5779586Y-13287912D01*
X5779586Y-13287912D02*
X5779586Y-13116484D01*
X6036729Y-13316484D02*
X6036729Y-13116484D01*
X6036729Y-13116484D02*
X6103396Y-13259341D01*
X6103396Y-13259341D02*
X6170062Y-13116484D01*
X6170062Y-13116484D02*
X6170062Y-13316484D01*
X6351015Y-13316484D02*
X6351015Y-13211722D01*
X6351015Y-13211722D02*
X6341491Y-13192674D01*
X6341491Y-13192674D02*
X6322443Y-13183150D01*
X6322443Y-13183150D02*
X6284348Y-13183150D01*
X6284348Y-13183150D02*
X6265301Y-13192674D01*
X6351015Y-13306960D02*
X6331967Y-13316484D01*
X6331967Y-13316484D02*
X6284348Y-13316484D01*
X6284348Y-13316484D02*
X6265301Y-13306960D01*
X6265301Y-13306960D02*
X6255777Y-13287912D01*
X6255777Y-13287912D02*
X6255777Y-13268865D01*
X6255777Y-13268865D02*
X6265301Y-13249817D01*
X6265301Y-13249817D02*
X6284348Y-13240293D01*
X6284348Y-13240293D02*
X6331967Y-13240293D01*
X6331967Y-13240293D02*
X6351015Y-13230769D01*
X6446253Y-13183150D02*
X6446253Y-13383150D01*
X6446253Y-13192674D02*
X6465301Y-13183150D01*
X6465301Y-13183150D02*
X6503396Y-13183150D01*
X6503396Y-13183150D02*
X6522443Y-13192674D01*
X6522443Y-13192674D02*
X6531967Y-13202198D01*
X6531967Y-13202198D02*
X6541491Y-13221246D01*
X6541491Y-13221246D02*
X6541491Y-13278388D01*
X6541491Y-13278388D02*
X6531967Y-13297436D01*
X6531967Y-13297436D02*
X6522443Y-13306960D01*
X6522443Y-13306960D02*
X6503396Y-13316484D01*
X6503396Y-13316484D02*
X6465301Y-13316484D01*
X6465301Y-13316484D02*
X6446253Y-13306960D01*
X6627205Y-13297436D02*
X6636729Y-13306960D01*
X6636729Y-13306960D02*
X6627205Y-13316484D01*
X6627205Y-13316484D02*
X6617682Y-13306960D01*
X6617682Y-13306960D02*
X6627205Y-13297436D01*
X6627205Y-13297436D02*
X6627205Y-13316484D01*
X6627205Y-13192674D02*
X6636729Y-13202198D01*
X6636729Y-13202198D02*
X6627205Y-13211722D01*
X6627205Y-13211722D02*
X6617682Y-13202198D01*
X6617682Y-13202198D02*
X6627205Y-13192674D01*
X6627205Y-13192674D02*
X6627205Y-13211722D01*
D10*
X4965000Y-13630000D02*
X4995000Y-13660000D01*
X4995000Y-13630000D02*
X4965000Y-13660000D01*
D11*
X5293872Y-13536484D02*
X5312920Y-13536484D01*
X5312920Y-13536484D02*
X5331967Y-13546008D01*
X5331967Y-13546008D02*
X5341491Y-13555531D01*
X5341491Y-13555531D02*
X5351015Y-13574579D01*
X5351015Y-13574579D02*
X5360539Y-13612674D01*
X5360539Y-13612674D02*
X5360539Y-13660293D01*
X5360539Y-13660293D02*
X5351015Y-13698388D01*
X5351015Y-13698388D02*
X5341491Y-13717436D01*
X5341491Y-13717436D02*
X5331967Y-13726960D01*
X5331967Y-13726960D02*
X5312920Y-13736484D01*
X5312920Y-13736484D02*
X5293872Y-13736484D01*
X5293872Y-13736484D02*
X5274824Y-13726960D01*
X5274824Y-13726960D02*
X5265301Y-13717436D01*
X5265301Y-13717436D02*
X5255777Y-13698388D01*
X5255777Y-13698388D02*
X5246253Y-13660293D01*
X5246253Y-13660293D02*
X5246253Y-13612674D01*
X5246253Y-13612674D02*
X5255777Y-13574579D01*
X5255777Y-13574579D02*
X5265301Y-13555531D01*
X5265301Y-13555531D02*
X5274824Y-13546008D01*
X5274824Y-13546008D02*
X5293872Y-13536484D01*
X5446253Y-13717436D02*
X5455777Y-13726960D01*
X5455777Y-13726960D02*
X5446253Y-13736484D01*
X5446253Y-13736484D02*
X5436729Y-13726960D01*
X5436729Y-13726960D02*
X5446253Y-13717436D01*
X5446253Y-13717436D02*
X5446253Y-13736484D01*
X5522444Y-13536484D02*
X5646253Y-13536484D01*
X5646253Y-13536484D02*
X5579586Y-13612674D01*
X5579586Y-13612674D02*
X5608158Y-13612674D01*
X5608158Y-13612674D02*
X5627205Y-13622198D01*
X5627205Y-13622198D02*
X5636729Y-13631722D01*
X5636729Y-13631722D02*
X5646253Y-13650769D01*
X5646253Y-13650769D02*
X5646253Y-13698388D01*
X5646253Y-13698388D02*
X5636729Y-13717436D01*
X5636729Y-13717436D02*
X5627205Y-13726960D01*
X5627205Y-13726960D02*
X5608158Y-13736484D01*
X5608158Y-13736484D02*
X5551015Y-13736484D01*
X5551015Y-13736484D02*
X5531967Y-13726960D01*
X5531967Y-13726960D02*
X5522444Y-13717436D01*
X5770062Y-13536484D02*
X5789110Y-13536484D01*
X5789110Y-13536484D02*
X5808158Y-13546008D01*
X5808158Y-13546008D02*
X5817682Y-13555531D01*
X5817682Y-13555531D02*
X5827205Y-13574579D01*
X5827205Y-13574579D02*
X5836729Y-13612674D01*
X5836729Y-13612674D02*
X5836729Y-13660293D01*
X5836729Y-13660293D02*
X5827205Y-13698388D01*
X5827205Y-13698388D02*
X5817682Y-13717436D01*
X5817682Y-13717436D02*
X5808158Y-13726960D01*
X5808158Y-13726960D02*
X5789110Y-13736484D01*
X5789110Y-13736484D02*
X5770062Y-13736484D01*
X5770062Y-13736484D02*
X5751015Y-13726960D01*
X5751015Y-13726960D02*
X5741491Y-13717436D01*
X5741491Y-13717436D02*
X5731967Y-13698388D01*
X5731967Y-13698388D02*
X5722443Y-13660293D01*
X5722443Y-13660293D02*
X5722443Y-13612674D01*
X5722443Y-13612674D02*
X5731967Y-13574579D01*
X5731967Y-13574579D02*
X5741491Y-13555531D01*
X5741491Y-13555531D02*
X5751015Y-13546008D01*
X5751015Y-13546008D02*
X5770062Y-13536484D01*
X5960539Y-13536484D02*
X5979586Y-13536484D01*
X5979586Y-13536484D02*
X5998634Y-13546008D01*
X5998634Y-13546008D02*
X6008158Y-13555531D01*
X6008158Y-13555531D02*
X6017682Y-13574579D01*
X6017682Y-13574579D02*
X6027205Y-13612674D01*
X6027205Y-13612674D02*
X6027205Y-13660293D01*
X6027205Y-13660293D02*
X6017682Y-13698388D01*
X6017682Y-13698388D02*
X6008158Y-13717436D01*
X6008158Y-13717436D02*
X5998634Y-13726960D01*
X5998634Y-13726960D02*
X5979586Y-13736484D01*
X5979586Y-13736484D02*
X5960539Y-13736484D01*
X5960539Y-13736484D02*
X5941491Y-13726960D01*
X5941491Y-13726960D02*
X5931967Y-13717436D01*
X5931967Y-13717436D02*
X5922443Y-13698388D01*
X5922443Y-13698388D02*
X5912920Y-13660293D01*
X5912920Y-13660293D02*
X5912920Y-13612674D01*
X5912920Y-13612674D02*
X5922443Y-13574579D01*
X5922443Y-13574579D02*
X5931967Y-13555531D01*
X5931967Y-13555531D02*
X5941491Y-13546008D01*
X5941491Y-13546008D02*
X5960539Y-13536484D01*
X6112920Y-13736484D02*
X6112920Y-13603150D01*
X6112920Y-13622198D02*
X6122443Y-13612674D01*
X6122443Y-13612674D02*
X6141491Y-13603150D01*
X6141491Y-13603150D02*
X6170063Y-13603150D01*
X6170063Y-13603150D02*
X6189110Y-13612674D01*
X6189110Y-13612674D02*
X6198634Y-13631722D01*
X6198634Y-13631722D02*
X6198634Y-13736484D01*
X6198634Y-13631722D02*
X6208158Y-13612674D01*
X6208158Y-13612674D02*
X6227205Y-13603150D01*
X6227205Y-13603150D02*
X6255777Y-13603150D01*
X6255777Y-13603150D02*
X6274824Y-13612674D01*
X6274824Y-13612674D02*
X6284348Y-13631722D01*
X6284348Y-13631722D02*
X6284348Y-13736484D01*
X6379586Y-13736484D02*
X6379586Y-13603150D01*
X6379586Y-13622198D02*
X6389110Y-13612674D01*
X6389110Y-13612674D02*
X6408158Y-13603150D01*
X6408158Y-13603150D02*
X6436729Y-13603150D01*
X6436729Y-13603150D02*
X6455777Y-13612674D01*
X6455777Y-13612674D02*
X6465301Y-13631722D01*
X6465301Y-13631722D02*
X6465301Y-13736484D01*
X6465301Y-13631722D02*
X6474824Y-13612674D01*
X6474824Y-13612674D02*
X6493872Y-13603150D01*
X6493872Y-13603150D02*
X6522443Y-13603150D01*
X6522443Y-13603150D02*
X6541491Y-13612674D01*
X6541491Y-13612674D02*
X6551015Y-13631722D01*
X6551015Y-13631722D02*
X6551015Y-13736484D01*
X6941491Y-13526960D02*
X6770063Y-13784103D01*
X7198634Y-13536484D02*
X7217682Y-13536484D01*
X7217682Y-13536484D02*
X7236729Y-13546008D01*
X7236729Y-13546008D02*
X7246253Y-13555531D01*
X7246253Y-13555531D02*
X7255777Y-13574579D01*
X7255777Y-13574579D02*
X7265301Y-13612674D01*
X7265301Y-13612674D02*
X7265301Y-13660293D01*
X7265301Y-13660293D02*
X7255777Y-13698388D01*
X7255777Y-13698388D02*
X7246253Y-13717436D01*
X7246253Y-13717436D02*
X7236729Y-13726960D01*
X7236729Y-13726960D02*
X7217682Y-13736484D01*
X7217682Y-13736484D02*
X7198634Y-13736484D01*
X7198634Y-13736484D02*
X7179586Y-13726960D01*
X7179586Y-13726960D02*
X7170063Y-13717436D01*
X7170063Y-13717436D02*
X7160539Y-13698388D01*
X7160539Y-13698388D02*
X7151015Y-13660293D01*
X7151015Y-13660293D02*
X7151015Y-13612674D01*
X7151015Y-13612674D02*
X7160539Y-13574579D01*
X7160539Y-13574579D02*
X7170063Y-13555531D01*
X7170063Y-13555531D02*
X7179586Y-13546008D01*
X7179586Y-13546008D02*
X7198634Y-13536484D01*
X7351015Y-13717436D02*
X7360539Y-13726960D01*
X7360539Y-13726960D02*
X7351015Y-13736484D01*
X7351015Y-13736484D02*
X7341491Y-13726960D01*
X7341491Y-13726960D02*
X7351015Y-13717436D01*
X7351015Y-13717436D02*
X7351015Y-13736484D01*
X7484348Y-13536484D02*
X7503396Y-13536484D01*
X7503396Y-13536484D02*
X7522444Y-13546008D01*
X7522444Y-13546008D02*
X7531967Y-13555531D01*
X7531967Y-13555531D02*
X7541491Y-13574579D01*
X7541491Y-13574579D02*
X7551015Y-13612674D01*
X7551015Y-13612674D02*
X7551015Y-13660293D01*
X7551015Y-13660293D02*
X7541491Y-13698388D01*
X7541491Y-13698388D02*
X7531967Y-13717436D01*
X7531967Y-13717436D02*
X7522444Y-13726960D01*
X7522444Y-13726960D02*
X7503396Y-13736484D01*
X7503396Y-13736484D02*
X7484348Y-13736484D01*
X7484348Y-13736484D02*
X7465301Y-13726960D01*
X7465301Y-13726960D02*
X7455777Y-13717436D01*
X7455777Y-13717436D02*
X7446253Y-13698388D01*
X7446253Y-13698388D02*
X7436729Y-13660293D01*
X7436729Y-13660293D02*
X7436729Y-13612674D01*
X7436729Y-13612674D02*
X7446253Y-13574579D01*
X7446253Y-13574579D02*
X7455777Y-13555531D01*
X7455777Y-13555531D02*
X7465301Y-13546008D01*
X7465301Y-13546008D02*
X7484348Y-13536484D01*
X7741491Y-13736484D02*
X7627206Y-13736484D01*
X7684348Y-13736484D02*
X7684348Y-13536484D01*
X7684348Y-13536484D02*
X7665301Y-13565055D01*
X7665301Y-13565055D02*
X7646253Y-13584103D01*
X7646253Y-13584103D02*
X7627206Y-13593627D01*
X7931967Y-13736484D02*
X7817682Y-13736484D01*
X7874825Y-13736484D02*
X7874825Y-13536484D01*
X7874825Y-13536484D02*
X7855777Y-13565055D01*
X7855777Y-13565055D02*
X7836729Y-13584103D01*
X7836729Y-13584103D02*
X7817682Y-13593627D01*
X8046253Y-13622198D02*
X8027206Y-13612674D01*
X8027206Y-13612674D02*
X8017682Y-13603150D01*
X8017682Y-13603150D02*
X8008158Y-13584103D01*
X8008158Y-13584103D02*
X8008158Y-13574579D01*
X8008158Y-13574579D02*
X8017682Y-13555531D01*
X8017682Y-13555531D02*
X8027206Y-13546008D01*
X8027206Y-13546008D02*
X8046253Y-13536484D01*
X8046253Y-13536484D02*
X8084348Y-13536484D01*
X8084348Y-13536484D02*
X8103396Y-13546008D01*
X8103396Y-13546008D02*
X8112920Y-13555531D01*
X8112920Y-13555531D02*
X8122444Y-13574579D01*
X8122444Y-13574579D02*
X8122444Y-13584103D01*
X8122444Y-13584103D02*
X8112920Y-13603150D01*
X8112920Y-13603150D02*
X8103396Y-13612674D01*
X8103396Y-13612674D02*
X8084348Y-13622198D01*
X8084348Y-13622198D02*
X8046253Y-13622198D01*
X8046253Y-13622198D02*
X8027206Y-13631722D01*
X8027206Y-13631722D02*
X8017682Y-13641246D01*
X8017682Y-13641246D02*
X8008158Y-13660293D01*
X8008158Y-13660293D02*
X8008158Y-13698388D01*
X8008158Y-13698388D02*
X8017682Y-13717436D01*
X8017682Y-13717436D02*
X8027206Y-13726960D01*
X8027206Y-13726960D02*
X8046253Y-13736484D01*
X8046253Y-13736484D02*
X8084348Y-13736484D01*
X8084348Y-13736484D02*
X8103396Y-13726960D01*
X8103396Y-13726960D02*
X8112920Y-13717436D01*
X8112920Y-13717436D02*
X8122444Y-13698388D01*
X8122444Y-13698388D02*
X8122444Y-13660293D01*
X8122444Y-13660293D02*
X8112920Y-13641246D01*
X8112920Y-13641246D02*
X8103396Y-13631722D01*
X8103396Y-13631722D02*
X8084348Y-13622198D01*
X8198634Y-13536484D02*
X8198634Y-13574579D01*
X8274825Y-13536484D02*
X8274825Y-13574579D01*
X8570063Y-13812674D02*
X8560539Y-13803150D01*
X8560539Y-13803150D02*
X8541491Y-13774579D01*
X8541491Y-13774579D02*
X8531968Y-13755531D01*
X8531968Y-13755531D02*
X8522444Y-13726960D01*
X8522444Y-13726960D02*
X8512920Y-13679341D01*
X8512920Y-13679341D02*
X8512920Y-13641246D01*
X8512920Y-13641246D02*
X8522444Y-13593627D01*
X8522444Y-13593627D02*
X8531968Y-13565055D01*
X8531968Y-13565055D02*
X8541491Y-13546008D01*
X8541491Y-13546008D02*
X8560539Y-13517436D01*
X8560539Y-13517436D02*
X8570063Y-13507912D01*
X8627206Y-13536484D02*
X8751015Y-13536484D01*
X8751015Y-13536484D02*
X8684349Y-13612674D01*
X8684349Y-13612674D02*
X8712920Y-13612674D01*
X8712920Y-13612674D02*
X8731968Y-13622198D01*
X8731968Y-13622198D02*
X8741491Y-13631722D01*
X8741491Y-13631722D02*
X8751015Y-13650769D01*
X8751015Y-13650769D02*
X8751015Y-13698388D01*
X8751015Y-13698388D02*
X8741491Y-13717436D01*
X8741491Y-13717436D02*
X8731968Y-13726960D01*
X8731968Y-13726960D02*
X8712920Y-13736484D01*
X8712920Y-13736484D02*
X8655777Y-13736484D01*
X8655777Y-13736484D02*
X8636730Y-13726960D01*
X8636730Y-13726960D02*
X8627206Y-13717436D01*
X8989111Y-13736484D02*
X8989111Y-13536484D01*
X9074825Y-13736484D02*
X9074825Y-13631722D01*
X9074825Y-13631722D02*
X9065301Y-13612674D01*
X9065301Y-13612674D02*
X9046253Y-13603150D01*
X9046253Y-13603150D02*
X9017682Y-13603150D01*
X9017682Y-13603150D02*
X8998634Y-13612674D01*
X8998634Y-13612674D02*
X8989111Y-13622198D01*
X9198634Y-13736484D02*
X9179587Y-13726960D01*
X9179587Y-13726960D02*
X9170063Y-13717436D01*
X9170063Y-13717436D02*
X9160539Y-13698388D01*
X9160539Y-13698388D02*
X9160539Y-13641246D01*
X9160539Y-13641246D02*
X9170063Y-13622198D01*
X9170063Y-13622198D02*
X9179587Y-13612674D01*
X9179587Y-13612674D02*
X9198634Y-13603150D01*
X9198634Y-13603150D02*
X9227206Y-13603150D01*
X9227206Y-13603150D02*
X9246253Y-13612674D01*
X9246253Y-13612674D02*
X9255777Y-13622198D01*
X9255777Y-13622198D02*
X9265301Y-13641246D01*
X9265301Y-13641246D02*
X9265301Y-13698388D01*
X9265301Y-13698388D02*
X9255777Y-13717436D01*
X9255777Y-13717436D02*
X9246253Y-13726960D01*
X9246253Y-13726960D02*
X9227206Y-13736484D01*
X9227206Y-13736484D02*
X9198634Y-13736484D01*
X9379587Y-13736484D02*
X9360539Y-13726960D01*
X9360539Y-13726960D02*
X9351015Y-13707912D01*
X9351015Y-13707912D02*
X9351015Y-13536484D01*
X9531968Y-13726960D02*
X9512920Y-13736484D01*
X9512920Y-13736484D02*
X9474825Y-13736484D01*
X9474825Y-13736484D02*
X9455777Y-13726960D01*
X9455777Y-13726960D02*
X9446253Y-13707912D01*
X9446253Y-13707912D02*
X9446253Y-13631722D01*
X9446253Y-13631722D02*
X9455777Y-13612674D01*
X9455777Y-13612674D02*
X9474825Y-13603150D01*
X9474825Y-13603150D02*
X9512920Y-13603150D01*
X9512920Y-13603150D02*
X9531968Y-13612674D01*
X9531968Y-13612674D02*
X9541492Y-13631722D01*
X9541492Y-13631722D02*
X9541492Y-13650769D01*
X9541492Y-13650769D02*
X9446253Y-13669817D01*
X9617682Y-13726960D02*
X9636730Y-13736484D01*
X9636730Y-13736484D02*
X9674825Y-13736484D01*
X9674825Y-13736484D02*
X9693873Y-13726960D01*
X9693873Y-13726960D02*
X9703396Y-13707912D01*
X9703396Y-13707912D02*
X9703396Y-13698388D01*
X9703396Y-13698388D02*
X9693873Y-13679341D01*
X9693873Y-13679341D02*
X9674825Y-13669817D01*
X9674825Y-13669817D02*
X9646253Y-13669817D01*
X9646253Y-13669817D02*
X9627206Y-13660293D01*
X9627206Y-13660293D02*
X9617682Y-13641246D01*
X9617682Y-13641246D02*
X9617682Y-13631722D01*
X9617682Y-13631722D02*
X9627206Y-13612674D01*
X9627206Y-13612674D02*
X9646253Y-13603150D01*
X9646253Y-13603150D02*
X9674825Y-13603150D01*
X9674825Y-13603150D02*
X9693873Y-13612674D01*
X9770063Y-13812674D02*
X9779587Y-13803150D01*
X9779587Y-13803150D02*
X9798634Y-13774579D01*
X9798634Y-13774579D02*
X9808158Y-13755531D01*
X9808158Y-13755531D02*
X9817682Y-13726960D01*
X9817682Y-13726960D02*
X9827206Y-13679341D01*
X9827206Y-13679341D02*
X9827206Y-13641246D01*
X9827206Y-13641246D02*
X9817682Y-13593627D01*
X9817682Y-13593627D02*
X9808158Y-13565055D01*
X9808158Y-13565055D02*
X9798634Y-13546008D01*
X9798634Y-13546008D02*
X9779587Y-13517436D01*
X9779587Y-13517436D02*
X9770063Y-13507912D01*
D10*
X4995000Y-13909000D02*
G75*
G02*
X4915000Y-13909000I-40000J0D01*
G01*
X4915000Y-13909000D02*
G75*
G02*
X4995000Y-13909000I40000J0D01*
G01*
D11*
X5293872Y-13800484D02*
X5312920Y-13800484D01*
X5312920Y-13800484D02*
X5331967Y-13810008D01*
X5331967Y-13810008D02*
X5341491Y-13819531D01*
X5341491Y-13819531D02*
X5351015Y-13838579D01*
X5351015Y-13838579D02*
X5360539Y-13876674D01*
X5360539Y-13876674D02*
X5360539Y-13924293D01*
X5360539Y-13924293D02*
X5351015Y-13962388D01*
X5351015Y-13962388D02*
X5341491Y-13981436D01*
X5341491Y-13981436D02*
X5331967Y-13990960D01*
X5331967Y-13990960D02*
X5312920Y-14000484D01*
X5312920Y-14000484D02*
X5293872Y-14000484D01*
X5293872Y-14000484D02*
X5274824Y-13990960D01*
X5274824Y-13990960D02*
X5265301Y-13981436D01*
X5265301Y-13981436D02*
X5255777Y-13962388D01*
X5255777Y-13962388D02*
X5246253Y-13924293D01*
X5246253Y-13924293D02*
X5246253Y-13876674D01*
X5246253Y-13876674D02*
X5255777Y-13838579D01*
X5255777Y-13838579D02*
X5265301Y-13819531D01*
X5265301Y-13819531D02*
X5274824Y-13810008D01*
X5274824Y-13810008D02*
X5293872Y-13800484D01*
X5446253Y-13981436D02*
X5455777Y-13990960D01*
X5455777Y-13990960D02*
X5446253Y-14000484D01*
X5446253Y-14000484D02*
X5436729Y-13990960D01*
X5436729Y-13990960D02*
X5446253Y-13981436D01*
X5446253Y-13981436D02*
X5446253Y-14000484D01*
X5570063Y-13886198D02*
X5551015Y-13876674D01*
X5551015Y-13876674D02*
X5541491Y-13867150D01*
X5541491Y-13867150D02*
X5531967Y-13848103D01*
X5531967Y-13848103D02*
X5531967Y-13838579D01*
X5531967Y-13838579D02*
X5541491Y-13819531D01*
X5541491Y-13819531D02*
X5551015Y-13810008D01*
X5551015Y-13810008D02*
X5570063Y-13800484D01*
X5570063Y-13800484D02*
X5608158Y-13800484D01*
X5608158Y-13800484D02*
X5627205Y-13810008D01*
X5627205Y-13810008D02*
X5636729Y-13819531D01*
X5636729Y-13819531D02*
X5646253Y-13838579D01*
X5646253Y-13838579D02*
X5646253Y-13848103D01*
X5646253Y-13848103D02*
X5636729Y-13867150D01*
X5636729Y-13867150D02*
X5627205Y-13876674D01*
X5627205Y-13876674D02*
X5608158Y-13886198D01*
X5608158Y-13886198D02*
X5570063Y-13886198D01*
X5570063Y-13886198D02*
X5551015Y-13895722D01*
X5551015Y-13895722D02*
X5541491Y-13905246D01*
X5541491Y-13905246D02*
X5531967Y-13924293D01*
X5531967Y-13924293D02*
X5531967Y-13962388D01*
X5531967Y-13962388D02*
X5541491Y-13981436D01*
X5541491Y-13981436D02*
X5551015Y-13990960D01*
X5551015Y-13990960D02*
X5570063Y-14000484D01*
X5570063Y-14000484D02*
X5608158Y-14000484D01*
X5608158Y-14000484D02*
X5627205Y-13990960D01*
X5627205Y-13990960D02*
X5636729Y-13981436D01*
X5636729Y-13981436D02*
X5646253Y-13962388D01*
X5646253Y-13962388D02*
X5646253Y-13924293D01*
X5646253Y-13924293D02*
X5636729Y-13905246D01*
X5636729Y-13905246D02*
X5627205Y-13895722D01*
X5627205Y-13895722D02*
X5608158Y-13886198D01*
X5770062Y-13800484D02*
X5789110Y-13800484D01*
X5789110Y-13800484D02*
X5808158Y-13810008D01*
X5808158Y-13810008D02*
X5817682Y-13819531D01*
X5817682Y-13819531D02*
X5827205Y-13838579D01*
X5827205Y-13838579D02*
X5836729Y-13876674D01*
X5836729Y-13876674D02*
X5836729Y-13924293D01*
X5836729Y-13924293D02*
X5827205Y-13962388D01*
X5827205Y-13962388D02*
X5817682Y-13981436D01*
X5817682Y-13981436D02*
X5808158Y-13990960D01*
X5808158Y-13990960D02*
X5789110Y-14000484D01*
X5789110Y-14000484D02*
X5770062Y-14000484D01*
X5770062Y-14000484D02*
X5751015Y-13990960D01*
X5751015Y-13990960D02*
X5741491Y-13981436D01*
X5741491Y-13981436D02*
X5731967Y-13962388D01*
X5731967Y-13962388D02*
X5722443Y-13924293D01*
X5722443Y-13924293D02*
X5722443Y-13876674D01*
X5722443Y-13876674D02*
X5731967Y-13838579D01*
X5731967Y-13838579D02*
X5741491Y-13819531D01*
X5741491Y-13819531D02*
X5751015Y-13810008D01*
X5751015Y-13810008D02*
X5770062Y-13800484D01*
X5960539Y-13800484D02*
X5979586Y-13800484D01*
X5979586Y-13800484D02*
X5998634Y-13810008D01*
X5998634Y-13810008D02*
X6008158Y-13819531D01*
X6008158Y-13819531D02*
X6017682Y-13838579D01*
X6017682Y-13838579D02*
X6027205Y-13876674D01*
X6027205Y-13876674D02*
X6027205Y-13924293D01*
X6027205Y-13924293D02*
X6017682Y-13962388D01*
X6017682Y-13962388D02*
X6008158Y-13981436D01*
X6008158Y-13981436D02*
X5998634Y-13990960D01*
X5998634Y-13990960D02*
X5979586Y-14000484D01*
X5979586Y-14000484D02*
X5960539Y-14000484D01*
X5960539Y-14000484D02*
X5941491Y-13990960D01*
X5941491Y-13990960D02*
X5931967Y-13981436D01*
X5931967Y-13981436D02*
X5922443Y-13962388D01*
X5922443Y-13962388D02*
X5912920Y-13924293D01*
X5912920Y-13924293D02*
X5912920Y-13876674D01*
X5912920Y-13876674D02*
X5922443Y-13838579D01*
X5922443Y-13838579D02*
X5931967Y-13819531D01*
X5931967Y-13819531D02*
X5941491Y-13810008D01*
X5941491Y-13810008D02*
X5960539Y-13800484D01*
X6112920Y-14000484D02*
X6112920Y-13867150D01*
X6112920Y-13886198D02*
X6122443Y-13876674D01*
X6122443Y-13876674D02*
X6141491Y-13867150D01*
X6141491Y-13867150D02*
X6170063Y-13867150D01*
X6170063Y-13867150D02*
X6189110Y-13876674D01*
X6189110Y-13876674D02*
X6198634Y-13895722D01*
X6198634Y-13895722D02*
X6198634Y-14000484D01*
X6198634Y-13895722D02*
X6208158Y-13876674D01*
X6208158Y-13876674D02*
X6227205Y-13867150D01*
X6227205Y-13867150D02*
X6255777Y-13867150D01*
X6255777Y-13867150D02*
X6274824Y-13876674D01*
X6274824Y-13876674D02*
X6284348Y-13895722D01*
X6284348Y-13895722D02*
X6284348Y-14000484D01*
X6379586Y-14000484D02*
X6379586Y-13867150D01*
X6379586Y-13886198D02*
X6389110Y-13876674D01*
X6389110Y-13876674D02*
X6408158Y-13867150D01*
X6408158Y-13867150D02*
X6436729Y-13867150D01*
X6436729Y-13867150D02*
X6455777Y-13876674D01*
X6455777Y-13876674D02*
X6465301Y-13895722D01*
X6465301Y-13895722D02*
X6465301Y-14000484D01*
X6465301Y-13895722D02*
X6474824Y-13876674D01*
X6474824Y-13876674D02*
X6493872Y-13867150D01*
X6493872Y-13867150D02*
X6522443Y-13867150D01*
X6522443Y-13867150D02*
X6541491Y-13876674D01*
X6541491Y-13876674D02*
X6551015Y-13895722D01*
X6551015Y-13895722D02*
X6551015Y-14000484D01*
X6941491Y-13790960D02*
X6770063Y-14048103D01*
X7198634Y-13800484D02*
X7217682Y-13800484D01*
X7217682Y-13800484D02*
X7236729Y-13810008D01*
X7236729Y-13810008D02*
X7246253Y-13819531D01*
X7246253Y-13819531D02*
X7255777Y-13838579D01*
X7255777Y-13838579D02*
X7265301Y-13876674D01*
X7265301Y-13876674D02*
X7265301Y-13924293D01*
X7265301Y-13924293D02*
X7255777Y-13962388D01*
X7255777Y-13962388D02*
X7246253Y-13981436D01*
X7246253Y-13981436D02*
X7236729Y-13990960D01*
X7236729Y-13990960D02*
X7217682Y-14000484D01*
X7217682Y-14000484D02*
X7198634Y-14000484D01*
X7198634Y-14000484D02*
X7179586Y-13990960D01*
X7179586Y-13990960D02*
X7170063Y-13981436D01*
X7170063Y-13981436D02*
X7160539Y-13962388D01*
X7160539Y-13962388D02*
X7151015Y-13924293D01*
X7151015Y-13924293D02*
X7151015Y-13876674D01*
X7151015Y-13876674D02*
X7160539Y-13838579D01*
X7160539Y-13838579D02*
X7170063Y-13819531D01*
X7170063Y-13819531D02*
X7179586Y-13810008D01*
X7179586Y-13810008D02*
X7198634Y-13800484D01*
X7351015Y-13981436D02*
X7360539Y-13990960D01*
X7360539Y-13990960D02*
X7351015Y-14000484D01*
X7351015Y-14000484D02*
X7341491Y-13990960D01*
X7341491Y-13990960D02*
X7351015Y-13981436D01*
X7351015Y-13981436D02*
X7351015Y-14000484D01*
X7484348Y-13800484D02*
X7503396Y-13800484D01*
X7503396Y-13800484D02*
X7522444Y-13810008D01*
X7522444Y-13810008D02*
X7531967Y-13819531D01*
X7531967Y-13819531D02*
X7541491Y-13838579D01*
X7541491Y-13838579D02*
X7551015Y-13876674D01*
X7551015Y-13876674D02*
X7551015Y-13924293D01*
X7551015Y-13924293D02*
X7541491Y-13962388D01*
X7541491Y-13962388D02*
X7531967Y-13981436D01*
X7531967Y-13981436D02*
X7522444Y-13990960D01*
X7522444Y-13990960D02*
X7503396Y-14000484D01*
X7503396Y-14000484D02*
X7484348Y-14000484D01*
X7484348Y-14000484D02*
X7465301Y-13990960D01*
X7465301Y-13990960D02*
X7455777Y-13981436D01*
X7455777Y-13981436D02*
X7446253Y-13962388D01*
X7446253Y-13962388D02*
X7436729Y-13924293D01*
X7436729Y-13924293D02*
X7436729Y-13876674D01*
X7436729Y-13876674D02*
X7446253Y-13838579D01*
X7446253Y-13838579D02*
X7455777Y-13819531D01*
X7455777Y-13819531D02*
X7465301Y-13810008D01*
X7465301Y-13810008D02*
X7484348Y-13800484D01*
X7617682Y-13800484D02*
X7741491Y-13800484D01*
X7741491Y-13800484D02*
X7674825Y-13876674D01*
X7674825Y-13876674D02*
X7703396Y-13876674D01*
X7703396Y-13876674D02*
X7722444Y-13886198D01*
X7722444Y-13886198D02*
X7731967Y-13895722D01*
X7731967Y-13895722D02*
X7741491Y-13914769D01*
X7741491Y-13914769D02*
X7741491Y-13962388D01*
X7741491Y-13962388D02*
X7731967Y-13981436D01*
X7731967Y-13981436D02*
X7722444Y-13990960D01*
X7722444Y-13990960D02*
X7703396Y-14000484D01*
X7703396Y-14000484D02*
X7646253Y-14000484D01*
X7646253Y-14000484D02*
X7627206Y-13990960D01*
X7627206Y-13990960D02*
X7617682Y-13981436D01*
X7931967Y-14000484D02*
X7817682Y-14000484D01*
X7874825Y-14000484D02*
X7874825Y-13800484D01*
X7874825Y-13800484D02*
X7855777Y-13829055D01*
X7855777Y-13829055D02*
X7836729Y-13848103D01*
X7836729Y-13848103D02*
X7817682Y-13857627D01*
X8112920Y-13800484D02*
X8017682Y-13800484D01*
X8017682Y-13800484D02*
X8008158Y-13895722D01*
X8008158Y-13895722D02*
X8017682Y-13886198D01*
X8017682Y-13886198D02*
X8036729Y-13876674D01*
X8036729Y-13876674D02*
X8084348Y-13876674D01*
X8084348Y-13876674D02*
X8103396Y-13886198D01*
X8103396Y-13886198D02*
X8112920Y-13895722D01*
X8112920Y-13895722D02*
X8122444Y-13914769D01*
X8122444Y-13914769D02*
X8122444Y-13962388D01*
X8122444Y-13962388D02*
X8112920Y-13981436D01*
X8112920Y-13981436D02*
X8103396Y-13990960D01*
X8103396Y-13990960D02*
X8084348Y-14000484D01*
X8084348Y-14000484D02*
X8036729Y-14000484D01*
X8036729Y-14000484D02*
X8017682Y-13990960D01*
X8017682Y-13990960D02*
X8008158Y-13981436D01*
X8198634Y-13800484D02*
X8198634Y-13838579D01*
X8274825Y-13800484D02*
X8274825Y-13838579D01*
X8570063Y-14076674D02*
X8560539Y-14067150D01*
X8560539Y-14067150D02*
X8541491Y-14038579D01*
X8541491Y-14038579D02*
X8531968Y-14019531D01*
X8531968Y-14019531D02*
X8522444Y-13990960D01*
X8522444Y-13990960D02*
X8512920Y-13943341D01*
X8512920Y-13943341D02*
X8512920Y-13905246D01*
X8512920Y-13905246D02*
X8522444Y-13857627D01*
X8522444Y-13857627D02*
X8531968Y-13829055D01*
X8531968Y-13829055D02*
X8541491Y-13810008D01*
X8541491Y-13810008D02*
X8560539Y-13781436D01*
X8560539Y-13781436D02*
X8570063Y-13771912D01*
X8731968Y-13867150D02*
X8731968Y-14000484D01*
X8684349Y-13790960D02*
X8636730Y-13933817D01*
X8636730Y-13933817D02*
X8760539Y-13933817D01*
X8922444Y-13867150D02*
X8922444Y-14000484D01*
X8874825Y-13790960D02*
X8827206Y-13933817D01*
X8827206Y-13933817D02*
X8951015Y-13933817D01*
X9179587Y-14000484D02*
X9179587Y-13800484D01*
X9265301Y-14000484D02*
X9265301Y-13895722D01*
X9265301Y-13895722D02*
X9255777Y-13876674D01*
X9255777Y-13876674D02*
X9236730Y-13867150D01*
X9236730Y-13867150D02*
X9208158Y-13867150D01*
X9208158Y-13867150D02*
X9189111Y-13876674D01*
X9189111Y-13876674D02*
X9179587Y-13886198D01*
X9389111Y-14000484D02*
X9370063Y-13990960D01*
X9370063Y-13990960D02*
X9360539Y-13981436D01*
X9360539Y-13981436D02*
X9351015Y-13962388D01*
X9351015Y-13962388D02*
X9351015Y-13905246D01*
X9351015Y-13905246D02*
X9360539Y-13886198D01*
X9360539Y-13886198D02*
X9370063Y-13876674D01*
X9370063Y-13876674D02*
X9389111Y-13867150D01*
X9389111Y-13867150D02*
X9417682Y-13867150D01*
X9417682Y-13867150D02*
X9436730Y-13876674D01*
X9436730Y-13876674D02*
X9446253Y-13886198D01*
X9446253Y-13886198D02*
X9455777Y-13905246D01*
X9455777Y-13905246D02*
X9455777Y-13962388D01*
X9455777Y-13962388D02*
X9446253Y-13981436D01*
X9446253Y-13981436D02*
X9436730Y-13990960D01*
X9436730Y-13990960D02*
X9417682Y-14000484D01*
X9417682Y-14000484D02*
X9389111Y-14000484D01*
X9570063Y-14000484D02*
X9551015Y-13990960D01*
X9551015Y-13990960D02*
X9541492Y-13971912D01*
X9541492Y-13971912D02*
X9541492Y-13800484D01*
X9722444Y-13990960D02*
X9703396Y-14000484D01*
X9703396Y-14000484D02*
X9665301Y-14000484D01*
X9665301Y-14000484D02*
X9646253Y-13990960D01*
X9646253Y-13990960D02*
X9636730Y-13971912D01*
X9636730Y-13971912D02*
X9636730Y-13895722D01*
X9636730Y-13895722D02*
X9646253Y-13876674D01*
X9646253Y-13876674D02*
X9665301Y-13867150D01*
X9665301Y-13867150D02*
X9703396Y-13867150D01*
X9703396Y-13867150D02*
X9722444Y-13876674D01*
X9722444Y-13876674D02*
X9731968Y-13895722D01*
X9731968Y-13895722D02*
X9731968Y-13914769D01*
X9731968Y-13914769D02*
X9636730Y-13933817D01*
X9808158Y-13990960D02*
X9827206Y-14000484D01*
X9827206Y-14000484D02*
X9865301Y-14000484D01*
X9865301Y-14000484D02*
X9884349Y-13990960D01*
X9884349Y-13990960D02*
X9893873Y-13971912D01*
X9893873Y-13971912D02*
X9893873Y-13962388D01*
X9893873Y-13962388D02*
X9884349Y-13943341D01*
X9884349Y-13943341D02*
X9865301Y-13933817D01*
X9865301Y-13933817D02*
X9836730Y-13933817D01*
X9836730Y-13933817D02*
X9817682Y-13924293D01*
X9817682Y-13924293D02*
X9808158Y-13905246D01*
X9808158Y-13905246D02*
X9808158Y-13895722D01*
X9808158Y-13895722D02*
X9817682Y-13876674D01*
X9817682Y-13876674D02*
X9836730Y-13867150D01*
X9836730Y-13867150D02*
X9865301Y-13867150D01*
X9865301Y-13867150D02*
X9884349Y-13876674D01*
X9960539Y-14076674D02*
X9970063Y-14067150D01*
X9970063Y-14067150D02*
X9989111Y-14038579D01*
X9989111Y-14038579D02*
X9998634Y-14019531D01*
X9998634Y-14019531D02*
X10008158Y-13990960D01*
X10008158Y-13990960D02*
X10017682Y-13943341D01*
X10017682Y-13943341D02*
X10017682Y-13905246D01*
X10017682Y-13905246D02*
X10008158Y-13857627D01*
X10008158Y-13857627D02*
X9998634Y-13829055D01*
X9998634Y-13829055D02*
X9989111Y-13810008D01*
X9989111Y-13810008D02*
X9970063Y-13781436D01*
X9970063Y-13781436D02*
X9960539Y-13771912D01*
D10*
X4947500Y-14125500D02*
X4947500Y-14220500D01*
X4900000Y-14173000D02*
X4995000Y-14173000D01*
D11*
X5293872Y-14064484D02*
X5312920Y-14064484D01*
X5312920Y-14064484D02*
X5331967Y-14074008D01*
X5331967Y-14074008D02*
X5341491Y-14083531D01*
X5341491Y-14083531D02*
X5351015Y-14102579D01*
X5351015Y-14102579D02*
X5360539Y-14140674D01*
X5360539Y-14140674D02*
X5360539Y-14188293D01*
X5360539Y-14188293D02*
X5351015Y-14226388D01*
X5351015Y-14226388D02*
X5341491Y-14245436D01*
X5341491Y-14245436D02*
X5331967Y-14254960D01*
X5331967Y-14254960D02*
X5312920Y-14264484D01*
X5312920Y-14264484D02*
X5293872Y-14264484D01*
X5293872Y-14264484D02*
X5274824Y-14254960D01*
X5274824Y-14254960D02*
X5265301Y-14245436D01*
X5265301Y-14245436D02*
X5255777Y-14226388D01*
X5255777Y-14226388D02*
X5246253Y-14188293D01*
X5246253Y-14188293D02*
X5246253Y-14140674D01*
X5246253Y-14140674D02*
X5255777Y-14102579D01*
X5255777Y-14102579D02*
X5265301Y-14083531D01*
X5265301Y-14083531D02*
X5274824Y-14074008D01*
X5274824Y-14074008D02*
X5293872Y-14064484D01*
X5446253Y-14245436D02*
X5455777Y-14254960D01*
X5455777Y-14254960D02*
X5446253Y-14264484D01*
X5446253Y-14264484D02*
X5436729Y-14254960D01*
X5436729Y-14254960D02*
X5446253Y-14245436D01*
X5446253Y-14245436D02*
X5446253Y-14264484D01*
X5551015Y-14264484D02*
X5589110Y-14264484D01*
X5589110Y-14264484D02*
X5608158Y-14254960D01*
X5608158Y-14254960D02*
X5617682Y-14245436D01*
X5617682Y-14245436D02*
X5636729Y-14216865D01*
X5636729Y-14216865D02*
X5646253Y-14178769D01*
X5646253Y-14178769D02*
X5646253Y-14102579D01*
X5646253Y-14102579D02*
X5636729Y-14083531D01*
X5636729Y-14083531D02*
X5627205Y-14074008D01*
X5627205Y-14074008D02*
X5608158Y-14064484D01*
X5608158Y-14064484D02*
X5570063Y-14064484D01*
X5570063Y-14064484D02*
X5551015Y-14074008D01*
X5551015Y-14074008D02*
X5541491Y-14083531D01*
X5541491Y-14083531D02*
X5531967Y-14102579D01*
X5531967Y-14102579D02*
X5531967Y-14150198D01*
X5531967Y-14150198D02*
X5541491Y-14169246D01*
X5541491Y-14169246D02*
X5551015Y-14178769D01*
X5551015Y-14178769D02*
X5570063Y-14188293D01*
X5570063Y-14188293D02*
X5608158Y-14188293D01*
X5608158Y-14188293D02*
X5627205Y-14178769D01*
X5627205Y-14178769D02*
X5636729Y-14169246D01*
X5636729Y-14169246D02*
X5646253Y-14150198D01*
X5827205Y-14064484D02*
X5731967Y-14064484D01*
X5731967Y-14064484D02*
X5722443Y-14159722D01*
X5722443Y-14159722D02*
X5731967Y-14150198D01*
X5731967Y-14150198D02*
X5751015Y-14140674D01*
X5751015Y-14140674D02*
X5798634Y-14140674D01*
X5798634Y-14140674D02*
X5817682Y-14150198D01*
X5817682Y-14150198D02*
X5827205Y-14159722D01*
X5827205Y-14159722D02*
X5836729Y-14178769D01*
X5836729Y-14178769D02*
X5836729Y-14226388D01*
X5836729Y-14226388D02*
X5827205Y-14245436D01*
X5827205Y-14245436D02*
X5817682Y-14254960D01*
X5817682Y-14254960D02*
X5798634Y-14264484D01*
X5798634Y-14264484D02*
X5751015Y-14264484D01*
X5751015Y-14264484D02*
X5731967Y-14254960D01*
X5731967Y-14254960D02*
X5722443Y-14245436D01*
X5960539Y-14064484D02*
X5979586Y-14064484D01*
X5979586Y-14064484D02*
X5998634Y-14074008D01*
X5998634Y-14074008D02*
X6008158Y-14083531D01*
X6008158Y-14083531D02*
X6017682Y-14102579D01*
X6017682Y-14102579D02*
X6027205Y-14140674D01*
X6027205Y-14140674D02*
X6027205Y-14188293D01*
X6027205Y-14188293D02*
X6017682Y-14226388D01*
X6017682Y-14226388D02*
X6008158Y-14245436D01*
X6008158Y-14245436D02*
X5998634Y-14254960D01*
X5998634Y-14254960D02*
X5979586Y-14264484D01*
X5979586Y-14264484D02*
X5960539Y-14264484D01*
X5960539Y-14264484D02*
X5941491Y-14254960D01*
X5941491Y-14254960D02*
X5931967Y-14245436D01*
X5931967Y-14245436D02*
X5922443Y-14226388D01*
X5922443Y-14226388D02*
X5912920Y-14188293D01*
X5912920Y-14188293D02*
X5912920Y-14140674D01*
X5912920Y-14140674D02*
X5922443Y-14102579D01*
X5922443Y-14102579D02*
X5931967Y-14083531D01*
X5931967Y-14083531D02*
X5941491Y-14074008D01*
X5941491Y-14074008D02*
X5960539Y-14064484D01*
X6112920Y-14264484D02*
X6112920Y-14131150D01*
X6112920Y-14150198D02*
X6122443Y-14140674D01*
X6122443Y-14140674D02*
X6141491Y-14131150D01*
X6141491Y-14131150D02*
X6170063Y-14131150D01*
X6170063Y-14131150D02*
X6189110Y-14140674D01*
X6189110Y-14140674D02*
X6198634Y-14159722D01*
X6198634Y-14159722D02*
X6198634Y-14264484D01*
X6198634Y-14159722D02*
X6208158Y-14140674D01*
X6208158Y-14140674D02*
X6227205Y-14131150D01*
X6227205Y-14131150D02*
X6255777Y-14131150D01*
X6255777Y-14131150D02*
X6274824Y-14140674D01*
X6274824Y-14140674D02*
X6284348Y-14159722D01*
X6284348Y-14159722D02*
X6284348Y-14264484D01*
X6379586Y-14264484D02*
X6379586Y-14131150D01*
X6379586Y-14150198D02*
X6389110Y-14140674D01*
X6389110Y-14140674D02*
X6408158Y-14131150D01*
X6408158Y-14131150D02*
X6436729Y-14131150D01*
X6436729Y-14131150D02*
X6455777Y-14140674D01*
X6455777Y-14140674D02*
X6465301Y-14159722D01*
X6465301Y-14159722D02*
X6465301Y-14264484D01*
X6465301Y-14159722D02*
X6474824Y-14140674D01*
X6474824Y-14140674D02*
X6493872Y-14131150D01*
X6493872Y-14131150D02*
X6522443Y-14131150D01*
X6522443Y-14131150D02*
X6541491Y-14140674D01*
X6541491Y-14140674D02*
X6551015Y-14159722D01*
X6551015Y-14159722D02*
X6551015Y-14264484D01*
X6941491Y-14054960D02*
X6770063Y-14312103D01*
X7198634Y-14064484D02*
X7217682Y-14064484D01*
X7217682Y-14064484D02*
X7236729Y-14074008D01*
X7236729Y-14074008D02*
X7246253Y-14083531D01*
X7246253Y-14083531D02*
X7255777Y-14102579D01*
X7255777Y-14102579D02*
X7265301Y-14140674D01*
X7265301Y-14140674D02*
X7265301Y-14188293D01*
X7265301Y-14188293D02*
X7255777Y-14226388D01*
X7255777Y-14226388D02*
X7246253Y-14245436D01*
X7246253Y-14245436D02*
X7236729Y-14254960D01*
X7236729Y-14254960D02*
X7217682Y-14264484D01*
X7217682Y-14264484D02*
X7198634Y-14264484D01*
X7198634Y-14264484D02*
X7179586Y-14254960D01*
X7179586Y-14254960D02*
X7170063Y-14245436D01*
X7170063Y-14245436D02*
X7160539Y-14226388D01*
X7160539Y-14226388D02*
X7151015Y-14188293D01*
X7151015Y-14188293D02*
X7151015Y-14140674D01*
X7151015Y-14140674D02*
X7160539Y-14102579D01*
X7160539Y-14102579D02*
X7170063Y-14083531D01*
X7170063Y-14083531D02*
X7179586Y-14074008D01*
X7179586Y-14074008D02*
X7198634Y-14064484D01*
X7351015Y-14245436D02*
X7360539Y-14254960D01*
X7360539Y-14254960D02*
X7351015Y-14264484D01*
X7351015Y-14264484D02*
X7341491Y-14254960D01*
X7341491Y-14254960D02*
X7351015Y-14245436D01*
X7351015Y-14245436D02*
X7351015Y-14264484D01*
X7484348Y-14064484D02*
X7503396Y-14064484D01*
X7503396Y-14064484D02*
X7522444Y-14074008D01*
X7522444Y-14074008D02*
X7531967Y-14083531D01*
X7531967Y-14083531D02*
X7541491Y-14102579D01*
X7541491Y-14102579D02*
X7551015Y-14140674D01*
X7551015Y-14140674D02*
X7551015Y-14188293D01*
X7551015Y-14188293D02*
X7541491Y-14226388D01*
X7541491Y-14226388D02*
X7531967Y-14245436D01*
X7531967Y-14245436D02*
X7522444Y-14254960D01*
X7522444Y-14254960D02*
X7503396Y-14264484D01*
X7503396Y-14264484D02*
X7484348Y-14264484D01*
X7484348Y-14264484D02*
X7465301Y-14254960D01*
X7465301Y-14254960D02*
X7455777Y-14245436D01*
X7455777Y-14245436D02*
X7446253Y-14226388D01*
X7446253Y-14226388D02*
X7436729Y-14188293D01*
X7436729Y-14188293D02*
X7436729Y-14140674D01*
X7436729Y-14140674D02*
X7446253Y-14102579D01*
X7446253Y-14102579D02*
X7455777Y-14083531D01*
X7455777Y-14083531D02*
X7465301Y-14074008D01*
X7465301Y-14074008D02*
X7484348Y-14064484D01*
X7617682Y-14064484D02*
X7741491Y-14064484D01*
X7741491Y-14064484D02*
X7674825Y-14140674D01*
X7674825Y-14140674D02*
X7703396Y-14140674D01*
X7703396Y-14140674D02*
X7722444Y-14150198D01*
X7722444Y-14150198D02*
X7731967Y-14159722D01*
X7731967Y-14159722D02*
X7741491Y-14178769D01*
X7741491Y-14178769D02*
X7741491Y-14226388D01*
X7741491Y-14226388D02*
X7731967Y-14245436D01*
X7731967Y-14245436D02*
X7722444Y-14254960D01*
X7722444Y-14254960D02*
X7703396Y-14264484D01*
X7703396Y-14264484D02*
X7646253Y-14264484D01*
X7646253Y-14264484D02*
X7627206Y-14254960D01*
X7627206Y-14254960D02*
X7617682Y-14245436D01*
X7808158Y-14064484D02*
X7941491Y-14064484D01*
X7941491Y-14064484D02*
X7855777Y-14264484D01*
X8103396Y-14131150D02*
X8103396Y-14264484D01*
X8055777Y-14054960D02*
X8008158Y-14197817D01*
X8008158Y-14197817D02*
X8131967Y-14197817D01*
X8198634Y-14064484D02*
X8198634Y-14102579D01*
X8274825Y-14064484D02*
X8274825Y-14102579D01*
X8570063Y-14340674D02*
X8560539Y-14331150D01*
X8560539Y-14331150D02*
X8541491Y-14302579D01*
X8541491Y-14302579D02*
X8531968Y-14283531D01*
X8531968Y-14283531D02*
X8522444Y-14254960D01*
X8522444Y-14254960D02*
X8512920Y-14207341D01*
X8512920Y-14207341D02*
X8512920Y-14169246D01*
X8512920Y-14169246D02*
X8522444Y-14121627D01*
X8522444Y-14121627D02*
X8531968Y-14093055D01*
X8531968Y-14093055D02*
X8541491Y-14074008D01*
X8541491Y-14074008D02*
X8560539Y-14045436D01*
X8560539Y-14045436D02*
X8570063Y-14035912D01*
X8731968Y-14064484D02*
X8693872Y-14064484D01*
X8693872Y-14064484D02*
X8674825Y-14074008D01*
X8674825Y-14074008D02*
X8665301Y-14083531D01*
X8665301Y-14083531D02*
X8646253Y-14112103D01*
X8646253Y-14112103D02*
X8636730Y-14150198D01*
X8636730Y-14150198D02*
X8636730Y-14226388D01*
X8636730Y-14226388D02*
X8646253Y-14245436D01*
X8646253Y-14245436D02*
X8655777Y-14254960D01*
X8655777Y-14254960D02*
X8674825Y-14264484D01*
X8674825Y-14264484D02*
X8712920Y-14264484D01*
X8712920Y-14264484D02*
X8731968Y-14254960D01*
X8731968Y-14254960D02*
X8741491Y-14245436D01*
X8741491Y-14245436D02*
X8751015Y-14226388D01*
X8751015Y-14226388D02*
X8751015Y-14178769D01*
X8751015Y-14178769D02*
X8741491Y-14159722D01*
X8741491Y-14159722D02*
X8731968Y-14150198D01*
X8731968Y-14150198D02*
X8712920Y-14140674D01*
X8712920Y-14140674D02*
X8674825Y-14140674D01*
X8674825Y-14140674D02*
X8655777Y-14150198D01*
X8655777Y-14150198D02*
X8646253Y-14159722D01*
X8646253Y-14159722D02*
X8636730Y-14178769D01*
X8989111Y-14264484D02*
X8989111Y-14064484D01*
X9074825Y-14264484D02*
X9074825Y-14159722D01*
X9074825Y-14159722D02*
X9065301Y-14140674D01*
X9065301Y-14140674D02*
X9046253Y-14131150D01*
X9046253Y-14131150D02*
X9017682Y-14131150D01*
X9017682Y-14131150D02*
X8998634Y-14140674D01*
X8998634Y-14140674D02*
X8989111Y-14150198D01*
X9198634Y-14264484D02*
X9179587Y-14254960D01*
X9179587Y-14254960D02*
X9170063Y-14245436D01*
X9170063Y-14245436D02*
X9160539Y-14226388D01*
X9160539Y-14226388D02*
X9160539Y-14169246D01*
X9160539Y-14169246D02*
X9170063Y-14150198D01*
X9170063Y-14150198D02*
X9179587Y-14140674D01*
X9179587Y-14140674D02*
X9198634Y-14131150D01*
X9198634Y-14131150D02*
X9227206Y-14131150D01*
X9227206Y-14131150D02*
X9246253Y-14140674D01*
X9246253Y-14140674D02*
X9255777Y-14150198D01*
X9255777Y-14150198D02*
X9265301Y-14169246D01*
X9265301Y-14169246D02*
X9265301Y-14226388D01*
X9265301Y-14226388D02*
X9255777Y-14245436D01*
X9255777Y-14245436D02*
X9246253Y-14254960D01*
X9246253Y-14254960D02*
X9227206Y-14264484D01*
X9227206Y-14264484D02*
X9198634Y-14264484D01*
X9379587Y-14264484D02*
X9360539Y-14254960D01*
X9360539Y-14254960D02*
X9351015Y-14235912D01*
X9351015Y-14235912D02*
X9351015Y-14064484D01*
X9531968Y-14254960D02*
X9512920Y-14264484D01*
X9512920Y-14264484D02*
X9474825Y-14264484D01*
X9474825Y-14264484D02*
X9455777Y-14254960D01*
X9455777Y-14254960D02*
X9446253Y-14235912D01*
X9446253Y-14235912D02*
X9446253Y-14159722D01*
X9446253Y-14159722D02*
X9455777Y-14140674D01*
X9455777Y-14140674D02*
X9474825Y-14131150D01*
X9474825Y-14131150D02*
X9512920Y-14131150D01*
X9512920Y-14131150D02*
X9531968Y-14140674D01*
X9531968Y-14140674D02*
X9541492Y-14159722D01*
X9541492Y-14159722D02*
X9541492Y-14178769D01*
X9541492Y-14178769D02*
X9446253Y-14197817D01*
X9617682Y-14254960D02*
X9636730Y-14264484D01*
X9636730Y-14264484D02*
X9674825Y-14264484D01*
X9674825Y-14264484D02*
X9693873Y-14254960D01*
X9693873Y-14254960D02*
X9703396Y-14235912D01*
X9703396Y-14235912D02*
X9703396Y-14226388D01*
X9703396Y-14226388D02*
X9693873Y-14207341D01*
X9693873Y-14207341D02*
X9674825Y-14197817D01*
X9674825Y-14197817D02*
X9646253Y-14197817D01*
X9646253Y-14197817D02*
X9627206Y-14188293D01*
X9627206Y-14188293D02*
X9617682Y-14169246D01*
X9617682Y-14169246D02*
X9617682Y-14159722D01*
X9617682Y-14159722D02*
X9627206Y-14140674D01*
X9627206Y-14140674D02*
X9646253Y-14131150D01*
X9646253Y-14131150D02*
X9674825Y-14131150D01*
X9674825Y-14131150D02*
X9693873Y-14140674D01*
X9770063Y-14340674D02*
X9779587Y-14331150D01*
X9779587Y-14331150D02*
X9798634Y-14302579D01*
X9798634Y-14302579D02*
X9808158Y-14283531D01*
X9808158Y-14283531D02*
X9817682Y-14254960D01*
X9817682Y-14254960D02*
X9827206Y-14207341D01*
X9827206Y-14207341D02*
X9827206Y-14169246D01*
X9827206Y-14169246D02*
X9817682Y-14121627D01*
X9817682Y-14121627D02*
X9808158Y-14093055D01*
X9808158Y-14093055D02*
X9798634Y-14074008D01*
X9798634Y-14074008D02*
X9779587Y-14045436D01*
X9779587Y-14045436D02*
X9770063Y-14035912D01*
D10*
X4980356Y-14472356D02*
X4980356Y-14401644D01*
X4909644Y-14401644D01*
X4909644Y-14472356D01*
X4980356Y-14472356D01*
D11*
X5360539Y-14528484D02*
X5246253Y-14528484D01*
X5303396Y-14528484D02*
X5303396Y-14328484D01*
X5303396Y-14328484D02*
X5284348Y-14357055D01*
X5284348Y-14357055D02*
X5265301Y-14376103D01*
X5265301Y-14376103D02*
X5246253Y-14385627D01*
X5446253Y-14509436D02*
X5455777Y-14518960D01*
X5455777Y-14518960D02*
X5446253Y-14528484D01*
X5446253Y-14528484D02*
X5436729Y-14518960D01*
X5436729Y-14518960D02*
X5446253Y-14509436D01*
X5446253Y-14509436D02*
X5446253Y-14528484D01*
X5579586Y-14328484D02*
X5598634Y-14328484D01*
X5598634Y-14328484D02*
X5617682Y-14338008D01*
X5617682Y-14338008D02*
X5627205Y-14347531D01*
X5627205Y-14347531D02*
X5636729Y-14366579D01*
X5636729Y-14366579D02*
X5646253Y-14404674D01*
X5646253Y-14404674D02*
X5646253Y-14452293D01*
X5646253Y-14452293D02*
X5636729Y-14490388D01*
X5636729Y-14490388D02*
X5627205Y-14509436D01*
X5627205Y-14509436D02*
X5617682Y-14518960D01*
X5617682Y-14518960D02*
X5598634Y-14528484D01*
X5598634Y-14528484D02*
X5579586Y-14528484D01*
X5579586Y-14528484D02*
X5560539Y-14518960D01*
X5560539Y-14518960D02*
X5551015Y-14509436D01*
X5551015Y-14509436D02*
X5541491Y-14490388D01*
X5541491Y-14490388D02*
X5531967Y-14452293D01*
X5531967Y-14452293D02*
X5531967Y-14404674D01*
X5531967Y-14404674D02*
X5541491Y-14366579D01*
X5541491Y-14366579D02*
X5551015Y-14347531D01*
X5551015Y-14347531D02*
X5560539Y-14338008D01*
X5560539Y-14338008D02*
X5579586Y-14328484D01*
X5770062Y-14328484D02*
X5789110Y-14328484D01*
X5789110Y-14328484D02*
X5808158Y-14338008D01*
X5808158Y-14338008D02*
X5817682Y-14347531D01*
X5817682Y-14347531D02*
X5827205Y-14366579D01*
X5827205Y-14366579D02*
X5836729Y-14404674D01*
X5836729Y-14404674D02*
X5836729Y-14452293D01*
X5836729Y-14452293D02*
X5827205Y-14490388D01*
X5827205Y-14490388D02*
X5817682Y-14509436D01*
X5817682Y-14509436D02*
X5808158Y-14518960D01*
X5808158Y-14518960D02*
X5789110Y-14528484D01*
X5789110Y-14528484D02*
X5770062Y-14528484D01*
X5770062Y-14528484D02*
X5751015Y-14518960D01*
X5751015Y-14518960D02*
X5741491Y-14509436D01*
X5741491Y-14509436D02*
X5731967Y-14490388D01*
X5731967Y-14490388D02*
X5722443Y-14452293D01*
X5722443Y-14452293D02*
X5722443Y-14404674D01*
X5722443Y-14404674D02*
X5731967Y-14366579D01*
X5731967Y-14366579D02*
X5741491Y-14347531D01*
X5741491Y-14347531D02*
X5751015Y-14338008D01*
X5751015Y-14338008D02*
X5770062Y-14328484D01*
X5960539Y-14328484D02*
X5979586Y-14328484D01*
X5979586Y-14328484D02*
X5998634Y-14338008D01*
X5998634Y-14338008D02*
X6008158Y-14347531D01*
X6008158Y-14347531D02*
X6017682Y-14366579D01*
X6017682Y-14366579D02*
X6027205Y-14404674D01*
X6027205Y-14404674D02*
X6027205Y-14452293D01*
X6027205Y-14452293D02*
X6017682Y-14490388D01*
X6017682Y-14490388D02*
X6008158Y-14509436D01*
X6008158Y-14509436D02*
X5998634Y-14518960D01*
X5998634Y-14518960D02*
X5979586Y-14528484D01*
X5979586Y-14528484D02*
X5960539Y-14528484D01*
X5960539Y-14528484D02*
X5941491Y-14518960D01*
X5941491Y-14518960D02*
X5931967Y-14509436D01*
X5931967Y-14509436D02*
X5922443Y-14490388D01*
X5922443Y-14490388D02*
X5912920Y-14452293D01*
X5912920Y-14452293D02*
X5912920Y-14404674D01*
X5912920Y-14404674D02*
X5922443Y-14366579D01*
X5922443Y-14366579D02*
X5931967Y-14347531D01*
X5931967Y-14347531D02*
X5941491Y-14338008D01*
X5941491Y-14338008D02*
X5960539Y-14328484D01*
X6112920Y-14528484D02*
X6112920Y-14395150D01*
X6112920Y-14414198D02*
X6122443Y-14404674D01*
X6122443Y-14404674D02*
X6141491Y-14395150D01*
X6141491Y-14395150D02*
X6170063Y-14395150D01*
X6170063Y-14395150D02*
X6189110Y-14404674D01*
X6189110Y-14404674D02*
X6198634Y-14423722D01*
X6198634Y-14423722D02*
X6198634Y-14528484D01*
X6198634Y-14423722D02*
X6208158Y-14404674D01*
X6208158Y-14404674D02*
X6227205Y-14395150D01*
X6227205Y-14395150D02*
X6255777Y-14395150D01*
X6255777Y-14395150D02*
X6274824Y-14404674D01*
X6274824Y-14404674D02*
X6284348Y-14423722D01*
X6284348Y-14423722D02*
X6284348Y-14528484D01*
X6379586Y-14528484D02*
X6379586Y-14395150D01*
X6379586Y-14414198D02*
X6389110Y-14404674D01*
X6389110Y-14404674D02*
X6408158Y-14395150D01*
X6408158Y-14395150D02*
X6436729Y-14395150D01*
X6436729Y-14395150D02*
X6455777Y-14404674D01*
X6455777Y-14404674D02*
X6465301Y-14423722D01*
X6465301Y-14423722D02*
X6465301Y-14528484D01*
X6465301Y-14423722D02*
X6474824Y-14404674D01*
X6474824Y-14404674D02*
X6493872Y-14395150D01*
X6493872Y-14395150D02*
X6522443Y-14395150D01*
X6522443Y-14395150D02*
X6541491Y-14404674D01*
X6541491Y-14404674D02*
X6551015Y-14423722D01*
X6551015Y-14423722D02*
X6551015Y-14528484D01*
X6941491Y-14318960D02*
X6770063Y-14576103D01*
X7198634Y-14328484D02*
X7217682Y-14328484D01*
X7217682Y-14328484D02*
X7236729Y-14338008D01*
X7236729Y-14338008D02*
X7246253Y-14347531D01*
X7246253Y-14347531D02*
X7255777Y-14366579D01*
X7255777Y-14366579D02*
X7265301Y-14404674D01*
X7265301Y-14404674D02*
X7265301Y-14452293D01*
X7265301Y-14452293D02*
X7255777Y-14490388D01*
X7255777Y-14490388D02*
X7246253Y-14509436D01*
X7246253Y-14509436D02*
X7236729Y-14518960D01*
X7236729Y-14518960D02*
X7217682Y-14528484D01*
X7217682Y-14528484D02*
X7198634Y-14528484D01*
X7198634Y-14528484D02*
X7179586Y-14518960D01*
X7179586Y-14518960D02*
X7170063Y-14509436D01*
X7170063Y-14509436D02*
X7160539Y-14490388D01*
X7160539Y-14490388D02*
X7151015Y-14452293D01*
X7151015Y-14452293D02*
X7151015Y-14404674D01*
X7151015Y-14404674D02*
X7160539Y-14366579D01*
X7160539Y-14366579D02*
X7170063Y-14347531D01*
X7170063Y-14347531D02*
X7179586Y-14338008D01*
X7179586Y-14338008D02*
X7198634Y-14328484D01*
X7351015Y-14509436D02*
X7360539Y-14518960D01*
X7360539Y-14518960D02*
X7351015Y-14528484D01*
X7351015Y-14528484D02*
X7341491Y-14518960D01*
X7341491Y-14518960D02*
X7351015Y-14509436D01*
X7351015Y-14509436D02*
X7351015Y-14528484D01*
X7484348Y-14328484D02*
X7503396Y-14328484D01*
X7503396Y-14328484D02*
X7522444Y-14338008D01*
X7522444Y-14338008D02*
X7531967Y-14347531D01*
X7531967Y-14347531D02*
X7541491Y-14366579D01*
X7541491Y-14366579D02*
X7551015Y-14404674D01*
X7551015Y-14404674D02*
X7551015Y-14452293D01*
X7551015Y-14452293D02*
X7541491Y-14490388D01*
X7541491Y-14490388D02*
X7531967Y-14509436D01*
X7531967Y-14509436D02*
X7522444Y-14518960D01*
X7522444Y-14518960D02*
X7503396Y-14528484D01*
X7503396Y-14528484D02*
X7484348Y-14528484D01*
X7484348Y-14528484D02*
X7465301Y-14518960D01*
X7465301Y-14518960D02*
X7455777Y-14509436D01*
X7455777Y-14509436D02*
X7446253Y-14490388D01*
X7446253Y-14490388D02*
X7436729Y-14452293D01*
X7436729Y-14452293D02*
X7436729Y-14404674D01*
X7436729Y-14404674D02*
X7446253Y-14366579D01*
X7446253Y-14366579D02*
X7455777Y-14347531D01*
X7455777Y-14347531D02*
X7465301Y-14338008D01*
X7465301Y-14338008D02*
X7484348Y-14328484D01*
X7617682Y-14328484D02*
X7741491Y-14328484D01*
X7741491Y-14328484D02*
X7674825Y-14404674D01*
X7674825Y-14404674D02*
X7703396Y-14404674D01*
X7703396Y-14404674D02*
X7722444Y-14414198D01*
X7722444Y-14414198D02*
X7731967Y-14423722D01*
X7731967Y-14423722D02*
X7741491Y-14442769D01*
X7741491Y-14442769D02*
X7741491Y-14490388D01*
X7741491Y-14490388D02*
X7731967Y-14509436D01*
X7731967Y-14509436D02*
X7722444Y-14518960D01*
X7722444Y-14518960D02*
X7703396Y-14528484D01*
X7703396Y-14528484D02*
X7646253Y-14528484D01*
X7646253Y-14528484D02*
X7627206Y-14518960D01*
X7627206Y-14518960D02*
X7617682Y-14509436D01*
X7836729Y-14528484D02*
X7874825Y-14528484D01*
X7874825Y-14528484D02*
X7893872Y-14518960D01*
X7893872Y-14518960D02*
X7903396Y-14509436D01*
X7903396Y-14509436D02*
X7922444Y-14480865D01*
X7922444Y-14480865D02*
X7931967Y-14442769D01*
X7931967Y-14442769D02*
X7931967Y-14366579D01*
X7931967Y-14366579D02*
X7922444Y-14347531D01*
X7922444Y-14347531D02*
X7912920Y-14338008D01*
X7912920Y-14338008D02*
X7893872Y-14328484D01*
X7893872Y-14328484D02*
X7855777Y-14328484D01*
X7855777Y-14328484D02*
X7836729Y-14338008D01*
X7836729Y-14338008D02*
X7827206Y-14347531D01*
X7827206Y-14347531D02*
X7817682Y-14366579D01*
X7817682Y-14366579D02*
X7817682Y-14414198D01*
X7817682Y-14414198D02*
X7827206Y-14433246D01*
X7827206Y-14433246D02*
X7836729Y-14442769D01*
X7836729Y-14442769D02*
X7855777Y-14452293D01*
X7855777Y-14452293D02*
X7893872Y-14452293D01*
X7893872Y-14452293D02*
X7912920Y-14442769D01*
X7912920Y-14442769D02*
X7922444Y-14433246D01*
X7922444Y-14433246D02*
X7931967Y-14414198D01*
X8103396Y-14395150D02*
X8103396Y-14528484D01*
X8055777Y-14318960D02*
X8008158Y-14461817D01*
X8008158Y-14461817D02*
X8131967Y-14461817D01*
X8198634Y-14328484D02*
X8198634Y-14366579D01*
X8274825Y-14328484D02*
X8274825Y-14366579D01*
X8570063Y-14604674D02*
X8560539Y-14595150D01*
X8560539Y-14595150D02*
X8541491Y-14566579D01*
X8541491Y-14566579D02*
X8531968Y-14547531D01*
X8531968Y-14547531D02*
X8522444Y-14518960D01*
X8522444Y-14518960D02*
X8512920Y-14471341D01*
X8512920Y-14471341D02*
X8512920Y-14433246D01*
X8512920Y-14433246D02*
X8522444Y-14385627D01*
X8522444Y-14385627D02*
X8531968Y-14357055D01*
X8531968Y-14357055D02*
X8541491Y-14338008D01*
X8541491Y-14338008D02*
X8560539Y-14309436D01*
X8560539Y-14309436D02*
X8570063Y-14299912D01*
X8627206Y-14328484D02*
X8751015Y-14328484D01*
X8751015Y-14328484D02*
X8684349Y-14404674D01*
X8684349Y-14404674D02*
X8712920Y-14404674D01*
X8712920Y-14404674D02*
X8731968Y-14414198D01*
X8731968Y-14414198D02*
X8741491Y-14423722D01*
X8741491Y-14423722D02*
X8751015Y-14442769D01*
X8751015Y-14442769D02*
X8751015Y-14490388D01*
X8751015Y-14490388D02*
X8741491Y-14509436D01*
X8741491Y-14509436D02*
X8731968Y-14518960D01*
X8731968Y-14518960D02*
X8712920Y-14528484D01*
X8712920Y-14528484D02*
X8655777Y-14528484D01*
X8655777Y-14528484D02*
X8636730Y-14518960D01*
X8636730Y-14518960D02*
X8627206Y-14509436D01*
X8922444Y-14328484D02*
X8884349Y-14328484D01*
X8884349Y-14328484D02*
X8865301Y-14338008D01*
X8865301Y-14338008D02*
X8855777Y-14347531D01*
X8855777Y-14347531D02*
X8836730Y-14376103D01*
X8836730Y-14376103D02*
X8827206Y-14414198D01*
X8827206Y-14414198D02*
X8827206Y-14490388D01*
X8827206Y-14490388D02*
X8836730Y-14509436D01*
X8836730Y-14509436D02*
X8846253Y-14518960D01*
X8846253Y-14518960D02*
X8865301Y-14528484D01*
X8865301Y-14528484D02*
X8903396Y-14528484D01*
X8903396Y-14528484D02*
X8922444Y-14518960D01*
X8922444Y-14518960D02*
X8931968Y-14509436D01*
X8931968Y-14509436D02*
X8941491Y-14490388D01*
X8941491Y-14490388D02*
X8941491Y-14442769D01*
X8941491Y-14442769D02*
X8931968Y-14423722D01*
X8931968Y-14423722D02*
X8922444Y-14414198D01*
X8922444Y-14414198D02*
X8903396Y-14404674D01*
X8903396Y-14404674D02*
X8865301Y-14404674D01*
X8865301Y-14404674D02*
X8846253Y-14414198D01*
X8846253Y-14414198D02*
X8836730Y-14423722D01*
X8836730Y-14423722D02*
X8827206Y-14442769D01*
X9179587Y-14528484D02*
X9179587Y-14328484D01*
X9265301Y-14528484D02*
X9265301Y-14423722D01*
X9265301Y-14423722D02*
X9255777Y-14404674D01*
X9255777Y-14404674D02*
X9236730Y-14395150D01*
X9236730Y-14395150D02*
X9208158Y-14395150D01*
X9208158Y-14395150D02*
X9189111Y-14404674D01*
X9189111Y-14404674D02*
X9179587Y-14414198D01*
X9389111Y-14528484D02*
X9370063Y-14518960D01*
X9370063Y-14518960D02*
X9360539Y-14509436D01*
X9360539Y-14509436D02*
X9351015Y-14490388D01*
X9351015Y-14490388D02*
X9351015Y-14433246D01*
X9351015Y-14433246D02*
X9360539Y-14414198D01*
X9360539Y-14414198D02*
X9370063Y-14404674D01*
X9370063Y-14404674D02*
X9389111Y-14395150D01*
X9389111Y-14395150D02*
X9417682Y-14395150D01*
X9417682Y-14395150D02*
X9436730Y-14404674D01*
X9436730Y-14404674D02*
X9446253Y-14414198D01*
X9446253Y-14414198D02*
X9455777Y-14433246D01*
X9455777Y-14433246D02*
X9455777Y-14490388D01*
X9455777Y-14490388D02*
X9446253Y-14509436D01*
X9446253Y-14509436D02*
X9436730Y-14518960D01*
X9436730Y-14518960D02*
X9417682Y-14528484D01*
X9417682Y-14528484D02*
X9389111Y-14528484D01*
X9570063Y-14528484D02*
X9551015Y-14518960D01*
X9551015Y-14518960D02*
X9541492Y-14499912D01*
X9541492Y-14499912D02*
X9541492Y-14328484D01*
X9722444Y-14518960D02*
X9703396Y-14528484D01*
X9703396Y-14528484D02*
X9665301Y-14528484D01*
X9665301Y-14528484D02*
X9646253Y-14518960D01*
X9646253Y-14518960D02*
X9636730Y-14499912D01*
X9636730Y-14499912D02*
X9636730Y-14423722D01*
X9636730Y-14423722D02*
X9646253Y-14404674D01*
X9646253Y-14404674D02*
X9665301Y-14395150D01*
X9665301Y-14395150D02*
X9703396Y-14395150D01*
X9703396Y-14395150D02*
X9722444Y-14404674D01*
X9722444Y-14404674D02*
X9731968Y-14423722D01*
X9731968Y-14423722D02*
X9731968Y-14442769D01*
X9731968Y-14442769D02*
X9636730Y-14461817D01*
X9808158Y-14518960D02*
X9827206Y-14528484D01*
X9827206Y-14528484D02*
X9865301Y-14528484D01*
X9865301Y-14528484D02*
X9884349Y-14518960D01*
X9884349Y-14518960D02*
X9893873Y-14499912D01*
X9893873Y-14499912D02*
X9893873Y-14490388D01*
X9893873Y-14490388D02*
X9884349Y-14471341D01*
X9884349Y-14471341D02*
X9865301Y-14461817D01*
X9865301Y-14461817D02*
X9836730Y-14461817D01*
X9836730Y-14461817D02*
X9817682Y-14452293D01*
X9817682Y-14452293D02*
X9808158Y-14433246D01*
X9808158Y-14433246D02*
X9808158Y-14423722D01*
X9808158Y-14423722D02*
X9817682Y-14404674D01*
X9817682Y-14404674D02*
X9836730Y-14395150D01*
X9836730Y-14395150D02*
X9865301Y-14395150D01*
X9865301Y-14395150D02*
X9884349Y-14404674D01*
X9960539Y-14604674D02*
X9970063Y-14595150D01*
X9970063Y-14595150D02*
X9989111Y-14566579D01*
X9989111Y-14566579D02*
X9998634Y-14547531D01*
X9998634Y-14547531D02*
X10008158Y-14518960D01*
X10008158Y-14518960D02*
X10017682Y-14471341D01*
X10017682Y-14471341D02*
X10017682Y-14433246D01*
X10017682Y-14433246D02*
X10008158Y-14385627D01*
X10008158Y-14385627D02*
X9998634Y-14357055D01*
X9998634Y-14357055D02*
X9989111Y-14338008D01*
X9989111Y-14338008D02*
X9970063Y-14309436D01*
X9970063Y-14309436D02*
X9960539Y-14299912D01*
D12*
X4942500Y-14753500D02*
X4995000Y-14701000D01*
X4942500Y-14648500D01*
X4890000Y-14701000D01*
X4942500Y-14753500D01*
D11*
X5360539Y-14792484D02*
X5246253Y-14792484D01*
X5303396Y-14792484D02*
X5303396Y-14592484D01*
X5303396Y-14592484D02*
X5284348Y-14621055D01*
X5284348Y-14621055D02*
X5265301Y-14640103D01*
X5265301Y-14640103D02*
X5246253Y-14649627D01*
X5446253Y-14773436D02*
X5455777Y-14782960D01*
X5455777Y-14782960D02*
X5446253Y-14792484D01*
X5446253Y-14792484D02*
X5436729Y-14782960D01*
X5436729Y-14782960D02*
X5446253Y-14773436D01*
X5446253Y-14773436D02*
X5446253Y-14792484D01*
X5579586Y-14592484D02*
X5598634Y-14592484D01*
X5598634Y-14592484D02*
X5617682Y-14602008D01*
X5617682Y-14602008D02*
X5627205Y-14611531D01*
X5627205Y-14611531D02*
X5636729Y-14630579D01*
X5636729Y-14630579D02*
X5646253Y-14668674D01*
X5646253Y-14668674D02*
X5646253Y-14716293D01*
X5646253Y-14716293D02*
X5636729Y-14754388D01*
X5636729Y-14754388D02*
X5627205Y-14773436D01*
X5627205Y-14773436D02*
X5617682Y-14782960D01*
X5617682Y-14782960D02*
X5598634Y-14792484D01*
X5598634Y-14792484D02*
X5579586Y-14792484D01*
X5579586Y-14792484D02*
X5560539Y-14782960D01*
X5560539Y-14782960D02*
X5551015Y-14773436D01*
X5551015Y-14773436D02*
X5541491Y-14754388D01*
X5541491Y-14754388D02*
X5531967Y-14716293D01*
X5531967Y-14716293D02*
X5531967Y-14668674D01*
X5531967Y-14668674D02*
X5541491Y-14630579D01*
X5541491Y-14630579D02*
X5551015Y-14611531D01*
X5551015Y-14611531D02*
X5560539Y-14602008D01*
X5560539Y-14602008D02*
X5579586Y-14592484D01*
X5827205Y-14592484D02*
X5731967Y-14592484D01*
X5731967Y-14592484D02*
X5722443Y-14687722D01*
X5722443Y-14687722D02*
X5731967Y-14678198D01*
X5731967Y-14678198D02*
X5751015Y-14668674D01*
X5751015Y-14668674D02*
X5798634Y-14668674D01*
X5798634Y-14668674D02*
X5817682Y-14678198D01*
X5817682Y-14678198D02*
X5827205Y-14687722D01*
X5827205Y-14687722D02*
X5836729Y-14706769D01*
X5836729Y-14706769D02*
X5836729Y-14754388D01*
X5836729Y-14754388D02*
X5827205Y-14773436D01*
X5827205Y-14773436D02*
X5817682Y-14782960D01*
X5817682Y-14782960D02*
X5798634Y-14792484D01*
X5798634Y-14792484D02*
X5751015Y-14792484D01*
X5751015Y-14792484D02*
X5731967Y-14782960D01*
X5731967Y-14782960D02*
X5722443Y-14773436D01*
X5960539Y-14592484D02*
X5979586Y-14592484D01*
X5979586Y-14592484D02*
X5998634Y-14602008D01*
X5998634Y-14602008D02*
X6008158Y-14611531D01*
X6008158Y-14611531D02*
X6017682Y-14630579D01*
X6017682Y-14630579D02*
X6027205Y-14668674D01*
X6027205Y-14668674D02*
X6027205Y-14716293D01*
X6027205Y-14716293D02*
X6017682Y-14754388D01*
X6017682Y-14754388D02*
X6008158Y-14773436D01*
X6008158Y-14773436D02*
X5998634Y-14782960D01*
X5998634Y-14782960D02*
X5979586Y-14792484D01*
X5979586Y-14792484D02*
X5960539Y-14792484D01*
X5960539Y-14792484D02*
X5941491Y-14782960D01*
X5941491Y-14782960D02*
X5931967Y-14773436D01*
X5931967Y-14773436D02*
X5922443Y-14754388D01*
X5922443Y-14754388D02*
X5912920Y-14716293D01*
X5912920Y-14716293D02*
X5912920Y-14668674D01*
X5912920Y-14668674D02*
X5922443Y-14630579D01*
X5922443Y-14630579D02*
X5931967Y-14611531D01*
X5931967Y-14611531D02*
X5941491Y-14602008D01*
X5941491Y-14602008D02*
X5960539Y-14592484D01*
X6112920Y-14792484D02*
X6112920Y-14659150D01*
X6112920Y-14678198D02*
X6122443Y-14668674D01*
X6122443Y-14668674D02*
X6141491Y-14659150D01*
X6141491Y-14659150D02*
X6170063Y-14659150D01*
X6170063Y-14659150D02*
X6189110Y-14668674D01*
X6189110Y-14668674D02*
X6198634Y-14687722D01*
X6198634Y-14687722D02*
X6198634Y-14792484D01*
X6198634Y-14687722D02*
X6208158Y-14668674D01*
X6208158Y-14668674D02*
X6227205Y-14659150D01*
X6227205Y-14659150D02*
X6255777Y-14659150D01*
X6255777Y-14659150D02*
X6274824Y-14668674D01*
X6274824Y-14668674D02*
X6284348Y-14687722D01*
X6284348Y-14687722D02*
X6284348Y-14792484D01*
X6379586Y-14792484D02*
X6379586Y-14659150D01*
X6379586Y-14678198D02*
X6389110Y-14668674D01*
X6389110Y-14668674D02*
X6408158Y-14659150D01*
X6408158Y-14659150D02*
X6436729Y-14659150D01*
X6436729Y-14659150D02*
X6455777Y-14668674D01*
X6455777Y-14668674D02*
X6465301Y-14687722D01*
X6465301Y-14687722D02*
X6465301Y-14792484D01*
X6465301Y-14687722D02*
X6474824Y-14668674D01*
X6474824Y-14668674D02*
X6493872Y-14659150D01*
X6493872Y-14659150D02*
X6522443Y-14659150D01*
X6522443Y-14659150D02*
X6541491Y-14668674D01*
X6541491Y-14668674D02*
X6551015Y-14687722D01*
X6551015Y-14687722D02*
X6551015Y-14792484D01*
X6941491Y-14582960D02*
X6770063Y-14840103D01*
X7198634Y-14592484D02*
X7217682Y-14592484D01*
X7217682Y-14592484D02*
X7236729Y-14602008D01*
X7236729Y-14602008D02*
X7246253Y-14611531D01*
X7246253Y-14611531D02*
X7255777Y-14630579D01*
X7255777Y-14630579D02*
X7265301Y-14668674D01*
X7265301Y-14668674D02*
X7265301Y-14716293D01*
X7265301Y-14716293D02*
X7255777Y-14754388D01*
X7255777Y-14754388D02*
X7246253Y-14773436D01*
X7246253Y-14773436D02*
X7236729Y-14782960D01*
X7236729Y-14782960D02*
X7217682Y-14792484D01*
X7217682Y-14792484D02*
X7198634Y-14792484D01*
X7198634Y-14792484D02*
X7179586Y-14782960D01*
X7179586Y-14782960D02*
X7170063Y-14773436D01*
X7170063Y-14773436D02*
X7160539Y-14754388D01*
X7160539Y-14754388D02*
X7151015Y-14716293D01*
X7151015Y-14716293D02*
X7151015Y-14668674D01*
X7151015Y-14668674D02*
X7160539Y-14630579D01*
X7160539Y-14630579D02*
X7170063Y-14611531D01*
X7170063Y-14611531D02*
X7179586Y-14602008D01*
X7179586Y-14602008D02*
X7198634Y-14592484D01*
X7351015Y-14773436D02*
X7360539Y-14782960D01*
X7360539Y-14782960D02*
X7351015Y-14792484D01*
X7351015Y-14792484D02*
X7341491Y-14782960D01*
X7341491Y-14782960D02*
X7351015Y-14773436D01*
X7351015Y-14773436D02*
X7351015Y-14792484D01*
X7484348Y-14592484D02*
X7503396Y-14592484D01*
X7503396Y-14592484D02*
X7522444Y-14602008D01*
X7522444Y-14602008D02*
X7531967Y-14611531D01*
X7531967Y-14611531D02*
X7541491Y-14630579D01*
X7541491Y-14630579D02*
X7551015Y-14668674D01*
X7551015Y-14668674D02*
X7551015Y-14716293D01*
X7551015Y-14716293D02*
X7541491Y-14754388D01*
X7541491Y-14754388D02*
X7531967Y-14773436D01*
X7531967Y-14773436D02*
X7522444Y-14782960D01*
X7522444Y-14782960D02*
X7503396Y-14792484D01*
X7503396Y-14792484D02*
X7484348Y-14792484D01*
X7484348Y-14792484D02*
X7465301Y-14782960D01*
X7465301Y-14782960D02*
X7455777Y-14773436D01*
X7455777Y-14773436D02*
X7446253Y-14754388D01*
X7446253Y-14754388D02*
X7436729Y-14716293D01*
X7436729Y-14716293D02*
X7436729Y-14668674D01*
X7436729Y-14668674D02*
X7446253Y-14630579D01*
X7446253Y-14630579D02*
X7455777Y-14611531D01*
X7455777Y-14611531D02*
X7465301Y-14602008D01*
X7465301Y-14602008D02*
X7484348Y-14592484D01*
X7722444Y-14659150D02*
X7722444Y-14792484D01*
X7674825Y-14582960D02*
X7627206Y-14725817D01*
X7627206Y-14725817D02*
X7751015Y-14725817D01*
X7931967Y-14792484D02*
X7817682Y-14792484D01*
X7874825Y-14792484D02*
X7874825Y-14592484D01*
X7874825Y-14592484D02*
X7855777Y-14621055D01*
X7855777Y-14621055D02*
X7836729Y-14640103D01*
X7836729Y-14640103D02*
X7817682Y-14649627D01*
X7998634Y-14592484D02*
X8122444Y-14592484D01*
X8122444Y-14592484D02*
X8055777Y-14668674D01*
X8055777Y-14668674D02*
X8084348Y-14668674D01*
X8084348Y-14668674D02*
X8103396Y-14678198D01*
X8103396Y-14678198D02*
X8112920Y-14687722D01*
X8112920Y-14687722D02*
X8122444Y-14706769D01*
X8122444Y-14706769D02*
X8122444Y-14754388D01*
X8122444Y-14754388D02*
X8112920Y-14773436D01*
X8112920Y-14773436D02*
X8103396Y-14782960D01*
X8103396Y-14782960D02*
X8084348Y-14792484D01*
X8084348Y-14792484D02*
X8027206Y-14792484D01*
X8027206Y-14792484D02*
X8008158Y-14782960D01*
X8008158Y-14782960D02*
X7998634Y-14773436D01*
X8198634Y-14592484D02*
X8198634Y-14630579D01*
X8274825Y-14592484D02*
X8274825Y-14630579D01*
X8570063Y-14868674D02*
X8560539Y-14859150D01*
X8560539Y-14859150D02*
X8541491Y-14830579D01*
X8541491Y-14830579D02*
X8531968Y-14811531D01*
X8531968Y-14811531D02*
X8522444Y-14782960D01*
X8522444Y-14782960D02*
X8512920Y-14735341D01*
X8512920Y-14735341D02*
X8512920Y-14697246D01*
X8512920Y-14697246D02*
X8522444Y-14649627D01*
X8522444Y-14649627D02*
X8531968Y-14621055D01*
X8531968Y-14621055D02*
X8541491Y-14602008D01*
X8541491Y-14602008D02*
X8560539Y-14573436D01*
X8560539Y-14573436D02*
X8570063Y-14563912D01*
X8731968Y-14659150D02*
X8731968Y-14792484D01*
X8684349Y-14582960D02*
X8636730Y-14725817D01*
X8636730Y-14725817D02*
X8760539Y-14725817D01*
X8989111Y-14792484D02*
X8989111Y-14592484D01*
X9074825Y-14792484D02*
X9074825Y-14687722D01*
X9074825Y-14687722D02*
X9065301Y-14668674D01*
X9065301Y-14668674D02*
X9046253Y-14659150D01*
X9046253Y-14659150D02*
X9017682Y-14659150D01*
X9017682Y-14659150D02*
X8998634Y-14668674D01*
X8998634Y-14668674D02*
X8989111Y-14678198D01*
X9198634Y-14792484D02*
X9179587Y-14782960D01*
X9179587Y-14782960D02*
X9170063Y-14773436D01*
X9170063Y-14773436D02*
X9160539Y-14754388D01*
X9160539Y-14754388D02*
X9160539Y-14697246D01*
X9160539Y-14697246D02*
X9170063Y-14678198D01*
X9170063Y-14678198D02*
X9179587Y-14668674D01*
X9179587Y-14668674D02*
X9198634Y-14659150D01*
X9198634Y-14659150D02*
X9227206Y-14659150D01*
X9227206Y-14659150D02*
X9246253Y-14668674D01*
X9246253Y-14668674D02*
X9255777Y-14678198D01*
X9255777Y-14678198D02*
X9265301Y-14697246D01*
X9265301Y-14697246D02*
X9265301Y-14754388D01*
X9265301Y-14754388D02*
X9255777Y-14773436D01*
X9255777Y-14773436D02*
X9246253Y-14782960D01*
X9246253Y-14782960D02*
X9227206Y-14792484D01*
X9227206Y-14792484D02*
X9198634Y-14792484D01*
X9379587Y-14792484D02*
X9360539Y-14782960D01*
X9360539Y-14782960D02*
X9351015Y-14763912D01*
X9351015Y-14763912D02*
X9351015Y-14592484D01*
X9531968Y-14782960D02*
X9512920Y-14792484D01*
X9512920Y-14792484D02*
X9474825Y-14792484D01*
X9474825Y-14792484D02*
X9455777Y-14782960D01*
X9455777Y-14782960D02*
X9446253Y-14763912D01*
X9446253Y-14763912D02*
X9446253Y-14687722D01*
X9446253Y-14687722D02*
X9455777Y-14668674D01*
X9455777Y-14668674D02*
X9474825Y-14659150D01*
X9474825Y-14659150D02*
X9512920Y-14659150D01*
X9512920Y-14659150D02*
X9531968Y-14668674D01*
X9531968Y-14668674D02*
X9541492Y-14687722D01*
X9541492Y-14687722D02*
X9541492Y-14706769D01*
X9541492Y-14706769D02*
X9446253Y-14725817D01*
X9617682Y-14782960D02*
X9636730Y-14792484D01*
X9636730Y-14792484D02*
X9674825Y-14792484D01*
X9674825Y-14792484D02*
X9693873Y-14782960D01*
X9693873Y-14782960D02*
X9703396Y-14763912D01*
X9703396Y-14763912D02*
X9703396Y-14754388D01*
X9703396Y-14754388D02*
X9693873Y-14735341D01*
X9693873Y-14735341D02*
X9674825Y-14725817D01*
X9674825Y-14725817D02*
X9646253Y-14725817D01*
X9646253Y-14725817D02*
X9627206Y-14716293D01*
X9627206Y-14716293D02*
X9617682Y-14697246D01*
X9617682Y-14697246D02*
X9617682Y-14687722D01*
X9617682Y-14687722D02*
X9627206Y-14668674D01*
X9627206Y-14668674D02*
X9646253Y-14659150D01*
X9646253Y-14659150D02*
X9674825Y-14659150D01*
X9674825Y-14659150D02*
X9693873Y-14668674D01*
X9770063Y-14868674D02*
X9779587Y-14859150D01*
X9779587Y-14859150D02*
X9798634Y-14830579D01*
X9798634Y-14830579D02*
X9808158Y-14811531D01*
X9808158Y-14811531D02*
X9817682Y-14782960D01*
X9817682Y-14782960D02*
X9827206Y-14735341D01*
X9827206Y-14735341D02*
X9827206Y-14697246D01*
X9827206Y-14697246D02*
X9817682Y-14649627D01*
X9817682Y-14649627D02*
X9808158Y-14621055D01*
X9808158Y-14621055D02*
X9798634Y-14602008D01*
X9798634Y-14602008D02*
X9779587Y-14573436D01*
X9779587Y-14573436D02*
X9770063Y-14563912D01*
D13*
X4885000Y-14910000D02*
X4995000Y-15020000D01*
X4995000Y-14910000D02*
X4885000Y-15020000D01*
X4995000Y-14965000D02*
G75*
G02*
X4885000Y-14965000I-55000J0D01*
G01*
X4885000Y-14965000D02*
G75*
G02*
X4995000Y-14965000I55000J0D01*
G01*
D11*
X5360539Y-15056484D02*
X5246253Y-15056484D01*
X5303396Y-15056484D02*
X5303396Y-14856484D01*
X5303396Y-14856484D02*
X5284348Y-14885055D01*
X5284348Y-14885055D02*
X5265301Y-14904103D01*
X5265301Y-14904103D02*
X5246253Y-14913627D01*
X5446253Y-15037436D02*
X5455777Y-15046960D01*
X5455777Y-15046960D02*
X5446253Y-15056484D01*
X5446253Y-15056484D02*
X5436729Y-15046960D01*
X5436729Y-15046960D02*
X5446253Y-15037436D01*
X5446253Y-15037436D02*
X5446253Y-15056484D01*
X5646253Y-15056484D02*
X5531967Y-15056484D01*
X5589110Y-15056484D02*
X5589110Y-14856484D01*
X5589110Y-14856484D02*
X5570063Y-14885055D01*
X5570063Y-14885055D02*
X5551015Y-14904103D01*
X5551015Y-14904103D02*
X5531967Y-14913627D01*
X5770062Y-14856484D02*
X5789110Y-14856484D01*
X5789110Y-14856484D02*
X5808158Y-14866008D01*
X5808158Y-14866008D02*
X5817682Y-14875531D01*
X5817682Y-14875531D02*
X5827205Y-14894579D01*
X5827205Y-14894579D02*
X5836729Y-14932674D01*
X5836729Y-14932674D02*
X5836729Y-14980293D01*
X5836729Y-14980293D02*
X5827205Y-15018388D01*
X5827205Y-15018388D02*
X5817682Y-15037436D01*
X5817682Y-15037436D02*
X5808158Y-15046960D01*
X5808158Y-15046960D02*
X5789110Y-15056484D01*
X5789110Y-15056484D02*
X5770062Y-15056484D01*
X5770062Y-15056484D02*
X5751015Y-15046960D01*
X5751015Y-15046960D02*
X5741491Y-15037436D01*
X5741491Y-15037436D02*
X5731967Y-15018388D01*
X5731967Y-15018388D02*
X5722443Y-14980293D01*
X5722443Y-14980293D02*
X5722443Y-14932674D01*
X5722443Y-14932674D02*
X5731967Y-14894579D01*
X5731967Y-14894579D02*
X5741491Y-14875531D01*
X5741491Y-14875531D02*
X5751015Y-14866008D01*
X5751015Y-14866008D02*
X5770062Y-14856484D01*
X5960539Y-14856484D02*
X5979586Y-14856484D01*
X5979586Y-14856484D02*
X5998634Y-14866008D01*
X5998634Y-14866008D02*
X6008158Y-14875531D01*
X6008158Y-14875531D02*
X6017682Y-14894579D01*
X6017682Y-14894579D02*
X6027205Y-14932674D01*
X6027205Y-14932674D02*
X6027205Y-14980293D01*
X6027205Y-14980293D02*
X6017682Y-15018388D01*
X6017682Y-15018388D02*
X6008158Y-15037436D01*
X6008158Y-15037436D02*
X5998634Y-15046960D01*
X5998634Y-15046960D02*
X5979586Y-15056484D01*
X5979586Y-15056484D02*
X5960539Y-15056484D01*
X5960539Y-15056484D02*
X5941491Y-15046960D01*
X5941491Y-15046960D02*
X5931967Y-15037436D01*
X5931967Y-15037436D02*
X5922443Y-15018388D01*
X5922443Y-15018388D02*
X5912920Y-14980293D01*
X5912920Y-14980293D02*
X5912920Y-14932674D01*
X5912920Y-14932674D02*
X5922443Y-14894579D01*
X5922443Y-14894579D02*
X5931967Y-14875531D01*
X5931967Y-14875531D02*
X5941491Y-14866008D01*
X5941491Y-14866008D02*
X5960539Y-14856484D01*
X6112920Y-15056484D02*
X6112920Y-14923150D01*
X6112920Y-14942198D02*
X6122443Y-14932674D01*
X6122443Y-14932674D02*
X6141491Y-14923150D01*
X6141491Y-14923150D02*
X6170063Y-14923150D01*
X6170063Y-14923150D02*
X6189110Y-14932674D01*
X6189110Y-14932674D02*
X6198634Y-14951722D01*
X6198634Y-14951722D02*
X6198634Y-15056484D01*
X6198634Y-14951722D02*
X6208158Y-14932674D01*
X6208158Y-14932674D02*
X6227205Y-14923150D01*
X6227205Y-14923150D02*
X6255777Y-14923150D01*
X6255777Y-14923150D02*
X6274824Y-14932674D01*
X6274824Y-14932674D02*
X6284348Y-14951722D01*
X6284348Y-14951722D02*
X6284348Y-15056484D01*
X6379586Y-15056484D02*
X6379586Y-14923150D01*
X6379586Y-14942198D02*
X6389110Y-14932674D01*
X6389110Y-14932674D02*
X6408158Y-14923150D01*
X6408158Y-14923150D02*
X6436729Y-14923150D01*
X6436729Y-14923150D02*
X6455777Y-14932674D01*
X6455777Y-14932674D02*
X6465301Y-14951722D01*
X6465301Y-14951722D02*
X6465301Y-15056484D01*
X6465301Y-14951722D02*
X6474824Y-14932674D01*
X6474824Y-14932674D02*
X6493872Y-14923150D01*
X6493872Y-14923150D02*
X6522443Y-14923150D01*
X6522443Y-14923150D02*
X6541491Y-14932674D01*
X6541491Y-14932674D02*
X6551015Y-14951722D01*
X6551015Y-14951722D02*
X6551015Y-15056484D01*
X6941491Y-14846960D02*
X6770063Y-15104103D01*
X7198634Y-14856484D02*
X7217682Y-14856484D01*
X7217682Y-14856484D02*
X7236729Y-14866008D01*
X7236729Y-14866008D02*
X7246253Y-14875531D01*
X7246253Y-14875531D02*
X7255777Y-14894579D01*
X7255777Y-14894579D02*
X7265301Y-14932674D01*
X7265301Y-14932674D02*
X7265301Y-14980293D01*
X7265301Y-14980293D02*
X7255777Y-15018388D01*
X7255777Y-15018388D02*
X7246253Y-15037436D01*
X7246253Y-15037436D02*
X7236729Y-15046960D01*
X7236729Y-15046960D02*
X7217682Y-15056484D01*
X7217682Y-15056484D02*
X7198634Y-15056484D01*
X7198634Y-15056484D02*
X7179586Y-15046960D01*
X7179586Y-15046960D02*
X7170063Y-15037436D01*
X7170063Y-15037436D02*
X7160539Y-15018388D01*
X7160539Y-15018388D02*
X7151015Y-14980293D01*
X7151015Y-14980293D02*
X7151015Y-14932674D01*
X7151015Y-14932674D02*
X7160539Y-14894579D01*
X7160539Y-14894579D02*
X7170063Y-14875531D01*
X7170063Y-14875531D02*
X7179586Y-14866008D01*
X7179586Y-14866008D02*
X7198634Y-14856484D01*
X7351015Y-15037436D02*
X7360539Y-15046960D01*
X7360539Y-15046960D02*
X7351015Y-15056484D01*
X7351015Y-15056484D02*
X7341491Y-15046960D01*
X7341491Y-15046960D02*
X7351015Y-15037436D01*
X7351015Y-15037436D02*
X7351015Y-15056484D01*
X7484348Y-14856484D02*
X7503396Y-14856484D01*
X7503396Y-14856484D02*
X7522444Y-14866008D01*
X7522444Y-14866008D02*
X7531967Y-14875531D01*
X7531967Y-14875531D02*
X7541491Y-14894579D01*
X7541491Y-14894579D02*
X7551015Y-14932674D01*
X7551015Y-14932674D02*
X7551015Y-14980293D01*
X7551015Y-14980293D02*
X7541491Y-15018388D01*
X7541491Y-15018388D02*
X7531967Y-15037436D01*
X7531967Y-15037436D02*
X7522444Y-15046960D01*
X7522444Y-15046960D02*
X7503396Y-15056484D01*
X7503396Y-15056484D02*
X7484348Y-15056484D01*
X7484348Y-15056484D02*
X7465301Y-15046960D01*
X7465301Y-15046960D02*
X7455777Y-15037436D01*
X7455777Y-15037436D02*
X7446253Y-15018388D01*
X7446253Y-15018388D02*
X7436729Y-14980293D01*
X7436729Y-14980293D02*
X7436729Y-14932674D01*
X7436729Y-14932674D02*
X7446253Y-14894579D01*
X7446253Y-14894579D02*
X7455777Y-14875531D01*
X7455777Y-14875531D02*
X7465301Y-14866008D01*
X7465301Y-14866008D02*
X7484348Y-14856484D01*
X7722444Y-14923150D02*
X7722444Y-15056484D01*
X7674825Y-14846960D02*
X7627206Y-14989817D01*
X7627206Y-14989817D02*
X7751015Y-14989817D01*
X7808158Y-14856484D02*
X7931967Y-14856484D01*
X7931967Y-14856484D02*
X7865301Y-14932674D01*
X7865301Y-14932674D02*
X7893872Y-14932674D01*
X7893872Y-14932674D02*
X7912920Y-14942198D01*
X7912920Y-14942198D02*
X7922444Y-14951722D01*
X7922444Y-14951722D02*
X7931967Y-14970769D01*
X7931967Y-14970769D02*
X7931967Y-15018388D01*
X7931967Y-15018388D02*
X7922444Y-15037436D01*
X7922444Y-15037436D02*
X7912920Y-15046960D01*
X7912920Y-15046960D02*
X7893872Y-15056484D01*
X7893872Y-15056484D02*
X7836729Y-15056484D01*
X7836729Y-15056484D02*
X7817682Y-15046960D01*
X7817682Y-15046960D02*
X7808158Y-15037436D01*
X7998634Y-14856484D02*
X8122444Y-14856484D01*
X8122444Y-14856484D02*
X8055777Y-14932674D01*
X8055777Y-14932674D02*
X8084348Y-14932674D01*
X8084348Y-14932674D02*
X8103396Y-14942198D01*
X8103396Y-14942198D02*
X8112920Y-14951722D01*
X8112920Y-14951722D02*
X8122444Y-14970769D01*
X8122444Y-14970769D02*
X8122444Y-15018388D01*
X8122444Y-15018388D02*
X8112920Y-15037436D01*
X8112920Y-15037436D02*
X8103396Y-15046960D01*
X8103396Y-15046960D02*
X8084348Y-15056484D01*
X8084348Y-15056484D02*
X8027206Y-15056484D01*
X8027206Y-15056484D02*
X8008158Y-15046960D01*
X8008158Y-15046960D02*
X7998634Y-15037436D01*
X8198634Y-14856484D02*
X8198634Y-14894579D01*
X8274825Y-14856484D02*
X8274825Y-14894579D01*
X8570063Y-15132674D02*
X8560539Y-15123150D01*
X8560539Y-15123150D02*
X8541491Y-15094579D01*
X8541491Y-15094579D02*
X8531968Y-15075531D01*
X8531968Y-15075531D02*
X8522444Y-15046960D01*
X8522444Y-15046960D02*
X8512920Y-14999341D01*
X8512920Y-14999341D02*
X8512920Y-14961246D01*
X8512920Y-14961246D02*
X8522444Y-14913627D01*
X8522444Y-14913627D02*
X8531968Y-14885055D01*
X8531968Y-14885055D02*
X8541491Y-14866008D01*
X8541491Y-14866008D02*
X8560539Y-14837436D01*
X8560539Y-14837436D02*
X8570063Y-14827912D01*
X8636730Y-14875531D02*
X8646253Y-14866008D01*
X8646253Y-14866008D02*
X8665301Y-14856484D01*
X8665301Y-14856484D02*
X8712920Y-14856484D01*
X8712920Y-14856484D02*
X8731968Y-14866008D01*
X8731968Y-14866008D02*
X8741491Y-14875531D01*
X8741491Y-14875531D02*
X8751015Y-14894579D01*
X8751015Y-14894579D02*
X8751015Y-14913627D01*
X8751015Y-14913627D02*
X8741491Y-14942198D01*
X8741491Y-14942198D02*
X8627206Y-15056484D01*
X8627206Y-15056484D02*
X8751015Y-15056484D01*
X8989111Y-15056484D02*
X8989111Y-14856484D01*
X9074825Y-15056484D02*
X9074825Y-14951722D01*
X9074825Y-14951722D02*
X9065301Y-14932674D01*
X9065301Y-14932674D02*
X9046253Y-14923150D01*
X9046253Y-14923150D02*
X9017682Y-14923150D01*
X9017682Y-14923150D02*
X8998634Y-14932674D01*
X8998634Y-14932674D02*
X8989111Y-14942198D01*
X9198634Y-15056484D02*
X9179587Y-15046960D01*
X9179587Y-15046960D02*
X9170063Y-15037436D01*
X9170063Y-15037436D02*
X9160539Y-15018388D01*
X9160539Y-15018388D02*
X9160539Y-14961246D01*
X9160539Y-14961246D02*
X9170063Y-14942198D01*
X9170063Y-14942198D02*
X9179587Y-14932674D01*
X9179587Y-14932674D02*
X9198634Y-14923150D01*
X9198634Y-14923150D02*
X9227206Y-14923150D01*
X9227206Y-14923150D02*
X9246253Y-14932674D01*
X9246253Y-14932674D02*
X9255777Y-14942198D01*
X9255777Y-14942198D02*
X9265301Y-14961246D01*
X9265301Y-14961246D02*
X9265301Y-15018388D01*
X9265301Y-15018388D02*
X9255777Y-15037436D01*
X9255777Y-15037436D02*
X9246253Y-15046960D01*
X9246253Y-15046960D02*
X9227206Y-15056484D01*
X9227206Y-15056484D02*
X9198634Y-15056484D01*
X9379587Y-15056484D02*
X9360539Y-15046960D01*
X9360539Y-15046960D02*
X9351015Y-15027912D01*
X9351015Y-15027912D02*
X9351015Y-14856484D01*
X9531968Y-15046960D02*
X9512920Y-15056484D01*
X9512920Y-15056484D02*
X9474825Y-15056484D01*
X9474825Y-15056484D02*
X9455777Y-15046960D01*
X9455777Y-15046960D02*
X9446253Y-15027912D01*
X9446253Y-15027912D02*
X9446253Y-14951722D01*
X9446253Y-14951722D02*
X9455777Y-14932674D01*
X9455777Y-14932674D02*
X9474825Y-14923150D01*
X9474825Y-14923150D02*
X9512920Y-14923150D01*
X9512920Y-14923150D02*
X9531968Y-14932674D01*
X9531968Y-14932674D02*
X9541492Y-14951722D01*
X9541492Y-14951722D02*
X9541492Y-14970769D01*
X9541492Y-14970769D02*
X9446253Y-14989817D01*
X9617682Y-15046960D02*
X9636730Y-15056484D01*
X9636730Y-15056484D02*
X9674825Y-15056484D01*
X9674825Y-15056484D02*
X9693873Y-15046960D01*
X9693873Y-15046960D02*
X9703396Y-15027912D01*
X9703396Y-15027912D02*
X9703396Y-15018388D01*
X9703396Y-15018388D02*
X9693873Y-14999341D01*
X9693873Y-14999341D02*
X9674825Y-14989817D01*
X9674825Y-14989817D02*
X9646253Y-14989817D01*
X9646253Y-14989817D02*
X9627206Y-14980293D01*
X9627206Y-14980293D02*
X9617682Y-14961246D01*
X9617682Y-14961246D02*
X9617682Y-14951722D01*
X9617682Y-14951722D02*
X9627206Y-14932674D01*
X9627206Y-14932674D02*
X9646253Y-14923150D01*
X9646253Y-14923150D02*
X9674825Y-14923150D01*
X9674825Y-14923150D02*
X9693873Y-14932674D01*
X9770063Y-15132674D02*
X9779587Y-15123150D01*
X9779587Y-15123150D02*
X9798634Y-15094579D01*
X9798634Y-15094579D02*
X9808158Y-15075531D01*
X9808158Y-15075531D02*
X9817682Y-15046960D01*
X9817682Y-15046960D02*
X9827206Y-14999341D01*
X9827206Y-14999341D02*
X9827206Y-14961246D01*
X9827206Y-14961246D02*
X9817682Y-14913627D01*
X9817682Y-14913627D02*
X9808158Y-14885055D01*
X9808158Y-14885055D02*
X9798634Y-14866008D01*
X9798634Y-14866008D02*
X9779587Y-14837436D01*
X9779587Y-14837436D02*
X9770063Y-14827912D01*
D14*
X4875000Y-15169000D02*
X4995000Y-15289000D01*
X4995000Y-15169000D02*
X4875000Y-15289000D01*
X4935000Y-15169000D02*
X4935000Y-15289000D01*
X4875000Y-15229000D02*
X4995000Y-15229000D01*
D11*
X5360539Y-15320484D02*
X5246253Y-15320484D01*
X5303396Y-15320484D02*
X5303396Y-15120484D01*
X5303396Y-15120484D02*
X5284348Y-15149055D01*
X5284348Y-15149055D02*
X5265301Y-15168103D01*
X5265301Y-15168103D02*
X5246253Y-15177627D01*
X5446253Y-15301436D02*
X5455777Y-15310960D01*
X5455777Y-15310960D02*
X5446253Y-15320484D01*
X5446253Y-15320484D02*
X5436729Y-15310960D01*
X5436729Y-15310960D02*
X5446253Y-15301436D01*
X5446253Y-15301436D02*
X5446253Y-15320484D01*
X5531967Y-15139531D02*
X5541491Y-15130008D01*
X5541491Y-15130008D02*
X5560539Y-15120484D01*
X5560539Y-15120484D02*
X5608158Y-15120484D01*
X5608158Y-15120484D02*
X5627205Y-15130008D01*
X5627205Y-15130008D02*
X5636729Y-15139531D01*
X5636729Y-15139531D02*
X5646253Y-15158579D01*
X5646253Y-15158579D02*
X5646253Y-15177627D01*
X5646253Y-15177627D02*
X5636729Y-15206198D01*
X5636729Y-15206198D02*
X5522444Y-15320484D01*
X5522444Y-15320484D02*
X5646253Y-15320484D01*
X5770062Y-15120484D02*
X5789110Y-15120484D01*
X5789110Y-15120484D02*
X5808158Y-15130008D01*
X5808158Y-15130008D02*
X5817682Y-15139531D01*
X5817682Y-15139531D02*
X5827205Y-15158579D01*
X5827205Y-15158579D02*
X5836729Y-15196674D01*
X5836729Y-15196674D02*
X5836729Y-15244293D01*
X5836729Y-15244293D02*
X5827205Y-15282388D01*
X5827205Y-15282388D02*
X5817682Y-15301436D01*
X5817682Y-15301436D02*
X5808158Y-15310960D01*
X5808158Y-15310960D02*
X5789110Y-15320484D01*
X5789110Y-15320484D02*
X5770062Y-15320484D01*
X5770062Y-15320484D02*
X5751015Y-15310960D01*
X5751015Y-15310960D02*
X5741491Y-15301436D01*
X5741491Y-15301436D02*
X5731967Y-15282388D01*
X5731967Y-15282388D02*
X5722443Y-15244293D01*
X5722443Y-15244293D02*
X5722443Y-15196674D01*
X5722443Y-15196674D02*
X5731967Y-15158579D01*
X5731967Y-15158579D02*
X5741491Y-15139531D01*
X5741491Y-15139531D02*
X5751015Y-15130008D01*
X5751015Y-15130008D02*
X5770062Y-15120484D01*
X5960539Y-15120484D02*
X5979586Y-15120484D01*
X5979586Y-15120484D02*
X5998634Y-15130008D01*
X5998634Y-15130008D02*
X6008158Y-15139531D01*
X6008158Y-15139531D02*
X6017682Y-15158579D01*
X6017682Y-15158579D02*
X6027205Y-15196674D01*
X6027205Y-15196674D02*
X6027205Y-15244293D01*
X6027205Y-15244293D02*
X6017682Y-15282388D01*
X6017682Y-15282388D02*
X6008158Y-15301436D01*
X6008158Y-15301436D02*
X5998634Y-15310960D01*
X5998634Y-15310960D02*
X5979586Y-15320484D01*
X5979586Y-15320484D02*
X5960539Y-15320484D01*
X5960539Y-15320484D02*
X5941491Y-15310960D01*
X5941491Y-15310960D02*
X5931967Y-15301436D01*
X5931967Y-15301436D02*
X5922443Y-15282388D01*
X5922443Y-15282388D02*
X5912920Y-15244293D01*
X5912920Y-15244293D02*
X5912920Y-15196674D01*
X5912920Y-15196674D02*
X5922443Y-15158579D01*
X5922443Y-15158579D02*
X5931967Y-15139531D01*
X5931967Y-15139531D02*
X5941491Y-15130008D01*
X5941491Y-15130008D02*
X5960539Y-15120484D01*
X6112920Y-15320484D02*
X6112920Y-15187150D01*
X6112920Y-15206198D02*
X6122443Y-15196674D01*
X6122443Y-15196674D02*
X6141491Y-15187150D01*
X6141491Y-15187150D02*
X6170063Y-15187150D01*
X6170063Y-15187150D02*
X6189110Y-15196674D01*
X6189110Y-15196674D02*
X6198634Y-15215722D01*
X6198634Y-15215722D02*
X6198634Y-15320484D01*
X6198634Y-15215722D02*
X6208158Y-15196674D01*
X6208158Y-15196674D02*
X6227205Y-15187150D01*
X6227205Y-15187150D02*
X6255777Y-15187150D01*
X6255777Y-15187150D02*
X6274824Y-15196674D01*
X6274824Y-15196674D02*
X6284348Y-15215722D01*
X6284348Y-15215722D02*
X6284348Y-15320484D01*
X6379586Y-15320484D02*
X6379586Y-15187150D01*
X6379586Y-15206198D02*
X6389110Y-15196674D01*
X6389110Y-15196674D02*
X6408158Y-15187150D01*
X6408158Y-15187150D02*
X6436729Y-15187150D01*
X6436729Y-15187150D02*
X6455777Y-15196674D01*
X6455777Y-15196674D02*
X6465301Y-15215722D01*
X6465301Y-15215722D02*
X6465301Y-15320484D01*
X6465301Y-15215722D02*
X6474824Y-15196674D01*
X6474824Y-15196674D02*
X6493872Y-15187150D01*
X6493872Y-15187150D02*
X6522443Y-15187150D01*
X6522443Y-15187150D02*
X6541491Y-15196674D01*
X6541491Y-15196674D02*
X6551015Y-15215722D01*
X6551015Y-15215722D02*
X6551015Y-15320484D01*
X6941491Y-15110960D02*
X6770063Y-15368103D01*
X7198634Y-15120484D02*
X7217682Y-15120484D01*
X7217682Y-15120484D02*
X7236729Y-15130008D01*
X7236729Y-15130008D02*
X7246253Y-15139531D01*
X7246253Y-15139531D02*
X7255777Y-15158579D01*
X7255777Y-15158579D02*
X7265301Y-15196674D01*
X7265301Y-15196674D02*
X7265301Y-15244293D01*
X7265301Y-15244293D02*
X7255777Y-15282388D01*
X7255777Y-15282388D02*
X7246253Y-15301436D01*
X7246253Y-15301436D02*
X7236729Y-15310960D01*
X7236729Y-15310960D02*
X7217682Y-15320484D01*
X7217682Y-15320484D02*
X7198634Y-15320484D01*
X7198634Y-15320484D02*
X7179586Y-15310960D01*
X7179586Y-15310960D02*
X7170063Y-15301436D01*
X7170063Y-15301436D02*
X7160539Y-15282388D01*
X7160539Y-15282388D02*
X7151015Y-15244293D01*
X7151015Y-15244293D02*
X7151015Y-15196674D01*
X7151015Y-15196674D02*
X7160539Y-15158579D01*
X7160539Y-15158579D02*
X7170063Y-15139531D01*
X7170063Y-15139531D02*
X7179586Y-15130008D01*
X7179586Y-15130008D02*
X7198634Y-15120484D01*
X7351015Y-15301436D02*
X7360539Y-15310960D01*
X7360539Y-15310960D02*
X7351015Y-15320484D01*
X7351015Y-15320484D02*
X7341491Y-15310960D01*
X7341491Y-15310960D02*
X7351015Y-15301436D01*
X7351015Y-15301436D02*
X7351015Y-15320484D01*
X7484348Y-15120484D02*
X7503396Y-15120484D01*
X7503396Y-15120484D02*
X7522444Y-15130008D01*
X7522444Y-15130008D02*
X7531967Y-15139531D01*
X7531967Y-15139531D02*
X7541491Y-15158579D01*
X7541491Y-15158579D02*
X7551015Y-15196674D01*
X7551015Y-15196674D02*
X7551015Y-15244293D01*
X7551015Y-15244293D02*
X7541491Y-15282388D01*
X7541491Y-15282388D02*
X7531967Y-15301436D01*
X7531967Y-15301436D02*
X7522444Y-15310960D01*
X7522444Y-15310960D02*
X7503396Y-15320484D01*
X7503396Y-15320484D02*
X7484348Y-15320484D01*
X7484348Y-15320484D02*
X7465301Y-15310960D01*
X7465301Y-15310960D02*
X7455777Y-15301436D01*
X7455777Y-15301436D02*
X7446253Y-15282388D01*
X7446253Y-15282388D02*
X7436729Y-15244293D01*
X7436729Y-15244293D02*
X7436729Y-15196674D01*
X7436729Y-15196674D02*
X7446253Y-15158579D01*
X7446253Y-15158579D02*
X7455777Y-15139531D01*
X7455777Y-15139531D02*
X7465301Y-15130008D01*
X7465301Y-15130008D02*
X7484348Y-15120484D01*
X7722444Y-15187150D02*
X7722444Y-15320484D01*
X7674825Y-15110960D02*
X7627206Y-15253817D01*
X7627206Y-15253817D02*
X7751015Y-15253817D01*
X7808158Y-15120484D02*
X7941491Y-15120484D01*
X7941491Y-15120484D02*
X7855777Y-15320484D01*
X8008158Y-15139531D02*
X8017682Y-15130008D01*
X8017682Y-15130008D02*
X8036729Y-15120484D01*
X8036729Y-15120484D02*
X8084348Y-15120484D01*
X8084348Y-15120484D02*
X8103396Y-15130008D01*
X8103396Y-15130008D02*
X8112920Y-15139531D01*
X8112920Y-15139531D02*
X8122444Y-15158579D01*
X8122444Y-15158579D02*
X8122444Y-15177627D01*
X8122444Y-15177627D02*
X8112920Y-15206198D01*
X8112920Y-15206198D02*
X7998634Y-15320484D01*
X7998634Y-15320484D02*
X8122444Y-15320484D01*
X8198634Y-15120484D02*
X8198634Y-15158579D01*
X8274825Y-15120484D02*
X8274825Y-15158579D01*
X8570063Y-15396674D02*
X8560539Y-15387150D01*
X8560539Y-15387150D02*
X8541491Y-15358579D01*
X8541491Y-15358579D02*
X8531968Y-15339531D01*
X8531968Y-15339531D02*
X8522444Y-15310960D01*
X8522444Y-15310960D02*
X8512920Y-15263341D01*
X8512920Y-15263341D02*
X8512920Y-15225246D01*
X8512920Y-15225246D02*
X8522444Y-15177627D01*
X8522444Y-15177627D02*
X8531968Y-15149055D01*
X8531968Y-15149055D02*
X8541491Y-15130008D01*
X8541491Y-15130008D02*
X8560539Y-15101436D01*
X8560539Y-15101436D02*
X8570063Y-15091912D01*
X8751015Y-15320484D02*
X8636730Y-15320484D01*
X8693872Y-15320484D02*
X8693872Y-15120484D01*
X8693872Y-15120484D02*
X8674825Y-15149055D01*
X8674825Y-15149055D02*
X8655777Y-15168103D01*
X8655777Y-15168103D02*
X8636730Y-15177627D01*
X8874825Y-15120484D02*
X8893872Y-15120484D01*
X8893872Y-15120484D02*
X8912920Y-15130008D01*
X8912920Y-15130008D02*
X8922444Y-15139531D01*
X8922444Y-15139531D02*
X8931968Y-15158579D01*
X8931968Y-15158579D02*
X8941491Y-15196674D01*
X8941491Y-15196674D02*
X8941491Y-15244293D01*
X8941491Y-15244293D02*
X8931968Y-15282388D01*
X8931968Y-15282388D02*
X8922444Y-15301436D01*
X8922444Y-15301436D02*
X8912920Y-15310960D01*
X8912920Y-15310960D02*
X8893872Y-15320484D01*
X8893872Y-15320484D02*
X8874825Y-15320484D01*
X8874825Y-15320484D02*
X8855777Y-15310960D01*
X8855777Y-15310960D02*
X8846253Y-15301436D01*
X8846253Y-15301436D02*
X8836730Y-15282388D01*
X8836730Y-15282388D02*
X8827206Y-15244293D01*
X8827206Y-15244293D02*
X8827206Y-15196674D01*
X8827206Y-15196674D02*
X8836730Y-15158579D01*
X8836730Y-15158579D02*
X8846253Y-15139531D01*
X8846253Y-15139531D02*
X8855777Y-15130008D01*
X8855777Y-15130008D02*
X8874825Y-15120484D01*
X9179587Y-15320484D02*
X9179587Y-15120484D01*
X9265301Y-15320484D02*
X9265301Y-15215722D01*
X9265301Y-15215722D02*
X9255777Y-15196674D01*
X9255777Y-15196674D02*
X9236730Y-15187150D01*
X9236730Y-15187150D02*
X9208158Y-15187150D01*
X9208158Y-15187150D02*
X9189111Y-15196674D01*
X9189111Y-15196674D02*
X9179587Y-15206198D01*
X9389111Y-15320484D02*
X9370063Y-15310960D01*
X9370063Y-15310960D02*
X9360539Y-15301436D01*
X9360539Y-15301436D02*
X9351015Y-15282388D01*
X9351015Y-15282388D02*
X9351015Y-15225246D01*
X9351015Y-15225246D02*
X9360539Y-15206198D01*
X9360539Y-15206198D02*
X9370063Y-15196674D01*
X9370063Y-15196674D02*
X9389111Y-15187150D01*
X9389111Y-15187150D02*
X9417682Y-15187150D01*
X9417682Y-15187150D02*
X9436730Y-15196674D01*
X9436730Y-15196674D02*
X9446253Y-15206198D01*
X9446253Y-15206198D02*
X9455777Y-15225246D01*
X9455777Y-15225246D02*
X9455777Y-15282388D01*
X9455777Y-15282388D02*
X9446253Y-15301436D01*
X9446253Y-15301436D02*
X9436730Y-15310960D01*
X9436730Y-15310960D02*
X9417682Y-15320484D01*
X9417682Y-15320484D02*
X9389111Y-15320484D01*
X9570063Y-15320484D02*
X9551015Y-15310960D01*
X9551015Y-15310960D02*
X9541492Y-15291912D01*
X9541492Y-15291912D02*
X9541492Y-15120484D01*
X9722444Y-15310960D02*
X9703396Y-15320484D01*
X9703396Y-15320484D02*
X9665301Y-15320484D01*
X9665301Y-15320484D02*
X9646253Y-15310960D01*
X9646253Y-15310960D02*
X9636730Y-15291912D01*
X9636730Y-15291912D02*
X9636730Y-15215722D01*
X9636730Y-15215722D02*
X9646253Y-15196674D01*
X9646253Y-15196674D02*
X9665301Y-15187150D01*
X9665301Y-15187150D02*
X9703396Y-15187150D01*
X9703396Y-15187150D02*
X9722444Y-15196674D01*
X9722444Y-15196674D02*
X9731968Y-15215722D01*
X9731968Y-15215722D02*
X9731968Y-15234769D01*
X9731968Y-15234769D02*
X9636730Y-15253817D01*
X9808158Y-15310960D02*
X9827206Y-15320484D01*
X9827206Y-15320484D02*
X9865301Y-15320484D01*
X9865301Y-15320484D02*
X9884349Y-15310960D01*
X9884349Y-15310960D02*
X9893873Y-15291912D01*
X9893873Y-15291912D02*
X9893873Y-15282388D01*
X9893873Y-15282388D02*
X9884349Y-15263341D01*
X9884349Y-15263341D02*
X9865301Y-15253817D01*
X9865301Y-15253817D02*
X9836730Y-15253817D01*
X9836730Y-15253817D02*
X9817682Y-15244293D01*
X9817682Y-15244293D02*
X9808158Y-15225246D01*
X9808158Y-15225246D02*
X9808158Y-15215722D01*
X9808158Y-15215722D02*
X9817682Y-15196674D01*
X9817682Y-15196674D02*
X9836730Y-15187150D01*
X9836730Y-15187150D02*
X9865301Y-15187150D01*
X9865301Y-15187150D02*
X9884349Y-15196674D01*
X9960539Y-15396674D02*
X9970063Y-15387150D01*
X9970063Y-15387150D02*
X9989111Y-15358579D01*
X9989111Y-15358579D02*
X9998634Y-15339531D01*
X9998634Y-15339531D02*
X10008158Y-15310960D01*
X10008158Y-15310960D02*
X10017682Y-15263341D01*
X10017682Y-15263341D02*
X10017682Y-15225246D01*
X10017682Y-15225246D02*
X10008158Y-15177627D01*
X10008158Y-15177627D02*
X9998634Y-15149055D01*
X9998634Y-15149055D02*
X9989111Y-15130008D01*
X9989111Y-15130008D02*
X9970063Y-15101436D01*
X9970063Y-15101436D02*
X9960539Y-15091912D01*
M02*
