G04 #@! TF.GenerationSoftware,KiCad,Pcbnew,10.0.6*
G04 #@! TF.CreationDate,2026-09-27T08:28:16-07:00*
G04 #@! TF.ProjectId,indoor-carrier,696e646f-6f72-42d6-9361-72726965722e,A*
G04 #@! TF.SameCoordinates,Original*
G04 #@! TF.FileFunction,Copper,L1,Top*
G04 #@! TF.FilePolarity,Positive*
%FSLAX46Y46*%
G04 Gerber Fmt 4.6, Leading zero omitted, Abs format (unit mm)*
G04 Created by KiCad (PCBNEW 10.0.6) date 2026-09-27 08:28:16*
%MOMM*%
%LPD*%
G01*
G04 APERTURE LIST*
G04 Aperture macros list*
%AMRoundRect*
0 Rectangle with rounded corners*
0 $1 Rounding radius*
0 $2 $3 $4 $5 $6 $7 $8 $9 X,Y pos of 4 corners*
0 Add a 4 corners polygon primitive as box body*
4,1,4,$2,$3,$4,$5,$6,$7,$8,$9,$2,$3,0*
0 Add four circle primitives for the rounded corners*
1,1,$1+$1,$2,$3*
1,1,$1+$1,$4,$5*
1,1,$1+$1,$6,$7*
1,1,$1+$1,$8,$9*
0 Add four rect primitives between the rounded corners*
20,1,$1+$1,$2,$3,$4,$5,0*
20,1,$1+$1,$4,$5,$6,$7,0*
20,1,$1+$1,$6,$7,$8,$9,0*
20,1,$1+$1,$8,$9,$2,$3,0*%
G04 Aperture macros list end*
G04 #@! TA.AperFunction,ComponentPad*
%ADD10RoundRect,0.250000X0.550000X-0.550000X0.550000X0.550000X-0.550000X0.550000X-0.550000X-0.550000X0*%
G04 #@! TD*
G04 #@! TA.AperFunction,ComponentPad*
%ADD11C,1.600000*%
G04 #@! TD*
G04 #@! TA.AperFunction,ComponentPad*
%ADD12RoundRect,0.500000X0.500000X0.500000X-0.500000X0.500000X-0.500000X-0.500000X0.500000X-0.500000X0*%
G04 #@! TD*
G04 #@! TA.AperFunction,ComponentPad*
%ADD13C,2.000000*%
G04 #@! TD*
G04 #@! TA.AperFunction,ComponentPad*
%ADD14RoundRect,0.250000X0.650000X1.550000X-0.650000X1.550000X-0.650000X-1.550000X0.650000X-1.550000X0*%
G04 #@! TD*
G04 #@! TA.AperFunction,ComponentPad*
%ADD15O,1.800000X3.600000*%
G04 #@! TD*
G04 #@! TA.AperFunction,ComponentPad*
%ADD16RoundRect,0.250000X-0.650000X-1.550000X0.650000X-1.550000X0.650000X1.550000X-0.650000X1.550000X0*%
G04 #@! TD*
G04 #@! TA.AperFunction,ComponentPad*
%ADD17R,1.700000X1.700000*%
G04 #@! TD*
G04 #@! TA.AperFunction,ComponentPad*
%ADD18O,1.700000X1.700000*%
G04 #@! TD*
G04 #@! TA.AperFunction,ComponentPad*
%ADD19RoundRect,0.250000X-0.750000X-0.750000X0.750000X-0.750000X0.750000X0.750000X-0.750000X0.750000X0*%
G04 #@! TD*
G04 #@! TA.AperFunction,ComponentPad*
%ADD20RoundRect,0.250000X-0.600000X-0.725000X0.600000X-0.725000X0.600000X0.725000X-0.600000X0.725000X0*%
G04 #@! TD*
G04 #@! TA.AperFunction,ComponentPad*
%ADD21O,1.700000X1.950000*%
G04 #@! TD*
G04 #@! TA.AperFunction,SMDPad,CuDef*
%ADD22RoundRect,0.250000X-1.500000X-0.900000X1.500000X-0.900000X1.500000X0.900000X-1.500000X0.900000X0*%
G04 #@! TD*
G04 #@! TA.AperFunction,ComponentPad*
%ADD23RoundRect,0.249999X0.850001X0.850001X-0.850001X0.850001X-0.850001X-0.850001X0.850001X-0.850001X0*%
G04 #@! TD*
G04 #@! TA.AperFunction,ComponentPad*
%ADD24C,2.200000*%
G04 #@! TD*
G04 #@! TA.AperFunction,ViaPad*
%ADD25C,0.600000*%
G04 #@! TD*
G04 #@! TA.AperFunction,Conductor*
%ADD26C,0.300000*%
G04 #@! TD*
G04 #@! TA.AperFunction,Conductor*
%ADD27C,1.000000*%
G04 #@! TD*
G04 #@! TA.AperFunction,Conductor*
%ADD28C,0.500000*%
G04 #@! TD*
G04 APERTURE END LIST*
D10*
X95300000Y-100000000D03*
D11*
X97840000Y-100000000D03*
X100380000Y-100000000D03*
X100380000Y-92380000D03*
X97840000Y-92380000D03*
X95300000Y-92380000D03*
D10*
X72100000Y-100000000D03*
D11*
X74640000Y-100000000D03*
X77180000Y-100000000D03*
X77180000Y-92380000D03*
X74640000Y-92380000D03*
X72100000Y-92380000D03*
D12*
X130000000Y-65500000D03*
X125000000Y-65500000D03*
D13*
X115000000Y-65500000D03*
X110000000Y-65500000D03*
D11*
X60500000Y-116000000D03*
X60500000Y-103300000D03*
X92050000Y-90500000D03*
X92050000Y-100660000D03*
D10*
X83700000Y-100000000D03*
D11*
X86240000Y-100000000D03*
X88780000Y-100000000D03*
X88780000Y-92380000D03*
X86240000Y-92380000D03*
X83700000Y-92380000D03*
X80450000Y-90500000D03*
X80450000Y-100660000D03*
D14*
X140000000Y-58540000D03*
D15*
X134920000Y-58540000D03*
D11*
X98500000Y-114500000D03*
X108660000Y-114500000D03*
D16*
X60500000Y-121460000D03*
D15*
X65580000Y-121460000D03*
X70660000Y-121460000D03*
X75740000Y-121460000D03*
D11*
X110000000Y-82200000D03*
X112500000Y-82200000D03*
D17*
X52500000Y-79850000D03*
D18*
X55040000Y-79850000D03*
X57580000Y-79850000D03*
X60120000Y-79850000D03*
X62660000Y-79850000D03*
X65200000Y-79850000D03*
X67740000Y-79850000D03*
X70280000Y-79850000D03*
X72820000Y-79850000D03*
X75360000Y-79850000D03*
X77900000Y-79850000D03*
X80440000Y-79850000D03*
X82980000Y-79850000D03*
X85520000Y-79850000D03*
X88060000Y-79850000D03*
D17*
X52500000Y-54450000D03*
D18*
X55040000Y-54450000D03*
X57580000Y-54450000D03*
X60120000Y-54450000D03*
X62660000Y-54450000D03*
X65200000Y-54450000D03*
X67740000Y-54450000D03*
X70280000Y-54450000D03*
X72820000Y-54450000D03*
X75360000Y-54450000D03*
X77900000Y-54450000D03*
X80440000Y-54450000D03*
X82980000Y-54450000D03*
X85520000Y-54450000D03*
X88060000Y-54450000D03*
D11*
X68850000Y-90500000D03*
X68850000Y-100660000D03*
X72100000Y-116000000D03*
X72100000Y-103300000D03*
D10*
X60500000Y-100000000D03*
D11*
X63040000Y-100000000D03*
X65580000Y-100000000D03*
X65580000Y-92380000D03*
X63040000Y-92380000D03*
X60500000Y-92380000D03*
D19*
X126000000Y-78000000D03*
D13*
X131000000Y-78000000D03*
D11*
X83700000Y-116000000D03*
X83700000Y-103300000D03*
D17*
X107750000Y-86125000D03*
D18*
X107750000Y-103875000D03*
X147250000Y-86125000D03*
X147250000Y-103875000D03*
D11*
X103700000Y-90500000D03*
X103700000Y-100660000D03*
D20*
X104580000Y-125500000D03*
D21*
X107080000Y-125500000D03*
X109580000Y-125500000D03*
D11*
X95300000Y-116000000D03*
X95300000Y-103300000D03*
D20*
X86580000Y-125500000D03*
D21*
X89080000Y-125500000D03*
X91580000Y-125500000D03*
D22*
X111800000Y-78000000D03*
X117200000Y-78000000D03*
D16*
X121000000Y-121460000D03*
D15*
X126080000Y-121460000D03*
X131160000Y-121460000D03*
X136240000Y-121460000D03*
D23*
X120500000Y-72500000D03*
D24*
X110340000Y-72500000D03*
D25*
X98527200Y-89382200D03*
X127998200Y-60295600D03*
X119156900Y-54580900D03*
D26*
X95300000Y-103300000D02*
X95300000Y-100000000D01*
X98527200Y-92380000D02*
X98527200Y-89382200D01*
X103700000Y-100660000D02*
X103700000Y-97552800D01*
X97840000Y-92380000D02*
X98527200Y-92380000D01*
X103700000Y-97552800D02*
X98527200Y-92380000D01*
X72100000Y-100000000D02*
X72100000Y-103300000D01*
X62660000Y-81051700D02*
X63311700Y-81051700D01*
X63311700Y-81051700D02*
X74640000Y-92380000D01*
X62660000Y-79850000D02*
X62660000Y-81051700D01*
D27*
X110340000Y-72500000D02*
X110000000Y-72160000D01*
X111800000Y-78000000D02*
X110340000Y-76540000D01*
X110340000Y-76540000D02*
X110340000Y-72500000D01*
X110000000Y-72160000D02*
X110000000Y-65500000D01*
X60500000Y-121460000D02*
X60500000Y-116000000D01*
D26*
X60500000Y-103300000D02*
X60500000Y-100000000D01*
D28*
X93360900Y-109360900D02*
X93360900Y-91810900D01*
X104580000Y-125500000D02*
X104580000Y-120579900D01*
X98500000Y-114500000D02*
X93360900Y-109360900D01*
X88060000Y-55751700D02*
X92050000Y-59741700D01*
X104579900Y-120579900D02*
X98500000Y-114500000D01*
X104580000Y-120579900D02*
X104579900Y-120579900D01*
X88060000Y-54450000D02*
X88060000Y-55751700D01*
X92050000Y-59741700D02*
X92050000Y-90500000D01*
X93360900Y-91810900D02*
X92050000Y-90500000D01*
D26*
X92050000Y-100660000D02*
X86240000Y-94850000D01*
X86240000Y-94850000D02*
X86240000Y-92380000D01*
X83700000Y-100000000D02*
X83700000Y-103300000D01*
X77900000Y-54450000D02*
X77900000Y-55651700D01*
X79101700Y-56853400D02*
X79101700Y-115521700D01*
X107080000Y-125500000D02*
X108281700Y-125500000D01*
X108660000Y-114500000D02*
X108281700Y-114878300D01*
X77900000Y-55651700D02*
X79101700Y-56853400D01*
X79101700Y-115521700D02*
X87878300Y-124298300D01*
X108281700Y-114878300D02*
X108281700Y-125500000D01*
X87878300Y-124298300D02*
X87878300Y-125500000D01*
X89080000Y-125500000D02*
X87878300Y-125500000D01*
D27*
X113451400Y-80275400D02*
X114500000Y-79226800D01*
X111924600Y-80275400D02*
X113451400Y-80275400D01*
X110000000Y-82200000D02*
X111924600Y-80275400D01*
X107750000Y-84450000D02*
X110000000Y-82200000D01*
X114500000Y-76738200D02*
X118738200Y-72500000D01*
X114500000Y-79226800D02*
X114500000Y-76738200D01*
X107750000Y-86125000D02*
X107750000Y-84450000D01*
X118738200Y-72500000D02*
X120500000Y-72500000D01*
D26*
X63040000Y-83971700D02*
X63040000Y-92380000D01*
X68850000Y-100660000D02*
X63040000Y-94850000D01*
X63040000Y-94850000D02*
X63040000Y-92380000D01*
X60120000Y-81051700D02*
X63040000Y-83971700D01*
X60120000Y-79850000D02*
X60120000Y-81051700D01*
X136240000Y-121460000D02*
X136240000Y-68537400D01*
X136240000Y-68537400D02*
X127998200Y-60295600D01*
X119156900Y-54580900D02*
X122947500Y-58371500D01*
X122947500Y-111095800D02*
X131160000Y-119308300D01*
X122947500Y-58371500D02*
X122947500Y-111095800D01*
X131160000Y-121460000D02*
X131160000Y-119308300D01*
G04 #@! TA.AperFunction,Conductor*
G36*
X148005312Y-50500880D02*
G01*
X148030112Y-50502653D01*
X148202774Y-50515002D01*
X148223803Y-50518025D01*
X148412054Y-50558976D01*
X148432437Y-50564962D01*
X148612931Y-50632283D01*
X148632265Y-50641112D01*
X148801340Y-50733434D01*
X148819222Y-50744926D01*
X148973431Y-50860366D01*
X148989497Y-50874287D01*
X149125712Y-51010502D01*
X149139633Y-51026568D01*
X149255073Y-51180777D01*
X149266567Y-51198662D01*
X149358886Y-51367733D01*
X149367717Y-51387070D01*
X149427908Y-51548448D01*
X149435034Y-51567552D01*
X149441024Y-51587951D01*
X149481972Y-51776188D01*
X149484997Y-51797230D01*
X149499120Y-51994686D01*
X149499500Y-52005316D01*
X149499500Y-127994683D01*
X149499120Y-128005313D01*
X149484997Y-128202767D01*
X149481972Y-128223810D01*
X149441024Y-128412043D01*
X149435035Y-128432440D01*
X149367715Y-128612932D01*
X149358883Y-128632270D01*
X149266567Y-128801335D01*
X149255076Y-128819215D01*
X149175647Y-128925320D01*
X149139632Y-128973432D01*
X149125710Y-128989498D01*
X148989498Y-129125710D01*
X148973432Y-129139632D01*
X148819215Y-129255076D01*
X148801335Y-129266567D01*
X148632270Y-129358883D01*
X148612932Y-129367715D01*
X148432440Y-129435035D01*
X148412043Y-129441024D01*
X148223810Y-129481972D01*
X148202767Y-129484997D01*
X148005313Y-129499120D01*
X147994683Y-129499500D01*
X52005317Y-129499500D01*
X51994687Y-129499120D01*
X51797230Y-129484997D01*
X51776188Y-129481972D01*
X51587951Y-129441024D01*
X51567552Y-129435034D01*
X51387070Y-129367717D01*
X51367733Y-129358886D01*
X51198662Y-129266567D01*
X51180777Y-129255073D01*
X51026568Y-129139633D01*
X51010502Y-129125712D01*
X50874287Y-128989497D01*
X50860366Y-128973431D01*
X50744926Y-128819222D01*
X50733432Y-128801337D01*
X50641113Y-128632266D01*
X50632284Y-128612933D01*
X50564962Y-128432437D01*
X50558975Y-128412048D01*
X50558974Y-128412043D01*
X50518025Y-128223803D01*
X50515002Y-128202768D01*
X50500880Y-128005312D01*
X50500500Y-127994683D01*
X50500500Y-126378706D01*
X51649500Y-126378706D01*
X51649500Y-126621293D01*
X51681160Y-126861781D01*
X51681161Y-126861787D01*
X51681162Y-126861789D01*
X51743946Y-127096100D01*
X51836776Y-127320212D01*
X51958064Y-127530289D01*
X52105735Y-127722738D01*
X52277262Y-127894265D01*
X52469711Y-128041936D01*
X52679788Y-128163224D01*
X52903900Y-128256054D01*
X53138211Y-128318838D01*
X53138217Y-128318838D01*
X53138218Y-128318839D01*
X53203600Y-128327446D01*
X53378712Y-128350500D01*
X53621288Y-128350500D01*
X53861789Y-128318838D01*
X54096100Y-128256054D01*
X54320212Y-128163224D01*
X54530289Y-128041936D01*
X54722738Y-127894265D01*
X54894265Y-127722738D01*
X55041936Y-127530289D01*
X55163224Y-127320212D01*
X55256054Y-127096100D01*
X55318838Y-126861789D01*
X55350500Y-126621288D01*
X55350500Y-126378712D01*
X55327446Y-126203600D01*
X55318839Y-126138218D01*
X55318838Y-126138217D01*
X55318838Y-126138211D01*
X55256054Y-125903900D01*
X55163224Y-125679788D01*
X55041936Y-125469711D01*
X54894265Y-125277262D01*
X54722738Y-125105735D01*
X54530289Y-124958064D01*
X54354850Y-124856774D01*
X54320216Y-124836778D01*
X54320214Y-124836777D01*
X54320212Y-124836776D01*
X54139595Y-124761962D01*
X54096103Y-124743947D01*
X54096101Y-124743946D01*
X54096100Y-124743946D01*
X53861789Y-124681162D01*
X53861787Y-124681161D01*
X53861781Y-124681160D01*
X53621293Y-124649500D01*
X53621288Y-124649500D01*
X53378712Y-124649500D01*
X53378706Y-124649500D01*
X53138218Y-124681160D01*
X52903896Y-124743947D01*
X52679783Y-124836778D01*
X52469712Y-124958063D01*
X52469711Y-124958064D01*
X52277262Y-125105735D01*
X52277260Y-125105736D01*
X52277256Y-125105740D01*
X52105740Y-125277256D01*
X51958063Y-125469712D01*
X51836778Y-125679783D01*
X51743947Y-125903896D01*
X51681160Y-126138218D01*
X51649500Y-126378706D01*
X50500500Y-126378706D01*
X50500500Y-119844306D01*
X59199500Y-119844306D01*
X59199500Y-123075694D01*
X59200922Y-123093761D01*
X59202402Y-123112571D01*
X59229046Y-123204279D01*
X59248256Y-123270398D01*
X59331919Y-123411865D01*
X59448135Y-123528081D01*
X59589602Y-123611744D01*
X59747428Y-123657597D01*
X59747427Y-123657597D01*
X59747431Y-123657598D01*
X59784306Y-123660500D01*
X59784313Y-123660500D01*
X61215687Y-123660500D01*
X61215694Y-123660500D01*
X61252569Y-123657598D01*
X61410398Y-123611744D01*
X61551865Y-123528081D01*
X61668081Y-123411865D01*
X61751744Y-123270398D01*
X61797598Y-123112569D01*
X61800500Y-123075694D01*
X61800500Y-120457648D01*
X64279500Y-120457648D01*
X64279500Y-122462352D01*
X64311523Y-122664534D01*
X64374778Y-122859212D01*
X64374782Y-122859224D01*
X64467714Y-123041612D01*
X64588028Y-123207212D01*
X64588035Y-123207220D01*
X64732779Y-123351964D01*
X64732787Y-123351971D01*
X64898387Y-123472285D01*
X64898390Y-123472287D01*
X65080781Y-123565220D01*
X65275466Y-123628477D01*
X65477648Y-123660500D01*
X65477653Y-123660500D01*
X65682347Y-123660500D01*
X65682352Y-123660500D01*
X65884534Y-123628477D01*
X66079219Y-123565220D01*
X66261610Y-123472287D01*
X66427219Y-123351966D01*
X66571966Y-123207219D01*
X66692287Y-123041610D01*
X66785220Y-122859219D01*
X66848477Y-122664534D01*
X66880500Y-122462352D01*
X66880500Y-120457648D01*
X69359500Y-120457648D01*
X69359500Y-122462352D01*
X69391523Y-122664534D01*
X69454778Y-122859212D01*
X69454782Y-122859224D01*
X69547714Y-123041612D01*
X69668028Y-123207212D01*
X69668035Y-123207220D01*
X69812779Y-123351964D01*
X69812787Y-123351971D01*
X69978387Y-123472285D01*
X69978390Y-123472287D01*
X70160781Y-123565220D01*
X70355466Y-123628477D01*
X70557648Y-123660500D01*
X70557653Y-123660500D01*
X70762347Y-123660500D01*
X70762352Y-123660500D01*
X70964534Y-123628477D01*
X71159219Y-123565220D01*
X71341610Y-123472287D01*
X71507219Y-123351966D01*
X71651966Y-123207219D01*
X71772287Y-123041610D01*
X71865220Y-122859219D01*
X71928477Y-122664534D01*
X71960500Y-122462352D01*
X71960500Y-120457648D01*
X74439500Y-120457648D01*
X74439500Y-122462352D01*
X74471523Y-122664534D01*
X74534778Y-122859212D01*
X74534782Y-122859224D01*
X74627714Y-123041612D01*
X74748028Y-123207212D01*
X74748035Y-123207220D01*
X74892779Y-123351964D01*
X74892787Y-123351971D01*
X75058387Y-123472285D01*
X75058390Y-123472287D01*
X75240781Y-123565220D01*
X75435466Y-123628477D01*
X75637648Y-123660500D01*
X75637653Y-123660500D01*
X75842347Y-123660500D01*
X75842352Y-123660500D01*
X76044534Y-123628477D01*
X76239219Y-123565220D01*
X76421610Y-123472287D01*
X76587219Y-123351966D01*
X76731966Y-123207219D01*
X76852287Y-123041610D01*
X76945220Y-122859219D01*
X77008477Y-122664534D01*
X77040500Y-122462352D01*
X77040500Y-120457648D01*
X77008477Y-120255466D01*
X76945220Y-120060781D01*
X76852287Y-119878390D01*
X76800731Y-119807428D01*
X76731971Y-119712787D01*
X76731964Y-119712779D01*
X76587220Y-119568035D01*
X76587212Y-119568028D01*
X76421612Y-119447714D01*
X76239224Y-119354782D01*
X76239220Y-119354780D01*
X76239219Y-119354780D01*
X76044534Y-119291523D01*
X75842352Y-119259500D01*
X75637648Y-119259500D01*
X75469163Y-119286185D01*
X75435465Y-119291523D01*
X75240787Y-119354778D01*
X75240775Y-119354782D01*
X75058387Y-119447714D01*
X74892787Y-119568028D01*
X74892779Y-119568035D01*
X74748035Y-119712779D01*
X74748028Y-119712787D01*
X74627714Y-119878387D01*
X74534782Y-120060775D01*
X74534778Y-120060787D01*
X74532108Y-120069006D01*
X74471523Y-120255466D01*
X74439500Y-120457648D01*
X71960500Y-120457648D01*
X71928477Y-120255466D01*
X71865220Y-120060781D01*
X71772287Y-119878390D01*
X71720731Y-119807428D01*
X71651971Y-119712787D01*
X71651964Y-119712779D01*
X71507220Y-119568035D01*
X71507212Y-119568028D01*
X71341612Y-119447714D01*
X71159224Y-119354782D01*
X71159220Y-119354780D01*
X71159219Y-119354780D01*
X70964534Y-119291523D01*
X70762352Y-119259500D01*
X70557648Y-119259500D01*
X70389163Y-119286185D01*
X70355465Y-119291523D01*
X70160787Y-119354778D01*
X70160775Y-119354782D01*
X69978387Y-119447714D01*
X69812787Y-119568028D01*
X69812779Y-119568035D01*
X69668035Y-119712779D01*
X69668028Y-119712787D01*
X69547714Y-119878387D01*
X69454782Y-120060775D01*
X69454778Y-120060787D01*
X69452108Y-120069006D01*
X69391523Y-120255466D01*
X69359500Y-120457648D01*
X66880500Y-120457648D01*
X66848477Y-120255466D01*
X66785220Y-120060781D01*
X66692287Y-119878390D01*
X66640731Y-119807428D01*
X66571971Y-119712787D01*
X66571964Y-119712779D01*
X66427220Y-119568035D01*
X66427212Y-119568028D01*
X66261612Y-119447714D01*
X66079224Y-119354782D01*
X66079220Y-119354780D01*
X66079219Y-119354780D01*
X65884534Y-119291523D01*
X65682352Y-119259500D01*
X65477648Y-119259500D01*
X65309163Y-119286185D01*
X65275465Y-119291523D01*
X65080787Y-119354778D01*
X65080775Y-119354782D01*
X64898387Y-119447714D01*
X64732787Y-119568028D01*
X64732779Y-119568035D01*
X64588035Y-119712779D01*
X64588028Y-119712787D01*
X64467714Y-119878387D01*
X64374782Y-120060775D01*
X64374778Y-120060787D01*
X64372108Y-120069006D01*
X64311523Y-120255466D01*
X64279500Y-120457648D01*
X61800500Y-120457648D01*
X61800500Y-119844306D01*
X61797598Y-119807431D01*
X61751744Y-119649602D01*
X61668081Y-119508135D01*
X61551865Y-119391919D01*
X61551864Y-119391918D01*
X61551861Y-119391916D01*
X61473652Y-119345663D01*
X61419689Y-119290557D01*
X61400500Y-119217413D01*
X61400500Y-116851392D01*
X61420462Y-116776892D01*
X61428947Y-116763826D01*
X61526760Y-116629199D01*
X61612547Y-116460832D01*
X61670940Y-116281118D01*
X61700500Y-116094481D01*
X61700500Y-115905519D01*
X70899500Y-115905519D01*
X70899500Y-116094481D01*
X70929060Y-116281118D01*
X70987453Y-116460832D01*
X71073240Y-116629199D01*
X71184310Y-116782073D01*
X71317927Y-116915690D01*
X71470801Y-117026760D01*
X71639168Y-117112547D01*
X71818882Y-117170940D01*
X72005519Y-117200500D01*
X72005524Y-117200500D01*
X72194476Y-117200500D01*
X72194481Y-117200500D01*
X72381118Y-117170940D01*
X72560832Y-117112547D01*
X72729199Y-117026760D01*
X72882073Y-116915690D01*
X73015690Y-116782073D01*
X73126760Y-116629199D01*
X73212547Y-116460832D01*
X73270940Y-116281118D01*
X73300500Y-116094481D01*
X73300500Y-115905519D01*
X73270940Y-115718882D01*
X73212547Y-115539168D01*
X73126760Y-115370801D01*
X73015690Y-115217927D01*
X72882073Y-115084310D01*
X72729199Y-114973240D01*
X72560832Y-114887453D01*
X72381118Y-114829060D01*
X72194481Y-114799500D01*
X72005519Y-114799500D01*
X71818882Y-114829060D01*
X71639168Y-114887453D01*
X71639163Y-114887455D01*
X71639157Y-114887458D01*
X71470804Y-114973238D01*
X71470799Y-114973241D01*
X71317936Y-115084303D01*
X71317925Y-115084312D01*
X71184312Y-115217925D01*
X71184303Y-115217936D01*
X71073241Y-115370799D01*
X71073238Y-115370804D01*
X70987458Y-115539157D01*
X70987451Y-115539174D01*
X70936821Y-115694995D01*
X70929060Y-115718882D01*
X70899500Y-115905519D01*
X61700500Y-115905519D01*
X61670940Y-115718882D01*
X61612547Y-115539168D01*
X61526760Y-115370801D01*
X61415690Y-115217927D01*
X61282073Y-115084310D01*
X61129199Y-114973240D01*
X60960832Y-114887453D01*
X60781118Y-114829060D01*
X60594481Y-114799500D01*
X60405519Y-114799500D01*
X60218882Y-114829060D01*
X60039168Y-114887453D01*
X60039163Y-114887455D01*
X60039157Y-114887458D01*
X59870804Y-114973238D01*
X59870799Y-114973241D01*
X59717936Y-115084303D01*
X59717925Y-115084312D01*
X59584312Y-115217925D01*
X59584303Y-115217936D01*
X59473241Y-115370799D01*
X59473238Y-115370804D01*
X59387458Y-115539157D01*
X59387451Y-115539174D01*
X59336821Y-115694995D01*
X59329060Y-115718882D01*
X59299500Y-115905519D01*
X59299500Y-116094481D01*
X59329060Y-116281118D01*
X59387453Y-116460832D01*
X59387457Y-116460841D01*
X59387458Y-116460842D01*
X59473237Y-116629195D01*
X59473240Y-116629199D01*
X59571044Y-116763814D01*
X59598684Y-116835817D01*
X59599500Y-116851392D01*
X59599500Y-119217413D01*
X59579538Y-119291913D01*
X59526348Y-119345663D01*
X59448138Y-119391916D01*
X59448133Y-119391920D01*
X59331920Y-119508133D01*
X59331918Y-119508136D01*
X59248257Y-119649599D01*
X59202402Y-119807428D01*
X59202402Y-119807431D01*
X59199500Y-119844306D01*
X50500500Y-119844306D01*
X50500500Y-99384306D01*
X59299500Y-99384306D01*
X59299500Y-100615694D01*
X59300563Y-100629195D01*
X59302402Y-100652571D01*
X59311794Y-100684896D01*
X59348256Y-100810398D01*
X59431919Y-100951865D01*
X59548135Y-101068081D01*
X59689602Y-101151744D01*
X59842071Y-101196040D01*
X59908043Y-101235995D01*
X59945199Y-101303583D01*
X59949500Y-101339124D01*
X59949500Y-102141833D01*
X59929538Y-102216333D01*
X59875760Y-102270110D01*
X59875801Y-102270176D01*
X59875527Y-102270343D01*
X59875000Y-102270871D01*
X59872081Y-102272455D01*
X59870795Y-102273243D01*
X59717936Y-102384303D01*
X59717925Y-102384312D01*
X59584312Y-102517925D01*
X59584303Y-102517936D01*
X59473241Y-102670799D01*
X59473238Y-102670804D01*
X59387458Y-102839157D01*
X59387455Y-102839163D01*
X59387453Y-102839168D01*
X59329060Y-103018882D01*
X59299500Y-103205519D01*
X59299500Y-103394481D01*
X59329060Y-103581118D01*
X59387453Y-103760832D01*
X59473240Y-103929199D01*
X59584310Y-104082073D01*
X59717927Y-104215690D01*
X59870801Y-104326760D01*
X60039168Y-104412547D01*
X60218882Y-104470940D01*
X60405519Y-104500500D01*
X60405524Y-104500500D01*
X60594476Y-104500500D01*
X60594481Y-104500500D01*
X60781118Y-104470940D01*
X60960832Y-104412547D01*
X61129199Y-104326760D01*
X61282073Y-104215690D01*
X61415690Y-104082073D01*
X61526760Y-103929199D01*
X61612547Y-103760832D01*
X61670940Y-103581118D01*
X61700500Y-103394481D01*
X61700500Y-103205519D01*
X61670940Y-103018882D01*
X61612547Y-102839168D01*
X61526760Y-102670801D01*
X61415690Y-102517927D01*
X61282073Y-102384310D01*
X61236885Y-102351479D01*
X61129204Y-102273243D01*
X61124199Y-102270176D01*
X61125176Y-102268580D01*
X61074535Y-102222980D01*
X61050704Y-102149626D01*
X61050500Y-102141833D01*
X61050500Y-101339124D01*
X61070462Y-101264624D01*
X61125000Y-101210086D01*
X61157926Y-101196041D01*
X61310398Y-101151744D01*
X61382284Y-101109231D01*
X62355031Y-101109231D01*
X62358645Y-101111856D01*
X62540967Y-101204753D01*
X62540979Y-101204758D01*
X62735583Y-101267989D01*
X62937693Y-101300000D01*
X63142307Y-101300000D01*
X63344416Y-101267989D01*
X63539020Y-101204758D01*
X63539038Y-101204751D01*
X63721344Y-101111862D01*
X63721354Y-101111856D01*
X63724966Y-101109231D01*
X63724966Y-101109230D01*
X63040000Y-100424264D01*
X62355031Y-101109231D01*
X61382284Y-101109231D01*
X61451865Y-101068081D01*
X61568081Y-100951865D01*
X61651744Y-100810398D01*
X61672625Y-100738523D01*
X61712579Y-100672554D01*
X61780166Y-100635397D01*
X61857278Y-100637012D01*
X61923250Y-100676967D01*
X61929880Y-100684896D01*
X61930768Y-100684966D01*
X62615735Y-99999999D01*
X62563075Y-99947339D01*
X62640000Y-99947339D01*
X62640000Y-100052661D01*
X62667259Y-100154394D01*
X62719920Y-100245606D01*
X62794394Y-100320080D01*
X62885606Y-100372741D01*
X62987339Y-100400000D01*
X63092661Y-100400000D01*
X63194394Y-100372741D01*
X63285606Y-100320080D01*
X63360080Y-100245606D01*
X63412741Y-100154394D01*
X63440000Y-100052661D01*
X63440000Y-99947339D01*
X63412741Y-99845606D01*
X63360080Y-99754394D01*
X63285606Y-99679920D01*
X63194394Y-99627259D01*
X63092661Y-99600000D01*
X62987339Y-99600000D01*
X62885606Y-99627259D01*
X62794394Y-99679920D01*
X62719920Y-99754394D01*
X62667259Y-99845606D01*
X62640000Y-99947339D01*
X62563075Y-99947339D01*
X61930767Y-99315031D01*
X61926500Y-99315367D01*
X61876342Y-99356005D01*
X61800166Y-99368087D01*
X61728154Y-99340463D01*
X61679602Y-99280535D01*
X61672626Y-99261480D01*
X61651744Y-99189602D01*
X61568081Y-99048135D01*
X61451865Y-98931919D01*
X61382280Y-98890767D01*
X62355031Y-98890767D01*
X63039999Y-99575735D01*
X63724966Y-98890768D01*
X63724966Y-98890767D01*
X63721351Y-98888141D01*
X63721348Y-98888139D01*
X63539038Y-98795248D01*
X63539020Y-98795241D01*
X63344416Y-98732010D01*
X63142307Y-98700000D01*
X62937693Y-98700000D01*
X62735583Y-98732010D01*
X62540979Y-98795241D01*
X62540961Y-98795248D01*
X62358656Y-98888136D01*
X62358649Y-98888140D01*
X62355031Y-98890767D01*
X61382280Y-98890767D01*
X61310398Y-98848256D01*
X61232014Y-98825483D01*
X61152571Y-98802402D01*
X61152572Y-98802402D01*
X61141506Y-98801531D01*
X61115694Y-98799500D01*
X59884306Y-98799500D01*
X59859722Y-98801434D01*
X59847428Y-98802402D01*
X59689599Y-98848257D01*
X59548136Y-98931918D01*
X59548133Y-98931920D01*
X59431920Y-99048133D01*
X59431918Y-99048136D01*
X59348257Y-99189599D01*
X59302402Y-99347428D01*
X59302402Y-99347431D01*
X59299500Y-99384306D01*
X50500500Y-99384306D01*
X50500500Y-86878706D01*
X51649500Y-86878706D01*
X51649500Y-87121293D01*
X51681160Y-87361781D01*
X51681161Y-87361787D01*
X51681162Y-87361789D01*
X51743946Y-87596100D01*
X51836776Y-87820212D01*
X51958064Y-88030289D01*
X52105735Y-88222738D01*
X52277262Y-88394265D01*
X52469711Y-88541936D01*
X52679788Y-88663224D01*
X52903900Y-88756054D01*
X53138211Y-88818838D01*
X53138217Y-88818838D01*
X53138218Y-88818839D01*
X53203600Y-88827446D01*
X53378712Y-88850500D01*
X53621288Y-88850500D01*
X53861789Y-88818838D01*
X54096100Y-88756054D01*
X54320212Y-88663224D01*
X54530289Y-88541936D01*
X54722738Y-88394265D01*
X54894265Y-88222738D01*
X55041936Y-88030289D01*
X55163224Y-87820212D01*
X55256054Y-87596100D01*
X55318838Y-87361789D01*
X55350500Y-87121288D01*
X55350500Y-86878712D01*
X55318838Y-86638211D01*
X55256054Y-86403900D01*
X55163224Y-86179788D01*
X55041936Y-85969711D01*
X54894265Y-85777262D01*
X54722738Y-85605735D01*
X54530289Y-85458064D01*
X54460263Y-85417634D01*
X54320216Y-85336778D01*
X54320214Y-85336777D01*
X54320212Y-85336776D01*
X54188932Y-85282398D01*
X54096103Y-85243947D01*
X54096101Y-85243946D01*
X54096100Y-85243946D01*
X53861789Y-85181162D01*
X53861787Y-85181161D01*
X53861781Y-85181160D01*
X53621293Y-85149500D01*
X53621288Y-85149500D01*
X53378712Y-85149500D01*
X53378706Y-85149500D01*
X53138218Y-85181160D01*
X52903896Y-85243947D01*
X52679783Y-85336778D01*
X52469712Y-85458063D01*
X52398488Y-85512714D01*
X52277262Y-85605735D01*
X52277260Y-85605736D01*
X52277256Y-85605740D01*
X52105740Y-85777256D01*
X51958063Y-85969712D01*
X51836778Y-86179783D01*
X51743947Y-86403896D01*
X51681160Y-86638218D01*
X51649500Y-86878706D01*
X50500500Y-86878706D01*
X50500500Y-78549000D01*
X50520462Y-78474500D01*
X50575000Y-78419962D01*
X50649500Y-78400000D01*
X51327390Y-78400000D01*
X51401890Y-78419962D01*
X51456428Y-78474500D01*
X51476390Y-78549000D01*
X51456428Y-78623500D01*
X51414970Y-78669544D01*
X51411656Y-78671951D01*
X51321950Y-78761657D01*
X51264354Y-78874694D01*
X51260952Y-78896174D01*
X51249500Y-78968481D01*
X51249500Y-78968482D01*
X51249500Y-78968485D01*
X51249500Y-80731518D01*
X51260952Y-80803825D01*
X51264354Y-80825304D01*
X51321950Y-80938342D01*
X51411658Y-81028050D01*
X51524696Y-81085646D01*
X51618481Y-81100500D01*
X53381518Y-81100499D01*
X53475304Y-81085646D01*
X53588342Y-81028050D01*
X53678050Y-80938342D01*
X53735646Y-80825304D01*
X53750500Y-80731519D01*
X53750499Y-80661205D01*
X53770460Y-80586709D01*
X53824997Y-80532170D01*
X53899497Y-80512207D01*
X53973997Y-80532168D01*
X54020041Y-80573625D01*
X54086172Y-80664646D01*
X54225354Y-80803828D01*
X54384595Y-80919524D01*
X54559975Y-81008884D01*
X54747174Y-81069709D01*
X54941583Y-81100500D01*
X54941588Y-81100500D01*
X55138412Y-81100500D01*
X55138417Y-81100500D01*
X55332826Y-81069709D01*
X55520025Y-81008884D01*
X55695405Y-80919524D01*
X55854646Y-80803828D01*
X55993828Y-80664646D01*
X56109524Y-80505405D01*
X56177240Y-80372503D01*
X56228848Y-80315186D01*
X56302201Y-80291352D01*
X56377644Y-80307388D01*
X56434962Y-80358996D01*
X56442759Y-80372503D01*
X56510476Y-80505405D01*
X56626172Y-80664646D01*
X56765354Y-80803828D01*
X56924595Y-80919524D01*
X57099975Y-81008884D01*
X57287174Y-81069709D01*
X57481583Y-81100500D01*
X57481588Y-81100500D01*
X57678412Y-81100500D01*
X57678417Y-81100500D01*
X57872826Y-81069709D01*
X58060025Y-81008884D01*
X58235405Y-80919524D01*
X58394646Y-80803828D01*
X58533828Y-80664646D01*
X58649524Y-80505405D01*
X58717240Y-80372503D01*
X58768848Y-80315186D01*
X58842201Y-80291352D01*
X58917644Y-80307388D01*
X58974962Y-80358996D01*
X58982759Y-80372503D01*
X59050476Y-80505405D01*
X59166172Y-80664646D01*
X59305354Y-80803828D01*
X59464595Y-80919524D01*
X59488145Y-80931523D01*
X59545461Y-80983129D01*
X59569296Y-81056482D01*
X59569500Y-81064282D01*
X59569500Y-81124175D01*
X59582647Y-81173240D01*
X59607016Y-81264185D01*
X59640978Y-81323010D01*
X59679490Y-81389715D01*
X62445859Y-84156083D01*
X62484423Y-84222878D01*
X62489500Y-84261442D01*
X62489500Y-91221833D01*
X62469538Y-91296333D01*
X62415760Y-91350110D01*
X62415801Y-91350176D01*
X62415527Y-91350343D01*
X62415000Y-91350871D01*
X62412081Y-91352455D01*
X62410795Y-91353243D01*
X62257936Y-91464303D01*
X62257925Y-91464312D01*
X62124312Y-91597925D01*
X62124303Y-91597936D01*
X62013241Y-91750799D01*
X62013238Y-91750804D01*
X61927458Y-91919157D01*
X61927451Y-91919174D01*
X61911707Y-91967629D01*
X61869700Y-92032314D01*
X61800978Y-92067329D01*
X61723956Y-92063292D01*
X61659271Y-92021285D01*
X61628293Y-91967629D01*
X61619055Y-91939198D01*
X61612547Y-91919168D01*
X61526760Y-91750801D01*
X61415690Y-91597927D01*
X61282073Y-91464310D01*
X61129199Y-91353240D01*
X60992246Y-91283459D01*
X60960842Y-91267458D01*
X60960841Y-91267457D01*
X60960832Y-91267453D01*
X60781118Y-91209060D01*
X60594481Y-91179500D01*
X60405519Y-91179500D01*
X60218882Y-91209060D01*
X60039168Y-91267453D01*
X60039163Y-91267455D01*
X60039157Y-91267458D01*
X59870804Y-91353238D01*
X59870799Y-91353241D01*
X59717936Y-91464303D01*
X59717925Y-91464312D01*
X59584312Y-91597925D01*
X59584303Y-91597936D01*
X59473241Y-91750799D01*
X59473238Y-91750804D01*
X59387458Y-91919157D01*
X59387455Y-91919163D01*
X59387453Y-91919168D01*
X59329060Y-92098882D01*
X59299500Y-92285519D01*
X59299500Y-92474481D01*
X59329060Y-92661118D01*
X59387453Y-92840832D01*
X59473240Y-93009199D01*
X59584310Y-93162073D01*
X59717927Y-93295690D01*
X59870801Y-93406760D01*
X60039168Y-93492547D01*
X60218882Y-93550940D01*
X60405519Y-93580500D01*
X60405524Y-93580500D01*
X60594476Y-93580500D01*
X60594481Y-93580500D01*
X60781118Y-93550940D01*
X60960832Y-93492547D01*
X61129199Y-93406760D01*
X61282073Y-93295690D01*
X61415690Y-93162073D01*
X61526760Y-93009199D01*
X61612547Y-92840832D01*
X61628293Y-92792370D01*
X61670299Y-92727686D01*
X61739021Y-92692670D01*
X61816043Y-92696707D01*
X61880728Y-92738713D01*
X61911707Y-92792371D01*
X61927449Y-92840822D01*
X61927451Y-92840828D01*
X61927453Y-92840832D01*
X62013240Y-93009199D01*
X62124310Y-93162073D01*
X62257927Y-93295690D01*
X62410801Y-93406760D01*
X62410808Y-93406763D01*
X62415796Y-93409821D01*
X62414816Y-93411418D01*
X62465452Y-93457000D01*
X62489295Y-93530350D01*
X62489500Y-93538166D01*
X62489500Y-94777526D01*
X62489500Y-94922474D01*
X62527016Y-95062485D01*
X62527017Y-95062486D01*
X62599490Y-95188015D01*
X65987676Y-98576201D01*
X66026240Y-98642996D01*
X66026240Y-98720124D01*
X65987676Y-98786919D01*
X65920881Y-98825483D01*
X65859009Y-98828726D01*
X65674481Y-98799500D01*
X65485519Y-98799500D01*
X65298882Y-98829060D01*
X65119168Y-98887453D01*
X65119163Y-98887455D01*
X65119157Y-98887458D01*
X64950804Y-98973238D01*
X64950799Y-98973241D01*
X64797936Y-99084303D01*
X64797925Y-99084312D01*
X64664312Y-99217925D01*
X64664303Y-99217936D01*
X64553241Y-99370799D01*
X64553240Y-99370799D01*
X64498595Y-99478047D01*
X64446986Y-99535364D01*
X64373632Y-99559198D01*
X64298190Y-99543162D01*
X64240873Y-99491553D01*
X64233075Y-99478046D01*
X64151858Y-99318648D01*
X64149230Y-99315031D01*
X63464264Y-99999999D01*
X63464264Y-100000000D01*
X64149230Y-100684966D01*
X64149231Y-100684966D01*
X64151856Y-100681354D01*
X64151862Y-100681345D01*
X64233075Y-100521953D01*
X64284683Y-100464636D01*
X64358036Y-100440801D01*
X64433479Y-100456837D01*
X64490796Y-100508445D01*
X64498595Y-100521952D01*
X64553240Y-100629199D01*
X64664310Y-100782073D01*
X64797927Y-100915690D01*
X64950801Y-101026760D01*
X65119168Y-101112547D01*
X65298882Y-101170940D01*
X65485519Y-101200500D01*
X65485524Y-101200500D01*
X65674476Y-101200500D01*
X65674481Y-101200500D01*
X65861118Y-101170940D01*
X66040832Y-101112547D01*
X66209199Y-101026760D01*
X66362073Y-100915690D01*
X66495690Y-100782073D01*
X66606760Y-100629199D01*
X66692547Y-100460832D01*
X66750940Y-100281118D01*
X66780500Y-100094481D01*
X66780500Y-99905519D01*
X66751273Y-99720987D01*
X66759336Y-99644285D01*
X66804670Y-99581887D01*
X66875130Y-99550516D01*
X66951836Y-99558579D01*
X67003798Y-99592323D01*
X67641789Y-100230314D01*
X67680353Y-100297109D01*
X67680353Y-100373172D01*
X67680426Y-100373190D01*
X67680353Y-100373494D01*
X67680353Y-100374237D01*
X67679408Y-100377429D01*
X67679061Y-100378874D01*
X67679060Y-100378882D01*
X67649500Y-100565519D01*
X67649500Y-100754481D01*
X67679060Y-100941118D01*
X67737453Y-101120832D01*
X67823240Y-101289199D01*
X67934310Y-101442073D01*
X68067927Y-101575690D01*
X68220801Y-101686760D01*
X68389168Y-101772547D01*
X68568882Y-101830940D01*
X68755519Y-101860500D01*
X68755524Y-101860500D01*
X68944476Y-101860500D01*
X68944481Y-101860500D01*
X69131118Y-101830940D01*
X69310832Y-101772547D01*
X69479199Y-101686760D01*
X69632073Y-101575690D01*
X69765690Y-101442073D01*
X69876760Y-101289199D01*
X69962547Y-101120832D01*
X70020940Y-100941118D01*
X70050500Y-100754481D01*
X70050500Y-100565519D01*
X70020940Y-100378882D01*
X69962547Y-100199168D01*
X69876760Y-100030801D01*
X69765690Y-99877927D01*
X69632073Y-99744310D01*
X69479199Y-99633240D01*
X69332668Y-99558579D01*
X69310842Y-99547458D01*
X69310841Y-99547457D01*
X69310832Y-99547453D01*
X69131118Y-99489060D01*
X68944481Y-99459500D01*
X68755519Y-99459500D01*
X68615944Y-99481606D01*
X68568874Y-99489061D01*
X68563190Y-99490426D01*
X68562756Y-99488620D01*
X68494630Y-99492160D01*
X68425924Y-99457115D01*
X68420314Y-99451789D01*
X68352831Y-99384306D01*
X70899500Y-99384306D01*
X70899500Y-100615694D01*
X70900563Y-100629195D01*
X70902402Y-100652571D01*
X70911794Y-100684896D01*
X70948256Y-100810398D01*
X71031919Y-100951865D01*
X71148135Y-101068081D01*
X71289602Y-101151744D01*
X71442071Y-101196040D01*
X71508043Y-101235995D01*
X71545199Y-101303583D01*
X71549500Y-101339124D01*
X71549500Y-102141833D01*
X71529538Y-102216333D01*
X71475760Y-102270110D01*
X71475801Y-102270176D01*
X71475527Y-102270343D01*
X71475000Y-102270871D01*
X71472081Y-102272455D01*
X71470795Y-102273243D01*
X71317936Y-102384303D01*
X71317925Y-102384312D01*
X71184312Y-102517925D01*
X71184303Y-102517936D01*
X71073241Y-102670799D01*
X71073238Y-102670804D01*
X70987458Y-102839157D01*
X70987455Y-102839163D01*
X70987453Y-102839168D01*
X70929060Y-103018882D01*
X70899500Y-103205519D01*
X70899500Y-103394481D01*
X70929060Y-103581118D01*
X70987453Y-103760832D01*
X71073240Y-103929199D01*
X71184310Y-104082073D01*
X71317927Y-104215690D01*
X71470801Y-104326760D01*
X71639168Y-104412547D01*
X71818882Y-104470940D01*
X72005519Y-104500500D01*
X72005524Y-104500500D01*
X72194476Y-104500500D01*
X72194481Y-104500500D01*
X72381118Y-104470940D01*
X72560832Y-104412547D01*
X72729199Y-104326760D01*
X72882073Y-104215690D01*
X73015690Y-104082073D01*
X73126760Y-103929199D01*
X73212547Y-103760832D01*
X73270940Y-103581118D01*
X73300500Y-103394481D01*
X73300500Y-103205519D01*
X73270940Y-103018882D01*
X73212547Y-102839168D01*
X73126760Y-102670801D01*
X73015690Y-102517927D01*
X72882073Y-102384310D01*
X72836885Y-102351479D01*
X72729204Y-102273243D01*
X72724199Y-102270176D01*
X72725176Y-102268580D01*
X72674535Y-102222980D01*
X72650704Y-102149626D01*
X72650500Y-102141833D01*
X72650500Y-101339124D01*
X72670462Y-101264624D01*
X72725000Y-101210086D01*
X72757926Y-101196041D01*
X72910398Y-101151744D01*
X72982284Y-101109231D01*
X73955031Y-101109231D01*
X73958645Y-101111856D01*
X74140967Y-101204753D01*
X74140979Y-101204758D01*
X74335583Y-101267989D01*
X74537693Y-101300000D01*
X74742307Y-101300000D01*
X74944416Y-101267989D01*
X75139020Y-101204758D01*
X75139038Y-101204751D01*
X75321344Y-101111862D01*
X75321354Y-101111856D01*
X75324966Y-101109231D01*
X75324966Y-101109230D01*
X74640000Y-100424264D01*
X73955031Y-101109231D01*
X72982284Y-101109231D01*
X73051865Y-101068081D01*
X73168081Y-100951865D01*
X73251744Y-100810398D01*
X73272625Y-100738523D01*
X73312579Y-100672554D01*
X73380166Y-100635397D01*
X73457278Y-100637012D01*
X73523250Y-100676967D01*
X73529880Y-100684896D01*
X73530768Y-100684966D01*
X74215735Y-99999999D01*
X74163075Y-99947339D01*
X74240000Y-99947339D01*
X74240000Y-100052661D01*
X74267259Y-100154394D01*
X74319920Y-100245606D01*
X74394394Y-100320080D01*
X74485606Y-100372741D01*
X74587339Y-100400000D01*
X74692661Y-100400000D01*
X74794394Y-100372741D01*
X74885606Y-100320080D01*
X74960080Y-100245606D01*
X75012741Y-100154394D01*
X75040000Y-100052661D01*
X75040000Y-99947339D01*
X75012741Y-99845606D01*
X74960080Y-99754394D01*
X74885606Y-99679920D01*
X74794394Y-99627259D01*
X74692661Y-99600000D01*
X74587339Y-99600000D01*
X74485606Y-99627259D01*
X74394394Y-99679920D01*
X74319920Y-99754394D01*
X74267259Y-99845606D01*
X74240000Y-99947339D01*
X74163075Y-99947339D01*
X73530767Y-99315031D01*
X73526500Y-99315367D01*
X73476342Y-99356005D01*
X73400166Y-99368087D01*
X73328154Y-99340463D01*
X73279602Y-99280535D01*
X73272626Y-99261480D01*
X73251744Y-99189602D01*
X73168081Y-99048135D01*
X73051865Y-98931919D01*
X72982280Y-98890767D01*
X73955031Y-98890767D01*
X74639999Y-99575735D01*
X75324966Y-98890768D01*
X75324966Y-98890767D01*
X75321351Y-98888141D01*
X75321348Y-98888139D01*
X75139038Y-98795248D01*
X75139020Y-98795241D01*
X74944416Y-98732010D01*
X74742307Y-98700000D01*
X74537693Y-98700000D01*
X74335583Y-98732010D01*
X74140979Y-98795241D01*
X74140961Y-98795248D01*
X73958656Y-98888136D01*
X73958649Y-98888140D01*
X73955031Y-98890767D01*
X72982280Y-98890767D01*
X72910398Y-98848256D01*
X72832014Y-98825483D01*
X72752571Y-98802402D01*
X72752572Y-98802402D01*
X72741506Y-98801531D01*
X72715694Y-98799500D01*
X71484306Y-98799500D01*
X71459722Y-98801434D01*
X71447428Y-98802402D01*
X71289599Y-98848257D01*
X71148136Y-98931918D01*
X71148133Y-98931920D01*
X71031920Y-99048133D01*
X71031918Y-99048136D01*
X70948257Y-99189599D01*
X70902402Y-99347428D01*
X70902402Y-99347431D01*
X70899500Y-99384306D01*
X68352831Y-99384306D01*
X63634141Y-94665616D01*
X63595577Y-94598821D01*
X63590500Y-94560257D01*
X63590500Y-93538166D01*
X63603612Y-93489231D01*
X64895031Y-93489231D01*
X64898645Y-93491856D01*
X65080967Y-93584753D01*
X65080979Y-93584758D01*
X65275583Y-93647989D01*
X65477693Y-93680000D01*
X65682307Y-93680000D01*
X65884416Y-93647989D01*
X66079020Y-93584758D01*
X66079038Y-93584751D01*
X66261344Y-93491862D01*
X66261354Y-93491856D01*
X66264966Y-93489231D01*
X66264966Y-93489230D01*
X65580000Y-92804264D01*
X64895031Y-93489231D01*
X63603612Y-93489231D01*
X63610462Y-93463666D01*
X63652829Y-93416967D01*
X63661905Y-93410476D01*
X63669199Y-93406760D01*
X63822073Y-93295690D01*
X63955690Y-93162073D01*
X64066760Y-93009199D01*
X64121404Y-92901951D01*
X64173012Y-92844636D01*
X64246365Y-92820801D01*
X64321808Y-92836837D01*
X64379125Y-92888445D01*
X64386924Y-92901953D01*
X64468139Y-93061348D01*
X64468141Y-93061351D01*
X64470767Y-93064966D01*
X64470768Y-93064966D01*
X65155735Y-92379999D01*
X65103075Y-92327339D01*
X65180000Y-92327339D01*
X65180000Y-92432661D01*
X65207259Y-92534394D01*
X65259920Y-92625606D01*
X65334394Y-92700080D01*
X65425606Y-92752741D01*
X65527339Y-92780000D01*
X65632661Y-92780000D01*
X65734394Y-92752741D01*
X65825606Y-92700080D01*
X65900080Y-92625606D01*
X65952741Y-92534394D01*
X65980000Y-92432661D01*
X65980000Y-92379999D01*
X66004264Y-92379999D01*
X66004264Y-92380000D01*
X66689230Y-93064966D01*
X66689231Y-93064966D01*
X66691856Y-93061354D01*
X66691862Y-93061344D01*
X66784751Y-92879038D01*
X66784758Y-92879020D01*
X66847989Y-92684416D01*
X66880000Y-92482307D01*
X66880000Y-92277692D01*
X66847989Y-92075583D01*
X66784758Y-91880979D01*
X66784753Y-91880967D01*
X66691856Y-91698645D01*
X66689230Y-91695031D01*
X66004264Y-92379999D01*
X65980000Y-92379999D01*
X65980000Y-92327339D01*
X65952741Y-92225606D01*
X65900080Y-92134394D01*
X65825606Y-92059920D01*
X65734394Y-92007259D01*
X65632661Y-91980000D01*
X65527339Y-91980000D01*
X65425606Y-92007259D01*
X65334394Y-92059920D01*
X65259920Y-92134394D01*
X65207259Y-92225606D01*
X65180000Y-92327339D01*
X65103075Y-92327339D01*
X64470767Y-91695031D01*
X64468140Y-91698649D01*
X64468136Y-91698656D01*
X64386924Y-91858046D01*
X64335315Y-91915364D01*
X64261962Y-91939198D01*
X64186520Y-91923162D01*
X64129202Y-91871553D01*
X64121404Y-91858046D01*
X64068573Y-91754360D01*
X64066760Y-91750801D01*
X63955690Y-91597927D01*
X63822073Y-91464310D01*
X63669199Y-91353240D01*
X63661909Y-91349525D01*
X63652829Y-91343032D01*
X63635181Y-91321571D01*
X63614535Y-91302980D01*
X63611035Y-91292207D01*
X63603841Y-91283459D01*
X63601733Y-91270767D01*
X64895031Y-91270767D01*
X65579999Y-91955735D01*
X66264966Y-91270768D01*
X66264966Y-91270767D01*
X66261351Y-91268141D01*
X66261348Y-91268139D01*
X66079038Y-91175248D01*
X66079020Y-91175241D01*
X65884416Y-91112010D01*
X65682307Y-91080000D01*
X65477693Y-91080000D01*
X65275583Y-91112010D01*
X65080979Y-91175241D01*
X65080961Y-91175248D01*
X64898656Y-91268136D01*
X64898649Y-91268140D01*
X64895031Y-91270767D01*
X63601733Y-91270767D01*
X63599288Y-91256048D01*
X63590704Y-91229626D01*
X63590500Y-91221833D01*
X63590500Y-90405519D01*
X67649500Y-90405519D01*
X67649500Y-90594481D01*
X67679060Y-90781118D01*
X67737453Y-90960832D01*
X67737457Y-90960841D01*
X67737458Y-90960842D01*
X67798172Y-91080000D01*
X67823240Y-91129199D01*
X67934310Y-91282073D01*
X68067927Y-91415690D01*
X68220801Y-91526760D01*
X68389168Y-91612547D01*
X68568882Y-91670940D01*
X68755519Y-91700500D01*
X68755524Y-91700500D01*
X68944476Y-91700500D01*
X68944481Y-91700500D01*
X69131118Y-91670940D01*
X69310832Y-91612547D01*
X69479199Y-91526760D01*
X69632073Y-91415690D01*
X69765690Y-91282073D01*
X69876760Y-91129199D01*
X69962547Y-90960832D01*
X70020940Y-90781118D01*
X70050500Y-90594481D01*
X70050500Y-90405519D01*
X70020940Y-90218882D01*
X69962547Y-90039168D01*
X69876760Y-89870801D01*
X69765690Y-89717927D01*
X69632073Y-89584310D01*
X69479199Y-89473240D01*
X69310832Y-89387453D01*
X69131118Y-89329060D01*
X68944481Y-89299500D01*
X68755519Y-89299500D01*
X68568882Y-89329060D01*
X68389168Y-89387453D01*
X68389163Y-89387455D01*
X68389157Y-89387458D01*
X68220804Y-89473238D01*
X68220799Y-89473241D01*
X68067936Y-89584303D01*
X68067925Y-89584312D01*
X67934312Y-89717925D01*
X67934303Y-89717936D01*
X67823241Y-89870799D01*
X67823238Y-89870804D01*
X67737458Y-90039157D01*
X67737455Y-90039163D01*
X67737453Y-90039168D01*
X67679060Y-90218882D01*
X67649500Y-90405519D01*
X63590500Y-90405519D01*
X63590500Y-83899224D01*
X63590499Y-83899223D01*
X63584266Y-83875962D01*
X63552984Y-83759215D01*
X63552983Y-83759214D01*
X63552983Y-83759212D01*
X63480511Y-83633688D01*
X63480506Y-83633682D01*
X63378015Y-83531190D01*
X63378015Y-83531191D01*
X60893518Y-81046693D01*
X60854954Y-80979898D01*
X60854954Y-80902770D01*
X60893518Y-80835975D01*
X60911292Y-80820795D01*
X60934646Y-80803828D01*
X61073828Y-80664646D01*
X61189524Y-80505405D01*
X61257240Y-80372503D01*
X61308848Y-80315186D01*
X61382201Y-80291352D01*
X61457644Y-80307388D01*
X61514962Y-80358996D01*
X61522759Y-80372503D01*
X61590476Y-80505405D01*
X61706172Y-80664646D01*
X61845354Y-80803828D01*
X62004595Y-80919524D01*
X62028145Y-80931523D01*
X62085461Y-80983129D01*
X62109296Y-81056482D01*
X62109500Y-81064282D01*
X62109500Y-81124176D01*
X62147016Y-81264187D01*
X62219488Y-81389711D01*
X62219489Y-81389712D01*
X62219491Y-81389715D01*
X62321985Y-81492209D01*
X62321987Y-81492210D01*
X62321988Y-81492211D01*
X62447512Y-81564683D01*
X62447514Y-81564683D01*
X62447515Y-81564684D01*
X62587525Y-81602200D01*
X62732475Y-81602200D01*
X63021957Y-81602200D01*
X63096457Y-81622162D01*
X63127316Y-81645841D01*
X68261881Y-86780406D01*
X72424504Y-90943028D01*
X72463068Y-91009823D01*
X72463068Y-91086951D01*
X72424504Y-91153746D01*
X72357709Y-91192310D01*
X72295838Y-91195553D01*
X72275361Y-91192310D01*
X72194481Y-91179500D01*
X72005519Y-91179500D01*
X71818882Y-91209060D01*
X71639168Y-91267453D01*
X71639163Y-91267455D01*
X71639157Y-91267458D01*
X71470804Y-91353238D01*
X71470799Y-91353241D01*
X71317936Y-91464303D01*
X71317925Y-91464312D01*
X71184312Y-91597925D01*
X71184303Y-91597936D01*
X71073241Y-91750799D01*
X71073238Y-91750804D01*
X70987458Y-91919157D01*
X70987455Y-91919163D01*
X70987453Y-91919168D01*
X70929060Y-92098882D01*
X70899500Y-92285519D01*
X70899500Y-92474481D01*
X70929060Y-92661118D01*
X70987453Y-92840832D01*
X71073240Y-93009199D01*
X71184310Y-93162073D01*
X71317927Y-93295690D01*
X71470801Y-93406760D01*
X71639168Y-93492547D01*
X71818882Y-93550940D01*
X72005519Y-93580500D01*
X72005524Y-93580500D01*
X72194476Y-93580500D01*
X72194481Y-93580500D01*
X72381118Y-93550940D01*
X72560832Y-93492547D01*
X72729199Y-93406760D01*
X72882073Y-93295690D01*
X73015690Y-93162073D01*
X73126760Y-93009199D01*
X73212547Y-92840832D01*
X73228293Y-92792370D01*
X73270299Y-92727686D01*
X73339021Y-92692670D01*
X73416043Y-92696707D01*
X73480728Y-92738713D01*
X73511707Y-92792371D01*
X73527449Y-92840822D01*
X73527451Y-92840828D01*
X73527453Y-92840832D01*
X73613240Y-93009199D01*
X73724310Y-93162073D01*
X73857927Y-93295690D01*
X74010801Y-93406760D01*
X74179168Y-93492547D01*
X74358882Y-93550940D01*
X74545519Y-93580500D01*
X74545524Y-93580500D01*
X74734476Y-93580500D01*
X74734481Y-93580500D01*
X74921118Y-93550940D01*
X75100832Y-93492547D01*
X75107340Y-93489231D01*
X76495031Y-93489231D01*
X76498645Y-93491856D01*
X76680967Y-93584753D01*
X76680979Y-93584758D01*
X76875583Y-93647989D01*
X77077693Y-93680000D01*
X77282307Y-93680000D01*
X77484416Y-93647989D01*
X77679020Y-93584758D01*
X77679038Y-93584751D01*
X77861344Y-93491862D01*
X77861354Y-93491856D01*
X77864966Y-93489231D01*
X77864966Y-93489230D01*
X77180000Y-92804264D01*
X76495031Y-93489231D01*
X75107340Y-93489231D01*
X75269199Y-93406760D01*
X75422073Y-93295690D01*
X75555690Y-93162073D01*
X75666760Y-93009199D01*
X75721404Y-92901951D01*
X75773012Y-92844636D01*
X75846365Y-92820801D01*
X75921808Y-92836837D01*
X75979125Y-92888445D01*
X75986924Y-92901953D01*
X76068139Y-93061348D01*
X76068141Y-93061351D01*
X76070767Y-93064966D01*
X76070768Y-93064966D01*
X76755735Y-92379999D01*
X76703075Y-92327339D01*
X76780000Y-92327339D01*
X76780000Y-92432661D01*
X76807259Y-92534394D01*
X76859920Y-92625606D01*
X76934394Y-92700080D01*
X77025606Y-92752741D01*
X77127339Y-92780000D01*
X77232661Y-92780000D01*
X77334394Y-92752741D01*
X77425606Y-92700080D01*
X77500080Y-92625606D01*
X77552741Y-92534394D01*
X77580000Y-92432661D01*
X77580000Y-92327339D01*
X77552741Y-92225606D01*
X77500080Y-92134394D01*
X77425606Y-92059920D01*
X77334394Y-92007259D01*
X77232661Y-91980000D01*
X77127339Y-91980000D01*
X77025606Y-92007259D01*
X76934394Y-92059920D01*
X76859920Y-92134394D01*
X76807259Y-92225606D01*
X76780000Y-92327339D01*
X76703075Y-92327339D01*
X76070767Y-91695031D01*
X76068140Y-91698649D01*
X76068136Y-91698656D01*
X75986924Y-91858046D01*
X75935315Y-91915364D01*
X75861962Y-91939198D01*
X75786520Y-91923162D01*
X75729202Y-91871553D01*
X75721404Y-91858046D01*
X75668573Y-91754360D01*
X75666760Y-91750801D01*
X75555690Y-91597927D01*
X75422073Y-91464310D01*
X75269203Y-91353243D01*
X75269195Y-91353237D01*
X75107336Y-91270767D01*
X76495031Y-91270767D01*
X77179999Y-91955735D01*
X77864966Y-91270768D01*
X77864966Y-91270767D01*
X77861351Y-91268141D01*
X77861348Y-91268139D01*
X77679038Y-91175248D01*
X77679020Y-91175241D01*
X77484416Y-91112010D01*
X77282307Y-91080000D01*
X77077693Y-91080000D01*
X76875583Y-91112010D01*
X76680979Y-91175241D01*
X76680961Y-91175248D01*
X76498656Y-91268136D01*
X76498649Y-91268140D01*
X76495031Y-91270767D01*
X75107336Y-91270767D01*
X75100842Y-91267458D01*
X75100841Y-91267457D01*
X75100832Y-91267453D01*
X74921118Y-91209060D01*
X74734481Y-91179500D01*
X74545519Y-91179500D01*
X74464639Y-91192310D01*
X74358877Y-91209060D01*
X74353187Y-91210427D01*
X74352751Y-91208611D01*
X74284678Y-91212172D01*
X74215960Y-91177149D01*
X74210314Y-91171790D01*
X63741409Y-80702884D01*
X63702845Y-80636089D01*
X63702845Y-80558961D01*
X63726225Y-80509944D01*
X63729524Y-80505405D01*
X63797240Y-80372503D01*
X63848848Y-80315186D01*
X63922201Y-80291352D01*
X63997644Y-80307388D01*
X64054962Y-80358996D01*
X64062759Y-80372503D01*
X64130476Y-80505405D01*
X64246172Y-80664646D01*
X64385354Y-80803828D01*
X64544595Y-80919524D01*
X64719975Y-81008884D01*
X64907174Y-81069709D01*
X65101583Y-81100500D01*
X65101588Y-81100500D01*
X65298412Y-81100500D01*
X65298417Y-81100500D01*
X65492826Y-81069709D01*
X65680025Y-81008884D01*
X65855405Y-80919524D01*
X66014646Y-80803828D01*
X66153828Y-80664646D01*
X66269524Y-80505405D01*
X66337240Y-80372503D01*
X66388848Y-80315186D01*
X66462201Y-80291352D01*
X66537644Y-80307388D01*
X66594962Y-80358996D01*
X66602759Y-80372503D01*
X66670476Y-80505405D01*
X66786172Y-80664646D01*
X66925354Y-80803828D01*
X67084595Y-80919524D01*
X67259975Y-81008884D01*
X67447174Y-81069709D01*
X67641583Y-81100500D01*
X67641588Y-81100500D01*
X67838412Y-81100500D01*
X67838417Y-81100500D01*
X68032826Y-81069709D01*
X68220025Y-81008884D01*
X68395405Y-80919524D01*
X68554646Y-80803828D01*
X68693828Y-80664646D01*
X68809524Y-80505405D01*
X68877240Y-80372503D01*
X68928848Y-80315186D01*
X69002201Y-80291352D01*
X69077644Y-80307388D01*
X69134962Y-80358996D01*
X69142759Y-80372503D01*
X69210476Y-80505405D01*
X69326172Y-80664646D01*
X69465354Y-80803828D01*
X69624595Y-80919524D01*
X69799975Y-81008884D01*
X69987174Y-81069709D01*
X70181583Y-81100500D01*
X70181588Y-81100500D01*
X70378412Y-81100500D01*
X70378417Y-81100500D01*
X70572826Y-81069709D01*
X70760025Y-81008884D01*
X70935405Y-80919524D01*
X71094646Y-80803828D01*
X71233828Y-80664646D01*
X71349524Y-80505405D01*
X71417240Y-80372503D01*
X71468848Y-80315186D01*
X71542201Y-80291352D01*
X71617644Y-80307388D01*
X71674962Y-80358996D01*
X71682759Y-80372503D01*
X71750476Y-80505405D01*
X71866172Y-80664646D01*
X72005354Y-80803828D01*
X72164595Y-80919524D01*
X72339975Y-81008884D01*
X72527174Y-81069709D01*
X72721583Y-81100500D01*
X72721588Y-81100500D01*
X72918412Y-81100500D01*
X72918417Y-81100500D01*
X73112826Y-81069709D01*
X73300025Y-81008884D01*
X73475405Y-80919524D01*
X73634646Y-80803828D01*
X73773828Y-80664646D01*
X73889524Y-80505405D01*
X73957240Y-80372503D01*
X74008848Y-80315186D01*
X74082201Y-80291352D01*
X74157644Y-80307388D01*
X74214962Y-80358996D01*
X74222759Y-80372503D01*
X74290476Y-80505405D01*
X74406172Y-80664646D01*
X74545354Y-80803828D01*
X74704595Y-80919524D01*
X74879975Y-81008884D01*
X75067174Y-81069709D01*
X75261583Y-81100500D01*
X75261588Y-81100500D01*
X75458412Y-81100500D01*
X75458417Y-81100500D01*
X75652826Y-81069709D01*
X75840025Y-81008884D01*
X76015405Y-80919524D01*
X76174646Y-80803828D01*
X76313828Y-80664646D01*
X76429524Y-80505405D01*
X76497240Y-80372503D01*
X76548848Y-80315186D01*
X76622201Y-80291352D01*
X76697644Y-80307388D01*
X76754962Y-80358996D01*
X76762759Y-80372503D01*
X76830476Y-80505405D01*
X76946172Y-80664646D01*
X77085354Y-80803828D01*
X77244595Y-80919524D01*
X77419975Y-81008884D01*
X77607174Y-81069709D01*
X77801583Y-81100500D01*
X77801588Y-81100500D01*
X77998412Y-81100500D01*
X77998417Y-81100500D01*
X78192826Y-81069709D01*
X78356158Y-81016638D01*
X78433178Y-81012602D01*
X78501900Y-81047617D01*
X78543907Y-81112302D01*
X78551200Y-81158346D01*
X78551200Y-91597024D01*
X78531238Y-91671524D01*
X78476700Y-91726062D01*
X78402200Y-91746024D01*
X78327700Y-91726062D01*
X78293623Y-91695377D01*
X78289231Y-91695031D01*
X77604264Y-92379999D01*
X77604264Y-92380000D01*
X78289230Y-93064966D01*
X78295096Y-93064505D01*
X78341605Y-93026849D01*
X78417785Y-93014788D01*
X78489788Y-93042433D01*
X78538322Y-93102376D01*
X78551200Y-93162971D01*
X78551200Y-99426173D01*
X78531238Y-99500673D01*
X78476700Y-99555211D01*
X78402200Y-99575173D01*
X78327700Y-99555211D01*
X78273162Y-99500673D01*
X78269440Y-99493818D01*
X78267016Y-99489060D01*
X78206760Y-99370801D01*
X78095690Y-99217927D01*
X77962073Y-99084310D01*
X77809199Y-98973240D01*
X77642182Y-98888141D01*
X77640842Y-98887458D01*
X77640841Y-98887457D01*
X77640832Y-98887453D01*
X77461118Y-98829060D01*
X77274481Y-98799500D01*
X77085519Y-98799500D01*
X76898882Y-98829060D01*
X76719168Y-98887453D01*
X76719163Y-98887455D01*
X76719157Y-98887458D01*
X76550804Y-98973238D01*
X76550799Y-98973241D01*
X76397936Y-99084303D01*
X76397925Y-99084312D01*
X76264312Y-99217925D01*
X76264303Y-99217936D01*
X76153241Y-99370799D01*
X76153240Y-99370799D01*
X76098595Y-99478047D01*
X76046986Y-99535364D01*
X75973632Y-99559198D01*
X75898190Y-99543162D01*
X75840873Y-99491553D01*
X75833075Y-99478046D01*
X75751858Y-99318648D01*
X75749230Y-99315031D01*
X75064264Y-99999999D01*
X75064264Y-100000000D01*
X75749230Y-100684966D01*
X75749231Y-100684966D01*
X75751856Y-100681354D01*
X75751862Y-100681345D01*
X75833075Y-100521953D01*
X75884683Y-100464636D01*
X75958036Y-100440801D01*
X76033479Y-100456837D01*
X76090796Y-100508445D01*
X76098595Y-100521952D01*
X76153240Y-100629199D01*
X76264310Y-100782073D01*
X76397927Y-100915690D01*
X76550801Y-101026760D01*
X76719168Y-101112547D01*
X76898882Y-101170940D01*
X77085519Y-101200500D01*
X77085524Y-101200500D01*
X77274476Y-101200500D01*
X77274481Y-101200500D01*
X77461118Y-101170940D01*
X77640832Y-101112547D01*
X77809199Y-101026760D01*
X77962073Y-100915690D01*
X78095690Y-100782073D01*
X78206760Y-100629199D01*
X78269440Y-100506181D01*
X78321048Y-100448864D01*
X78394401Y-100425030D01*
X78469844Y-100441066D01*
X78527162Y-100492674D01*
X78550996Y-100566027D01*
X78551200Y-100573826D01*
X78551200Y-115594175D01*
X78561252Y-115631691D01*
X78588716Y-115734185D01*
X78588717Y-115734186D01*
X78661190Y-115859715D01*
X86671616Y-123870141D01*
X86710180Y-123936936D01*
X86710180Y-124014064D01*
X86671616Y-124080859D01*
X86604821Y-124119423D01*
X86566257Y-124124500D01*
X85914306Y-124124500D01*
X85889722Y-124126434D01*
X85877428Y-124127402D01*
X85739866Y-124167368D01*
X85719606Y-124173255D01*
X85719599Y-124173257D01*
X85578136Y-124256918D01*
X85578133Y-124256920D01*
X85461920Y-124373133D01*
X85461918Y-124373136D01*
X85378257Y-124514599D01*
X85332402Y-124672428D01*
X85332402Y-124672431D01*
X85329500Y-124709306D01*
X85329500Y-126290694D01*
X85330469Y-126303008D01*
X85332402Y-126327571D01*
X85355228Y-126406137D01*
X85378256Y-126485398D01*
X85461919Y-126626865D01*
X85578135Y-126743081D01*
X85719602Y-126826744D01*
X85877428Y-126872597D01*
X85877427Y-126872597D01*
X85877431Y-126872598D01*
X85914306Y-126875500D01*
X85914313Y-126875500D01*
X87245687Y-126875500D01*
X87245694Y-126875500D01*
X87282569Y-126872598D01*
X87440398Y-126826744D01*
X87581865Y-126743081D01*
X87698081Y-126626865D01*
X87781744Y-126485398D01*
X87804772Y-126406134D01*
X87844726Y-126340164D01*
X87912314Y-126303008D01*
X87989425Y-126304623D01*
X88055398Y-126344578D01*
X88068396Y-126360124D01*
X88126172Y-126439646D01*
X88265354Y-126578828D01*
X88424595Y-126694524D01*
X88599975Y-126783884D01*
X88787174Y-126844709D01*
X88981583Y-126875500D01*
X88981588Y-126875500D01*
X89178412Y-126875500D01*
X89178417Y-126875500D01*
X89372826Y-126844709D01*
X89560025Y-126783884D01*
X89735405Y-126694524D01*
X89894646Y-126578828D01*
X90033828Y-126439646D01*
X90149524Y-126280405D01*
X90149523Y-126280405D01*
X90152965Y-126275669D01*
X90155078Y-126277204D01*
X90202256Y-126232222D01*
X90277210Y-126214040D01*
X90351213Y-126235771D01*
X90376818Y-126262626D01*
X90390881Y-126264853D01*
X91105000Y-125550734D01*
X91105000Y-125562535D01*
X91137370Y-125683343D01*
X91199905Y-125791657D01*
X91288343Y-125880095D01*
X91396657Y-125942630D01*
X91517465Y-125975000D01*
X91529264Y-125975000D01*
X90786838Y-126717424D01*
X90786838Y-126717425D01*
X90872444Y-126779621D01*
X90872444Y-126779622D01*
X91061779Y-126876093D01*
X91263871Y-126941757D01*
X91473758Y-126975000D01*
X91686242Y-126975000D01*
X91896128Y-126941757D01*
X92098220Y-126876093D01*
X92287555Y-126779622D01*
X92287555Y-126779621D01*
X92373160Y-126717425D01*
X92373161Y-126717425D01*
X91630736Y-125975000D01*
X91642535Y-125975000D01*
X91763343Y-125942630D01*
X91871657Y-125880095D01*
X91960095Y-125791657D01*
X92022630Y-125683343D01*
X92055000Y-125562535D01*
X92055000Y-125550736D01*
X92769117Y-126264853D01*
X92769118Y-126264853D01*
X92831093Y-126143220D01*
X92896757Y-125941128D01*
X92930000Y-125731242D01*
X92930000Y-125268757D01*
X92896757Y-125058871D01*
X92831097Y-124856789D01*
X92831091Y-124856774D01*
X92769117Y-124735145D01*
X92055000Y-125449262D01*
X92055000Y-125437465D01*
X92022630Y-125316657D01*
X91960095Y-125208343D01*
X91871657Y-125119905D01*
X91763343Y-125057370D01*
X91642535Y-125025000D01*
X91630734Y-125025000D01*
X92373160Y-124282574D01*
X92373160Y-124282572D01*
X92287564Y-124220383D01*
X92287555Y-124220378D01*
X92098220Y-124123906D01*
X91896128Y-124058242D01*
X91686242Y-124025000D01*
X91473758Y-124025000D01*
X91263871Y-124058242D01*
X91061779Y-124123906D01*
X90872444Y-124220378D01*
X90786838Y-124282573D01*
X90786838Y-124282574D01*
X91529264Y-125025000D01*
X91517465Y-125025000D01*
X91396657Y-125057370D01*
X91288343Y-125119905D01*
X91199905Y-125208343D01*
X91137370Y-125316657D01*
X91105000Y-125437465D01*
X91105000Y-125449264D01*
X90390881Y-124735145D01*
X90376974Y-124737348D01*
X90354812Y-124761962D01*
X90281458Y-124785796D01*
X90206016Y-124769760D01*
X90154402Y-124723286D01*
X90152965Y-124724331D01*
X90058173Y-124593862D01*
X90033828Y-124560354D01*
X89894646Y-124421172D01*
X89735405Y-124305476D01*
X89640108Y-124256920D01*
X89560036Y-124216121D01*
X89560030Y-124216119D01*
X89560025Y-124216116D01*
X89372826Y-124155291D01*
X89178417Y-124124500D01*
X88981583Y-124124500D01*
X88787174Y-124155291D01*
X88599982Y-124216114D01*
X88594408Y-124217925D01*
X88594025Y-124216747D01*
X88524037Y-124225951D01*
X88452784Y-124196425D01*
X88405841Y-124135229D01*
X88399586Y-124116801D01*
X88391284Y-124085815D01*
X88318810Y-123960285D01*
X80264044Y-115905519D01*
X82499500Y-115905519D01*
X82499500Y-116094481D01*
X82529060Y-116281118D01*
X82587453Y-116460832D01*
X82673240Y-116629199D01*
X82784310Y-116782073D01*
X82917927Y-116915690D01*
X83070801Y-117026760D01*
X83239168Y-117112547D01*
X83418882Y-117170940D01*
X83605519Y-117200500D01*
X83605524Y-117200500D01*
X83794476Y-117200500D01*
X83794481Y-117200500D01*
X83981118Y-117170940D01*
X84160832Y-117112547D01*
X84329199Y-117026760D01*
X84482073Y-116915690D01*
X84615690Y-116782073D01*
X84726760Y-116629199D01*
X84812547Y-116460832D01*
X84870940Y-116281118D01*
X84900500Y-116094481D01*
X84900500Y-115905519D01*
X94099500Y-115905519D01*
X94099500Y-116094481D01*
X94129060Y-116281118D01*
X94187453Y-116460832D01*
X94273240Y-116629199D01*
X94384310Y-116782073D01*
X94517927Y-116915690D01*
X94670801Y-117026760D01*
X94839168Y-117112547D01*
X95018882Y-117170940D01*
X95205519Y-117200500D01*
X95205524Y-117200500D01*
X95394476Y-117200500D01*
X95394481Y-117200500D01*
X95581118Y-117170940D01*
X95760832Y-117112547D01*
X95929199Y-117026760D01*
X96082073Y-116915690D01*
X96215690Y-116782073D01*
X96326760Y-116629199D01*
X96412547Y-116460832D01*
X96470940Y-116281118D01*
X96500500Y-116094481D01*
X96500500Y-115905519D01*
X96470940Y-115718882D01*
X96412547Y-115539168D01*
X96326760Y-115370801D01*
X96215690Y-115217927D01*
X96082073Y-115084310D01*
X95929199Y-114973240D01*
X95760832Y-114887453D01*
X95581118Y-114829060D01*
X95394481Y-114799500D01*
X95205519Y-114799500D01*
X95018882Y-114829060D01*
X94839168Y-114887453D01*
X94839163Y-114887455D01*
X94839157Y-114887458D01*
X94670804Y-114973238D01*
X94670799Y-114973241D01*
X94517936Y-115084303D01*
X94517925Y-115084312D01*
X94384312Y-115217925D01*
X94384303Y-115217936D01*
X94273241Y-115370799D01*
X94273238Y-115370804D01*
X94187458Y-115539157D01*
X94187451Y-115539174D01*
X94136821Y-115694995D01*
X94129060Y-115718882D01*
X94099500Y-115905519D01*
X84900500Y-115905519D01*
X84870940Y-115718882D01*
X84812547Y-115539168D01*
X84726760Y-115370801D01*
X84615690Y-115217927D01*
X84482073Y-115084310D01*
X84329199Y-114973240D01*
X84160832Y-114887453D01*
X83981118Y-114829060D01*
X83794481Y-114799500D01*
X83605519Y-114799500D01*
X83418882Y-114829060D01*
X83239168Y-114887453D01*
X83239163Y-114887455D01*
X83239157Y-114887458D01*
X83070804Y-114973238D01*
X83070799Y-114973241D01*
X82917936Y-115084303D01*
X82917925Y-115084312D01*
X82784312Y-115217925D01*
X82784303Y-115217936D01*
X82673241Y-115370799D01*
X82673238Y-115370804D01*
X82587458Y-115539157D01*
X82587451Y-115539174D01*
X82536821Y-115694995D01*
X82529060Y-115718882D01*
X82499500Y-115905519D01*
X80264044Y-115905519D01*
X79695841Y-115337316D01*
X79657277Y-115270521D01*
X79652200Y-115231957D01*
X79652200Y-101843999D01*
X79672162Y-101769499D01*
X79726700Y-101714961D01*
X79801200Y-101694999D01*
X79868842Y-101711238D01*
X79989168Y-101772547D01*
X80168882Y-101830940D01*
X80355519Y-101860500D01*
X80355524Y-101860500D01*
X80544476Y-101860500D01*
X80544481Y-101860500D01*
X80731118Y-101830940D01*
X80910832Y-101772547D01*
X81079199Y-101686760D01*
X81232073Y-101575690D01*
X81365690Y-101442073D01*
X81476760Y-101289199D01*
X81562547Y-101120832D01*
X81620940Y-100941118D01*
X81650500Y-100754481D01*
X81650500Y-100565519D01*
X81620940Y-100378882D01*
X81562547Y-100199168D01*
X81476760Y-100030801D01*
X81365690Y-99877927D01*
X81232073Y-99744310D01*
X81079199Y-99633240D01*
X80932668Y-99558579D01*
X80910842Y-99547458D01*
X80910841Y-99547457D01*
X80910832Y-99547453D01*
X80731118Y-99489060D01*
X80544481Y-99459500D01*
X80355519Y-99459500D01*
X80168882Y-99489060D01*
X79989168Y-99547453D01*
X79989165Y-99547454D01*
X79989156Y-99547458D01*
X79868844Y-99608760D01*
X79793401Y-99624796D01*
X79720048Y-99600961D01*
X79668440Y-99543644D01*
X79652200Y-99476000D01*
X79652200Y-99384306D01*
X82499500Y-99384306D01*
X82499500Y-100615694D01*
X82500563Y-100629195D01*
X82502402Y-100652571D01*
X82511794Y-100684896D01*
X82548256Y-100810398D01*
X82631919Y-100951865D01*
X82748135Y-101068081D01*
X82889602Y-101151744D01*
X83042071Y-101196040D01*
X83108043Y-101235995D01*
X83145199Y-101303583D01*
X83149500Y-101339124D01*
X83149500Y-102141833D01*
X83129538Y-102216333D01*
X83075760Y-102270110D01*
X83075801Y-102270176D01*
X83075527Y-102270343D01*
X83075000Y-102270871D01*
X83072081Y-102272455D01*
X83070795Y-102273243D01*
X82917936Y-102384303D01*
X82917925Y-102384312D01*
X82784312Y-102517925D01*
X82784303Y-102517936D01*
X82673241Y-102670799D01*
X82673238Y-102670804D01*
X82587458Y-102839157D01*
X82587455Y-102839163D01*
X82587453Y-102839168D01*
X82529060Y-103018882D01*
X82499500Y-103205519D01*
X82499500Y-103394481D01*
X82529060Y-103581118D01*
X82587453Y-103760832D01*
X82673240Y-103929199D01*
X82784310Y-104082073D01*
X82917927Y-104215690D01*
X83070801Y-104326760D01*
X83239168Y-104412547D01*
X83418882Y-104470940D01*
X83605519Y-104500500D01*
X83605524Y-104500500D01*
X83794476Y-104500500D01*
X83794481Y-104500500D01*
X83981118Y-104470940D01*
X84160832Y-104412547D01*
X84329199Y-104326760D01*
X84482073Y-104215690D01*
X84615690Y-104082073D01*
X84726760Y-103929199D01*
X84812547Y-103760832D01*
X84870940Y-103581118D01*
X84900500Y-103394481D01*
X84900500Y-103205519D01*
X84870940Y-103018882D01*
X84812547Y-102839168D01*
X84726760Y-102670801D01*
X84615690Y-102517927D01*
X84482073Y-102384310D01*
X84436885Y-102351479D01*
X84329204Y-102273243D01*
X84324199Y-102270176D01*
X84325176Y-102268580D01*
X84274535Y-102222980D01*
X84250704Y-102149626D01*
X84250500Y-102141833D01*
X84250500Y-101339124D01*
X84270462Y-101264624D01*
X84325000Y-101210086D01*
X84357926Y-101196041D01*
X84510398Y-101151744D01*
X84582284Y-101109231D01*
X85555031Y-101109231D01*
X85558645Y-101111856D01*
X85740967Y-101204753D01*
X85740979Y-101204758D01*
X85935583Y-101267989D01*
X86137693Y-101300000D01*
X86342307Y-101300000D01*
X86544416Y-101267989D01*
X86739020Y-101204758D01*
X86739038Y-101204751D01*
X86921344Y-101111862D01*
X86921354Y-101111856D01*
X86924966Y-101109231D01*
X86924966Y-101109230D01*
X86240000Y-100424264D01*
X85555031Y-101109231D01*
X84582284Y-101109231D01*
X84651865Y-101068081D01*
X84768081Y-100951865D01*
X84851744Y-100810398D01*
X84872625Y-100738523D01*
X84912579Y-100672554D01*
X84980166Y-100635397D01*
X85057278Y-100637012D01*
X85123250Y-100676967D01*
X85129880Y-100684896D01*
X85130768Y-100684966D01*
X85815735Y-99999999D01*
X85763075Y-99947339D01*
X85840000Y-99947339D01*
X85840000Y-100052661D01*
X85867259Y-100154394D01*
X85919920Y-100245606D01*
X85994394Y-100320080D01*
X86085606Y-100372741D01*
X86187339Y-100400000D01*
X86292661Y-100400000D01*
X86394394Y-100372741D01*
X86485606Y-100320080D01*
X86560080Y-100245606D01*
X86612741Y-100154394D01*
X86640000Y-100052661D01*
X86640000Y-99947339D01*
X86612741Y-99845606D01*
X86560080Y-99754394D01*
X86485606Y-99679920D01*
X86394394Y-99627259D01*
X86292661Y-99600000D01*
X86187339Y-99600000D01*
X86085606Y-99627259D01*
X85994394Y-99679920D01*
X85919920Y-99754394D01*
X85867259Y-99845606D01*
X85840000Y-99947339D01*
X85763075Y-99947339D01*
X85130767Y-99315031D01*
X85126500Y-99315367D01*
X85076342Y-99356005D01*
X85000166Y-99368087D01*
X84928154Y-99340463D01*
X84879602Y-99280535D01*
X84872626Y-99261480D01*
X84851744Y-99189602D01*
X84768081Y-99048135D01*
X84651865Y-98931919D01*
X84582280Y-98890767D01*
X85555031Y-98890767D01*
X86239999Y-99575735D01*
X86924966Y-98890768D01*
X86924966Y-98890767D01*
X86921351Y-98888141D01*
X86921348Y-98888139D01*
X86739038Y-98795248D01*
X86739020Y-98795241D01*
X86544416Y-98732010D01*
X86342307Y-98700000D01*
X86137693Y-98700000D01*
X85935583Y-98732010D01*
X85740979Y-98795241D01*
X85740961Y-98795248D01*
X85558656Y-98888136D01*
X85558649Y-98888140D01*
X85555031Y-98890767D01*
X84582280Y-98890767D01*
X84510398Y-98848256D01*
X84432014Y-98825483D01*
X84352571Y-98802402D01*
X84352572Y-98802402D01*
X84341506Y-98801531D01*
X84315694Y-98799500D01*
X83084306Y-98799500D01*
X83059722Y-98801434D01*
X83047428Y-98802402D01*
X82889599Y-98848257D01*
X82748136Y-98931918D01*
X82748133Y-98931920D01*
X82631920Y-99048133D01*
X82631918Y-99048136D01*
X82548257Y-99189599D01*
X82502402Y-99347428D01*
X82502402Y-99347431D01*
X82499500Y-99384306D01*
X79652200Y-99384306D01*
X79652200Y-91683999D01*
X79672162Y-91609499D01*
X79726700Y-91554961D01*
X79801200Y-91534999D01*
X79868842Y-91551238D01*
X79989168Y-91612547D01*
X80168882Y-91670940D01*
X80355519Y-91700500D01*
X80355524Y-91700500D01*
X80544476Y-91700500D01*
X80544481Y-91700500D01*
X80731118Y-91670940D01*
X80910832Y-91612547D01*
X81079199Y-91526760D01*
X81232073Y-91415690D01*
X81365690Y-91282073D01*
X81476760Y-91129199D01*
X81562547Y-90960832D01*
X81620940Y-90781118D01*
X81650500Y-90594481D01*
X81650500Y-90405519D01*
X81620940Y-90218882D01*
X81562547Y-90039168D01*
X81476760Y-89870801D01*
X81365690Y-89717927D01*
X81232073Y-89584310D01*
X81079199Y-89473240D01*
X80910832Y-89387453D01*
X80731118Y-89329060D01*
X80544481Y-89299500D01*
X80355519Y-89299500D01*
X80168882Y-89329060D01*
X79989168Y-89387453D01*
X79989165Y-89387454D01*
X79989156Y-89387458D01*
X79868844Y-89448760D01*
X79793401Y-89464796D01*
X79720048Y-89440961D01*
X79668440Y-89383644D01*
X79652200Y-89316000D01*
X79652200Y-81095210D01*
X79672162Y-81020710D01*
X79726700Y-80966172D01*
X79801200Y-80946210D01*
X79868840Y-80962448D01*
X79959975Y-81008884D01*
X80147174Y-81069709D01*
X80341583Y-81100500D01*
X80341588Y-81100500D01*
X80538412Y-81100500D01*
X80538417Y-81100500D01*
X80732826Y-81069709D01*
X80920025Y-81008884D01*
X81095405Y-80919524D01*
X81254646Y-80803828D01*
X81393828Y-80664646D01*
X81509524Y-80505405D01*
X81577240Y-80372503D01*
X81628848Y-80315186D01*
X81702201Y-80291352D01*
X81777644Y-80307388D01*
X81834962Y-80358996D01*
X81842759Y-80372503D01*
X81910476Y-80505405D01*
X82026172Y-80664646D01*
X82165354Y-80803828D01*
X82324595Y-80919524D01*
X82499975Y-81008884D01*
X82687174Y-81069709D01*
X82881583Y-81100500D01*
X82881588Y-81100500D01*
X83078412Y-81100500D01*
X83078417Y-81100500D01*
X83272826Y-81069709D01*
X83460025Y-81008884D01*
X83635405Y-80919524D01*
X83794646Y-80803828D01*
X83933828Y-80664646D01*
X84049524Y-80505405D01*
X84061404Y-80482088D01*
X84113010Y-80424772D01*
X84186363Y-80400936D01*
X84261806Y-80416971D01*
X84319124Y-80468578D01*
X84326923Y-80482086D01*
X84365376Y-80557552D01*
X84374972Y-80570761D01*
X85022093Y-79923640D01*
X85054075Y-80042993D01*
X85119901Y-80157007D01*
X85212993Y-80250099D01*
X85327007Y-80315925D01*
X85446358Y-80347905D01*
X84799237Y-80995025D01*
X84812448Y-81004624D01*
X85001779Y-81101093D01*
X85203871Y-81166757D01*
X85413758Y-81200000D01*
X85626242Y-81200000D01*
X85836128Y-81166757D01*
X86038220Y-81101093D01*
X86227557Y-81004620D01*
X86240761Y-80995026D01*
X86240761Y-80995025D01*
X85593641Y-80347905D01*
X85712993Y-80315925D01*
X85827007Y-80250099D01*
X85920099Y-80157007D01*
X85985925Y-80042993D01*
X86017905Y-79923641D01*
X86665025Y-80570761D01*
X86665026Y-80570761D01*
X86674620Y-80557558D01*
X86713075Y-80482086D01*
X86764684Y-80424769D01*
X86838037Y-80400935D01*
X86913480Y-80416971D01*
X86970797Y-80468580D01*
X86978591Y-80482080D01*
X86990476Y-80505405D01*
X87106172Y-80664646D01*
X87245354Y-80803828D01*
X87404595Y-80919524D01*
X87579975Y-81008884D01*
X87767174Y-81069709D01*
X87961583Y-81100500D01*
X87961588Y-81100500D01*
X88158412Y-81100500D01*
X88158417Y-81100500D01*
X88352826Y-81069709D01*
X88540025Y-81008884D01*
X88715405Y-80919524D01*
X88874646Y-80803828D01*
X89013828Y-80664646D01*
X89129524Y-80505405D01*
X89218884Y-80330025D01*
X89279709Y-80142826D01*
X89310500Y-79948417D01*
X89310500Y-79751583D01*
X89279709Y-79557174D01*
X89218884Y-79369975D01*
X89129524Y-79194595D01*
X89013828Y-79035354D01*
X88874646Y-78896172D01*
X88715405Y-78780476D01*
X88705010Y-78775179D01*
X88540036Y-78691121D01*
X88540030Y-78691119D01*
X88540025Y-78691116D01*
X88352826Y-78630291D01*
X88158417Y-78599500D01*
X87961583Y-78599500D01*
X87767174Y-78630291D01*
X87586180Y-78689100D01*
X87579975Y-78691116D01*
X87579972Y-78691117D01*
X87579963Y-78691121D01*
X87404598Y-78780474D01*
X87404593Y-78780477D01*
X87245363Y-78896165D01*
X87245352Y-78896174D01*
X87106174Y-79035352D01*
X87106165Y-79035363D01*
X86990477Y-79194593D01*
X86990476Y-79194594D01*
X86978594Y-79217914D01*
X86926984Y-79275231D01*
X86853630Y-79299063D01*
X86778188Y-79283026D01*
X86720871Y-79231416D01*
X86713075Y-79217912D01*
X86674624Y-79142448D01*
X86665025Y-79129237D01*
X86017905Y-79776357D01*
X85985925Y-79657007D01*
X85920099Y-79542993D01*
X85827007Y-79449901D01*
X85712993Y-79384075D01*
X85593640Y-79352093D01*
X86240761Y-78704972D01*
X86227554Y-78695377D01*
X86038220Y-78598906D01*
X85836128Y-78533242D01*
X85626242Y-78500000D01*
X85413758Y-78500000D01*
X85203871Y-78533242D01*
X85001779Y-78598906D01*
X84812443Y-78695378D01*
X84799237Y-78704972D01*
X85446358Y-79352094D01*
X85327007Y-79384075D01*
X85212993Y-79449901D01*
X85119901Y-79542993D01*
X85054075Y-79657007D01*
X85022094Y-79776358D01*
X84374972Y-79129237D01*
X84365378Y-79142444D01*
X84326923Y-79217914D01*
X84275313Y-79275230D01*
X84201960Y-79299063D01*
X84126517Y-79283026D01*
X84069201Y-79231416D01*
X84061411Y-79217926D01*
X84049524Y-79194595D01*
X83933828Y-79035354D01*
X83794646Y-78896172D01*
X83635405Y-78780476D01*
X83625010Y-78775179D01*
X83460036Y-78691121D01*
X83460030Y-78691119D01*
X83460025Y-78691116D01*
X83272826Y-78630291D01*
X83078417Y-78599500D01*
X82881583Y-78599500D01*
X82687174Y-78630291D01*
X82506180Y-78689100D01*
X82499975Y-78691116D01*
X82499972Y-78691117D01*
X82499963Y-78691121D01*
X82324598Y-78780474D01*
X82324593Y-78780477D01*
X82165363Y-78896165D01*
X82165352Y-78896174D01*
X82026174Y-79035352D01*
X82026165Y-79035363D01*
X81910477Y-79194593D01*
X81910474Y-79194598D01*
X81842760Y-79327495D01*
X81791151Y-79384813D01*
X81717798Y-79408647D01*
X81642356Y-79392611D01*
X81585038Y-79341002D01*
X81577240Y-79327495D01*
X81538984Y-79252414D01*
X81509524Y-79194595D01*
X81393828Y-79035354D01*
X81254646Y-78896172D01*
X81095405Y-78780476D01*
X81085010Y-78775179D01*
X80920036Y-78691121D01*
X80920030Y-78691119D01*
X80920025Y-78691116D01*
X80732826Y-78630291D01*
X80538417Y-78599500D01*
X80341583Y-78599500D01*
X80147174Y-78630291D01*
X79966180Y-78689100D01*
X79959975Y-78691116D01*
X79959972Y-78691117D01*
X79959963Y-78691121D01*
X79868844Y-78737549D01*
X79793402Y-78753585D01*
X79720049Y-78729751D01*
X79668440Y-78672433D01*
X79652200Y-78604789D01*
X79652200Y-56780925D01*
X79614684Y-56640915D01*
X79542210Y-56515385D01*
X78673518Y-55646693D01*
X78634954Y-55579898D01*
X78634954Y-55502770D01*
X78673518Y-55435975D01*
X78691292Y-55420795D01*
X78714646Y-55403828D01*
X78853828Y-55264646D01*
X78969524Y-55105405D01*
X79037240Y-54972503D01*
X79088848Y-54915186D01*
X79162201Y-54891352D01*
X79237644Y-54907388D01*
X79294962Y-54958996D01*
X79302759Y-54972503D01*
X79370476Y-55105405D01*
X79486172Y-55264646D01*
X79625354Y-55403828D01*
X79784595Y-55519524D01*
X79959975Y-55608884D01*
X80147174Y-55669709D01*
X80341583Y-55700500D01*
X80341588Y-55700500D01*
X80538412Y-55700500D01*
X80538417Y-55700500D01*
X80732826Y-55669709D01*
X80920025Y-55608884D01*
X81095405Y-55519524D01*
X81254646Y-55403828D01*
X81393828Y-55264646D01*
X81509524Y-55105405D01*
X81577240Y-54972503D01*
X81628848Y-54915186D01*
X81702201Y-54891352D01*
X81777644Y-54907388D01*
X81834962Y-54958996D01*
X81842759Y-54972503D01*
X81910476Y-55105405D01*
X82026172Y-55264646D01*
X82165354Y-55403828D01*
X82324595Y-55519524D01*
X82499975Y-55608884D01*
X82687174Y-55669709D01*
X82881583Y-55700500D01*
X82881588Y-55700500D01*
X83078412Y-55700500D01*
X83078417Y-55700500D01*
X83272826Y-55669709D01*
X83460025Y-55608884D01*
X83635405Y-55519524D01*
X83794646Y-55403828D01*
X83933828Y-55264646D01*
X84049524Y-55105405D01*
X84061404Y-55082088D01*
X84113010Y-55024772D01*
X84186363Y-55000936D01*
X84261806Y-55016971D01*
X84319124Y-55068578D01*
X84326923Y-55082086D01*
X84365376Y-55157552D01*
X84374972Y-55170761D01*
X85022093Y-54523640D01*
X85054075Y-54642993D01*
X85119901Y-54757007D01*
X85212993Y-54850099D01*
X85327007Y-54915925D01*
X85446358Y-54947905D01*
X84799237Y-55595025D01*
X84812448Y-55604624D01*
X85001779Y-55701093D01*
X85203871Y-55766757D01*
X85413758Y-55800000D01*
X85626242Y-55800000D01*
X85836128Y-55766757D01*
X86038220Y-55701093D01*
X86227557Y-55604620D01*
X86240761Y-55595026D01*
X86240761Y-55595025D01*
X85593641Y-54947905D01*
X85712993Y-54915925D01*
X85827007Y-54850099D01*
X85920099Y-54757007D01*
X85985925Y-54642993D01*
X86017905Y-54523641D01*
X86665025Y-55170761D01*
X86665026Y-55170761D01*
X86674620Y-55157558D01*
X86713075Y-55082086D01*
X86764684Y-55024769D01*
X86838037Y-55000935D01*
X86913480Y-55016971D01*
X86970797Y-55068580D01*
X86978591Y-55082080D01*
X86990476Y-55105405D01*
X87106172Y-55264646D01*
X87245354Y-55403828D01*
X87348080Y-55478463D01*
X87396618Y-55538402D01*
X87409500Y-55599006D01*
X87409500Y-55815772D01*
X87419131Y-55864186D01*
X87434498Y-55941442D01*
X87483532Y-56059821D01*
X87483533Y-56059823D01*
X87483535Y-56059827D01*
X87554722Y-56166367D01*
X87554723Y-56166369D01*
X91355859Y-59967505D01*
X91394423Y-60034300D01*
X91399500Y-60072864D01*
X91399500Y-89412797D01*
X91379538Y-89487297D01*
X91338081Y-89533340D01*
X91267931Y-89584307D01*
X91267925Y-89584312D01*
X91134312Y-89717925D01*
X91134303Y-89717936D01*
X91023241Y-89870799D01*
X91023238Y-89870804D01*
X90937458Y-90039157D01*
X90937455Y-90039163D01*
X90937453Y-90039168D01*
X90879060Y-90218882D01*
X90849500Y-90405519D01*
X90849500Y-90594481D01*
X90879060Y-90781118D01*
X90937453Y-90960832D01*
X90937457Y-90960841D01*
X90937458Y-90960842D01*
X90998172Y-91080000D01*
X91023240Y-91129199D01*
X91134310Y-91282073D01*
X91267927Y-91415690D01*
X91420801Y-91526760D01*
X91589168Y-91612547D01*
X91768882Y-91670940D01*
X91955519Y-91700500D01*
X91955524Y-91700500D01*
X92144480Y-91700500D01*
X92144481Y-91700500D01*
X92230128Y-91686934D01*
X92306830Y-91694995D01*
X92358794Y-91728740D01*
X92666759Y-92036705D01*
X92705323Y-92103500D01*
X92710400Y-92142064D01*
X92710400Y-99407216D01*
X92690438Y-99481716D01*
X92635900Y-99536254D01*
X92561400Y-99556216D01*
X92515356Y-99548923D01*
X92485352Y-99539174D01*
X92331118Y-99489060D01*
X92144481Y-99459500D01*
X91955519Y-99459500D01*
X91815944Y-99481606D01*
X91768874Y-99489061D01*
X91763190Y-99490426D01*
X91762756Y-99488620D01*
X91694630Y-99492160D01*
X91625924Y-99457115D01*
X91620314Y-99451789D01*
X86834141Y-94665616D01*
X86795577Y-94598821D01*
X86790500Y-94560257D01*
X86790500Y-93538166D01*
X86803612Y-93489231D01*
X88095031Y-93489231D01*
X88098645Y-93491856D01*
X88280967Y-93584753D01*
X88280979Y-93584758D01*
X88475583Y-93647989D01*
X88677693Y-93680000D01*
X88882307Y-93680000D01*
X89084416Y-93647989D01*
X89279020Y-93584758D01*
X89279038Y-93584751D01*
X89461344Y-93491862D01*
X89461354Y-93491856D01*
X89464966Y-93489231D01*
X89464966Y-93489230D01*
X88780000Y-92804264D01*
X88095031Y-93489231D01*
X86803612Y-93489231D01*
X86810462Y-93463666D01*
X86852829Y-93416967D01*
X86861905Y-93410476D01*
X86869199Y-93406760D01*
X87022073Y-93295690D01*
X87155690Y-93162073D01*
X87266760Y-93009199D01*
X87321404Y-92901951D01*
X87373012Y-92844636D01*
X87446365Y-92820801D01*
X87521808Y-92836837D01*
X87579125Y-92888445D01*
X87586924Y-92901953D01*
X87668139Y-93061348D01*
X87668141Y-93061351D01*
X87670767Y-93064966D01*
X87670768Y-93064966D01*
X88355735Y-92379999D01*
X88303075Y-92327339D01*
X88380000Y-92327339D01*
X88380000Y-92432661D01*
X88407259Y-92534394D01*
X88459920Y-92625606D01*
X88534394Y-92700080D01*
X88625606Y-92752741D01*
X88727339Y-92780000D01*
X88832661Y-92780000D01*
X88934394Y-92752741D01*
X89025606Y-92700080D01*
X89100080Y-92625606D01*
X89152741Y-92534394D01*
X89180000Y-92432661D01*
X89180000Y-92379999D01*
X89204264Y-92379999D01*
X89204264Y-92380000D01*
X89889230Y-93064966D01*
X89889231Y-93064966D01*
X89891856Y-93061354D01*
X89891862Y-93061344D01*
X89984751Y-92879038D01*
X89984758Y-92879020D01*
X90047989Y-92684416D01*
X90080000Y-92482307D01*
X90080000Y-92277692D01*
X90047989Y-92075583D01*
X89984758Y-91880979D01*
X89984753Y-91880967D01*
X89891856Y-91698645D01*
X89889230Y-91695031D01*
X89204264Y-92379999D01*
X89180000Y-92379999D01*
X89180000Y-92327339D01*
X89152741Y-92225606D01*
X89100080Y-92134394D01*
X89025606Y-92059920D01*
X88934394Y-92007259D01*
X88832661Y-91980000D01*
X88727339Y-91980000D01*
X88625606Y-92007259D01*
X88534394Y-92059920D01*
X88459920Y-92134394D01*
X88407259Y-92225606D01*
X88380000Y-92327339D01*
X88303075Y-92327339D01*
X87670767Y-91695031D01*
X87668140Y-91698649D01*
X87668136Y-91698656D01*
X87586924Y-91858046D01*
X87535315Y-91915364D01*
X87461962Y-91939198D01*
X87386520Y-91923162D01*
X87329202Y-91871553D01*
X87321404Y-91858046D01*
X87268573Y-91754360D01*
X87266760Y-91750801D01*
X87155690Y-91597927D01*
X87022073Y-91464310D01*
X86869203Y-91353243D01*
X86869195Y-91353237D01*
X86707336Y-91270767D01*
X88095031Y-91270767D01*
X88779999Y-91955735D01*
X89464966Y-91270768D01*
X89464966Y-91270767D01*
X89461351Y-91268141D01*
X89461348Y-91268139D01*
X89279038Y-91175248D01*
X89279020Y-91175241D01*
X89084416Y-91112010D01*
X88882307Y-91080000D01*
X88677693Y-91080000D01*
X88475583Y-91112010D01*
X88280979Y-91175241D01*
X88280961Y-91175248D01*
X88098656Y-91268136D01*
X88098649Y-91268140D01*
X88095031Y-91270767D01*
X86707336Y-91270767D01*
X86700842Y-91267458D01*
X86700841Y-91267457D01*
X86700832Y-91267453D01*
X86521118Y-91209060D01*
X86334481Y-91179500D01*
X86145519Y-91179500D01*
X85958882Y-91209060D01*
X85779168Y-91267453D01*
X85779163Y-91267455D01*
X85779157Y-91267458D01*
X85610804Y-91353238D01*
X85610799Y-91353241D01*
X85457936Y-91464303D01*
X85457925Y-91464312D01*
X85324312Y-91597925D01*
X85324303Y-91597936D01*
X85213241Y-91750799D01*
X85213238Y-91750804D01*
X85127458Y-91919157D01*
X85127451Y-91919174D01*
X85111707Y-91967629D01*
X85069700Y-92032314D01*
X85000978Y-92067329D01*
X84923956Y-92063292D01*
X84859271Y-92021285D01*
X84828293Y-91967629D01*
X84819055Y-91939198D01*
X84812547Y-91919168D01*
X84726760Y-91750801D01*
X84615690Y-91597927D01*
X84482073Y-91464310D01*
X84329199Y-91353240D01*
X84192246Y-91283459D01*
X84160842Y-91267458D01*
X84160841Y-91267457D01*
X84160832Y-91267453D01*
X83981118Y-91209060D01*
X83794481Y-91179500D01*
X83605519Y-91179500D01*
X83418882Y-91209060D01*
X83239168Y-91267453D01*
X83239163Y-91267455D01*
X83239157Y-91267458D01*
X83070804Y-91353238D01*
X83070799Y-91353241D01*
X82917936Y-91464303D01*
X82917925Y-91464312D01*
X82784312Y-91597925D01*
X82784303Y-91597936D01*
X82673241Y-91750799D01*
X82673238Y-91750804D01*
X82587458Y-91919157D01*
X82587455Y-91919163D01*
X82587453Y-91919168D01*
X82529060Y-92098882D01*
X82499500Y-92285519D01*
X82499500Y-92474481D01*
X82529060Y-92661118D01*
X82587453Y-92840832D01*
X82673240Y-93009199D01*
X82784310Y-93162073D01*
X82917927Y-93295690D01*
X83070801Y-93406760D01*
X83239168Y-93492547D01*
X83418882Y-93550940D01*
X83605519Y-93580500D01*
X83605524Y-93580500D01*
X83794476Y-93580500D01*
X83794481Y-93580500D01*
X83981118Y-93550940D01*
X84160832Y-93492547D01*
X84329199Y-93406760D01*
X84482073Y-93295690D01*
X84615690Y-93162073D01*
X84726760Y-93009199D01*
X84812547Y-92840832D01*
X84828293Y-92792370D01*
X84870299Y-92727686D01*
X84939021Y-92692670D01*
X85016043Y-92696707D01*
X85080728Y-92738713D01*
X85111707Y-92792371D01*
X85127449Y-92840822D01*
X85127451Y-92840828D01*
X85127453Y-92840832D01*
X85213240Y-93009199D01*
X85324310Y-93162073D01*
X85457927Y-93295690D01*
X85610801Y-93406760D01*
X85610808Y-93406763D01*
X85615796Y-93409821D01*
X85614816Y-93411418D01*
X85665452Y-93457000D01*
X85689295Y-93530350D01*
X85689500Y-93538166D01*
X85689500Y-94777526D01*
X85689500Y-94922474D01*
X85727016Y-95062485D01*
X85727017Y-95062486D01*
X85799490Y-95188015D01*
X89187676Y-98576201D01*
X89226240Y-98642996D01*
X89226240Y-98720124D01*
X89187676Y-98786919D01*
X89120881Y-98825483D01*
X89059009Y-98828726D01*
X88874481Y-98799500D01*
X88685519Y-98799500D01*
X88498882Y-98829060D01*
X88319168Y-98887453D01*
X88319163Y-98887455D01*
X88319157Y-98887458D01*
X88150804Y-98973238D01*
X88150799Y-98973241D01*
X87997936Y-99084303D01*
X87997925Y-99084312D01*
X87864312Y-99217925D01*
X87864303Y-99217936D01*
X87753241Y-99370799D01*
X87753240Y-99370799D01*
X87698595Y-99478047D01*
X87646986Y-99535364D01*
X87573632Y-99559198D01*
X87498190Y-99543162D01*
X87440873Y-99491553D01*
X87433075Y-99478046D01*
X87351858Y-99318648D01*
X87349230Y-99315031D01*
X86664264Y-99999999D01*
X86664264Y-100000000D01*
X87349230Y-100684966D01*
X87349231Y-100684966D01*
X87351856Y-100681354D01*
X87351862Y-100681345D01*
X87433075Y-100521953D01*
X87484683Y-100464636D01*
X87558036Y-100440801D01*
X87633479Y-100456837D01*
X87690796Y-100508445D01*
X87698595Y-100521952D01*
X87753240Y-100629199D01*
X87864310Y-100782073D01*
X87997927Y-100915690D01*
X88150801Y-101026760D01*
X88319168Y-101112547D01*
X88498882Y-101170940D01*
X88685519Y-101200500D01*
X88685524Y-101200500D01*
X88874476Y-101200500D01*
X88874481Y-101200500D01*
X89061118Y-101170940D01*
X89240832Y-101112547D01*
X89409199Y-101026760D01*
X89562073Y-100915690D01*
X89695690Y-100782073D01*
X89806760Y-100629199D01*
X89892547Y-100460832D01*
X89950940Y-100281118D01*
X89980500Y-100094481D01*
X89980500Y-99905519D01*
X89951273Y-99720987D01*
X89959336Y-99644285D01*
X90004670Y-99581887D01*
X90075130Y-99550516D01*
X90151836Y-99558579D01*
X90203798Y-99592323D01*
X90841789Y-100230314D01*
X90880353Y-100297109D01*
X90880353Y-100373172D01*
X90880426Y-100373190D01*
X90880353Y-100373494D01*
X90880353Y-100374237D01*
X90879408Y-100377429D01*
X90879061Y-100378874D01*
X90879060Y-100378882D01*
X90849500Y-100565519D01*
X90849500Y-100754481D01*
X90879060Y-100941118D01*
X90937453Y-101120832D01*
X91023240Y-101289199D01*
X91134310Y-101442073D01*
X91267927Y-101575690D01*
X91420801Y-101686760D01*
X91589168Y-101772547D01*
X91768882Y-101830940D01*
X91955519Y-101860500D01*
X91955524Y-101860500D01*
X92144476Y-101860500D01*
X92144481Y-101860500D01*
X92331118Y-101830940D01*
X92510832Y-101772547D01*
X92510837Y-101772544D01*
X92515356Y-101771076D01*
X92592378Y-101767039D01*
X92661100Y-101802054D01*
X92703107Y-101866739D01*
X92710400Y-101912783D01*
X92710400Y-109424972D01*
X92735398Y-109550642D01*
X92784432Y-109669021D01*
X92784433Y-109669023D01*
X92784435Y-109669027D01*
X92855622Y-109775567D01*
X92855623Y-109775569D01*
X97271258Y-114191204D01*
X97309822Y-114257999D01*
X97313065Y-114319870D01*
X97299500Y-114405519D01*
X97299500Y-114594481D01*
X97329060Y-114781118D01*
X97387453Y-114960832D01*
X97473240Y-115129199D01*
X97584310Y-115282073D01*
X97717927Y-115415690D01*
X97870801Y-115526760D01*
X98039168Y-115612547D01*
X98218882Y-115670940D01*
X98405519Y-115700500D01*
X98405524Y-115700500D01*
X98594480Y-115700500D01*
X98594481Y-115700500D01*
X98680128Y-115686934D01*
X98756830Y-115694995D01*
X98808794Y-115728740D01*
X103885859Y-120805805D01*
X103924423Y-120872600D01*
X103929500Y-120911164D01*
X103929500Y-124000402D01*
X103909538Y-124074902D01*
X103855000Y-124129440D01*
X103822071Y-124143485D01*
X103719602Y-124173255D01*
X103578136Y-124256918D01*
X103578133Y-124256920D01*
X103461920Y-124373133D01*
X103461918Y-124373136D01*
X103378257Y-124514599D01*
X103332402Y-124672428D01*
X103332402Y-124672431D01*
X103329500Y-124709306D01*
X103329500Y-126290694D01*
X103330469Y-126303008D01*
X103332402Y-126327571D01*
X103355228Y-126406137D01*
X103378256Y-126485398D01*
X103461919Y-126626865D01*
X103578135Y-126743081D01*
X103719602Y-126826744D01*
X103877428Y-126872597D01*
X103877427Y-126872597D01*
X103877431Y-126872598D01*
X103914306Y-126875500D01*
X103914313Y-126875500D01*
X105245687Y-126875500D01*
X105245694Y-126875500D01*
X105282569Y-126872598D01*
X105440398Y-126826744D01*
X105581865Y-126743081D01*
X105698081Y-126626865D01*
X105781744Y-126485398D01*
X105804772Y-126406134D01*
X105844726Y-126340164D01*
X105912314Y-126303008D01*
X105989425Y-126304623D01*
X106055398Y-126344578D01*
X106068396Y-126360124D01*
X106126172Y-126439646D01*
X106265354Y-126578828D01*
X106424595Y-126694524D01*
X106599975Y-126783884D01*
X106787174Y-126844709D01*
X106981583Y-126875500D01*
X106981588Y-126875500D01*
X107178412Y-126875500D01*
X107178417Y-126875500D01*
X107372826Y-126844709D01*
X107560025Y-126783884D01*
X107735405Y-126694524D01*
X107894646Y-126578828D01*
X108033828Y-126439646D01*
X108149524Y-126280405D01*
X108149523Y-126280405D01*
X108152965Y-126275669D01*
X108155078Y-126277204D01*
X108202256Y-126232222D01*
X108277210Y-126214040D01*
X108351213Y-126235771D01*
X108376818Y-126262626D01*
X108390881Y-126264853D01*
X109105000Y-125550735D01*
X109105000Y-125562535D01*
X109137370Y-125683343D01*
X109199905Y-125791657D01*
X109288343Y-125880095D01*
X109396657Y-125942630D01*
X109517465Y-125975000D01*
X109529264Y-125975000D01*
X108786838Y-126717424D01*
X108786838Y-126717425D01*
X108872444Y-126779621D01*
X108872444Y-126779622D01*
X109061779Y-126876093D01*
X109263871Y-126941757D01*
X109473758Y-126975000D01*
X109686242Y-126975000D01*
X109896128Y-126941757D01*
X110098220Y-126876093D01*
X110287555Y-126779622D01*
X110287555Y-126779621D01*
X110373160Y-126717425D01*
X110373161Y-126717425D01*
X110034442Y-126378706D01*
X144649500Y-126378706D01*
X144649500Y-126621293D01*
X144681160Y-126861781D01*
X144681161Y-126861787D01*
X144681162Y-126861789D01*
X144743946Y-127096100D01*
X144836776Y-127320212D01*
X144958064Y-127530289D01*
X145105735Y-127722738D01*
X145277262Y-127894265D01*
X145469711Y-128041936D01*
X145679788Y-128163224D01*
X145903900Y-128256054D01*
X146138211Y-128318838D01*
X146138217Y-128318838D01*
X146138218Y-128318839D01*
X146203600Y-128327446D01*
X146378712Y-128350500D01*
X146621288Y-128350500D01*
X146861789Y-128318838D01*
X147096100Y-128256054D01*
X147320212Y-128163224D01*
X147530289Y-128041936D01*
X147722738Y-127894265D01*
X147894265Y-127722738D01*
X148041936Y-127530289D01*
X148163224Y-127320212D01*
X148256054Y-127096100D01*
X148318838Y-126861789D01*
X148350500Y-126621288D01*
X148350500Y-126378712D01*
X148327446Y-126203600D01*
X148318839Y-126138218D01*
X148318838Y-126138217D01*
X148318838Y-126138211D01*
X148256054Y-125903900D01*
X148163224Y-125679788D01*
X148041936Y-125469711D01*
X147894265Y-125277262D01*
X147722738Y-125105735D01*
X147530289Y-124958064D01*
X147354850Y-124856774D01*
X147320216Y-124836778D01*
X147320214Y-124836777D01*
X147320212Y-124836776D01*
X147139595Y-124761962D01*
X147096103Y-124743947D01*
X147096101Y-124743946D01*
X147096100Y-124743946D01*
X146861789Y-124681162D01*
X146861787Y-124681161D01*
X146861781Y-124681160D01*
X146621293Y-124649500D01*
X146621288Y-124649500D01*
X146378712Y-124649500D01*
X146378706Y-124649500D01*
X146138218Y-124681160D01*
X145903896Y-124743947D01*
X145679783Y-124836778D01*
X145469712Y-124958063D01*
X145469711Y-124958064D01*
X145277262Y-125105735D01*
X145277260Y-125105736D01*
X145277256Y-125105740D01*
X145105740Y-125277256D01*
X144958063Y-125469712D01*
X144836778Y-125679783D01*
X144743947Y-125903896D01*
X144681160Y-126138218D01*
X144649500Y-126378706D01*
X110034442Y-126378706D01*
X109630736Y-125975000D01*
X109642535Y-125975000D01*
X109763343Y-125942630D01*
X109871657Y-125880095D01*
X109960095Y-125791657D01*
X110022630Y-125683343D01*
X110055000Y-125562535D01*
X110055000Y-125550736D01*
X110769117Y-126264853D01*
X110831094Y-126143217D01*
X110896757Y-125941128D01*
X110930000Y-125731242D01*
X110930000Y-125268757D01*
X110896757Y-125058871D01*
X110831097Y-124856789D01*
X110831091Y-124856774D01*
X110769117Y-124735145D01*
X110055000Y-125449262D01*
X110055000Y-125437465D01*
X110022630Y-125316657D01*
X109960095Y-125208343D01*
X109871657Y-125119905D01*
X109763343Y-125057370D01*
X109642535Y-125025000D01*
X109630736Y-125025000D01*
X110373160Y-124282574D01*
X110373160Y-124282572D01*
X110287564Y-124220383D01*
X110287555Y-124220378D01*
X110098220Y-124123906D01*
X109896128Y-124058242D01*
X109686242Y-124025000D01*
X109473758Y-124025000D01*
X109263871Y-124058242D01*
X109061775Y-124123907D01*
X109048842Y-124130497D01*
X108973399Y-124146532D01*
X108900047Y-124122697D01*
X108848439Y-124065378D01*
X108832200Y-123997736D01*
X108832200Y-119844306D01*
X119699500Y-119844306D01*
X119699500Y-123075694D01*
X119700922Y-123093761D01*
X119702402Y-123112571D01*
X119729046Y-123204279D01*
X119748256Y-123270398D01*
X119831919Y-123411865D01*
X119948135Y-123528081D01*
X120089602Y-123611744D01*
X120247428Y-123657597D01*
X120247427Y-123657597D01*
X120247431Y-123657598D01*
X120284306Y-123660500D01*
X120284313Y-123660500D01*
X121715687Y-123660500D01*
X121715694Y-123660500D01*
X121752569Y-123657598D01*
X121910398Y-123611744D01*
X122051865Y-123528081D01*
X122168081Y-123411865D01*
X122251744Y-123270398D01*
X122297598Y-123112569D01*
X122300500Y-123075694D01*
X122300500Y-120449822D01*
X124680000Y-120449822D01*
X124680000Y-121160000D01*
X125560385Y-121160000D01*
X125520889Y-121228409D01*
X125480000Y-121381009D01*
X125480000Y-121538991D01*
X125520889Y-121691591D01*
X125560385Y-121760000D01*
X124680000Y-121760000D01*
X124680000Y-122470177D01*
X124714474Y-122687840D01*
X124782567Y-122897406D01*
X124782571Y-122897418D01*
X124882614Y-123093761D01*
X125012137Y-123272035D01*
X125167964Y-123427862D01*
X125346238Y-123557385D01*
X125542581Y-123657428D01*
X125542593Y-123657432D01*
X125752156Y-123725524D01*
X125752167Y-123725527D01*
X125780000Y-123729934D01*
X125780000Y-121979614D01*
X125848409Y-122019111D01*
X126001009Y-122060000D01*
X126158991Y-122060000D01*
X126311591Y-122019111D01*
X126380000Y-121979614D01*
X126380000Y-123729933D01*
X126407832Y-123725527D01*
X126407843Y-123725524D01*
X126617406Y-123657432D01*
X126617418Y-123657428D01*
X126813761Y-123557385D01*
X126992035Y-123427862D01*
X127147862Y-123272035D01*
X127277385Y-123093761D01*
X127377428Y-122897418D01*
X127377432Y-122897406D01*
X127445525Y-122687840D01*
X127480000Y-122470177D01*
X127480000Y-121760000D01*
X126599615Y-121760000D01*
X126639111Y-121691591D01*
X126680000Y-121538991D01*
X126680000Y-121381009D01*
X126639111Y-121228409D01*
X126599615Y-121160000D01*
X127480000Y-121160000D01*
X127480000Y-120449822D01*
X127445525Y-120232159D01*
X127377432Y-120022593D01*
X127377428Y-120022581D01*
X127277385Y-119826238D01*
X127147862Y-119647964D01*
X126992035Y-119492137D01*
X126813761Y-119362614D01*
X126617418Y-119262571D01*
X126617403Y-119262565D01*
X126407846Y-119194476D01*
X126407826Y-119194472D01*
X126380000Y-119190064D01*
X126380000Y-120940385D01*
X126311591Y-120900889D01*
X126158991Y-120860000D01*
X126001009Y-120860000D01*
X125848409Y-120900889D01*
X125780000Y-120940385D01*
X125780000Y-119190064D01*
X125752173Y-119194472D01*
X125752153Y-119194476D01*
X125542596Y-119262565D01*
X125542581Y-119262571D01*
X125346238Y-119362614D01*
X125167964Y-119492137D01*
X125012137Y-119647964D01*
X124882614Y-119826238D01*
X124782571Y-120022581D01*
X124782567Y-120022593D01*
X124714474Y-120232159D01*
X124680000Y-120449822D01*
X122300500Y-120449822D01*
X122300500Y-119844306D01*
X122297598Y-119807431D01*
X122251744Y-119649602D01*
X122168081Y-119508135D01*
X122051865Y-119391919D01*
X121910398Y-119308256D01*
X121844279Y-119289046D01*
X121752571Y-119262402D01*
X121752572Y-119262402D01*
X121741506Y-119261531D01*
X121715694Y-119259500D01*
X120284306Y-119259500D01*
X120259722Y-119261434D01*
X120247428Y-119262402D01*
X120089599Y-119308257D01*
X119948136Y-119391918D01*
X119948133Y-119391920D01*
X119831920Y-119508133D01*
X119831918Y-119508136D01*
X119748257Y-119649599D01*
X119702402Y-119807428D01*
X119702402Y-119807431D01*
X119699500Y-119844306D01*
X108832200Y-119844306D01*
X108832200Y-115814551D01*
X108852162Y-115740051D01*
X108906700Y-115685513D01*
X108935917Y-115673880D01*
X108935550Y-115672750D01*
X109075004Y-115627437D01*
X109120832Y-115612547D01*
X109289199Y-115526760D01*
X109442073Y-115415690D01*
X109575690Y-115282073D01*
X109686760Y-115129199D01*
X109772547Y-114960832D01*
X109830940Y-114781118D01*
X109860500Y-114594481D01*
X109860500Y-114405519D01*
X109830940Y-114218882D01*
X109772547Y-114039168D01*
X109686760Y-113870801D01*
X109575690Y-113717927D01*
X109442073Y-113584310D01*
X109289199Y-113473240D01*
X109120832Y-113387453D01*
X108941118Y-113329060D01*
X108754481Y-113299500D01*
X108565519Y-113299500D01*
X108378882Y-113329060D01*
X108199168Y-113387453D01*
X108199163Y-113387455D01*
X108199157Y-113387458D01*
X108030804Y-113473238D01*
X108030799Y-113473241D01*
X107877936Y-113584303D01*
X107877925Y-113584312D01*
X107744312Y-113717925D01*
X107744303Y-113717936D01*
X107633241Y-113870799D01*
X107633238Y-113870804D01*
X107547458Y-114039157D01*
X107547455Y-114039163D01*
X107547453Y-114039168D01*
X107489060Y-114218882D01*
X107459500Y-114405519D01*
X107459500Y-114594481D01*
X107489060Y-114781118D01*
X107547453Y-114960832D01*
X107547457Y-114960841D01*
X107547458Y-114960842D01*
X107633238Y-115129195D01*
X107633241Y-115129200D01*
X107702743Y-115224861D01*
X107730384Y-115296866D01*
X107731200Y-115312441D01*
X107731200Y-124066653D01*
X107711238Y-124141153D01*
X107656700Y-124195691D01*
X107582200Y-124215653D01*
X107536157Y-124208360D01*
X107372827Y-124155291D01*
X107340424Y-124150159D01*
X107178417Y-124124500D01*
X106981583Y-124124500D01*
X106787174Y-124155291D01*
X106599975Y-124216116D01*
X106599972Y-124216117D01*
X106599963Y-124216121D01*
X106424598Y-124305474D01*
X106424593Y-124305477D01*
X106265363Y-124421165D01*
X106265352Y-124421174D01*
X106126169Y-124560357D01*
X106068398Y-124639873D01*
X106008458Y-124688411D01*
X105932279Y-124700476D01*
X105860274Y-124672835D01*
X105811736Y-124612895D01*
X105804771Y-124593862D01*
X105781744Y-124514602D01*
X105698081Y-124373135D01*
X105581865Y-124256919D01*
X105520077Y-124220378D01*
X105440397Y-124173255D01*
X105337929Y-124143485D01*
X105271957Y-124103530D01*
X105234801Y-124035942D01*
X105230500Y-124000402D01*
X105230500Y-120515835D01*
X105230499Y-120515827D01*
X105205501Y-120390156D01*
X105205500Y-120390154D01*
X105156468Y-120271780D01*
X105156467Y-120271779D01*
X105156465Y-120271773D01*
X105085276Y-120165231D01*
X104994669Y-120074624D01*
X104990011Y-120069966D01*
X104988952Y-120069006D01*
X99728740Y-114808794D01*
X99690176Y-114741999D01*
X99686934Y-114680129D01*
X99700500Y-114594481D01*
X99700500Y-114405519D01*
X99670940Y-114218882D01*
X99612547Y-114039168D01*
X99526760Y-113870801D01*
X99415690Y-113717927D01*
X99282073Y-113584310D01*
X99129199Y-113473240D01*
X98960832Y-113387453D01*
X98781118Y-113329060D01*
X98594481Y-113299500D01*
X98405519Y-113299500D01*
X98339789Y-113309910D01*
X98319870Y-113313065D01*
X98243165Y-113305002D01*
X98191204Y-113271258D01*
X94055041Y-109135095D01*
X94016477Y-109068300D01*
X94011400Y-109029736D01*
X94011400Y-104027381D01*
X94031362Y-103952881D01*
X94085900Y-103898343D01*
X94160400Y-103878381D01*
X94234900Y-103898343D01*
X94280942Y-103939800D01*
X94384310Y-104082073D01*
X94517927Y-104215690D01*
X94670801Y-104326760D01*
X94839168Y-104412547D01*
X95018882Y-104470940D01*
X95205519Y-104500500D01*
X95205524Y-104500500D01*
X95394476Y-104500500D01*
X95394481Y-104500500D01*
X95581118Y-104470940D01*
X95760832Y-104412547D01*
X95929199Y-104326760D01*
X96082073Y-104215690D01*
X96215690Y-104082073D01*
X96326760Y-103929199D01*
X96412547Y-103760832D01*
X96470940Y-103581118D01*
X96471909Y-103575000D01*
X106430688Y-103575000D01*
X107345856Y-103575000D01*
X107284075Y-103682007D01*
X107250000Y-103809174D01*
X107250000Y-103940826D01*
X107284075Y-104067993D01*
X107345856Y-104175000D01*
X106430688Y-104175000D01*
X106433242Y-104191130D01*
X106498906Y-104393222D01*
X106595378Y-104582555D01*
X106595378Y-104582556D01*
X106720277Y-104754464D01*
X106720279Y-104754467D01*
X106870532Y-104904720D01*
X106870535Y-104904722D01*
X107042444Y-105029621D01*
X107231777Y-105126093D01*
X107433869Y-105191756D01*
X107433869Y-105191757D01*
X107450000Y-105194311D01*
X107450000Y-104279144D01*
X107557007Y-104340925D01*
X107684174Y-104375000D01*
X107815826Y-104375000D01*
X107942993Y-104340925D01*
X108050000Y-104279144D01*
X108050000Y-105194311D01*
X108066130Y-105191757D01*
X108066130Y-105191756D01*
X108268222Y-105126093D01*
X108457555Y-105029621D01*
X108457556Y-105029621D01*
X108629464Y-104904722D01*
X108629467Y-104904720D01*
X108779720Y-104754467D01*
X108779722Y-104754464D01*
X108904621Y-104582556D01*
X108904621Y-104582555D01*
X109001093Y-104393222D01*
X109066756Y-104191130D01*
X109066757Y-104191130D01*
X109069312Y-104175000D01*
X108154144Y-104175000D01*
X108215925Y-104067993D01*
X108250000Y-103940826D01*
X108250000Y-103809174D01*
X108215925Y-103682007D01*
X108154144Y-103575000D01*
X109069311Y-103575000D01*
X109066757Y-103558869D01*
X109001093Y-103356777D01*
X108904621Y-103167444D01*
X108904621Y-103167443D01*
X108779722Y-102995535D01*
X108779720Y-102995532D01*
X108629467Y-102845279D01*
X108629464Y-102845277D01*
X108457555Y-102720378D01*
X108268222Y-102623906D01*
X108066123Y-102558240D01*
X108050001Y-102555686D01*
X108050000Y-102555687D01*
X108050000Y-103470855D01*
X107942993Y-103409075D01*
X107815826Y-103375000D01*
X107684174Y-103375000D01*
X107557007Y-103409075D01*
X107450000Y-103470855D01*
X107450000Y-102555687D01*
X107449998Y-102555686D01*
X107433877Y-102558240D01*
X107433876Y-102558240D01*
X107231777Y-102623906D01*
X107042444Y-102720378D01*
X107042443Y-102720378D01*
X106870535Y-102845277D01*
X106870532Y-102845279D01*
X106720279Y-102995532D01*
X106720277Y-102995535D01*
X106595378Y-103167443D01*
X106595378Y-103167444D01*
X106498906Y-103356777D01*
X106433243Y-103558869D01*
X106433242Y-103558869D01*
X106430688Y-103575000D01*
X96471909Y-103575000D01*
X96500500Y-103394481D01*
X96500500Y-103205519D01*
X96470940Y-103018882D01*
X96412547Y-102839168D01*
X96326760Y-102670801D01*
X96215690Y-102517927D01*
X96082073Y-102384310D01*
X96036885Y-102351479D01*
X95929204Y-102273243D01*
X95924199Y-102270176D01*
X95925176Y-102268580D01*
X95874535Y-102222980D01*
X95850704Y-102149626D01*
X95850500Y-102141833D01*
X95850500Y-101339124D01*
X95870462Y-101264624D01*
X95925000Y-101210086D01*
X95957926Y-101196041D01*
X96110398Y-101151744D01*
X96182284Y-101109231D01*
X97155031Y-101109231D01*
X97158645Y-101111856D01*
X97340967Y-101204753D01*
X97340979Y-101204758D01*
X97535583Y-101267989D01*
X97737693Y-101300000D01*
X97942307Y-101300000D01*
X98144416Y-101267989D01*
X98339020Y-101204758D01*
X98339038Y-101204751D01*
X98521344Y-101111862D01*
X98521354Y-101111856D01*
X98524966Y-101109231D01*
X98524966Y-101109230D01*
X97840000Y-100424264D01*
X97155031Y-101109231D01*
X96182284Y-101109231D01*
X96251865Y-101068081D01*
X96368081Y-100951865D01*
X96451744Y-100810398D01*
X96472625Y-100738523D01*
X96512579Y-100672554D01*
X96580166Y-100635397D01*
X96657278Y-100637012D01*
X96723250Y-100676967D01*
X96729880Y-100684896D01*
X96730768Y-100684966D01*
X97415735Y-99999999D01*
X97363075Y-99947339D01*
X97440000Y-99947339D01*
X97440000Y-100052661D01*
X97467259Y-100154394D01*
X97519920Y-100245606D01*
X97594394Y-100320080D01*
X97685606Y-100372741D01*
X97787339Y-100400000D01*
X97892661Y-100400000D01*
X97994394Y-100372741D01*
X98085606Y-100320080D01*
X98160080Y-100245606D01*
X98212741Y-100154394D01*
X98240000Y-100052661D01*
X98240000Y-99999999D01*
X98264264Y-99999999D01*
X98264264Y-100000000D01*
X98949230Y-100684966D01*
X98949231Y-100684966D01*
X98951856Y-100681354D01*
X98951862Y-100681345D01*
X99033075Y-100521953D01*
X99084683Y-100464636D01*
X99158036Y-100440801D01*
X99233479Y-100456837D01*
X99290796Y-100508445D01*
X99298595Y-100521952D01*
X99353240Y-100629199D01*
X99464310Y-100782073D01*
X99597927Y-100915690D01*
X99750801Y-101026760D01*
X99919168Y-101112547D01*
X100098882Y-101170940D01*
X100285519Y-101200500D01*
X100285524Y-101200500D01*
X100474476Y-101200500D01*
X100474481Y-101200500D01*
X100661118Y-101170940D01*
X100840832Y-101112547D01*
X101009199Y-101026760D01*
X101162073Y-100915690D01*
X101295690Y-100782073D01*
X101406760Y-100629199D01*
X101492547Y-100460832D01*
X101550940Y-100281118D01*
X101580500Y-100094481D01*
X101580500Y-99905519D01*
X101550940Y-99718882D01*
X101492547Y-99539168D01*
X101406760Y-99370801D01*
X101295690Y-99217927D01*
X101162073Y-99084310D01*
X101009199Y-98973240D01*
X100842182Y-98888141D01*
X100840842Y-98887458D01*
X100840841Y-98887457D01*
X100840832Y-98887453D01*
X100661118Y-98829060D01*
X100474481Y-98799500D01*
X100285519Y-98799500D01*
X100098882Y-98829060D01*
X99919168Y-98887453D01*
X99919163Y-98887455D01*
X99919157Y-98887458D01*
X99750804Y-98973238D01*
X99750799Y-98973241D01*
X99597936Y-99084303D01*
X99597925Y-99084312D01*
X99464312Y-99217925D01*
X99464303Y-99217936D01*
X99353241Y-99370799D01*
X99353240Y-99370799D01*
X99298595Y-99478047D01*
X99246986Y-99535364D01*
X99173632Y-99559198D01*
X99098190Y-99543162D01*
X99040873Y-99491553D01*
X99033075Y-99478046D01*
X98951858Y-99318648D01*
X98949230Y-99315031D01*
X98264264Y-99999999D01*
X98240000Y-99999999D01*
X98240000Y-99947339D01*
X98212741Y-99845606D01*
X98160080Y-99754394D01*
X98085606Y-99679920D01*
X97994394Y-99627259D01*
X97892661Y-99600000D01*
X97787339Y-99600000D01*
X97685606Y-99627259D01*
X97594394Y-99679920D01*
X97519920Y-99754394D01*
X97467259Y-99845606D01*
X97440000Y-99947339D01*
X97363075Y-99947339D01*
X96730767Y-99315031D01*
X96726500Y-99315367D01*
X96676342Y-99356005D01*
X96600166Y-99368087D01*
X96528154Y-99340463D01*
X96479602Y-99280535D01*
X96472626Y-99261480D01*
X96451744Y-99189602D01*
X96368081Y-99048135D01*
X96251865Y-98931919D01*
X96182280Y-98890767D01*
X97155031Y-98890767D01*
X97839999Y-99575735D01*
X98524966Y-98890768D01*
X98524966Y-98890767D01*
X98521351Y-98888141D01*
X98521348Y-98888139D01*
X98339038Y-98795248D01*
X98339020Y-98795241D01*
X98144416Y-98732010D01*
X97942307Y-98700000D01*
X97737693Y-98700000D01*
X97535583Y-98732010D01*
X97340979Y-98795241D01*
X97340961Y-98795248D01*
X97158656Y-98888136D01*
X97158649Y-98888140D01*
X97155031Y-98890767D01*
X96182280Y-98890767D01*
X96110398Y-98848256D01*
X96032014Y-98825483D01*
X95952571Y-98802402D01*
X95952572Y-98802402D01*
X95941506Y-98801531D01*
X95915694Y-98799500D01*
X94684306Y-98799500D01*
X94659722Y-98801434D01*
X94647428Y-98802402D01*
X94489599Y-98848257D01*
X94348136Y-98931918D01*
X94348133Y-98931920D01*
X94265759Y-99014295D01*
X94198964Y-99052859D01*
X94121836Y-99052859D01*
X94055041Y-99014295D01*
X94016477Y-98947500D01*
X94011400Y-98908936D01*
X94011400Y-93107381D01*
X94031362Y-93032881D01*
X94085900Y-92978343D01*
X94160400Y-92958381D01*
X94234900Y-92978343D01*
X94280942Y-93019800D01*
X94384310Y-93162073D01*
X94517927Y-93295690D01*
X94670801Y-93406760D01*
X94839168Y-93492547D01*
X95018882Y-93550940D01*
X95205519Y-93580500D01*
X95205524Y-93580500D01*
X95394476Y-93580500D01*
X95394481Y-93580500D01*
X95581118Y-93550940D01*
X95760832Y-93492547D01*
X95929199Y-93406760D01*
X96082073Y-93295690D01*
X96215690Y-93162073D01*
X96326760Y-93009199D01*
X96412547Y-92840832D01*
X96428293Y-92792370D01*
X96470299Y-92727686D01*
X96539021Y-92692670D01*
X96616043Y-92696707D01*
X96680728Y-92738713D01*
X96711707Y-92792371D01*
X96727449Y-92840822D01*
X96727451Y-92840828D01*
X96727453Y-92840832D01*
X96813240Y-93009199D01*
X96924310Y-93162073D01*
X97057927Y-93295690D01*
X97210801Y-93406760D01*
X97379168Y-93492547D01*
X97558882Y-93550940D01*
X97745519Y-93580500D01*
X97745524Y-93580500D01*
X97934476Y-93580500D01*
X97934481Y-93580500D01*
X98121118Y-93550940D01*
X98300832Y-93492547D01*
X98469199Y-93406760D01*
X98543614Y-93352693D01*
X98615619Y-93325053D01*
X98691797Y-93337119D01*
X98736553Y-93367878D01*
X103105859Y-97737184D01*
X103144423Y-97803979D01*
X103149500Y-97842543D01*
X103149500Y-99501833D01*
X103129538Y-99576333D01*
X103075760Y-99630110D01*
X103075801Y-99630176D01*
X103075527Y-99630343D01*
X103075000Y-99630871D01*
X103072081Y-99632455D01*
X103070795Y-99633243D01*
X102917936Y-99744303D01*
X102917925Y-99744312D01*
X102784312Y-99877925D01*
X102784303Y-99877936D01*
X102673241Y-100030799D01*
X102673238Y-100030804D01*
X102587458Y-100199157D01*
X102587455Y-100199163D01*
X102587453Y-100199168D01*
X102529060Y-100378882D01*
X102499500Y-100565519D01*
X102499500Y-100754481D01*
X102529060Y-100941118D01*
X102587453Y-101120832D01*
X102673240Y-101289199D01*
X102784310Y-101442073D01*
X102917927Y-101575690D01*
X103070801Y-101686760D01*
X103239168Y-101772547D01*
X103418882Y-101830940D01*
X103605519Y-101860500D01*
X103605524Y-101860500D01*
X103794476Y-101860500D01*
X103794481Y-101860500D01*
X103981118Y-101830940D01*
X104160832Y-101772547D01*
X104329199Y-101686760D01*
X104482073Y-101575690D01*
X104615690Y-101442073D01*
X104726760Y-101289199D01*
X104812547Y-101120832D01*
X104870940Y-100941118D01*
X104900500Y-100754481D01*
X104900500Y-100565519D01*
X104870940Y-100378882D01*
X104812547Y-100199168D01*
X104726760Y-100030801D01*
X104615690Y-99877927D01*
X104482073Y-99744310D01*
X104436885Y-99711479D01*
X104329204Y-99633243D01*
X104324199Y-99630176D01*
X104325176Y-99628580D01*
X104274535Y-99582980D01*
X104250704Y-99509626D01*
X104250500Y-99501833D01*
X104250500Y-97480325D01*
X104212984Y-97340315D01*
X104140510Y-97214785D01*
X100772792Y-93847067D01*
X100734228Y-93780272D01*
X100734228Y-93703144D01*
X100772792Y-93636349D01*
X100832110Y-93600000D01*
X100879022Y-93584758D01*
X100879038Y-93584751D01*
X101061344Y-93491862D01*
X101061354Y-93491856D01*
X101064966Y-93489231D01*
X101064966Y-93489230D01*
X100355736Y-92780000D01*
X100432661Y-92780000D01*
X100534394Y-92752741D01*
X100625606Y-92700080D01*
X100700080Y-92625606D01*
X100752741Y-92534394D01*
X100780000Y-92432661D01*
X100780000Y-92379999D01*
X100804264Y-92379999D01*
X100804264Y-92380000D01*
X101489230Y-93064966D01*
X101489231Y-93064966D01*
X101491856Y-93061354D01*
X101491862Y-93061344D01*
X101584751Y-92879038D01*
X101584758Y-92879020D01*
X101647989Y-92684416D01*
X101680000Y-92482307D01*
X101680000Y-92277692D01*
X101647989Y-92075583D01*
X101584758Y-91880979D01*
X101584753Y-91880967D01*
X101491856Y-91698645D01*
X101489230Y-91695031D01*
X100804264Y-92379999D01*
X100780000Y-92379999D01*
X100780000Y-92327339D01*
X100752741Y-92225606D01*
X100700080Y-92134394D01*
X100625606Y-92059920D01*
X100534394Y-92007259D01*
X100432661Y-91980000D01*
X100327339Y-91980000D01*
X100225606Y-92007259D01*
X100134394Y-92059920D01*
X100059920Y-92134394D01*
X100007259Y-92225606D01*
X99980000Y-92327339D01*
X99980000Y-92404264D01*
X99270767Y-91695031D01*
X99238408Y-91697582D01*
X99232502Y-91696488D01*
X99226700Y-91698043D01*
X99194918Y-91689527D01*
X99162570Y-91683536D01*
X99158002Y-91679635D01*
X99152200Y-91678081D01*
X99128934Y-91654815D01*
X99103915Y-91633452D01*
X99101909Y-91627790D01*
X99097662Y-91623543D01*
X99089146Y-91591760D01*
X99078161Y-91560751D01*
X99077700Y-91549043D01*
X99077700Y-91270767D01*
X99695031Y-91270767D01*
X100379999Y-91955735D01*
X101064966Y-91270768D01*
X101064966Y-91270767D01*
X101061351Y-91268141D01*
X101061348Y-91268139D01*
X100879038Y-91175248D01*
X100879020Y-91175241D01*
X100684416Y-91112010D01*
X100482307Y-91080000D01*
X100277693Y-91080000D01*
X100075583Y-91112010D01*
X99880979Y-91175241D01*
X99880961Y-91175248D01*
X99698656Y-91268136D01*
X99698649Y-91268140D01*
X99695031Y-91270767D01*
X99077700Y-91270767D01*
X99077700Y-90405519D01*
X102499500Y-90405519D01*
X102499500Y-90594481D01*
X102529060Y-90781118D01*
X102587453Y-90960832D01*
X102587457Y-90960841D01*
X102587458Y-90960842D01*
X102648172Y-91080000D01*
X102673240Y-91129199D01*
X102784310Y-91282073D01*
X102917927Y-91415690D01*
X103070801Y-91526760D01*
X103239168Y-91612547D01*
X103418882Y-91670940D01*
X103605519Y-91700500D01*
X103605524Y-91700500D01*
X103794476Y-91700500D01*
X103794481Y-91700500D01*
X103981118Y-91670940D01*
X104160832Y-91612547D01*
X104329199Y-91526760D01*
X104482073Y-91415690D01*
X104615690Y-91282073D01*
X104726760Y-91129199D01*
X104812547Y-90960832D01*
X104870940Y-90781118D01*
X104900500Y-90594481D01*
X104900500Y-90405519D01*
X104870940Y-90218882D01*
X104812547Y-90039168D01*
X104726760Y-89870801D01*
X104615690Y-89717927D01*
X104482073Y-89584310D01*
X104329199Y-89473240D01*
X104160832Y-89387453D01*
X103981118Y-89329060D01*
X103794481Y-89299500D01*
X103605519Y-89299500D01*
X103418882Y-89329060D01*
X103239168Y-89387453D01*
X103239163Y-89387455D01*
X103239157Y-89387458D01*
X103070804Y-89473238D01*
X103070799Y-89473241D01*
X102917936Y-89584303D01*
X102917925Y-89584312D01*
X102784312Y-89717925D01*
X102784303Y-89717936D01*
X102673241Y-89870799D01*
X102673238Y-89870804D01*
X102587458Y-90039157D01*
X102587455Y-90039163D01*
X102587453Y-90039168D01*
X102529060Y-90218882D01*
X102499500Y-90405519D01*
X99077700Y-90405519D01*
X99077700Y-89864382D01*
X99097662Y-89789882D01*
X99102792Y-89781630D01*
X99147975Y-89714011D01*
X99200780Y-89586528D01*
X99227700Y-89451193D01*
X99227700Y-89313207D01*
X99224973Y-89299500D01*
X99200780Y-89177874D01*
X99200779Y-89177870D01*
X99147975Y-89050390D01*
X99147972Y-89050384D01*
X99071316Y-88935661D01*
X99071314Y-88935658D01*
X98973742Y-88838086D01*
X98973738Y-88838083D01*
X98859015Y-88761427D01*
X98859009Y-88761424D01*
X98731529Y-88708620D01*
X98731525Y-88708619D01*
X98596193Y-88681700D01*
X98458207Y-88681700D01*
X98322874Y-88708619D01*
X98322870Y-88708620D01*
X98195390Y-88761424D01*
X98195384Y-88761427D01*
X98080661Y-88838083D01*
X98080654Y-88838089D01*
X97983089Y-88935654D01*
X97983083Y-88935661D01*
X97906427Y-89050384D01*
X97906424Y-89050390D01*
X97853620Y-89177870D01*
X97853619Y-89177874D01*
X97826700Y-89313206D01*
X97826700Y-89451193D01*
X97853619Y-89586525D01*
X97853620Y-89586529D01*
X97906421Y-89714003D01*
X97906422Y-89714005D01*
X97906425Y-89714011D01*
X97951590Y-89781605D01*
X97976381Y-89854636D01*
X97976700Y-89864382D01*
X97976700Y-91030500D01*
X97956738Y-91105000D01*
X97902200Y-91159538D01*
X97827700Y-91179500D01*
X97745519Y-91179500D01*
X97558882Y-91209060D01*
X97379168Y-91267453D01*
X97379163Y-91267455D01*
X97379157Y-91267458D01*
X97210804Y-91353238D01*
X97210799Y-91353241D01*
X97057936Y-91464303D01*
X97057925Y-91464312D01*
X96924312Y-91597925D01*
X96924303Y-91597936D01*
X96813241Y-91750799D01*
X96813238Y-91750804D01*
X96727458Y-91919157D01*
X96727451Y-91919174D01*
X96711707Y-91967629D01*
X96669700Y-92032314D01*
X96600978Y-92067329D01*
X96523956Y-92063292D01*
X96459271Y-92021285D01*
X96428293Y-91967629D01*
X96419055Y-91939198D01*
X96412547Y-91919168D01*
X96326760Y-91750801D01*
X96215690Y-91597927D01*
X96082073Y-91464310D01*
X95929199Y-91353240D01*
X95792246Y-91283459D01*
X95760842Y-91267458D01*
X95760841Y-91267457D01*
X95760832Y-91267453D01*
X95581118Y-91209060D01*
X95394481Y-91179500D01*
X95205519Y-91179500D01*
X95018882Y-91209060D01*
X94839168Y-91267453D01*
X94839163Y-91267455D01*
X94839157Y-91267458D01*
X94670804Y-91353238D01*
X94670799Y-91353241D01*
X94517936Y-91464303D01*
X94517925Y-91464312D01*
X94384312Y-91597925D01*
X94384303Y-91597936D01*
X94269799Y-91755537D01*
X94268179Y-91754360D01*
X94219098Y-91800918D01*
X94144097Y-91818908D01*
X94070150Y-91796988D01*
X94017070Y-91741030D01*
X94001891Y-91699029D01*
X94001815Y-91698649D01*
X93986401Y-91621156D01*
X93947301Y-91526760D01*
X93937366Y-91502774D01*
X93866177Y-91396231D01*
X93278740Y-90808794D01*
X93240176Y-90741999D01*
X93236934Y-90680129D01*
X93250500Y-90594481D01*
X93250500Y-90405519D01*
X93220940Y-90218882D01*
X93162547Y-90039168D01*
X93076760Y-89870801D01*
X92965690Y-89717927D01*
X92832073Y-89584310D01*
X92761918Y-89533339D01*
X92713381Y-89473400D01*
X92700500Y-89412797D01*
X92700500Y-85243481D01*
X106499500Y-85243481D01*
X106499500Y-85243482D01*
X106499500Y-85243485D01*
X106499500Y-87006518D01*
X106510952Y-87078825D01*
X106514354Y-87100304D01*
X106571950Y-87213342D01*
X106661658Y-87303050D01*
X106774696Y-87360646D01*
X106868481Y-87375500D01*
X108631518Y-87375499D01*
X108725304Y-87360646D01*
X108838342Y-87303050D01*
X108928050Y-87213342D01*
X108985646Y-87100304D01*
X109000500Y-87006519D01*
X109000499Y-85243482D01*
X108985646Y-85149696D01*
X108928050Y-85036658D01*
X108838342Y-84946950D01*
X108814517Y-84934810D01*
X108757202Y-84883203D01*
X108733368Y-84809850D01*
X108749404Y-84734407D01*
X108776802Y-84696696D01*
X110034725Y-83438773D01*
X110101518Y-83400211D01*
X110116756Y-83396972D01*
X110281118Y-83370940D01*
X110460832Y-83312547D01*
X110467340Y-83309231D01*
X111815031Y-83309231D01*
X111818645Y-83311856D01*
X112000967Y-83404753D01*
X112000979Y-83404758D01*
X112195583Y-83467989D01*
X112397693Y-83500000D01*
X112602307Y-83500000D01*
X112804416Y-83467989D01*
X112999020Y-83404758D01*
X112999038Y-83404751D01*
X113181344Y-83311862D01*
X113181354Y-83311856D01*
X113184966Y-83309231D01*
X113184966Y-83309230D01*
X112500000Y-82624264D01*
X111815031Y-83309231D01*
X110467340Y-83309231D01*
X110629199Y-83226760D01*
X110782073Y-83115690D01*
X110915690Y-82982073D01*
X111026760Y-82829199D01*
X111061404Y-82761205D01*
X111113012Y-82703888D01*
X111186365Y-82680054D01*
X111261808Y-82696090D01*
X111319126Y-82747698D01*
X111326924Y-82761205D01*
X111388141Y-82881352D01*
X111390767Y-82884966D01*
X111390768Y-82884966D01*
X112100000Y-82175734D01*
X112100000Y-82252661D01*
X112127259Y-82354394D01*
X112179920Y-82445606D01*
X112254394Y-82520080D01*
X112345606Y-82572741D01*
X112447339Y-82600000D01*
X112552661Y-82600000D01*
X112654394Y-82572741D01*
X112745606Y-82520080D01*
X112820080Y-82445606D01*
X112872741Y-82354394D01*
X112900000Y-82252661D01*
X112900000Y-82175736D01*
X113609230Y-82884966D01*
X113609231Y-82884966D01*
X113611856Y-82881354D01*
X113611862Y-82881344D01*
X113704751Y-82699038D01*
X113704758Y-82699020D01*
X113767989Y-82504416D01*
X113800000Y-82302307D01*
X113800000Y-82097692D01*
X113767989Y-81895583D01*
X113704758Y-81700979D01*
X113704753Y-81700967D01*
X113611856Y-81518645D01*
X113522032Y-81395015D01*
X113494391Y-81323010D01*
X113506456Y-81246831D01*
X113554994Y-81186891D01*
X113613507Y-81161297D01*
X113628343Y-81158346D01*
X113714066Y-81141295D01*
X113812552Y-81100500D01*
X113877947Y-81073413D01*
X113945839Y-81028049D01*
X113988564Y-80999501D01*
X113988565Y-80999500D01*
X113995262Y-80995025D01*
X114025436Y-80974864D01*
X115199463Y-79800836D01*
X115215039Y-79777525D01*
X115215041Y-79777521D01*
X115215043Y-79777520D01*
X115287732Y-79668733D01*
X115345719Y-79617878D01*
X115421365Y-79602831D01*
X115458490Y-79610075D01*
X115547305Y-79639506D01*
X115547311Y-79639507D01*
X115650015Y-79649999D01*
X116900000Y-79649999D01*
X117500000Y-79649999D01*
X118749974Y-79649999D01*
X118852696Y-79639505D01*
X119019121Y-79584357D01*
X119168340Y-79492319D01*
X119292319Y-79368340D01*
X119384357Y-79219121D01*
X119439505Y-79052697D01*
X119439507Y-79052688D01*
X119449999Y-78949989D01*
X119450000Y-78949979D01*
X119450000Y-78300000D01*
X117500000Y-78300000D01*
X117500000Y-79649999D01*
X116900000Y-79649999D01*
X116900000Y-77700000D01*
X117500000Y-77700000D01*
X119449999Y-77700000D01*
X119449999Y-77050026D01*
X119439505Y-76947303D01*
X119384357Y-76780878D01*
X119292319Y-76631659D01*
X119168340Y-76507680D01*
X119019121Y-76415642D01*
X118852697Y-76360494D01*
X118852688Y-76360492D01*
X118749989Y-76350000D01*
X117500000Y-76350000D01*
X117500000Y-77700000D01*
X116900000Y-77700000D01*
X116900000Y-76350000D01*
X116521416Y-76350000D01*
X116446916Y-76330038D01*
X116392378Y-76275500D01*
X116372416Y-76201000D01*
X116392378Y-76126500D01*
X116416051Y-76095648D01*
X118857818Y-73653880D01*
X118924611Y-73615318D01*
X119001739Y-73615318D01*
X119068534Y-73653882D01*
X119091426Y-73683395D01*
X119131914Y-73751858D01*
X119131917Y-73751862D01*
X119131919Y-73751865D01*
X119248135Y-73868081D01*
X119389601Y-73951744D01*
X119547427Y-73997597D01*
X119547426Y-73997597D01*
X119547430Y-73997598D01*
X119584305Y-74000500D01*
X121415694Y-74000499D01*
X121452570Y-73997598D01*
X121610399Y-73951744D01*
X121751865Y-73868081D01*
X121868081Y-73751865D01*
X121951744Y-73610399D01*
X121997598Y-73452570D01*
X122000500Y-73415695D01*
X122000499Y-71584306D01*
X121997598Y-71547430D01*
X121951744Y-71389601D01*
X121868081Y-71248135D01*
X121751865Y-71131919D01*
X121751862Y-71131917D01*
X121751861Y-71131916D01*
X121610399Y-71048256D01*
X121452572Y-71002402D01*
X121452573Y-71002402D01*
X121442513Y-71001610D01*
X121415695Y-70999500D01*
X121415687Y-70999500D01*
X119584317Y-70999500D01*
X119584299Y-70999501D01*
X119547434Y-71002401D01*
X119547430Y-71002402D01*
X119389600Y-71048256D01*
X119248138Y-71131916D01*
X119131916Y-71248138D01*
X119048256Y-71389600D01*
X119018486Y-71492070D01*
X118978531Y-71558043D01*
X118910943Y-71595199D01*
X118875402Y-71599500D01*
X118649508Y-71599500D01*
X118475536Y-71634104D01*
X118475530Y-71634106D01*
X118393592Y-71668045D01*
X118393593Y-71668046D01*
X118311656Y-71701985D01*
X118223240Y-71761063D01*
X118223239Y-71761064D01*
X118164165Y-71800535D01*
X118164163Y-71800536D01*
X113800536Y-76164163D01*
X113800535Y-76164165D01*
X113769482Y-76210641D01*
X113761064Y-76223239D01*
X113761063Y-76223240D01*
X113701985Y-76311656D01*
X113668858Y-76391632D01*
X113621905Y-76452822D01*
X113550648Y-76482337D01*
X113489630Y-76477696D01*
X113467302Y-76471209D01*
X113402571Y-76452402D01*
X113402572Y-76452402D01*
X113391506Y-76451531D01*
X113365694Y-76449500D01*
X113365687Y-76449500D01*
X111584718Y-76449500D01*
X111510218Y-76429538D01*
X111479359Y-76405859D01*
X111284141Y-76210641D01*
X111245577Y-76143846D01*
X111240500Y-76105282D01*
X111240500Y-73776387D01*
X111260462Y-73701887D01*
X111301921Y-73655842D01*
X111317510Y-73644517D01*
X111484517Y-73477510D01*
X111623343Y-73286433D01*
X111730568Y-73075992D01*
X111803553Y-72851368D01*
X111840500Y-72618092D01*
X111840500Y-72381908D01*
X111803553Y-72148632D01*
X111730568Y-71924008D01*
X111623343Y-71713567D01*
X111484517Y-71522490D01*
X111317510Y-71355483D01*
X111126433Y-71216657D01*
X110981854Y-71142990D01*
X110924538Y-71091382D01*
X110900704Y-71018029D01*
X110900500Y-71010231D01*
X110900500Y-66641825D01*
X110920462Y-66567325D01*
X110944141Y-66536466D01*
X110995341Y-66485266D01*
X111068242Y-66412365D01*
X111197815Y-66234022D01*
X111297895Y-66037606D01*
X111339825Y-65908556D01*
X111366014Y-65827956D01*
X111366015Y-65827951D01*
X111400500Y-65610222D01*
X111400500Y-65389778D01*
X113599500Y-65389778D01*
X113599500Y-65610222D01*
X113614826Y-65706990D01*
X113633985Y-65827956D01*
X113702105Y-66037606D01*
X113802185Y-66234023D01*
X113802186Y-66234024D01*
X113931758Y-66412365D01*
X114087635Y-66568242D01*
X114186749Y-66640252D01*
X114265975Y-66697813D01*
X114265976Y-66697814D01*
X114265978Y-66697815D01*
X114462394Y-66797895D01*
X114549512Y-66826201D01*
X114672043Y-66866014D01*
X114672048Y-66866014D01*
X114672049Y-66866015D01*
X114889778Y-66900500D01*
X114889782Y-66900500D01*
X115110218Y-66900500D01*
X115110222Y-66900500D01*
X115327951Y-66866015D01*
X115327952Y-66866014D01*
X115327956Y-66866014D01*
X115408556Y-66839825D01*
X115537606Y-66797895D01*
X115734022Y-66697815D01*
X115912365Y-66568242D01*
X116068242Y-66412365D01*
X116197815Y-66234022D01*
X116297895Y-66037606D01*
X116339825Y-65908556D01*
X116366014Y-65827956D01*
X116366015Y-65827951D01*
X116400500Y-65610222D01*
X116400500Y-65389778D01*
X116366015Y-65172049D01*
X116366014Y-65172048D01*
X116366014Y-65172043D01*
X116326201Y-65049512D01*
X116297895Y-64962394D01*
X116197815Y-64765978D01*
X116068242Y-64587635D01*
X115912365Y-64431758D01*
X115813239Y-64359739D01*
X115734024Y-64302186D01*
X115734023Y-64302185D01*
X115537606Y-64202105D01*
X115327956Y-64133985D01*
X115206990Y-64114826D01*
X115110222Y-64099500D01*
X114889778Y-64099500D01*
X114802686Y-64113294D01*
X114672043Y-64133985D01*
X114462393Y-64202105D01*
X114265976Y-64302185D01*
X114265975Y-64302186D01*
X114087636Y-64431757D01*
X114087633Y-64431759D01*
X113931759Y-64587633D01*
X113931757Y-64587636D01*
X113802186Y-64765975D01*
X113802185Y-64765976D01*
X113702105Y-64962393D01*
X113633985Y-65172043D01*
X113610995Y-65317201D01*
X113599500Y-65389778D01*
X111400500Y-65389778D01*
X111366015Y-65172049D01*
X111366014Y-65172048D01*
X111366014Y-65172043D01*
X111326201Y-65049512D01*
X111297895Y-64962394D01*
X111197815Y-64765978D01*
X111068242Y-64587635D01*
X110912365Y-64431758D01*
X110813239Y-64359739D01*
X110734024Y-64302186D01*
X110734023Y-64302185D01*
X110537606Y-64202105D01*
X110327956Y-64133985D01*
X110206990Y-64114826D01*
X110110222Y-64099500D01*
X109889778Y-64099500D01*
X109802686Y-64113294D01*
X109672043Y-64133985D01*
X109462393Y-64202105D01*
X109265976Y-64302185D01*
X109265975Y-64302186D01*
X109087636Y-64431757D01*
X109087633Y-64431759D01*
X108931759Y-64587633D01*
X108931757Y-64587636D01*
X108802186Y-64765975D01*
X108802185Y-64765976D01*
X108702105Y-64962393D01*
X108633985Y-65172043D01*
X108610995Y-65317201D01*
X108599500Y-65389778D01*
X108599500Y-65610222D01*
X108614826Y-65706990D01*
X108633985Y-65827956D01*
X108702105Y-66037606D01*
X108802185Y-66234023D01*
X108802186Y-66234024D01*
X108931757Y-66412363D01*
X108931759Y-66412366D01*
X109055859Y-66536466D01*
X109094423Y-66603261D01*
X109099500Y-66641825D01*
X109099500Y-71606185D01*
X109079538Y-71680685D01*
X109071045Y-71693763D01*
X109056657Y-71713565D01*
X108949435Y-71924002D01*
X108949432Y-71924008D01*
X108876447Y-72148632D01*
X108839500Y-72381908D01*
X108839500Y-72618092D01*
X108876447Y-72851368D01*
X108949432Y-73075992D01*
X109056657Y-73286433D01*
X109195483Y-73477510D01*
X109362490Y-73644517D01*
X109378078Y-73655842D01*
X109426617Y-73715780D01*
X109439500Y-73776387D01*
X109439500Y-76628692D01*
X109463148Y-76747584D01*
X109474105Y-76802666D01*
X109506229Y-76880220D01*
X109508046Y-76884606D01*
X109508046Y-76884607D01*
X109541984Y-76966543D01*
X109601061Y-77054956D01*
X109601062Y-77054958D01*
X109624389Y-77089869D01*
X109649181Y-77162903D01*
X109649500Y-77172649D01*
X109649500Y-78965694D01*
X109649720Y-78968485D01*
X109652402Y-79002571D01*
X109679046Y-79094279D01*
X109697947Y-79159336D01*
X109698257Y-79160400D01*
X109713975Y-79186977D01*
X109781919Y-79301865D01*
X109898135Y-79418081D01*
X110039602Y-79501744D01*
X110197428Y-79547597D01*
X110197427Y-79547597D01*
X110197431Y-79547598D01*
X110234306Y-79550500D01*
X111016283Y-79550500D01*
X111090783Y-79570462D01*
X111145321Y-79625000D01*
X111165283Y-79699500D01*
X111145321Y-79774000D01*
X111121642Y-79804859D01*
X109965275Y-80961224D01*
X109898480Y-80999788D01*
X109883225Y-81003031D01*
X109718881Y-81029060D01*
X109582378Y-81073413D01*
X109539168Y-81087453D01*
X109539163Y-81087455D01*
X109539157Y-81087458D01*
X109370804Y-81173238D01*
X109370799Y-81173241D01*
X109217936Y-81284303D01*
X109217925Y-81284312D01*
X109084312Y-81417925D01*
X109084303Y-81417936D01*
X108973241Y-81570799D01*
X108973238Y-81570804D01*
X108887458Y-81739157D01*
X108887451Y-81739174D01*
X108829060Y-81918881D01*
X108803031Y-82083225D01*
X108771660Y-82153685D01*
X108761224Y-82165275D01*
X107050537Y-83875962D01*
X107050536Y-83875964D01*
X107034996Y-83899223D01*
X107034995Y-83899224D01*
X107034994Y-83899225D01*
X106951985Y-84023456D01*
X106918046Y-84105393D01*
X106884106Y-84187330D01*
X106884104Y-84187336D01*
X106849500Y-84361307D01*
X106849500Y-84759932D01*
X106829538Y-84834432D01*
X106775000Y-84888970D01*
X106768145Y-84892692D01*
X106661657Y-84946950D01*
X106571950Y-85036657D01*
X106514354Y-85149694D01*
X106510952Y-85171174D01*
X106499500Y-85243481D01*
X92700500Y-85243481D01*
X92700500Y-59677635D01*
X92700499Y-59677626D01*
X92675501Y-59551956D01*
X92675500Y-59551954D01*
X92626468Y-59433579D01*
X92626464Y-59433571D01*
X92621826Y-59426630D01*
X92621826Y-59426629D01*
X92555281Y-59327036D01*
X92555275Y-59327029D01*
X88857509Y-55629263D01*
X88818945Y-55562468D01*
X88818945Y-55485340D01*
X88857509Y-55418545D01*
X88870234Y-55407679D01*
X88870193Y-55407631D01*
X88874637Y-55403834D01*
X88874646Y-55403828D01*
X89013828Y-55264646D01*
X89129524Y-55105405D01*
X89218884Y-54930025D01*
X89279709Y-54742826D01*
X89310500Y-54548417D01*
X89310500Y-54511906D01*
X118456400Y-54511906D01*
X118456400Y-54649893D01*
X118483319Y-54785225D01*
X118483320Y-54785229D01*
X118536124Y-54912709D01*
X118536127Y-54912715D01*
X118595075Y-55000936D01*
X118612786Y-55027442D01*
X118710358Y-55125014D01*
X118710361Y-55125016D01*
X118825084Y-55201672D01*
X118825086Y-55201673D01*
X118825089Y-55201675D01*
X118952572Y-55254480D01*
X119032301Y-55270339D01*
X119101475Y-55304452D01*
X119108592Y-55311117D01*
X122353359Y-58555884D01*
X122391923Y-58622679D01*
X122397000Y-58661243D01*
X122397000Y-111023326D01*
X122397000Y-111168274D01*
X122434516Y-111308285D01*
X122434517Y-111308286D01*
X122506990Y-111433815D01*
X130379644Y-119306469D01*
X130418208Y-119373264D01*
X130418208Y-119450392D01*
X130379644Y-119517187D01*
X130361866Y-119532371D01*
X130312784Y-119568030D01*
X130168035Y-119712779D01*
X130168028Y-119712787D01*
X130047714Y-119878387D01*
X129954782Y-120060775D01*
X129954778Y-120060787D01*
X129952108Y-120069006D01*
X129891523Y-120255466D01*
X129859500Y-120457648D01*
X129859500Y-122462352D01*
X129891523Y-122664534D01*
X129954778Y-122859212D01*
X129954782Y-122859224D01*
X130047714Y-123041612D01*
X130168028Y-123207212D01*
X130168035Y-123207220D01*
X130312779Y-123351964D01*
X130312787Y-123351971D01*
X130478387Y-123472285D01*
X130478390Y-123472287D01*
X130660781Y-123565220D01*
X130855466Y-123628477D01*
X131057648Y-123660500D01*
X131057653Y-123660500D01*
X131262347Y-123660500D01*
X131262352Y-123660500D01*
X131464534Y-123628477D01*
X131659219Y-123565220D01*
X131841610Y-123472287D01*
X132007219Y-123351966D01*
X132151966Y-123207219D01*
X132272287Y-123041610D01*
X132365220Y-122859219D01*
X132428477Y-122664534D01*
X132460500Y-122462352D01*
X132460500Y-120457648D01*
X132428477Y-120255466D01*
X132365220Y-120060781D01*
X132272287Y-119878390D01*
X132220731Y-119807428D01*
X132151971Y-119712787D01*
X132151964Y-119712779D01*
X132007220Y-119568035D01*
X132007212Y-119568028D01*
X131841609Y-119447712D01*
X131791854Y-119422360D01*
X131734537Y-119370751D01*
X131710704Y-119297397D01*
X131710500Y-119289601D01*
X131710500Y-119235825D01*
X131672984Y-119095815D01*
X131600510Y-118970285D01*
X123541641Y-110911416D01*
X123503077Y-110844621D01*
X123498000Y-110806057D01*
X123498000Y-77184306D01*
X124599500Y-77184306D01*
X124599500Y-78815694D01*
X124601757Y-78844374D01*
X124602402Y-78852571D01*
X124629046Y-78944279D01*
X124648256Y-79010398D01*
X124731919Y-79151865D01*
X124848135Y-79268081D01*
X124989602Y-79351744D01*
X125147428Y-79397597D01*
X125147427Y-79397597D01*
X125147431Y-79397598D01*
X125184306Y-79400500D01*
X125184313Y-79400500D01*
X126815687Y-79400500D01*
X126815694Y-79400500D01*
X126852569Y-79397598D01*
X127010398Y-79351744D01*
X127151865Y-79268081D01*
X127268081Y-79151865D01*
X127281463Y-79129237D01*
X127287058Y-79119778D01*
X127320607Y-79063046D01*
X127351744Y-79010398D01*
X127397598Y-78852569D01*
X127400500Y-78815694D01*
X127400500Y-77881950D01*
X129500000Y-77881950D01*
X129500000Y-78118049D01*
X129536934Y-78351250D01*
X129609894Y-78575793D01*
X129609901Y-78575810D01*
X129717083Y-78786167D01*
X129717086Y-78786173D01*
X129747584Y-78828149D01*
X129747585Y-78828150D01*
X130502093Y-78073640D01*
X130534075Y-78192993D01*
X130599901Y-78307007D01*
X130692993Y-78400099D01*
X130807007Y-78465925D01*
X130926358Y-78497905D01*
X130171849Y-79252414D01*
X130213825Y-79282912D01*
X130213832Y-79282916D01*
X130424189Y-79390098D01*
X130424206Y-79390105D01*
X130648749Y-79463065D01*
X130881951Y-79500000D01*
X131118049Y-79500000D01*
X131351250Y-79463065D01*
X131575793Y-79390105D01*
X131575810Y-79390098D01*
X131786166Y-79282917D01*
X131828149Y-79252413D01*
X131073641Y-78497905D01*
X131192993Y-78465925D01*
X131307007Y-78400099D01*
X131400099Y-78307007D01*
X131465925Y-78192993D01*
X131497905Y-78073641D01*
X132252413Y-78828149D01*
X132282917Y-78786166D01*
X132390098Y-78575810D01*
X132390105Y-78575793D01*
X132463065Y-78351250D01*
X132500000Y-78118049D01*
X132500000Y-77881950D01*
X132463065Y-77648749D01*
X132390105Y-77424206D01*
X132390098Y-77424189D01*
X132282916Y-77213832D01*
X132282912Y-77213825D01*
X132252414Y-77171849D01*
X131497905Y-77926357D01*
X131465925Y-77807007D01*
X131400099Y-77692993D01*
X131307007Y-77599901D01*
X131192993Y-77534075D01*
X131073640Y-77502093D01*
X131828150Y-76747585D01*
X131828149Y-76747584D01*
X131786173Y-76717086D01*
X131786167Y-76717083D01*
X131575810Y-76609901D01*
X131575793Y-76609894D01*
X131351250Y-76536934D01*
X131118049Y-76500000D01*
X130881951Y-76500000D01*
X130648749Y-76536934D01*
X130424206Y-76609894D01*
X130424194Y-76609898D01*
X130213828Y-76717086D01*
X130213827Y-76717086D01*
X130171849Y-76747585D01*
X130926358Y-77502094D01*
X130807007Y-77534075D01*
X130692993Y-77599901D01*
X130599901Y-77692993D01*
X130534075Y-77807007D01*
X130502094Y-77926358D01*
X129747585Y-77171849D01*
X129717086Y-77213827D01*
X129717086Y-77213828D01*
X129609898Y-77424194D01*
X129609894Y-77424206D01*
X129536934Y-77648749D01*
X129500000Y-77881950D01*
X127400500Y-77881950D01*
X127400500Y-77184306D01*
X127397598Y-77147431D01*
X127351744Y-76989602D01*
X127268081Y-76848135D01*
X127151865Y-76731919D01*
X127010398Y-76648256D01*
X126943059Y-76628692D01*
X126852571Y-76602402D01*
X126852572Y-76602402D01*
X126841506Y-76601531D01*
X126815694Y-76599500D01*
X125184306Y-76599500D01*
X125159722Y-76601434D01*
X125147428Y-76602402D01*
X124989599Y-76648257D01*
X124848136Y-76731918D01*
X124848133Y-76731920D01*
X124731920Y-76848133D01*
X124731918Y-76848136D01*
X124648257Y-76989599D01*
X124602402Y-77147428D01*
X124602402Y-77147431D01*
X124599500Y-77184306D01*
X123498000Y-77184306D01*
X123498000Y-66614304D01*
X123517962Y-66539804D01*
X123572500Y-66485266D01*
X123647000Y-66465304D01*
X123721500Y-66485266D01*
X123762791Y-66520531D01*
X123859743Y-66640257D01*
X123898503Y-66671644D01*
X124006844Y-66759378D01*
X124006848Y-66759381D01*
X124006851Y-66759383D01*
X124175512Y-66845320D01*
X124358355Y-66894312D01*
X124436979Y-66900500D01*
X125563020Y-66900499D01*
X125641645Y-66894312D01*
X125824488Y-66845320D01*
X125993149Y-66759383D01*
X126140257Y-66640257D01*
X126259383Y-66493149D01*
X126345320Y-66324488D01*
X126394312Y-66141645D01*
X126400500Y-66063021D01*
X126400499Y-64936980D01*
X126394312Y-64858355D01*
X126345320Y-64675512D01*
X126259383Y-64506851D01*
X126259381Y-64506848D01*
X126259378Y-64506844D01*
X126171644Y-64398503D01*
X126140257Y-64359743D01*
X126132322Y-64353317D01*
X125993155Y-64240621D01*
X125993146Y-64240615D01*
X125824488Y-64154680D01*
X125824486Y-64154679D01*
X125641644Y-64105687D01*
X125592438Y-64101815D01*
X125563021Y-64099500D01*
X125563014Y-64099500D01*
X124436989Y-64099500D01*
X124436982Y-64099500D01*
X124436980Y-64099501D01*
X124424608Y-64100474D01*
X124358357Y-64105687D01*
X124358353Y-64105688D01*
X124175513Y-64154679D01*
X124175511Y-64154680D01*
X124006853Y-64240615D01*
X124006844Y-64240621D01*
X123859747Y-64359739D01*
X123859739Y-64359747D01*
X123762794Y-64479464D01*
X123700396Y-64524799D01*
X123623691Y-64532860D01*
X123553231Y-64501489D01*
X123507896Y-64439091D01*
X123498000Y-64385695D01*
X123498000Y-60226606D01*
X127297700Y-60226606D01*
X127297700Y-60364593D01*
X127324619Y-60499925D01*
X127324620Y-60499929D01*
X127377424Y-60627409D01*
X127377427Y-60627415D01*
X127452988Y-60740499D01*
X127454086Y-60742142D01*
X127551658Y-60839714D01*
X127551661Y-60839716D01*
X127666384Y-60916372D01*
X127666386Y-60916373D01*
X127666389Y-60916375D01*
X127793872Y-60969180D01*
X127873601Y-60985039D01*
X127942775Y-61019152D01*
X127949892Y-61025817D01*
X130778659Y-63854584D01*
X130817223Y-63921379D01*
X130817223Y-63998507D01*
X130778659Y-64065302D01*
X130711864Y-64103866D01*
X130648070Y-64106791D01*
X130641654Y-64105688D01*
X130597419Y-64102207D01*
X130563021Y-64099500D01*
X130563014Y-64099500D01*
X129436989Y-64099500D01*
X129436982Y-64099500D01*
X129436980Y-64099501D01*
X129424608Y-64100474D01*
X129358357Y-64105687D01*
X129358353Y-64105688D01*
X129175513Y-64154679D01*
X129175511Y-64154680D01*
X129006853Y-64240615D01*
X129006844Y-64240621D01*
X128859747Y-64359739D01*
X128859739Y-64359747D01*
X128740621Y-64506844D01*
X128740615Y-64506853D01*
X128654680Y-64675511D01*
X128654679Y-64675513D01*
X128605687Y-64858355D01*
X128599500Y-64936985D01*
X128599500Y-66063010D01*
X128599501Y-66063017D01*
X128605687Y-66141642D01*
X128605688Y-66141646D01*
X128654679Y-66324486D01*
X128654680Y-66324488D01*
X128740615Y-66493146D01*
X128740621Y-66493155D01*
X128829784Y-66603261D01*
X128859743Y-66640257D01*
X128898503Y-66671644D01*
X129006844Y-66759378D01*
X129006848Y-66759381D01*
X129006851Y-66759383D01*
X129175512Y-66845320D01*
X129358355Y-66894312D01*
X129436979Y-66900500D01*
X130563020Y-66900499D01*
X130641645Y-66894312D01*
X130824488Y-66845320D01*
X130993149Y-66759383D01*
X131140257Y-66640257D01*
X131259383Y-66493149D01*
X131345320Y-66324488D01*
X131394312Y-66141645D01*
X131400500Y-66063021D01*
X131400499Y-64936980D01*
X131394312Y-64858355D01*
X131394311Y-64858352D01*
X131394311Y-64858349D01*
X131393209Y-64851934D01*
X131400265Y-64775130D01*
X131444778Y-64712143D01*
X131514821Y-64679852D01*
X131591625Y-64686908D01*
X131645415Y-64721340D01*
X135645859Y-68721784D01*
X135684423Y-68788579D01*
X135689500Y-68827143D01*
X135689500Y-119289601D01*
X135669538Y-119364101D01*
X135615000Y-119418639D01*
X135608146Y-119422360D01*
X135558390Y-119447712D01*
X135392787Y-119568028D01*
X135392779Y-119568035D01*
X135248035Y-119712779D01*
X135248028Y-119712787D01*
X135127714Y-119878387D01*
X135034782Y-120060775D01*
X135034778Y-120060787D01*
X135032108Y-120069006D01*
X134971523Y-120255466D01*
X134939500Y-120457648D01*
X134939500Y-122462352D01*
X134971523Y-122664534D01*
X135034778Y-122859212D01*
X135034782Y-122859224D01*
X135127714Y-123041612D01*
X135248028Y-123207212D01*
X135248035Y-123207220D01*
X135392779Y-123351964D01*
X135392787Y-123351971D01*
X135558387Y-123472285D01*
X135558390Y-123472287D01*
X135740781Y-123565220D01*
X135935466Y-123628477D01*
X136137648Y-123660500D01*
X136137653Y-123660500D01*
X136342347Y-123660500D01*
X136342352Y-123660500D01*
X136544534Y-123628477D01*
X136739219Y-123565220D01*
X136921610Y-123472287D01*
X137087219Y-123351966D01*
X137231966Y-123207219D01*
X137352287Y-123041610D01*
X137445220Y-122859219D01*
X137508477Y-122664534D01*
X137540500Y-122462352D01*
X137540500Y-120457648D01*
X137508477Y-120255466D01*
X137445220Y-120060781D01*
X137352287Y-119878390D01*
X137300731Y-119807428D01*
X137231971Y-119712787D01*
X137231964Y-119712779D01*
X137087220Y-119568035D01*
X137087212Y-119568028D01*
X136921609Y-119447712D01*
X136871854Y-119422360D01*
X136814537Y-119370751D01*
X136790704Y-119297397D01*
X136790500Y-119289601D01*
X136790500Y-103575000D01*
X145930688Y-103575000D01*
X146845856Y-103575000D01*
X146784075Y-103682007D01*
X146750000Y-103809174D01*
X146750000Y-103940826D01*
X146784075Y-104067993D01*
X146845856Y-104175000D01*
X145930688Y-104175000D01*
X145933242Y-104191130D01*
X145998906Y-104393222D01*
X146095378Y-104582555D01*
X146095378Y-104582556D01*
X146220277Y-104754464D01*
X146220279Y-104754467D01*
X146370532Y-104904720D01*
X146370535Y-104904722D01*
X146542444Y-105029621D01*
X146731777Y-105126093D01*
X146933869Y-105191756D01*
X146933869Y-105191757D01*
X146950000Y-105194311D01*
X146950000Y-104279144D01*
X147057007Y-104340925D01*
X147184174Y-104375000D01*
X147315826Y-104375000D01*
X147442993Y-104340925D01*
X147550000Y-104279144D01*
X147550000Y-105194311D01*
X147566130Y-105191757D01*
X147566130Y-105191756D01*
X147768222Y-105126093D01*
X147957555Y-105029621D01*
X147957556Y-105029621D01*
X148129464Y-104904722D01*
X148129467Y-104904720D01*
X148279720Y-104754467D01*
X148279722Y-104754464D01*
X148404621Y-104582556D01*
X148404621Y-104582555D01*
X148501093Y-104393222D01*
X148566756Y-104191130D01*
X148566757Y-104191130D01*
X148569312Y-104175000D01*
X147654144Y-104175000D01*
X147715925Y-104067993D01*
X147750000Y-103940826D01*
X147750000Y-103809174D01*
X147715925Y-103682007D01*
X147654144Y-103575000D01*
X148569311Y-103575000D01*
X148566757Y-103558869D01*
X148501093Y-103356777D01*
X148404621Y-103167444D01*
X148404621Y-103167443D01*
X148279722Y-102995535D01*
X148279720Y-102995532D01*
X148129467Y-102845279D01*
X148129464Y-102845277D01*
X147957555Y-102720378D01*
X147768222Y-102623906D01*
X147566123Y-102558240D01*
X147550001Y-102555686D01*
X147550000Y-102555687D01*
X147550000Y-103470855D01*
X147442993Y-103409075D01*
X147315826Y-103375000D01*
X147184174Y-103375000D01*
X147057007Y-103409075D01*
X146950000Y-103470855D01*
X146950000Y-102555687D01*
X146949998Y-102555686D01*
X146933877Y-102558240D01*
X146933876Y-102558240D01*
X146731777Y-102623906D01*
X146542444Y-102720378D01*
X146542443Y-102720378D01*
X146370535Y-102845277D01*
X146370532Y-102845279D01*
X146220279Y-102995532D01*
X146220277Y-102995535D01*
X146095378Y-103167443D01*
X146095378Y-103167444D01*
X145998906Y-103356777D01*
X145933243Y-103558869D01*
X145933242Y-103558869D01*
X145930688Y-103575000D01*
X136790500Y-103575000D01*
X136790500Y-86026583D01*
X145999500Y-86026583D01*
X145999500Y-86223417D01*
X146030291Y-86417826D01*
X146091116Y-86605025D01*
X146091119Y-86605030D01*
X146091121Y-86605036D01*
X146175179Y-86770010D01*
X146180476Y-86780405D01*
X146296172Y-86939646D01*
X146435354Y-87078828D01*
X146594595Y-87194524D01*
X146769975Y-87283884D01*
X146957174Y-87344709D01*
X147151583Y-87375500D01*
X147151588Y-87375500D01*
X147348412Y-87375500D01*
X147348417Y-87375500D01*
X147542826Y-87344709D01*
X147730025Y-87283884D01*
X147905405Y-87194524D01*
X148064646Y-87078828D01*
X148203828Y-86939646D01*
X148319524Y-86780405D01*
X148408884Y-86605025D01*
X148469709Y-86417826D01*
X148500500Y-86223417D01*
X148500500Y-86026583D01*
X148469709Y-85832174D01*
X148408884Y-85644975D01*
X148319524Y-85469595D01*
X148203828Y-85310354D01*
X148064646Y-85171172D01*
X147905405Y-85055476D01*
X147895010Y-85050179D01*
X147730036Y-84966121D01*
X147730030Y-84966119D01*
X147730025Y-84966116D01*
X147542826Y-84905291D01*
X147348417Y-84874500D01*
X147151583Y-84874500D01*
X146957174Y-84905291D01*
X146828962Y-84946950D01*
X146769975Y-84966116D01*
X146769972Y-84966117D01*
X146769963Y-84966121D01*
X146594598Y-85055474D01*
X146594593Y-85055477D01*
X146435363Y-85171165D01*
X146435352Y-85171174D01*
X146296174Y-85310352D01*
X146296165Y-85310363D01*
X146180477Y-85469593D01*
X146180474Y-85469598D01*
X146091121Y-85644963D01*
X146091117Y-85644972D01*
X146091116Y-85644975D01*
X146030291Y-85832174D01*
X145999500Y-86026583D01*
X136790500Y-86026583D01*
X136790500Y-68464925D01*
X136752984Y-68324915D01*
X136680510Y-68199385D01*
X128728417Y-60247292D01*
X128689853Y-60180497D01*
X128687639Y-60171001D01*
X128671780Y-60091274D01*
X128671779Y-60091270D01*
X128664155Y-60072864D01*
X128618975Y-59963789D01*
X128542314Y-59849058D01*
X128444742Y-59751486D01*
X128444738Y-59751483D01*
X128330015Y-59674827D01*
X128330009Y-59674824D01*
X128202529Y-59622020D01*
X128202525Y-59622019D01*
X128067193Y-59595100D01*
X127929207Y-59595100D01*
X127793874Y-59622019D01*
X127793870Y-59622020D01*
X127666390Y-59674824D01*
X127666384Y-59674827D01*
X127551661Y-59751483D01*
X127551654Y-59751489D01*
X127454089Y-59849054D01*
X127454083Y-59849061D01*
X127377427Y-59963784D01*
X127377424Y-59963790D01*
X127324620Y-60091270D01*
X127324619Y-60091274D01*
X127297700Y-60226606D01*
X123498000Y-60226606D01*
X123498000Y-58299025D01*
X123460484Y-58159015D01*
X123388010Y-58033485D01*
X122884347Y-57529822D01*
X133520000Y-57529822D01*
X133520000Y-58240000D01*
X134400385Y-58240000D01*
X134360889Y-58308409D01*
X134320000Y-58461009D01*
X134320000Y-58618991D01*
X134360889Y-58771591D01*
X134400385Y-58840000D01*
X133520000Y-58840000D01*
X133520000Y-59550177D01*
X133554474Y-59767840D01*
X133622567Y-59977406D01*
X133622571Y-59977418D01*
X133722614Y-60173761D01*
X133852137Y-60352035D01*
X134007964Y-60507862D01*
X134186238Y-60637385D01*
X134382581Y-60737428D01*
X134382593Y-60737432D01*
X134592156Y-60805524D01*
X134592167Y-60805527D01*
X134620000Y-60809934D01*
X134620000Y-59059614D01*
X134688409Y-59099111D01*
X134841009Y-59140000D01*
X134998991Y-59140000D01*
X135151591Y-59099111D01*
X135220000Y-59059614D01*
X135220000Y-60809933D01*
X135247832Y-60805527D01*
X135247843Y-60805524D01*
X135457406Y-60737432D01*
X135457418Y-60737428D01*
X135653761Y-60637385D01*
X135832035Y-60507862D01*
X135987862Y-60352035D01*
X136117385Y-60173761D01*
X136217428Y-59977418D01*
X136217432Y-59977406D01*
X136285525Y-59767840D01*
X136320000Y-59550177D01*
X136320000Y-58840000D01*
X135439615Y-58840000D01*
X135479111Y-58771591D01*
X135520000Y-58618991D01*
X135520000Y-58461009D01*
X135479111Y-58308409D01*
X135439615Y-58240000D01*
X136320000Y-58240000D01*
X136320000Y-57529822D01*
X136285525Y-57312159D01*
X136217432Y-57102593D01*
X136217428Y-57102581D01*
X136159568Y-56989025D01*
X136126591Y-56924306D01*
X138699500Y-56924306D01*
X138699500Y-60155694D01*
X138700705Y-60171001D01*
X138702402Y-60192571D01*
X138729046Y-60284279D01*
X138748256Y-60350398D01*
X138831919Y-60491865D01*
X138948135Y-60608081D01*
X139089602Y-60691744D01*
X139247428Y-60737597D01*
X139247427Y-60737597D01*
X139247431Y-60737598D01*
X139284306Y-60740500D01*
X139284313Y-60740500D01*
X140715687Y-60740500D01*
X140715694Y-60740500D01*
X140752569Y-60737598D01*
X140910398Y-60691744D01*
X141051865Y-60608081D01*
X141168081Y-60491865D01*
X141251744Y-60350398D01*
X141297598Y-60192569D01*
X141300500Y-60155694D01*
X141300500Y-56924306D01*
X141297598Y-56887431D01*
X141251744Y-56729602D01*
X141168081Y-56588135D01*
X141051865Y-56471919D01*
X140910398Y-56388256D01*
X140844279Y-56369046D01*
X140752571Y-56342402D01*
X140752572Y-56342402D01*
X140741506Y-56341531D01*
X140715694Y-56339500D01*
X139284306Y-56339500D01*
X139259722Y-56341434D01*
X139247428Y-56342402D01*
X139089599Y-56388257D01*
X138948136Y-56471918D01*
X138948133Y-56471920D01*
X138831920Y-56588133D01*
X138831918Y-56588136D01*
X138748257Y-56729599D01*
X138702402Y-56887428D01*
X138702402Y-56887431D01*
X138699500Y-56924306D01*
X136126591Y-56924306D01*
X136117385Y-56906238D01*
X135987862Y-56727964D01*
X135832035Y-56572137D01*
X135653761Y-56442614D01*
X135457418Y-56342571D01*
X135457403Y-56342565D01*
X135247846Y-56274476D01*
X135247826Y-56274472D01*
X135220000Y-56270064D01*
X135220000Y-58020385D01*
X135151591Y-57980889D01*
X134998991Y-57940000D01*
X134841009Y-57940000D01*
X134688409Y-57980889D01*
X134620000Y-58020385D01*
X134620000Y-56270064D01*
X134592173Y-56274472D01*
X134592153Y-56274476D01*
X134382596Y-56342565D01*
X134382581Y-56342571D01*
X134186238Y-56442614D01*
X134007964Y-56572137D01*
X133852137Y-56727964D01*
X133722614Y-56906238D01*
X133622571Y-57102581D01*
X133622567Y-57102593D01*
X133554474Y-57312159D01*
X133520000Y-57529822D01*
X122884347Y-57529822D01*
X119887117Y-54532592D01*
X119848553Y-54465797D01*
X119846339Y-54456301D01*
X119830480Y-54376574D01*
X119830479Y-54376570D01*
X119820129Y-54351583D01*
X119777675Y-54249089D01*
X119701014Y-54134358D01*
X119603442Y-54036786D01*
X119603438Y-54036783D01*
X119488715Y-53960127D01*
X119488709Y-53960124D01*
X119361229Y-53907320D01*
X119361225Y-53907319D01*
X119225893Y-53880400D01*
X119087907Y-53880400D01*
X118952574Y-53907319D01*
X118952570Y-53907320D01*
X118825090Y-53960124D01*
X118825084Y-53960127D01*
X118710361Y-54036783D01*
X118710354Y-54036789D01*
X118612789Y-54134354D01*
X118612783Y-54134361D01*
X118536127Y-54249084D01*
X118536124Y-54249090D01*
X118483320Y-54376570D01*
X118483319Y-54376574D01*
X118456400Y-54511906D01*
X89310500Y-54511906D01*
X89310500Y-54351583D01*
X89279709Y-54157174D01*
X89218884Y-53969975D01*
X89129524Y-53794595D01*
X89013828Y-53635354D01*
X88874646Y-53496172D01*
X88728569Y-53390040D01*
X88715401Y-53380473D01*
X88711933Y-53378706D01*
X144649500Y-53378706D01*
X144649500Y-53621293D01*
X144681160Y-53861781D01*
X144681161Y-53861787D01*
X144681162Y-53861789D01*
X144743946Y-54096100D01*
X144807316Y-54249090D01*
X144836778Y-54320216D01*
X144873704Y-54384174D01*
X144958064Y-54530289D01*
X145105735Y-54722738D01*
X145277262Y-54894265D01*
X145469711Y-55041936D01*
X145679788Y-55163224D01*
X145903900Y-55256054D01*
X146138211Y-55318838D01*
X146138217Y-55318838D01*
X146138218Y-55318839D01*
X146203600Y-55327446D01*
X146378712Y-55350500D01*
X146621288Y-55350500D01*
X146861789Y-55318838D01*
X147096100Y-55256054D01*
X147320212Y-55163224D01*
X147530289Y-55041936D01*
X147722738Y-54894265D01*
X147894265Y-54722738D01*
X148041936Y-54530289D01*
X148163224Y-54320212D01*
X148256054Y-54096100D01*
X148318838Y-53861789D01*
X148350500Y-53621288D01*
X148350500Y-53378712D01*
X148318838Y-53138211D01*
X148256054Y-52903900D01*
X148163224Y-52679788D01*
X148041936Y-52469711D01*
X147894265Y-52277262D01*
X147722738Y-52105735D01*
X147530289Y-51958064D01*
X147460263Y-51917634D01*
X147320216Y-51836778D01*
X147320214Y-51836777D01*
X147320212Y-51836776D01*
X147173939Y-51776188D01*
X147096103Y-51743947D01*
X147096101Y-51743946D01*
X147096100Y-51743946D01*
X146861789Y-51681162D01*
X146861787Y-51681161D01*
X146861781Y-51681160D01*
X146621293Y-51649500D01*
X146621288Y-51649500D01*
X146378712Y-51649500D01*
X146378706Y-51649500D01*
X146138218Y-51681160D01*
X145903896Y-51743947D01*
X145679783Y-51836778D01*
X145469712Y-51958063D01*
X145469711Y-51958064D01*
X145277262Y-52105735D01*
X145277260Y-52105736D01*
X145277256Y-52105740D01*
X145105740Y-52277256D01*
X144958063Y-52469712D01*
X144836778Y-52679783D01*
X144743947Y-52903896D01*
X144681160Y-53138218D01*
X144649500Y-53378706D01*
X88711933Y-53378706D01*
X88540036Y-53291121D01*
X88540030Y-53291119D01*
X88540025Y-53291116D01*
X88352826Y-53230291D01*
X88158417Y-53199500D01*
X87961583Y-53199500D01*
X87767174Y-53230291D01*
X87638962Y-53271950D01*
X87579975Y-53291116D01*
X87579972Y-53291117D01*
X87579963Y-53291121D01*
X87404598Y-53380474D01*
X87404593Y-53380477D01*
X87245363Y-53496165D01*
X87245352Y-53496174D01*
X87106174Y-53635352D01*
X87106165Y-53635363D01*
X86990477Y-53794593D01*
X86990476Y-53794594D01*
X86978594Y-53817914D01*
X86926984Y-53875231D01*
X86853630Y-53899063D01*
X86778188Y-53883026D01*
X86720871Y-53831416D01*
X86713075Y-53817912D01*
X86674624Y-53742448D01*
X86665025Y-53729237D01*
X86017905Y-54376357D01*
X85985925Y-54257007D01*
X85920099Y-54142993D01*
X85827007Y-54049901D01*
X85712993Y-53984075D01*
X85593640Y-53952093D01*
X86240761Y-53304972D01*
X86227554Y-53295377D01*
X86038220Y-53198906D01*
X85836128Y-53133242D01*
X85626242Y-53100000D01*
X85413758Y-53100000D01*
X85203871Y-53133242D01*
X85001779Y-53198906D01*
X84812443Y-53295378D01*
X84799237Y-53304972D01*
X85446358Y-53952094D01*
X85327007Y-53984075D01*
X85212993Y-54049901D01*
X85119901Y-54142993D01*
X85054075Y-54257007D01*
X85022094Y-54376358D01*
X84374972Y-53729237D01*
X84365378Y-53742444D01*
X84326923Y-53817914D01*
X84275313Y-53875230D01*
X84201960Y-53899063D01*
X84126517Y-53883026D01*
X84069201Y-53831416D01*
X84061411Y-53817926D01*
X84049524Y-53794595D01*
X83933828Y-53635354D01*
X83794646Y-53496172D01*
X83635405Y-53380476D01*
X83625010Y-53375179D01*
X83460036Y-53291121D01*
X83460030Y-53291119D01*
X83460025Y-53291116D01*
X83272826Y-53230291D01*
X83078417Y-53199500D01*
X82881583Y-53199500D01*
X82687174Y-53230291D01*
X82558962Y-53271950D01*
X82499975Y-53291116D01*
X82499972Y-53291117D01*
X82499963Y-53291121D01*
X82324598Y-53380474D01*
X82324593Y-53380477D01*
X82165363Y-53496165D01*
X82165352Y-53496174D01*
X82026174Y-53635352D01*
X82026165Y-53635363D01*
X81910477Y-53794593D01*
X81910474Y-53794598D01*
X81842760Y-53927495D01*
X81791151Y-53984813D01*
X81717798Y-54008647D01*
X81642356Y-53992611D01*
X81585038Y-53941002D01*
X81577240Y-53927495D01*
X81528285Y-53831416D01*
X81509524Y-53794595D01*
X81393828Y-53635354D01*
X81254646Y-53496172D01*
X81095405Y-53380476D01*
X81085010Y-53375179D01*
X80920036Y-53291121D01*
X80920030Y-53291119D01*
X80920025Y-53291116D01*
X80732826Y-53230291D01*
X80538417Y-53199500D01*
X80341583Y-53199500D01*
X80147174Y-53230291D01*
X80018962Y-53271950D01*
X79959975Y-53291116D01*
X79959972Y-53291117D01*
X79959963Y-53291121D01*
X79784598Y-53380474D01*
X79784593Y-53380477D01*
X79625363Y-53496165D01*
X79625352Y-53496174D01*
X79486174Y-53635352D01*
X79486165Y-53635363D01*
X79370477Y-53794593D01*
X79370474Y-53794598D01*
X79302760Y-53927495D01*
X79251151Y-53984813D01*
X79177798Y-54008647D01*
X79102356Y-53992611D01*
X79045038Y-53941002D01*
X79037240Y-53927495D01*
X78988285Y-53831416D01*
X78969524Y-53794595D01*
X78853828Y-53635354D01*
X78714646Y-53496172D01*
X78555405Y-53380476D01*
X78545010Y-53375179D01*
X78380036Y-53291121D01*
X78380030Y-53291119D01*
X78380025Y-53291116D01*
X78192826Y-53230291D01*
X77998417Y-53199500D01*
X77801583Y-53199500D01*
X77607174Y-53230291D01*
X77478962Y-53271950D01*
X77419975Y-53291116D01*
X77419972Y-53291117D01*
X77419963Y-53291121D01*
X77244598Y-53380474D01*
X77244593Y-53380477D01*
X77085363Y-53496165D01*
X77085352Y-53496174D01*
X76946174Y-53635352D01*
X76946165Y-53635363D01*
X76830477Y-53794593D01*
X76830474Y-53794598D01*
X76762760Y-53927495D01*
X76711151Y-53984813D01*
X76637798Y-54008647D01*
X76562356Y-53992611D01*
X76505038Y-53941002D01*
X76497240Y-53927495D01*
X76448285Y-53831416D01*
X76429524Y-53794595D01*
X76313828Y-53635354D01*
X76174646Y-53496172D01*
X76015405Y-53380476D01*
X76005010Y-53375179D01*
X75840036Y-53291121D01*
X75840030Y-53291119D01*
X75840025Y-53291116D01*
X75652826Y-53230291D01*
X75458417Y-53199500D01*
X75261583Y-53199500D01*
X75067174Y-53230291D01*
X74938962Y-53271950D01*
X74879975Y-53291116D01*
X74879972Y-53291117D01*
X74879963Y-53291121D01*
X74704598Y-53380474D01*
X74704593Y-53380477D01*
X74545363Y-53496165D01*
X74545352Y-53496174D01*
X74406174Y-53635352D01*
X74406165Y-53635363D01*
X74290477Y-53794593D01*
X74290474Y-53794598D01*
X74222760Y-53927495D01*
X74171151Y-53984813D01*
X74097798Y-54008647D01*
X74022356Y-53992611D01*
X73965038Y-53941002D01*
X73957240Y-53927495D01*
X73908285Y-53831416D01*
X73889524Y-53794595D01*
X73773828Y-53635354D01*
X73634646Y-53496172D01*
X73475405Y-53380476D01*
X73465010Y-53375179D01*
X73300036Y-53291121D01*
X73300030Y-53291119D01*
X73300025Y-53291116D01*
X73112826Y-53230291D01*
X72918417Y-53199500D01*
X72721583Y-53199500D01*
X72527174Y-53230291D01*
X72398962Y-53271950D01*
X72339975Y-53291116D01*
X72339972Y-53291117D01*
X72339963Y-53291121D01*
X72164598Y-53380474D01*
X72164593Y-53380477D01*
X72005363Y-53496165D01*
X72005352Y-53496174D01*
X71866174Y-53635352D01*
X71866165Y-53635363D01*
X71750477Y-53794593D01*
X71750474Y-53794598D01*
X71682760Y-53927495D01*
X71631151Y-53984813D01*
X71557798Y-54008647D01*
X71482356Y-53992611D01*
X71425038Y-53941002D01*
X71417240Y-53927495D01*
X71368285Y-53831416D01*
X71349524Y-53794595D01*
X71233828Y-53635354D01*
X71094646Y-53496172D01*
X70935405Y-53380476D01*
X70925010Y-53375179D01*
X70760036Y-53291121D01*
X70760030Y-53291119D01*
X70760025Y-53291116D01*
X70572826Y-53230291D01*
X70378417Y-53199500D01*
X70181583Y-53199500D01*
X69987174Y-53230291D01*
X69858962Y-53271950D01*
X69799975Y-53291116D01*
X69799972Y-53291117D01*
X69799963Y-53291121D01*
X69624598Y-53380474D01*
X69624593Y-53380477D01*
X69465363Y-53496165D01*
X69465352Y-53496174D01*
X69326174Y-53635352D01*
X69326165Y-53635363D01*
X69210477Y-53794593D01*
X69210474Y-53794598D01*
X69142760Y-53927495D01*
X69091151Y-53984813D01*
X69017798Y-54008647D01*
X68942356Y-53992611D01*
X68885038Y-53941002D01*
X68877240Y-53927495D01*
X68828285Y-53831416D01*
X68809524Y-53794595D01*
X68693828Y-53635354D01*
X68554646Y-53496172D01*
X68395405Y-53380476D01*
X68385010Y-53375179D01*
X68220036Y-53291121D01*
X68220030Y-53291119D01*
X68220025Y-53291116D01*
X68032826Y-53230291D01*
X67838417Y-53199500D01*
X67641583Y-53199500D01*
X67447174Y-53230291D01*
X67318962Y-53271950D01*
X67259975Y-53291116D01*
X67259972Y-53291117D01*
X67259963Y-53291121D01*
X67084598Y-53380474D01*
X67084593Y-53380477D01*
X66925363Y-53496165D01*
X66925352Y-53496174D01*
X66786174Y-53635352D01*
X66786165Y-53635363D01*
X66670477Y-53794593D01*
X66670474Y-53794598D01*
X66602760Y-53927495D01*
X66551151Y-53984813D01*
X66477798Y-54008647D01*
X66402356Y-53992611D01*
X66345038Y-53941002D01*
X66337240Y-53927495D01*
X66288285Y-53831416D01*
X66269524Y-53794595D01*
X66153828Y-53635354D01*
X66014646Y-53496172D01*
X65855405Y-53380476D01*
X65845010Y-53375179D01*
X65680036Y-53291121D01*
X65680030Y-53291119D01*
X65680025Y-53291116D01*
X65492826Y-53230291D01*
X65298417Y-53199500D01*
X65101583Y-53199500D01*
X64907174Y-53230291D01*
X64778962Y-53271950D01*
X64719975Y-53291116D01*
X64719972Y-53291117D01*
X64719963Y-53291121D01*
X64544598Y-53380474D01*
X64544593Y-53380477D01*
X64385363Y-53496165D01*
X64385352Y-53496174D01*
X64246174Y-53635352D01*
X64246165Y-53635363D01*
X64130477Y-53794593D01*
X64130474Y-53794598D01*
X64062760Y-53927495D01*
X64011151Y-53984813D01*
X63937798Y-54008647D01*
X63862356Y-53992611D01*
X63805038Y-53941002D01*
X63797240Y-53927495D01*
X63748285Y-53831416D01*
X63729524Y-53794595D01*
X63613828Y-53635354D01*
X63474646Y-53496172D01*
X63315405Y-53380476D01*
X63305010Y-53375179D01*
X63140036Y-53291121D01*
X63140030Y-53291119D01*
X63140025Y-53291116D01*
X62952826Y-53230291D01*
X62758417Y-53199500D01*
X62561583Y-53199500D01*
X62367174Y-53230291D01*
X62238962Y-53271950D01*
X62179975Y-53291116D01*
X62179972Y-53291117D01*
X62179963Y-53291121D01*
X62004598Y-53380474D01*
X62004593Y-53380477D01*
X61845363Y-53496165D01*
X61845352Y-53496174D01*
X61706174Y-53635352D01*
X61706165Y-53635363D01*
X61590477Y-53794593D01*
X61590474Y-53794598D01*
X61522760Y-53927495D01*
X61471151Y-53984813D01*
X61397798Y-54008647D01*
X61322356Y-53992611D01*
X61265038Y-53941002D01*
X61257240Y-53927495D01*
X61208285Y-53831416D01*
X61189524Y-53794595D01*
X61073828Y-53635354D01*
X60934646Y-53496172D01*
X60775405Y-53380476D01*
X60765010Y-53375179D01*
X60600036Y-53291121D01*
X60600030Y-53291119D01*
X60600025Y-53291116D01*
X60412826Y-53230291D01*
X60218417Y-53199500D01*
X60021583Y-53199500D01*
X59827174Y-53230291D01*
X59698962Y-53271950D01*
X59639975Y-53291116D01*
X59639972Y-53291117D01*
X59639963Y-53291121D01*
X59464598Y-53380474D01*
X59464593Y-53380477D01*
X59305363Y-53496165D01*
X59305352Y-53496174D01*
X59166174Y-53635352D01*
X59166165Y-53635363D01*
X59050477Y-53794593D01*
X59050474Y-53794598D01*
X58982760Y-53927495D01*
X58931151Y-53984813D01*
X58857798Y-54008647D01*
X58782356Y-53992611D01*
X58725038Y-53941002D01*
X58717240Y-53927495D01*
X58668285Y-53831416D01*
X58649524Y-53794595D01*
X58533828Y-53635354D01*
X58394646Y-53496172D01*
X58235405Y-53380476D01*
X58225010Y-53375179D01*
X58060036Y-53291121D01*
X58060030Y-53291119D01*
X58060025Y-53291116D01*
X57872826Y-53230291D01*
X57678417Y-53199500D01*
X57481583Y-53199500D01*
X57287174Y-53230291D01*
X57158962Y-53271950D01*
X57099975Y-53291116D01*
X57099972Y-53291117D01*
X57099963Y-53291121D01*
X56924598Y-53380474D01*
X56924593Y-53380477D01*
X56765363Y-53496165D01*
X56765352Y-53496174D01*
X56626174Y-53635352D01*
X56626165Y-53635363D01*
X56510477Y-53794593D01*
X56510474Y-53794598D01*
X56442760Y-53927495D01*
X56391151Y-53984813D01*
X56317798Y-54008647D01*
X56242356Y-53992611D01*
X56185038Y-53941002D01*
X56177240Y-53927495D01*
X56128285Y-53831416D01*
X56109524Y-53794595D01*
X55993828Y-53635354D01*
X55854646Y-53496172D01*
X55695405Y-53380476D01*
X55685010Y-53375179D01*
X55520036Y-53291121D01*
X55520030Y-53291119D01*
X55520025Y-53291116D01*
X55332826Y-53230291D01*
X55138417Y-53199500D01*
X54941583Y-53199500D01*
X54747174Y-53230291D01*
X54618962Y-53271950D01*
X54559975Y-53291116D01*
X54559972Y-53291117D01*
X54559963Y-53291121D01*
X54384598Y-53380474D01*
X54384593Y-53380477D01*
X54225363Y-53496165D01*
X54225352Y-53496174D01*
X54086169Y-53635357D01*
X54020042Y-53726374D01*
X53960102Y-53774912D01*
X53883923Y-53786977D01*
X53811918Y-53759336D01*
X53763380Y-53699396D01*
X53750499Y-53638793D01*
X53750499Y-53568481D01*
X53739047Y-53496172D01*
X53735646Y-53474696D01*
X53678050Y-53361658D01*
X53588342Y-53271950D01*
X53475305Y-53214354D01*
X53459673Y-53211878D01*
X53381519Y-53199500D01*
X53381514Y-53199500D01*
X51618481Y-53199500D01*
X51524695Y-53214354D01*
X51524693Y-53214355D01*
X51411657Y-53271950D01*
X51321950Y-53361657D01*
X51264354Y-53474694D01*
X51260952Y-53496174D01*
X51249500Y-53568481D01*
X51249500Y-53568482D01*
X51249500Y-53568485D01*
X51249500Y-55331518D01*
X51263639Y-55420789D01*
X51264354Y-55425304D01*
X51321950Y-55538342D01*
X51411658Y-55628050D01*
X51411660Y-55628051D01*
X51414970Y-55630456D01*
X51418826Y-55635218D01*
X51419950Y-55636342D01*
X51419831Y-55636460D01*
X51463508Y-55690396D01*
X51475574Y-55766575D01*
X51447934Y-55838580D01*
X51387994Y-55887118D01*
X51327390Y-55900000D01*
X50649500Y-55900000D01*
X50575000Y-55880038D01*
X50520462Y-55825500D01*
X50500500Y-55751000D01*
X50500500Y-52005316D01*
X50500880Y-51994687D01*
X50512174Y-51836776D01*
X50515003Y-51797223D01*
X50518025Y-51776198D01*
X50558975Y-51587951D01*
X50564963Y-51567559D01*
X50632283Y-51387066D01*
X50641115Y-51367728D01*
X50733439Y-51198649D01*
X50744910Y-51180798D01*
X50860377Y-51026552D01*
X50874281Y-51010507D01*
X51010507Y-50874281D01*
X51026552Y-50860377D01*
X51180798Y-50744910D01*
X51198649Y-50733439D01*
X51367731Y-50641113D01*
X51387062Y-50632284D01*
X51567564Y-50564961D01*
X51587951Y-50558975D01*
X51776198Y-50518025D01*
X51797223Y-50515003D01*
X51972644Y-50502456D01*
X51994688Y-50500880D01*
X52005317Y-50500500D01*
X52065892Y-50500500D01*
X147934108Y-50500500D01*
X147994683Y-50500500D01*
X148005312Y-50500880D01*
G37*
G04 #@! TD.AperFunction*
M02*
