%TF.GenerationSoftware,KiCad,Pcbnew,10.0.6*%
%TF.CreationDate,2026-09-27T08:27:46-07:00*%
%TF.ProjectId,outdoor-carrier,6f757464-6f6f-4722-9d63-617272696572,A*%
%TF.SameCoordinates,Original*%
%TF.FileFunction,Drillmap*%
%TF.FilePolarity,Positive*%
%FSLAX45Y45*%
G04 Gerber Fmt 4.5, Leading zero omitted, Abs format (unit mm)*
G04 Created by KiCad (PCBNEW 10.0.6) date 2026-09-27 08:27:46*
%MOMM*%
%LPD*%
G01*
G04 APERTURE LIST*
%ADD10C,0.100000*%
%ADD11C,0.200000*%
%ADD12C,0.320000*%
G04 APERTURE END LIST*
D10*
X5000000Y-5200000D02*
G75*
G02*
X5200000Y-5000000I200000J0D01*
G01*
X5000000Y-14800000D02*
X5000000Y-5200000D01*
X5200000Y-5000000D02*
X14800000Y-5000000D01*
X5200000Y-15000000D02*
G75*
G02*
X5000000Y-14800000I0J200000D01*
G01*
X14800000Y-5000000D02*
G75*
G02*
X15000000Y-5200000I0J-200000D01*
G01*
X14800000Y-15000000D02*
X5200000Y-15000000D01*
X15000000Y-5200000D02*
X15000000Y-14800000D01*
X15000000Y-14800000D02*
G75*
G02*
X14800000Y-15000000I-200000J0D01*
G01*
D11*
D12*
X5190000Y-8540000D02*
X5510000Y-8860000D01*
X5510000Y-8540000D02*
X5190000Y-8860000D01*
X5190000Y-14490000D02*
X5510000Y-14810000D01*
X5510000Y-14490000D02*
X5190000Y-14810000D01*
X14490000Y-5190000D02*
X14810000Y-5510000D01*
X14810000Y-5190000D02*
X14490000Y-5510000D01*
X14490000Y-14490000D02*
X14810000Y-14810000D01*
X14810000Y-14490000D02*
X14490000Y-14810000D01*
D11*
X5255777Y-15316484D02*
X5255777Y-15116484D01*
X5255777Y-15116484D02*
X5303396Y-15116484D01*
X5303396Y-15116484D02*
X5331967Y-15126008D01*
X5331967Y-15126008D02*
X5351015Y-15145055D01*
X5351015Y-15145055D02*
X5360539Y-15164103D01*
X5360539Y-15164103D02*
X5370063Y-15202198D01*
X5370063Y-15202198D02*
X5370063Y-15230769D01*
X5370063Y-15230769D02*
X5360539Y-15268865D01*
X5360539Y-15268865D02*
X5351015Y-15287912D01*
X5351015Y-15287912D02*
X5331967Y-15306960D01*
X5331967Y-15306960D02*
X5303396Y-15316484D01*
X5303396Y-15316484D02*
X5255777Y-15316484D01*
X5455777Y-15316484D02*
X5455777Y-15183150D01*
X5455777Y-15221246D02*
X5465301Y-15202198D01*
X5465301Y-15202198D02*
X5474824Y-15192674D01*
X5474824Y-15192674D02*
X5493872Y-15183150D01*
X5493872Y-15183150D02*
X5512920Y-15183150D01*
X5579586Y-15316484D02*
X5579586Y-15183150D01*
X5579586Y-15116484D02*
X5570063Y-15126008D01*
X5570063Y-15126008D02*
X5579586Y-15135531D01*
X5579586Y-15135531D02*
X5589110Y-15126008D01*
X5589110Y-15126008D02*
X5579586Y-15116484D01*
X5579586Y-15116484D02*
X5579586Y-15135531D01*
X5703396Y-15316484D02*
X5684348Y-15306960D01*
X5684348Y-15306960D02*
X5674824Y-15287912D01*
X5674824Y-15287912D02*
X5674824Y-15116484D01*
X5808158Y-15316484D02*
X5789110Y-15306960D01*
X5789110Y-15306960D02*
X5779586Y-15287912D01*
X5779586Y-15287912D02*
X5779586Y-15116484D01*
X6036729Y-15316484D02*
X6036729Y-15116484D01*
X6036729Y-15116484D02*
X6103396Y-15259341D01*
X6103396Y-15259341D02*
X6170062Y-15116484D01*
X6170062Y-15116484D02*
X6170062Y-15316484D01*
X6351015Y-15316484D02*
X6351015Y-15211722D01*
X6351015Y-15211722D02*
X6341491Y-15192674D01*
X6341491Y-15192674D02*
X6322443Y-15183150D01*
X6322443Y-15183150D02*
X6284348Y-15183150D01*
X6284348Y-15183150D02*
X6265301Y-15192674D01*
X6351015Y-15306960D02*
X6331967Y-15316484D01*
X6331967Y-15316484D02*
X6284348Y-15316484D01*
X6284348Y-15316484D02*
X6265301Y-15306960D01*
X6265301Y-15306960D02*
X6255777Y-15287912D01*
X6255777Y-15287912D02*
X6255777Y-15268865D01*
X6255777Y-15268865D02*
X6265301Y-15249817D01*
X6265301Y-15249817D02*
X6284348Y-15240293D01*
X6284348Y-15240293D02*
X6331967Y-15240293D01*
X6331967Y-15240293D02*
X6351015Y-15230769D01*
X6446253Y-15183150D02*
X6446253Y-15383150D01*
X6446253Y-15192674D02*
X6465301Y-15183150D01*
X6465301Y-15183150D02*
X6503396Y-15183150D01*
X6503396Y-15183150D02*
X6522443Y-15192674D01*
X6522443Y-15192674D02*
X6531967Y-15202198D01*
X6531967Y-15202198D02*
X6541491Y-15221246D01*
X6541491Y-15221246D02*
X6541491Y-15278388D01*
X6541491Y-15278388D02*
X6531967Y-15297436D01*
X6531967Y-15297436D02*
X6522443Y-15306960D01*
X6522443Y-15306960D02*
X6503396Y-15316484D01*
X6503396Y-15316484D02*
X6465301Y-15316484D01*
X6465301Y-15316484D02*
X6446253Y-15306960D01*
X6627205Y-15297436D02*
X6636729Y-15306960D01*
X6636729Y-15306960D02*
X6627205Y-15316484D01*
X6627205Y-15316484D02*
X6617682Y-15306960D01*
X6617682Y-15306960D02*
X6627205Y-15297436D01*
X6627205Y-15297436D02*
X6627205Y-15316484D01*
X6627205Y-15192674D02*
X6636729Y-15202198D01*
X6636729Y-15202198D02*
X6627205Y-15211722D01*
X6627205Y-15211722D02*
X6617682Y-15202198D01*
X6617682Y-15202198D02*
X6627205Y-15192674D01*
X6627205Y-15192674D02*
X6627205Y-15211722D01*
X4795000Y-15545000D02*
X4995000Y-15745000D01*
X4995000Y-15545000D02*
X4795000Y-15745000D01*
X5236729Y-15536484D02*
X5360539Y-15536484D01*
X5360539Y-15536484D02*
X5293872Y-15612674D01*
X5293872Y-15612674D02*
X5322444Y-15612674D01*
X5322444Y-15612674D02*
X5341491Y-15622198D01*
X5341491Y-15622198D02*
X5351015Y-15631722D01*
X5351015Y-15631722D02*
X5360539Y-15650769D01*
X5360539Y-15650769D02*
X5360539Y-15698388D01*
X5360539Y-15698388D02*
X5351015Y-15717436D01*
X5351015Y-15717436D02*
X5341491Y-15726960D01*
X5341491Y-15726960D02*
X5322444Y-15736484D01*
X5322444Y-15736484D02*
X5265301Y-15736484D01*
X5265301Y-15736484D02*
X5246253Y-15726960D01*
X5246253Y-15726960D02*
X5236729Y-15717436D01*
X5446253Y-15717436D02*
X5455777Y-15726960D01*
X5455777Y-15726960D02*
X5446253Y-15736484D01*
X5446253Y-15736484D02*
X5436729Y-15726960D01*
X5436729Y-15726960D02*
X5446253Y-15717436D01*
X5446253Y-15717436D02*
X5446253Y-15736484D01*
X5531967Y-15555531D02*
X5541491Y-15546008D01*
X5541491Y-15546008D02*
X5560539Y-15536484D01*
X5560539Y-15536484D02*
X5608158Y-15536484D01*
X5608158Y-15536484D02*
X5627205Y-15546008D01*
X5627205Y-15546008D02*
X5636729Y-15555531D01*
X5636729Y-15555531D02*
X5646253Y-15574579D01*
X5646253Y-15574579D02*
X5646253Y-15593627D01*
X5646253Y-15593627D02*
X5636729Y-15622198D01*
X5636729Y-15622198D02*
X5522444Y-15736484D01*
X5522444Y-15736484D02*
X5646253Y-15736484D01*
X5770062Y-15536484D02*
X5789110Y-15536484D01*
X5789110Y-15536484D02*
X5808158Y-15546008D01*
X5808158Y-15546008D02*
X5817682Y-15555531D01*
X5817682Y-15555531D02*
X5827205Y-15574579D01*
X5827205Y-15574579D02*
X5836729Y-15612674D01*
X5836729Y-15612674D02*
X5836729Y-15660293D01*
X5836729Y-15660293D02*
X5827205Y-15698388D01*
X5827205Y-15698388D02*
X5817682Y-15717436D01*
X5817682Y-15717436D02*
X5808158Y-15726960D01*
X5808158Y-15726960D02*
X5789110Y-15736484D01*
X5789110Y-15736484D02*
X5770062Y-15736484D01*
X5770062Y-15736484D02*
X5751015Y-15726960D01*
X5751015Y-15726960D02*
X5741491Y-15717436D01*
X5741491Y-15717436D02*
X5731967Y-15698388D01*
X5731967Y-15698388D02*
X5722443Y-15660293D01*
X5722443Y-15660293D02*
X5722443Y-15612674D01*
X5722443Y-15612674D02*
X5731967Y-15574579D01*
X5731967Y-15574579D02*
X5741491Y-15555531D01*
X5741491Y-15555531D02*
X5751015Y-15546008D01*
X5751015Y-15546008D02*
X5770062Y-15536484D01*
X5960539Y-15536484D02*
X5979586Y-15536484D01*
X5979586Y-15536484D02*
X5998634Y-15546008D01*
X5998634Y-15546008D02*
X6008158Y-15555531D01*
X6008158Y-15555531D02*
X6017682Y-15574579D01*
X6017682Y-15574579D02*
X6027205Y-15612674D01*
X6027205Y-15612674D02*
X6027205Y-15660293D01*
X6027205Y-15660293D02*
X6017682Y-15698388D01*
X6017682Y-15698388D02*
X6008158Y-15717436D01*
X6008158Y-15717436D02*
X5998634Y-15726960D01*
X5998634Y-15726960D02*
X5979586Y-15736484D01*
X5979586Y-15736484D02*
X5960539Y-15736484D01*
X5960539Y-15736484D02*
X5941491Y-15726960D01*
X5941491Y-15726960D02*
X5931967Y-15717436D01*
X5931967Y-15717436D02*
X5922443Y-15698388D01*
X5922443Y-15698388D02*
X5912920Y-15660293D01*
X5912920Y-15660293D02*
X5912920Y-15612674D01*
X5912920Y-15612674D02*
X5922443Y-15574579D01*
X5922443Y-15574579D02*
X5931967Y-15555531D01*
X5931967Y-15555531D02*
X5941491Y-15546008D01*
X5941491Y-15546008D02*
X5960539Y-15536484D01*
X6112920Y-15736484D02*
X6112920Y-15603150D01*
X6112920Y-15622198D02*
X6122443Y-15612674D01*
X6122443Y-15612674D02*
X6141491Y-15603150D01*
X6141491Y-15603150D02*
X6170063Y-15603150D01*
X6170063Y-15603150D02*
X6189110Y-15612674D01*
X6189110Y-15612674D02*
X6198634Y-15631722D01*
X6198634Y-15631722D02*
X6198634Y-15736484D01*
X6198634Y-15631722D02*
X6208158Y-15612674D01*
X6208158Y-15612674D02*
X6227205Y-15603150D01*
X6227205Y-15603150D02*
X6255777Y-15603150D01*
X6255777Y-15603150D02*
X6274824Y-15612674D01*
X6274824Y-15612674D02*
X6284348Y-15631722D01*
X6284348Y-15631722D02*
X6284348Y-15736484D01*
X6379586Y-15736484D02*
X6379586Y-15603150D01*
X6379586Y-15622198D02*
X6389110Y-15612674D01*
X6389110Y-15612674D02*
X6408158Y-15603150D01*
X6408158Y-15603150D02*
X6436729Y-15603150D01*
X6436729Y-15603150D02*
X6455777Y-15612674D01*
X6455777Y-15612674D02*
X6465301Y-15631722D01*
X6465301Y-15631722D02*
X6465301Y-15736484D01*
X6465301Y-15631722D02*
X6474824Y-15612674D01*
X6474824Y-15612674D02*
X6493872Y-15603150D01*
X6493872Y-15603150D02*
X6522443Y-15603150D01*
X6522443Y-15603150D02*
X6541491Y-15612674D01*
X6541491Y-15612674D02*
X6551015Y-15631722D01*
X6551015Y-15631722D02*
X6551015Y-15736484D01*
X6941491Y-15526960D02*
X6770063Y-15784103D01*
X7198634Y-15536484D02*
X7217682Y-15536484D01*
X7217682Y-15536484D02*
X7236729Y-15546008D01*
X7236729Y-15546008D02*
X7246253Y-15555531D01*
X7246253Y-15555531D02*
X7255777Y-15574579D01*
X7255777Y-15574579D02*
X7265301Y-15612674D01*
X7265301Y-15612674D02*
X7265301Y-15660293D01*
X7265301Y-15660293D02*
X7255777Y-15698388D01*
X7255777Y-15698388D02*
X7246253Y-15717436D01*
X7246253Y-15717436D02*
X7236729Y-15726960D01*
X7236729Y-15726960D02*
X7217682Y-15736484D01*
X7217682Y-15736484D02*
X7198634Y-15736484D01*
X7198634Y-15736484D02*
X7179586Y-15726960D01*
X7179586Y-15726960D02*
X7170063Y-15717436D01*
X7170063Y-15717436D02*
X7160539Y-15698388D01*
X7160539Y-15698388D02*
X7151015Y-15660293D01*
X7151015Y-15660293D02*
X7151015Y-15612674D01*
X7151015Y-15612674D02*
X7160539Y-15574579D01*
X7160539Y-15574579D02*
X7170063Y-15555531D01*
X7170063Y-15555531D02*
X7179586Y-15546008D01*
X7179586Y-15546008D02*
X7198634Y-15536484D01*
X7351015Y-15717436D02*
X7360539Y-15726960D01*
X7360539Y-15726960D02*
X7351015Y-15736484D01*
X7351015Y-15736484D02*
X7341491Y-15726960D01*
X7341491Y-15726960D02*
X7351015Y-15717436D01*
X7351015Y-15717436D02*
X7351015Y-15736484D01*
X7551015Y-15736484D02*
X7436729Y-15736484D01*
X7493872Y-15736484D02*
X7493872Y-15536484D01*
X7493872Y-15536484D02*
X7474825Y-15565055D01*
X7474825Y-15565055D02*
X7455777Y-15584103D01*
X7455777Y-15584103D02*
X7436729Y-15593627D01*
X7627206Y-15555531D02*
X7636729Y-15546008D01*
X7636729Y-15546008D02*
X7655777Y-15536484D01*
X7655777Y-15536484D02*
X7703396Y-15536484D01*
X7703396Y-15536484D02*
X7722444Y-15546008D01*
X7722444Y-15546008D02*
X7731967Y-15555531D01*
X7731967Y-15555531D02*
X7741491Y-15574579D01*
X7741491Y-15574579D02*
X7741491Y-15593627D01*
X7741491Y-15593627D02*
X7731967Y-15622198D01*
X7731967Y-15622198D02*
X7617682Y-15736484D01*
X7617682Y-15736484D02*
X7741491Y-15736484D01*
X7912920Y-15536484D02*
X7874825Y-15536484D01*
X7874825Y-15536484D02*
X7855777Y-15546008D01*
X7855777Y-15546008D02*
X7846253Y-15555531D01*
X7846253Y-15555531D02*
X7827206Y-15584103D01*
X7827206Y-15584103D02*
X7817682Y-15622198D01*
X7817682Y-15622198D02*
X7817682Y-15698388D01*
X7817682Y-15698388D02*
X7827206Y-15717436D01*
X7827206Y-15717436D02*
X7836729Y-15726960D01*
X7836729Y-15726960D02*
X7855777Y-15736484D01*
X7855777Y-15736484D02*
X7893872Y-15736484D01*
X7893872Y-15736484D02*
X7912920Y-15726960D01*
X7912920Y-15726960D02*
X7922444Y-15717436D01*
X7922444Y-15717436D02*
X7931967Y-15698388D01*
X7931967Y-15698388D02*
X7931967Y-15650769D01*
X7931967Y-15650769D02*
X7922444Y-15631722D01*
X7922444Y-15631722D02*
X7912920Y-15622198D01*
X7912920Y-15622198D02*
X7893872Y-15612674D01*
X7893872Y-15612674D02*
X7855777Y-15612674D01*
X7855777Y-15612674D02*
X7836729Y-15622198D01*
X7836729Y-15622198D02*
X7827206Y-15631722D01*
X7827206Y-15631722D02*
X7817682Y-15650769D01*
X8055777Y-15536484D02*
X8074825Y-15536484D01*
X8074825Y-15536484D02*
X8093872Y-15546008D01*
X8093872Y-15546008D02*
X8103396Y-15555531D01*
X8103396Y-15555531D02*
X8112920Y-15574579D01*
X8112920Y-15574579D02*
X8122444Y-15612674D01*
X8122444Y-15612674D02*
X8122444Y-15660293D01*
X8122444Y-15660293D02*
X8112920Y-15698388D01*
X8112920Y-15698388D02*
X8103396Y-15717436D01*
X8103396Y-15717436D02*
X8093872Y-15726960D01*
X8093872Y-15726960D02*
X8074825Y-15736484D01*
X8074825Y-15736484D02*
X8055777Y-15736484D01*
X8055777Y-15736484D02*
X8036729Y-15726960D01*
X8036729Y-15726960D02*
X8027206Y-15717436D01*
X8027206Y-15717436D02*
X8017682Y-15698388D01*
X8017682Y-15698388D02*
X8008158Y-15660293D01*
X8008158Y-15660293D02*
X8008158Y-15612674D01*
X8008158Y-15612674D02*
X8017682Y-15574579D01*
X8017682Y-15574579D02*
X8027206Y-15555531D01*
X8027206Y-15555531D02*
X8036729Y-15546008D01*
X8036729Y-15546008D02*
X8055777Y-15536484D01*
X8198634Y-15536484D02*
X8198634Y-15574579D01*
X8274825Y-15536484D02*
X8274825Y-15574579D01*
X8570063Y-15812674D02*
X8560539Y-15803150D01*
X8560539Y-15803150D02*
X8541491Y-15774579D01*
X8541491Y-15774579D02*
X8531968Y-15755531D01*
X8531968Y-15755531D02*
X8522444Y-15726960D01*
X8522444Y-15726960D02*
X8512920Y-15679341D01*
X8512920Y-15679341D02*
X8512920Y-15641246D01*
X8512920Y-15641246D02*
X8522444Y-15593627D01*
X8522444Y-15593627D02*
X8531968Y-15565055D01*
X8531968Y-15565055D02*
X8541491Y-15546008D01*
X8541491Y-15546008D02*
X8560539Y-15517436D01*
X8560539Y-15517436D02*
X8570063Y-15507912D01*
X8731968Y-15603150D02*
X8731968Y-15736484D01*
X8684349Y-15526960D02*
X8636730Y-15669817D01*
X8636730Y-15669817D02*
X8760539Y-15669817D01*
X8989111Y-15736484D02*
X8989111Y-15536484D01*
X9074825Y-15736484D02*
X9074825Y-15631722D01*
X9074825Y-15631722D02*
X9065301Y-15612674D01*
X9065301Y-15612674D02*
X9046253Y-15603150D01*
X9046253Y-15603150D02*
X9017682Y-15603150D01*
X9017682Y-15603150D02*
X8998634Y-15612674D01*
X8998634Y-15612674D02*
X8989111Y-15622198D01*
X9198634Y-15736484D02*
X9179587Y-15726960D01*
X9179587Y-15726960D02*
X9170063Y-15717436D01*
X9170063Y-15717436D02*
X9160539Y-15698388D01*
X9160539Y-15698388D02*
X9160539Y-15641246D01*
X9160539Y-15641246D02*
X9170063Y-15622198D01*
X9170063Y-15622198D02*
X9179587Y-15612674D01*
X9179587Y-15612674D02*
X9198634Y-15603150D01*
X9198634Y-15603150D02*
X9227206Y-15603150D01*
X9227206Y-15603150D02*
X9246253Y-15612674D01*
X9246253Y-15612674D02*
X9255777Y-15622198D01*
X9255777Y-15622198D02*
X9265301Y-15641246D01*
X9265301Y-15641246D02*
X9265301Y-15698388D01*
X9265301Y-15698388D02*
X9255777Y-15717436D01*
X9255777Y-15717436D02*
X9246253Y-15726960D01*
X9246253Y-15726960D02*
X9227206Y-15736484D01*
X9227206Y-15736484D02*
X9198634Y-15736484D01*
X9379587Y-15736484D02*
X9360539Y-15726960D01*
X9360539Y-15726960D02*
X9351015Y-15707912D01*
X9351015Y-15707912D02*
X9351015Y-15536484D01*
X9531968Y-15726960D02*
X9512920Y-15736484D01*
X9512920Y-15736484D02*
X9474825Y-15736484D01*
X9474825Y-15736484D02*
X9455777Y-15726960D01*
X9455777Y-15726960D02*
X9446253Y-15707912D01*
X9446253Y-15707912D02*
X9446253Y-15631722D01*
X9446253Y-15631722D02*
X9455777Y-15612674D01*
X9455777Y-15612674D02*
X9474825Y-15603150D01*
X9474825Y-15603150D02*
X9512920Y-15603150D01*
X9512920Y-15603150D02*
X9531968Y-15612674D01*
X9531968Y-15612674D02*
X9541492Y-15631722D01*
X9541492Y-15631722D02*
X9541492Y-15650769D01*
X9541492Y-15650769D02*
X9446253Y-15669817D01*
X9617682Y-15726960D02*
X9636730Y-15736484D01*
X9636730Y-15736484D02*
X9674825Y-15736484D01*
X9674825Y-15736484D02*
X9693873Y-15726960D01*
X9693873Y-15726960D02*
X9703396Y-15707912D01*
X9703396Y-15707912D02*
X9703396Y-15698388D01*
X9703396Y-15698388D02*
X9693873Y-15679341D01*
X9693873Y-15679341D02*
X9674825Y-15669817D01*
X9674825Y-15669817D02*
X9646253Y-15669817D01*
X9646253Y-15669817D02*
X9627206Y-15660293D01*
X9627206Y-15660293D02*
X9617682Y-15641246D01*
X9617682Y-15641246D02*
X9617682Y-15631722D01*
X9617682Y-15631722D02*
X9627206Y-15612674D01*
X9627206Y-15612674D02*
X9646253Y-15603150D01*
X9646253Y-15603150D02*
X9674825Y-15603150D01*
X9674825Y-15603150D02*
X9693873Y-15612674D01*
X9770063Y-15812674D02*
X9779587Y-15803150D01*
X9779587Y-15803150D02*
X9798634Y-15774579D01*
X9798634Y-15774579D02*
X9808158Y-15755531D01*
X9808158Y-15755531D02*
X9817682Y-15726960D01*
X9817682Y-15726960D02*
X9827206Y-15679341D01*
X9827206Y-15679341D02*
X9827206Y-15641246D01*
X9827206Y-15641246D02*
X9817682Y-15593627D01*
X9817682Y-15593627D02*
X9808158Y-15565055D01*
X9808158Y-15565055D02*
X9798634Y-15546008D01*
X9798634Y-15546008D02*
X9779587Y-15517436D01*
X9779587Y-15517436D02*
X9770063Y-15507912D01*
X10131968Y-15812674D02*
X10122444Y-15803150D01*
X10122444Y-15803150D02*
X10103396Y-15774579D01*
X10103396Y-15774579D02*
X10093873Y-15755531D01*
X10093873Y-15755531D02*
X10084349Y-15726960D01*
X10084349Y-15726960D02*
X10074825Y-15679341D01*
X10074825Y-15679341D02*
X10074825Y-15641246D01*
X10074825Y-15641246D02*
X10084349Y-15593627D01*
X10084349Y-15593627D02*
X10093873Y-15565055D01*
X10093873Y-15565055D02*
X10103396Y-15546008D01*
X10103396Y-15546008D02*
X10122444Y-15517436D01*
X10122444Y-15517436D02*
X10131968Y-15507912D01*
X10208158Y-15603150D02*
X10208158Y-15736484D01*
X10208158Y-15622198D02*
X10217682Y-15612674D01*
X10217682Y-15612674D02*
X10236730Y-15603150D01*
X10236730Y-15603150D02*
X10265301Y-15603150D01*
X10265301Y-15603150D02*
X10284349Y-15612674D01*
X10284349Y-15612674D02*
X10293873Y-15631722D01*
X10293873Y-15631722D02*
X10293873Y-15736484D01*
X10417682Y-15736484D02*
X10398634Y-15726960D01*
X10398634Y-15726960D02*
X10389111Y-15717436D01*
X10389111Y-15717436D02*
X10379587Y-15698388D01*
X10379587Y-15698388D02*
X10379587Y-15641246D01*
X10379587Y-15641246D02*
X10389111Y-15622198D01*
X10389111Y-15622198D02*
X10398634Y-15612674D01*
X10398634Y-15612674D02*
X10417682Y-15603150D01*
X10417682Y-15603150D02*
X10446254Y-15603150D01*
X10446254Y-15603150D02*
X10465301Y-15612674D01*
X10465301Y-15612674D02*
X10474825Y-15622198D01*
X10474825Y-15622198D02*
X10484349Y-15641246D01*
X10484349Y-15641246D02*
X10484349Y-15698388D01*
X10484349Y-15698388D02*
X10474825Y-15717436D01*
X10474825Y-15717436D02*
X10465301Y-15726960D01*
X10465301Y-15726960D02*
X10446254Y-15736484D01*
X10446254Y-15736484D02*
X10417682Y-15736484D01*
X10541492Y-15603150D02*
X10617682Y-15603150D01*
X10570063Y-15536484D02*
X10570063Y-15707912D01*
X10570063Y-15707912D02*
X10579587Y-15726960D01*
X10579587Y-15726960D02*
X10598634Y-15736484D01*
X10598634Y-15736484D02*
X10617682Y-15736484D01*
X10836730Y-15603150D02*
X10836730Y-15803150D01*
X10836730Y-15612674D02*
X10855777Y-15603150D01*
X10855777Y-15603150D02*
X10893873Y-15603150D01*
X10893873Y-15603150D02*
X10912920Y-15612674D01*
X10912920Y-15612674D02*
X10922444Y-15622198D01*
X10922444Y-15622198D02*
X10931968Y-15641246D01*
X10931968Y-15641246D02*
X10931968Y-15698388D01*
X10931968Y-15698388D02*
X10922444Y-15717436D01*
X10922444Y-15717436D02*
X10912920Y-15726960D01*
X10912920Y-15726960D02*
X10893873Y-15736484D01*
X10893873Y-15736484D02*
X10855777Y-15736484D01*
X10855777Y-15736484D02*
X10836730Y-15726960D01*
X11046254Y-15736484D02*
X11027206Y-15726960D01*
X11027206Y-15726960D02*
X11017682Y-15707912D01*
X11017682Y-15707912D02*
X11017682Y-15536484D01*
X11208158Y-15736484D02*
X11208158Y-15631722D01*
X11208158Y-15631722D02*
X11198634Y-15612674D01*
X11198634Y-15612674D02*
X11179587Y-15603150D01*
X11179587Y-15603150D02*
X11141492Y-15603150D01*
X11141492Y-15603150D02*
X11122444Y-15612674D01*
X11208158Y-15726960D02*
X11189111Y-15736484D01*
X11189111Y-15736484D02*
X11141492Y-15736484D01*
X11141492Y-15736484D02*
X11122444Y-15726960D01*
X11122444Y-15726960D02*
X11112920Y-15707912D01*
X11112920Y-15707912D02*
X11112920Y-15688865D01*
X11112920Y-15688865D02*
X11122444Y-15669817D01*
X11122444Y-15669817D02*
X11141492Y-15660293D01*
X11141492Y-15660293D02*
X11189111Y-15660293D01*
X11189111Y-15660293D02*
X11208158Y-15650769D01*
X11274825Y-15603150D02*
X11351015Y-15603150D01*
X11303396Y-15536484D02*
X11303396Y-15707912D01*
X11303396Y-15707912D02*
X11312920Y-15726960D01*
X11312920Y-15726960D02*
X11331968Y-15736484D01*
X11331968Y-15736484D02*
X11351015Y-15736484D01*
X11493873Y-15726960D02*
X11474825Y-15736484D01*
X11474825Y-15736484D02*
X11436730Y-15736484D01*
X11436730Y-15736484D02*
X11417682Y-15726960D01*
X11417682Y-15726960D02*
X11408158Y-15707912D01*
X11408158Y-15707912D02*
X11408158Y-15631722D01*
X11408158Y-15631722D02*
X11417682Y-15612674D01*
X11417682Y-15612674D02*
X11436730Y-15603150D01*
X11436730Y-15603150D02*
X11474825Y-15603150D01*
X11474825Y-15603150D02*
X11493873Y-15612674D01*
X11493873Y-15612674D02*
X11503396Y-15631722D01*
X11503396Y-15631722D02*
X11503396Y-15650769D01*
X11503396Y-15650769D02*
X11408158Y-15669817D01*
X11674825Y-15736484D02*
X11674825Y-15536484D01*
X11674825Y-15726960D02*
X11655777Y-15736484D01*
X11655777Y-15736484D02*
X11617682Y-15736484D01*
X11617682Y-15736484D02*
X11598634Y-15726960D01*
X11598634Y-15726960D02*
X11589111Y-15717436D01*
X11589111Y-15717436D02*
X11579587Y-15698388D01*
X11579587Y-15698388D02*
X11579587Y-15641246D01*
X11579587Y-15641246D02*
X11589111Y-15622198D01*
X11589111Y-15622198D02*
X11598634Y-15612674D01*
X11598634Y-15612674D02*
X11617682Y-15603150D01*
X11617682Y-15603150D02*
X11655777Y-15603150D01*
X11655777Y-15603150D02*
X11674825Y-15612674D01*
X11751015Y-15812674D02*
X11760539Y-15803150D01*
X11760539Y-15803150D02*
X11779587Y-15774579D01*
X11779587Y-15774579D02*
X11789111Y-15755531D01*
X11789111Y-15755531D02*
X11798634Y-15726960D01*
X11798634Y-15726960D02*
X11808158Y-15679341D01*
X11808158Y-15679341D02*
X11808158Y-15641246D01*
X11808158Y-15641246D02*
X11798634Y-15593627D01*
X11798634Y-15593627D02*
X11789111Y-15565055D01*
X11789111Y-15565055D02*
X11779587Y-15546008D01*
X11779587Y-15546008D02*
X11760539Y-15517436D01*
X11760539Y-15517436D02*
X11751015Y-15507912D01*
M02*
