M48
; DRILL file KiCad 10.0.6 date 2026-09-27T08:27:46
; FORMAT={-:-/ absolute / metric / decimal}
; #@! TF.CreationDate,2026-09-27T08:27:46-07:00
; #@! TF.GenerationSoftware,Kicad,Pcbnew,10.0.6
; #@! TF.FileFunction,Plated,1,2,PTH
FMAT,2
METRIC
; #@! TA.AperFunction,Plated,PTH,ViaDrill
T1C0.300
; #@! TA.AperFunction,Plated,PTH,ComponentDrill
T2C0.800
; #@! TA.AperFunction,Plated,PTH,ComponentDrill
T3C0.950
; #@! TA.AperFunction,Plated,PTH,ComponentDrill
T4C1.000
; #@! TA.AperFunction,Plated,PTH,ComponentDrill
T5C1.050
; #@! TA.AperFunction,Plated,PTH,ComponentDrill
T6C1.100
; #@! TA.AperFunction,Plated,PTH,ComponentDrill
T7C1.200
%
G90
G05
T1
X60.215Y-112.843
X61.142Y-55.36
X66.109Y-101.473
X76.82Y-129.0
X79.774Y-102.298
X94.872Y-99.325
X105.654Y-133.891
X110.393Y-98.448
X115.119Y-113.739
X115.7Y-112.284
T2
X67.0Y-89.5
X69.0Y-111.95
X69.5Y-89.5
X71.5Y-111.95
X72.6Y-89.5
X74.6Y-111.95
X75.1Y-89.5
X77.1Y-111.95
X78.2Y-89.5
X80.2Y-111.95
X80.7Y-89.5
X82.7Y-111.95
X83.8Y-89.5
X86.0Y-124.5
X86.0Y-129.5
X86.0Y-134.5
X86.3Y-89.5
X86.5Y-95.0
X86.5Y-105.16
X86.5Y-109.5
X86.5Y-119.66
X92.1Y-95.0
X92.1Y-105.16
X92.1Y-109.5
X92.1Y-119.66
X96.16Y-124.5
X96.16Y-129.5
X96.16Y-134.5
X97.7Y-95.0
X97.7Y-105.16
X97.7Y-109.5
X97.7Y-119.66
X103.3Y-95.0
X103.3Y-105.16
X103.3Y-109.5
X103.3Y-119.66
X110.0Y-82.2
X112.0Y-108.0
X112.0Y-118.16
X112.0Y-121.5
X112.0Y-131.66
X112.5Y-82.2
X116.88Y-110.92
X116.88Y-113.46
X116.88Y-116.0
X116.88Y-123.92
X116.88Y-126.46
X116.88Y-129.0
X121.5Y-119.6
X121.5Y-132.6
X124.5Y-110.92
X124.5Y-113.46
X124.5Y-116.0
X124.5Y-123.92
X124.5Y-126.46
X124.5Y-129.0
X134.2Y-119.6
X134.2Y-132.6
T3
X62.82Y-145.5
X65.32Y-145.5
X67.82Y-145.5
X79.7Y-145.5
X82.2Y-145.5
X84.7Y-145.5
X96.58Y-145.5
X99.08Y-145.5
X101.58Y-145.5
T4
X52.5Y-54.45
X52.5Y-79.85
X55.04Y-54.45
X55.04Y-79.85
X56.5Y-94.5
X56.5Y-115.5
X57.58Y-54.45
X57.58Y-79.85
X59.04Y-94.5
X59.04Y-115.5
X60.12Y-54.45
X60.12Y-79.85
X61.58Y-94.5
X61.58Y-115.5
X62.66Y-54.45
X62.66Y-79.85
X64.12Y-94.5
X64.12Y-115.5
X65.2Y-54.45
X65.2Y-79.85
X66.66Y-94.5
X66.66Y-115.5
X67.74Y-54.45
X67.74Y-79.85
X69.2Y-94.5
X69.2Y-115.5
X70.28Y-54.45
X70.28Y-79.85
X71.74Y-94.5
X71.74Y-115.5
X72.82Y-54.45
X72.82Y-79.85
X74.28Y-94.5
X74.28Y-115.5
X75.36Y-54.45
X75.36Y-79.85
X76.82Y-94.5
X76.82Y-115.5
X77.9Y-54.45
X77.9Y-79.85
X79.36Y-94.5
X79.36Y-115.5
X80.44Y-54.45
X80.44Y-79.85
X82.98Y-54.45
X82.98Y-79.85
X85.52Y-54.45
X85.52Y-79.85
X88.06Y-54.45
X88.06Y-79.85
X107.75Y-86.125
X107.75Y-103.875
X112.17Y-145.5
X114.67Y-145.5
X123.89Y-145.5
X126.0Y-78.0
X126.39Y-145.5
X131.0Y-78.0
X135.29Y-145.5
X137.79Y-145.5
X147.25Y-86.125
X147.25Y-103.875
T5
X110.0Y-65.5
X115.0Y-65.5
X125.0Y-65.5
X130.0Y-65.5
T6
X110.34Y-72.5
X120.5Y-72.5
T7
X134.92Y-58.54
X140.0Y-58.54
X141.46Y-108.92
X141.46Y-114.0
X141.46Y-120.48
X141.46Y-125.56
X141.46Y-130.64
X141.46Y-135.72
M30
