G04 #@! TF.GenerationSoftware,KiCad,Pcbnew,10.0.6*
G04 #@! TF.CreationDate,2026-09-27T08:27:46-07:00*
G04 #@! TF.ProjectId,outdoor-carrier,6f757464-6f6f-4722-9d63-617272696572,A*
G04 #@! TF.SameCoordinates,Original*
G04 #@! TF.FileFunction,Soldermask,Top*
G04 #@! TF.FilePolarity,Negative*
%FSLAX46Y46*%
G04 Gerber Fmt 4.6, Leading zero omitted, Abs format (unit mm)*
G04 Created by KiCad (PCBNEW 10.0.6) date 2026-09-27 08:27:46*
%MOMM*%
%LPD*%
G01*
G04 APERTURE LIST*
G04 Aperture macros list*
%AMRoundRect*
0 Rectangle with rounded corners*
0 $1 Rounding radius*
0 $2 $3 $4 $5 $6 $7 $8 $9 X,Y pos of 4 corners*
0 Add a 4 corners polygon primitive as box body*
4,1,4,$2,$3,$4,$5,$6,$7,$8,$9,$2,$3,0*
0 Add four circle primitives for the rounded corners*
1,1,$1+$1,$2,$3*
1,1,$1+$1,$4,$5*
1,1,$1+$1,$6,$7*
1,1,$1+$1,$8,$9*
0 Add four rect primitives between the rounded corners*
20,1,$1+$1,$2,$3,$4,$5,0*
20,1,$1+$1,$4,$5,$6,$7,0*
20,1,$1+$1,$6,$7,$8,$9,0*
20,1,$1+$1,$8,$9,$2,$3,0*%
G04 Aperture macros list end*
%ADD10C,1.600000*%
%ADD11R,1.700000X1.700000*%
%ADD12O,1.700000X1.700000*%
%ADD13RoundRect,0.250000X1.550000X-0.650000X1.550000X0.650000X-1.550000X0.650000X-1.550000X-0.650000X0*%
%ADD14O,3.600000X1.800000*%
%ADD15C,3.200000*%
%ADD16RoundRect,0.250000X0.550000X0.550000X-0.550000X0.550000X-0.550000X-0.550000X0.550000X-0.550000X0*%
%ADD17RoundRect,0.250000X-0.600000X-0.725000X0.600000X-0.725000X0.600000X0.725000X-0.600000X0.725000X0*%
%ADD18O,1.700000X1.950000*%
%ADD19RoundRect,0.250000X-0.600000X-0.750000X0.600000X-0.750000X0.600000X0.750000X-0.600000X0.750000X0*%
%ADD20O,1.700000X2.000000*%
%ADD21RoundRect,0.250000X-0.750000X-0.750000X0.750000X-0.750000X0.750000X0.750000X-0.750000X0.750000X0*%
%ADD22C,2.000000*%
%ADD23RoundRect,0.250000X-1.500000X-0.900000X1.500000X-0.900000X1.500000X0.900000X-1.500000X0.900000X0*%
%ADD24RoundRect,0.500000X0.500000X0.500000X-0.500000X0.500000X-0.500000X-0.500000X0.500000X-0.500000X0*%
%ADD25RoundRect,0.250000X0.650000X1.550000X-0.650000X1.550000X-0.650000X-1.550000X0.650000X-1.550000X0*%
%ADD26O,1.800000X3.600000*%
%ADD27RoundRect,0.249999X0.850001X0.850001X-0.850001X0.850001X-0.850001X-0.850001X0.850001X-0.850001X0*%
%ADD28C,2.200000*%
G04 APERTURE END LIST*
D10*
X92100000Y-95000000D03*
X92100000Y-105160000D03*
X72600000Y-89500000D03*
X75100000Y-89500000D03*
X97700000Y-109500000D03*
X97700000Y-119660000D03*
D11*
X56500000Y-94500000D03*
D12*
X59040000Y-94500000D03*
X61580000Y-94500000D03*
X64120000Y-94500000D03*
X66660000Y-94500000D03*
X69200000Y-94500000D03*
X71740000Y-94500000D03*
X74280000Y-94500000D03*
X76820000Y-94500000D03*
X79360000Y-94500000D03*
D10*
X86500000Y-109500000D03*
X86500000Y-119660000D03*
D13*
X141460000Y-114000000D03*
D14*
X141460000Y-108920000D03*
D15*
X146500000Y-53500000D03*
X53500000Y-87000000D03*
X53500000Y-146500000D03*
D16*
X124500000Y-116000000D03*
D10*
X124500000Y-113460000D03*
X124500000Y-110920000D03*
X116880000Y-110920000D03*
X116880000Y-113460000D03*
X116880000Y-116000000D03*
X112000000Y-121500000D03*
X112000000Y-131660000D03*
X92100000Y-109500000D03*
X92100000Y-119660000D03*
D17*
X96580000Y-145500000D03*
D18*
X99080000Y-145500000D03*
X101580000Y-145500000D03*
D10*
X69000000Y-111950000D03*
X71500000Y-111950000D03*
D17*
X62820000Y-145500000D03*
D18*
X65320000Y-145500000D03*
X67820000Y-145500000D03*
D11*
X52500000Y-79850000D03*
D12*
X55040000Y-79850000D03*
X57580000Y-79850000D03*
X60120000Y-79850000D03*
X62660000Y-79850000D03*
X65200000Y-79850000D03*
X67740000Y-79850000D03*
X70280000Y-79850000D03*
X72820000Y-79850000D03*
X75360000Y-79850000D03*
X77900000Y-79850000D03*
X80440000Y-79850000D03*
X82980000Y-79850000D03*
X85520000Y-79850000D03*
X88060000Y-79850000D03*
D11*
X52500000Y-54450000D03*
D12*
X55040000Y-54450000D03*
X57580000Y-54450000D03*
X60120000Y-54450000D03*
X62660000Y-54450000D03*
X65200000Y-54450000D03*
X67740000Y-54450000D03*
X70280000Y-54450000D03*
X72820000Y-54450000D03*
X75360000Y-54450000D03*
X77900000Y-54450000D03*
X80440000Y-54450000D03*
X82980000Y-54450000D03*
X85520000Y-54450000D03*
X88060000Y-54450000D03*
D10*
X67000000Y-89500000D03*
X69500000Y-89500000D03*
X103300000Y-95000000D03*
X103300000Y-105160000D03*
D15*
X146500000Y-146500000D03*
D19*
X123890000Y-145500000D03*
D20*
X126390000Y-145500000D03*
D10*
X74600000Y-111950000D03*
X77100000Y-111950000D03*
X80200000Y-111950000D03*
X82700000Y-111950000D03*
D11*
X107750000Y-86125000D03*
D12*
X107750000Y-103875000D03*
X147250000Y-86125000D03*
X147250000Y-103875000D03*
D10*
X134200000Y-119600000D03*
X121500000Y-119600000D03*
X110000000Y-82200000D03*
X112500000Y-82200000D03*
D21*
X126000000Y-78000000D03*
D22*
X131000000Y-78000000D03*
D11*
X56500000Y-115500000D03*
D12*
X59040000Y-115500000D03*
X61580000Y-115500000D03*
X64120000Y-115500000D03*
X66660000Y-115500000D03*
X69200000Y-115500000D03*
X71740000Y-115500000D03*
X74280000Y-115500000D03*
X76820000Y-115500000D03*
X79360000Y-115500000D03*
D10*
X86000000Y-124500000D03*
X96160000Y-124500000D03*
X83800000Y-89500000D03*
X86300000Y-89500000D03*
D19*
X135290000Y-145500000D03*
D20*
X137790000Y-145500000D03*
D10*
X86000000Y-134500000D03*
X96160000Y-134500000D03*
D17*
X79700000Y-145500000D03*
D18*
X82200000Y-145500000D03*
X84700000Y-145500000D03*
D10*
X86500000Y-95000000D03*
X86500000Y-105160000D03*
D16*
X124500000Y-129000000D03*
D10*
X124500000Y-126460000D03*
X124500000Y-123920000D03*
X116880000Y-123920000D03*
X116880000Y-126460000D03*
X116880000Y-129000000D03*
D19*
X112170000Y-145500000D03*
D20*
X114670000Y-145500000D03*
D10*
X86000000Y-129500000D03*
X96160000Y-129500000D03*
X97700000Y-95000000D03*
X97700000Y-105160000D03*
X134200000Y-132600000D03*
X121500000Y-132600000D03*
D23*
X111800000Y-78000000D03*
X117200000Y-78000000D03*
D10*
X103300000Y-109500000D03*
X103300000Y-119660000D03*
X112000000Y-108000000D03*
X112000000Y-118160000D03*
X78200000Y-89500000D03*
X80700000Y-89500000D03*
D13*
X141460000Y-135720000D03*
D14*
X141460000Y-130640000D03*
X141460000Y-125560000D03*
X141460000Y-120480000D03*
D24*
X130000000Y-65500000D03*
X125000000Y-65500000D03*
D22*
X115000000Y-65500000D03*
X110000000Y-65500000D03*
D25*
X140000000Y-58540000D03*
D26*
X134920000Y-58540000D03*
D27*
X120500000Y-72500000D03*
D28*
X110340000Y-72500000D03*
M02*
